<?xml version="1.0" standalone="no"?>
<!DOCTYPE svg PUBLIC "-//W3C//DTD SVG 1.1//EN" "http://www.w3.org/Graphics/SVG/1.1/DTD/svg11.dtd" >
<svg xmlns="http://www.w3.org/2000/svg" xmlns:xlink="http://www.w3.org/1999/xlink" version="1.1">
<metadata></metadata>
<defs>
<font id="cloudbold" horiz-adv-x="0" >
<font-face units-per-em="1000" ascent="750" descent="-250" />
<missing-glyph horiz-adv-x="310" />
<glyph unicode="&#x3b;&#x3b;For&#x20;Education&#x20;Used&#x20;Only&#x3b;&#x3b;" horiz-adv-x="840" d="M421 -10q-149 0 -255 106t-106 255q0 148 106 253.5t255 105.5q148 0 253.5 -105.5t105.5 -253.5q0 -149 -105.5 -255t-253.5 -106zM421 73q115 0 195.5 81t80.5 197t-80.5 197t-195.5 81t-195.5 -81t-80.5 -197t80.5 -197t195.5 -81zM500 296l114 -57 q-49 -119 -193 -119q-103 0 -158.5 62.5t-55.5 168.5t55 167.5t159 61.5q133 0 184 -99l-101 -74q-22 60 -83 60q-86 0 -86 -116q0 -118 86 -118q31 0 49 15.5t30 47.5z" />
<glyph unicode="&#x3b;&#x3b;Registered&#x3b;&#x3b;" horiz-adv-x="530" d="M30 475q0 97 69 166t166 69t166 -69t69 -166t-69 -166t-166 -69t-166 69t-69 166zM75 475q0 -79 55.5 -134.5t134.5 -55.5t134.5 55.5t55.5 134.5t-55.5 134.5t-134.5 55.5t-134.5 -55.5t-55.5 -134.5zM382 528q0 -57 -55 -79l65 -110h-91l-59 101h-2v-101h-84v273h120 q51 0 78.5 -25t27.5 -59zM240 551v-50h35q23 0 23 24q0 26 -23 26h-35z" />
<glyph unicode="&#x3b;&#x3b;Multiply&#x3b;&#x3b;" horiz-adv-x="466" d="M120 518l100 -100l101 100l100 -96l-102 -102l102 -101l-100 -96l-101 99l-100 -99l-100 96l102 101l-102 102z" />
<glyph unicode="&#x3b;&#x3b;Divide&#x3b;&#x3b;" horiz-adv-x="466" d="M30 375h400v-110h-400v110zM173 420v105h115v-105h-115zM173 115v105h115v-105h-115z" />
<glyph unicode="&#x2018;&#x2018;" horiz-adv-x="366" d="M336 470h-134v51q0 116 50 189l75 -22q-34 -43 -43 -95h52v-123zM164 470h-134v51q0 116 50 189l74 -22q-34 -43 -43 -95h53v-123z" />
<glyph unicode="&#x2019;&#x2019;" horiz-adv-x="366" d="M30 700h134v-51q0 -116 -50 -189l-74 22q34 45 41 95h-51v123zM202 700h134v-51q0 -118 -50 -189l-74 22q33 42 42 95h-52v123z" />
<glyph unicode="&#x3b;&#x3b;Trademark&#x3b;&#x3b;" horiz-adv-x="593" d="M566 465h-84v79l-31 -79h-57l-31 79v-79h-84v235h114l29 -83l31 83h113v-235zM249 624h-64v-159h-102v159h-63v76h229v-76z" />
<glyph unicode="&#xe24;&#xe32;" horiz-adv-x="786" d="M348 -200v505q0 49 -19.5 67.5t-58.5 18.5q-17 0 -51 -4l28 -54q-33 -21 -42.5 -48t-9.5 -87v-79h83v-119h-152q-43 0 -57.5 14.5t-14.5 55.5v143q0 65 8.5 90t41.5 52l-66 127q133 28 223 28t141 -25q69 25 129 25q92 0 146.5 -48.5t54.5 -155.5v-506h-141v503 q0 88 -63 88q-23 0 -47 -6q8 -35 8 -76v-509h-141z" />
<glyph unicode="&#xe26;&#xe32;" horiz-adv-x="786" d="M54 182v31q0 65 8.5 90t41.5 52l-66 127q133 28 223 28t141 -25q69 25 129 25q92 0 146.5 -48.5t54.5 -155.5v-506h-141v503q0 88 -63 88q-23 0 -47 -6q8 -35 8 -76v-509h-141v505q0 49 -19.5 67.5t-58.5 18.5q-17 0 -51 -4l28 -54q-33 -21 -42.5 -48t-9.5 -87v-106 q0 -54 -20 -73t-78 -19h-87v119h67z" />
<glyph unicode=" "  horiz-adv-x="310" />
<glyph unicode="&#x09;" horiz-adv-x="310" />
<glyph unicode="&#xa0;" horiz-adv-x="310" />
<glyph unicode="!" horiz-adv-x="238" d="M190 700v-489h-141v489h141zM49 0v139h141v-139h-141z" />
<glyph unicode="&#x22;" horiz-adv-x="365" d="M163 617l-10 -147h-119l-10 147v83h139v-83zM341 617l-10 -147h-120l-10 147v83h140v-83z" />
<glyph unicode="#" horiz-adv-x="665" d="M326 0l22 169h-76l-22 -169h-140l22 169h-95v119h110l17 124h-106v119h121l23 169h140l-23 -169h76l23 169h140l-23 -169h93v-119h-108l-17 -124h104v-119h-119l-22 -169h-140zM304 412l-17 -124h76l17 124h-76z" />
<glyph unicode="$" horiz-adv-x="616" d="M549 195q0 -169 -173 -199v-90h-141v89q-91 11 -169 57l52 114q94 -57 188 -57q102 0 102 73q0 32 -34 50.5t-82.5 30.5t-97.5 29.5t-83 61t-34 112.5q0 72 43 115.5t115 57.5v91h141v-89q78 -11 150 -45l-42 -112q-86 43 -167 43q-99 0 -99 -60q0 -29 24.5 -46.5 t61.5 -24.5t79.5 -19.5t79.5 -29t61.5 -55.5t24.5 -97z" />
<glyph unicode="%" horiz-adv-x="826" d="M98 0l468 700h161l-468 -700h-161zM353 537q0 -81 -42 -127t-113 -46t-113 46t-42 127t42 127t113 46t113 -46t42 -127zM171 537q0 -55 27 -55t27 55t-27 55t-27 -55zM782 163q0 -81 -42 -127t-113 -46t-113 46t-42 127t42 127t113 46t113 -46t42 -127zM600 163 q0 -55 27 -55t27 55t-27 55t-27 -55z" />
<glyph unicode="&#x26;" horiz-adv-x="730" d="M519 561l-135 -41q-15 71 -61 71q-22 0 -35 -12.5t-13 -34.5q0 -23 14.5 -48t47.5 -69l110 -148l65 154h172v-119h-72l-36 -85q-21 -48 -36 -74q36 -46 70 -46q24 0 54 24l41 -114q-64 -29 -117 -29q-78 0 -135 56q-71 -56 -185 -56q-113 0 -168 58.5t-55 135.5 q0 135 139 216q-50 78 -50 147q0 79 50 121t135 42q84 0 135.5 -39t64.5 -110zM271 109q56 0 98 42l-112 149q-71 -43 -71 -109q0 -32 20.5 -57t64.5 -25z" />
<glyph unicode="'" horiz-adv-x="187" d="M163 617l-10 -147h-119l-10 147v83h139v-83z" />
<glyph unicode="(" horiz-adv-x="299" d="M47 305q0 151 30 247.5t96 157.5l122 -60q-58 -52 -82.5 -132.5t-24.5 -212.5t24.5 -212.5t82.5 -132.5l-122 -60q-66 61 -96 157.5t-30 247.5z" />
<glyph unicode=")" horiz-adv-x="299" d="M252 305q0 -151 -30 -247.5t-96 -157.5l-122 60q58 52 82.5 132.5t24.5 212.5t-24.5 212.5t-82.5 132.5l122 60q66 -61 96 -157.5t30 -247.5z" />
<glyph unicode="*" horiz-adv-x="399" d="M40 439l50 67l-76 25l49 121l75 -35l-4 83h133l-5 -83l74 35l49 -121l-76 -25l52 -67l-108 -77l-53 84l-53 -84z" />
<glyph unicode="+" horiz-adv-x="466" d="M303 525v-137h136v-136h-136v-137h-141v137h-135v136h135v137h141z" />
<glyph unicode="," horiz-adv-x="183" d="M35 112h114v-78q0 -54 -13 -89.5t-42 -74.5l-74 12q47 61 54 118h-39v112z" />
<glyph unicode="-" horiz-adv-x="301" d="M27 316h247v-119h-247v119z" />
<glyph unicode="." horiz-adv-x="183" d="M35 0v112h114v-112h-114z" />
<glyph unicode="/" horiz-adv-x="504" d="M351 700h153l-351 -800h-153z" />
<glyph unicode="0" horiz-adv-x="599" d="M168 350q0 -119 28 -174t103 -55q76 0 104 55t28 174q0 125 -28 183t-104 58q-75 0 -103 -58t-28 -183zM572 350q0 -189 -62.5 -274.5t-210.5 -85.5t-210 85.5t-62 274.5t62 274.5t210 85.5t210.5 -85.5t62.5 -274.5z" />
<glyph unicode="1" horiz-adv-x="599" d="M310 710h77v-591h137v-119h-415v119h137v423l-115 -53l-48 118z" />
<glyph unicode="2" horiz-adv-x="599" d="M192 475l-141 30q9 97 78 151t175 54q101 0 165.5 -51.5t64.5 -129.5q0 -81 -36.5 -136.5t-142.5 -164.5l-12 -12l-82 -85h302v-131h-528v94l244 252q71 74 91 105q23 38 23 71q0 69 -93 69q-103 0 -108 -116z" />
<glyph unicode="3" horiz-adv-x="599" d="M36 199l141 31q4 -53 36 -87t89 -34q56 0 88 26.5t32 75.5q0 96 -150 96h-96v119h99q126 0 126 91q0 74 -100 74q-97 0 -105 -80l-141 24q13 81 79.5 128t162.5 47q105 0 175 -43.5t70 -126.5q0 -107 -91 -167q112 -54 112 -164q0 -107 -72 -163t-189 -56q-108 0 -182 55 t-84 154z" />
<glyph unicode="4" horiz-adv-x="599" d="M348 710l121 -60l-269 -422h144v170h141v-170h92v-119h-92v-109h-141v109h-322v91z" />
<glyph unicode="5" horiz-adv-x="599" d="M36 200l133 38q4 -57 42 -93t89 -36q54 0 87.5 34.5t33.5 96.5q0 50 -25 83.5t-82 33.5q-48 0 -95 -29h-142l18 372h429v-124h-295l-6 -120q58 20 118 20q99 0 160 -57.5t61 -178.5q0 -124 -71 -187t-195 -63q-97 0 -171.5 55.5t-88.5 154.5z" />
<glyph unicode="6" horiz-adv-x="599" d="M536 604l-109 -82q-43 69 -116 69q-60 0 -93.5 -44t-33.5 -124q60 48 142 48q102 0 166 -59t64 -169q0 -48 -13.5 -91.5t-41.5 -80.5t-78 -59t-115 -22q-134 0 -200 90.5t-66 252.5q0 173 70.5 275t203.5 102q135 0 220 -106zM298 109q62 0 89.5 34.5t27.5 86.5t-28 87 t-89 35t-88 -35t-27 -87t27.5 -86.5t87.5 -34.5z" />
<glyph unicode="7" horiz-adv-x="599" d="M301 0h-152l239 569h-357v131h537v-67z" />
<glyph unicode="8" horiz-adv-x="599" d="M299 -10q-123 0 -184 57.5t-61 150.5q0 121 95 175q-70 52 -70 156q0 82 54.5 131.5t165.5 49.5q112 0 166.5 -49.5t54.5 -131.5q0 -102 -70 -156q95 -55 95 -175q0 -93 -61 -150.5t-185 -57.5zM299 109q54 0 79.5 28.5t25.5 77.5q0 42 -26 69t-79 27q-52 0 -78 -27 t-26 -69q0 -49 25.5 -77.5t78.5 -28.5zM299 430q80 0 80 84q0 77 -80 77q-79 0 -79 -77q0 -84 79 -84z" />
<glyph unicode="9" horiz-adv-x="599" d="M62 96l109 82q43 -69 116 -69q60 0 93.5 44t33.5 124q-60 -48 -142 -48q-102 0 -166 59t-64 169q0 48 13.5 91.5t41.5 80.5t78 59t115 22q134 0 200 -90.5t66 -252.5q0 -173 -70.5 -275t-203.5 -102q-135 0 -220 106zM300 591q-62 0 -89.5 -34.5t-27.5 -86.5t28 -87 t89 -35t88 35t27 87t-27.5 86.5t-87.5 34.5z" />
<glyph unicode=":" horiz-adv-x="183" d="M35 0v112h114v-112h-114zM35 388v112h114v-112h-114z" />
<glyph unicode=";" horiz-adv-x="183" d="M35 112h114v-49q0 -72 -11.5 -111t-43.5 -82l-74 12q47 61 54 118h-39v112zM35 388v112h114v-112h-114z" />
<glyph unicode="&#x3c;" horiz-adv-x="466" d="M412 473l-199 -160l199 -160v-163l-359 279v89l359 279v-164z" />
<glyph unicode="=" horiz-adv-x="466" d="M27 486h412v-136h-412v136zM27 290h412v-136h-412v136z" />
<glyph unicode="&#x3e;" horiz-adv-x="466" d="M54 -10v163l199 160l-199 160v164l359 -279v-89z" />
<glyph unicode="?" horiz-adv-x="505" d="M175 503l-142 34q10 84 70.5 128.5t151.5 44.5q87 0 146 -42t59 -131q0 -48 -19.5 -92t-43.5 -72.5t-49 -72.5t-34 -90h-141q6 45 23 85t37 68t39.5 54t32.5 55t13 59q0 29 -17.5 44.5t-44.5 15.5q-78 0 -81 -88zM173 0v139h141v-139h-141z" />
<glyph unicode="@" horiz-adv-x="821" d="M587 418v-175q0 -95 27 -95q9 0 17 11.5t14.5 42t6.5 74.5q0 107 -64.5 169.5t-177.5 62.5q-127 0 -184.5 -70.5t-57.5 -188.5t57.5 -188.5t184.5 -70.5q94 0 162 33l40 -99q-94 -40 -202 -40q-178 0 -270.5 99t-92.5 266t92.5 266t270.5 99q170 0 267 -89t97 -249 q0 -42 -8.5 -82t-26 -77t-50.5 -59.5t-77 -22.5q-37 0 -64 20t-38 50q-45 -70 -131 -70q-77 0 -122.5 54t-45.5 149q0 112 51.5 169.5t147.5 57.5q80 0 177 -47zM386 148q73 0 73 151v41q-21 12 -46 12q-74 0 -74 -114q0 -42 13.5 -66t33.5 -24z" />
<glyph unicode="A" horiz-adv-x="696" d="M527 0l-54 151h-250l-54 -151h-152l256 700h150l256 -700h-152zM347 496l-79 -226h159z" />
<glyph unicode="B" horiz-adv-x="601" d="M552 518q0 -111 -86 -165q95 -41 95 -154q0 -104 -58 -151.5t-182 -47.5h-262v700h262q231 0 231 -182zM302 290h-102v-171h101q61 0 90 21.5t29 72.5q0 42 -28.5 59.5t-89.5 17.5zM200 581v-172h102q55 0 82 21.5t27 69.5q0 43 -28 62t-85 19h-98z" />
<glyph unicode="C" horiz-adv-x="683" d="M513 248l136 -38q-31 -115 -108.5 -167.5t-186.5 -52.5q-310 0 -310 359q0 99 24 171t67.5 112.5t97.5 59t121 18.5q225 0 290 -201l-133 -43q-30 125 -157 125q-169 0 -169 -242q0 -133 45.5 -186.5t123.5 -53.5q57 0 100 33t59 106z" />
<glyph unicode="D" horiz-adv-x="668" d="M276 0h-217v700h204q75 0 132.5 -10.5t97 -32.5t65.5 -51t40.5 -71t20 -87t5.5 -105q0 -81 -15 -139.5t-52.5 -106.5t-107.5 -72.5t-173 -24.5zM263 581h-63v-462h79q65 0 107 15t62.5 47t27.5 68.5t7 93.5q0 67 -6.5 105t-28 71.5t-66.5 47.5t-119 14z" />
<glyph unicode="E" horiz-adv-x="564" d="M499 291h-299v-172h324v-119h-465v700h455v-119h-314v-171h299v-119z" />
<glyph unicode="F" horiz-adv-x="514" d="M200 0h-141v700h415v-119h-274v-181h259v-119h-259v-281z" />
<glyph unicode="G" horiz-adv-x="697" d="M322 390h331v-84q0 -155 -79 -235.5t-215 -80.5q-68 0 -122 18t-99 58t-69.5 112t-24.5 171t24.5 171.5t69.5 112.5t99.5 58.5t121.5 18.5q220 0 285 -202l-130 -41q-35 124 -155 124q-174 0 -174 -242q0 -240 174 -240q68 0 106.5 35.5t44.5 126.5h-188v119z" />
<glyph unicode="H" horiz-adv-x="673" d="M200 700v-300h273v300h141v-700h-141v281h-273v-281h-141v700h141z" />
<glyph unicode="I" horiz-adv-x="382" d="M333 700v-119h-72v-462h72v-119h-285v119h72v462h-72v119h285z" />
<glyph unicode="J" horiz-adv-x="391" d="M140 127q51 0 51 69v385h-84v119h225v-511q0 -99 -47 -149t-125 -50q-91 0 -155 63l63 115q36 -41 72 -41z" />
<glyph unicode="K" horiz-adv-x="636" d="M200 700v-288l238 288h180l-241 -287q54 -26 88.5 -68t64.5 -113l97 -232h-154l-82 198q-21 48 -42 73.5t-56 41.5l-93 -112v-201h-141v700h141z" />
<glyph unicode="L" horiz-adv-x="524" d="M200 700v-581h285v-119h-426v700h141z" />
<glyph unicode="M" horiz-adv-x="815" d="M86 700h146l175 -463l175 463h147l37 -700h-141l-19 369l-141 -369h-115l-141 369l-19 -369h-141z" />
<glyph unicode="N" horiz-adv-x="668" d="M59 700h128l281 -424v424h141v-700h-128l-281 423v-423h-141v700z" />
<glyph unicode="O" horiz-adv-x="709" d="M354 109q83 0 126.5 53.5t43.5 187.5t-43.5 187.5t-126.5 53.5q-82 0 -125.5 -53.5t-43.5 -187.5t43.5 -187.5t125.5 -53.5zM354 -10q-150 0 -230 82.5t-80 277.5t80 277.5t230 82.5t230.5 -82.5t80.5 -277.5t-80.5 -277.5t-230.5 -82.5z" />
<glyph unicode="P" horiz-adv-x="584" d="M287 259h-87v-259h-141v700h227q250 0 250 -211q0 -120 -62 -175t-187 -55zM287 581h-87v-203h87q56 0 82 24t26 87q0 53 -25.5 72.5t-82.5 19.5z" />
<glyph unicode="Q" horiz-adv-x="709" d="M615 -120q-112 0 -178.5 24t-123.5 88q-130 10 -199.5 93t-69.5 265q0 195 80 277.5t230 82.5t230.5 -82.5t80.5 -277.5q0 -264 -160 -333q44 -18 156 -18zM354 109q83 0 126.5 53.5t43.5 187.5t-43.5 187.5t-126.5 53.5q-82 0 -125.5 -53.5t-43.5 -187.5t43.5 -187.5 t125.5 -53.5z" />
<glyph unicode="R" horiz-adv-x="583" d="M536 501q0 -167 -144 -205l173 -296h-161l-166 285h-38v-285h-141v700h238q116 0 177.5 -52t61.5 -147zM297 581h-97v-177h97q52 0 75 20.5t23 72.5q0 39 -25 61.5t-73 22.5z" />
<glyph unicode="S" horiz-adv-x="603" d="M560 204q0 -114 -71.5 -164t-191.5 -50q-139 0 -258 68l55 113q55 -36 98 -49t104 -13q123 0 123 91q0 30 -20 49t-52 28.5t-70.5 17.5t-77 22t-70.5 36t-52 65t-20 104q0 92 68.5 140t175.5 48q131 0 243 -55l-47 -112q-92 48 -196 48q-46 0 -74.5 -17.5t-28.5 -51.5 t20 -55.5t52 -32t70.5 -18t77 -20t70.5 -32.5t52 -61t20 -99z" />
<glyph unicode="T" horiz-adv-x="588" d="M551 581h-187v-581h-141v581h-187v119h515v-119z" />
<glyph unicode="U" horiz-adv-x="683" d="M624 700v-474q0 -82 -42.5 -137t-104 -77t-136.5 -22q-118 0 -200 58.5t-82 177.5v474h141v-474q0 -60 40.5 -88.5t100.5 -28.5t101 28.5t41 88.5v474h141z" />
<glyph unicode="V" horiz-adv-x="681" d="M340 241l173 459h151l-266 -700h-115l-266 700h151z" />
<glyph unicode="W" horiz-adv-x="1011" d="M430 700h151l133 -431l133 431h147l-216 -700h-128l-145 468l-144 -468h-128l-216 700h147l133 -431z" />
<glyph unicode="X" horiz-adv-x="661" d="M631 700l-218 -339l232 -361h-167l-148 231l-148 -231h-167l231 361l-217 339h167l134 -209l134 209h167z" />
<glyph unicode="Y" horiz-adv-x="597" d="M17 700h159l122 -231l123 231h159l-211 -391v-309h-141v309z" />
<glyph unicode="Z" horiz-adv-x="622" d="M566 639l-322 -515h337v-124h-541v61l321 515h-306v124h511v-61z" />
<glyph unicode="[" horiz-adv-x="299" d="M50 700h218v-119h-77v-562h77v-119h-218v800z" />
<glyph unicode="\" horiz-adv-x="504" d="M0 700h153l351 -800h-153z" />
<glyph unicode="]" horiz-adv-x="299" d="M30 700h218v-800h-218v119h77v562h-77v119z" />
<glyph unicode="^" horiz-adv-x="555" d="M383 400l-106 157l-105 -157h-165l206 300h129l206 -300h-165z" />
<glyph unicode="_" horiz-adv-x="508" d="M33 0h442v-119h-442v119z" />
<glyph unicode="`" horiz-adv-x="214" d="M170 535l-162 116l100 84l98 -168z" />
<glyph unicode="a" horiz-adv-x="523" d="M475 0h-142q-9 26 -10 49q-50 -59 -132 -59q-80 0 -123 41.5t-43 119.5q0 151 208 151q41 0 90 -7v37q0 59 -64 59q-48 0 -59 -44l-153 18q12 67 71 106t142 39q89 0 146.5 -44t57.5 -129v-160q0 -106 11 -177zM323 204h-62q-95 0 -95 -54q0 -41 53 -41q43 0 73.5 27 t30.5 68z" />
<glyph unicode="b" horiz-adv-x="577" d="M59 182v548h141v-283q49 63 137 63q87 0 141 -64t54 -187q0 -133 -57 -201t-157 -68q-76 0 -128 59q-6 -25 -17 -49h-125q11 81 11 182zM200 222v-62q45 -51 94 -51q45 0 71 39.5t26 110.5q0 65 -23.5 98.5t-64.5 33.5q-45 0 -74 -44.5t-29 -124.5z" />
<glyph unicode="c" horiz-adv-x="528" d="M392 186l128 -57q-28 -65 -85.5 -102t-140.5 -37q-122 0 -185.5 70t-63.5 190t63.5 190t185.5 70q78 0 133.5 -32t85.5 -88l-122 -73q-36 74 -97 74q-53 0 -80.5 -37.5t-27.5 -103.5t27.5 -103.5t80.5 -37.5q30 0 57 20t41 57z" />
<glyph unicode="d" horiz-adv-x="577" d="M404 0q-11 23 -20 59q-61 -69 -143 -69q-87 0 -141.5 64t-54.5 189q0 130 57 198.5t155 68.5q71 0 120 -55v275h141v-548q0 -101 11 -182h-125zM275 109q45 0 73.5 44t28.5 125v53q-22 31 -43 45.5t-52 14.5q-43 0 -69.5 -40t-26.5 -108q0 -66 24 -100t65 -34z" />
<glyph unicode="e" horiz-adv-x="573" d="M473 150l45 -111q-102 -49 -198 -49q-128 0 -201.5 69.5t-73.5 190.5q0 120 64 190t185 70q113 0 173 -65t60 -173v-74h-336q22 -89 132 -89q65 0 150 41zM294 391q-78 0 -100 -78h191q-6 78 -91 78z" />
<glyph unicode="f" horiz-adv-x="382" d="M85 381h-67v119h67v71q0 82 45.5 125.5t125.5 43.5q41 0 95 -14l-31 -118q-28 13 -50 13q-44 0 -44 -47v-74h127v-119h-127v-381h-141v381z" />
<glyph unicode="g" horiz-adv-x="541" d="M313 0h-230v55l49 119q-87 43 -87 156q0 85 52.5 132.5t158.5 47.5q45 0 85 -10h194v-104h-78q10 -29 10 -66q0 -85 -52.5 -132.5t-158.5 -47.5h-5l-19 -46h102q91 0 129 -36t38 -103q0 -90 -64.5 -132.5t-171.5 -42.5q-140 0 -232 55l51 103q49 -26 86.5 -35t89.5 -9 q100 0 100 58q0 38 -47 38zM256 396q-70 0 -70 -66t70 -66t70 66t-70 66z" />
<glyph unicode="h" horiz-adv-x="557" d="M200 234v-234h-141v730h141v-277q56 57 139 57q76 0 117.5 -47.5t41.5 -141.5v-321h-141v318q0 73 -70 73q-87 0 -87 -157z" />
<glyph unicode="i" horiz-adv-x="280" d="M80 0v381h-58v119h133q39 0 52.5 -10.5t13.5 -44.5v-445h-141zM83 568v132h136v-132h-136z" />
<glyph unicode="j" horiz-adv-x="280" d="M144 -210l-123 69q36 47 47.5 80t11.5 90v352h-58v119h133q39 0 52.5 -10.5t13.5 -44.5v-410q0 -84 -14.5 -136t-62.5 -109zM83 568v132h136v-132h-136z" />
<glyph unicode="k" horiz-adv-x="550" d="M200 730v-394l152 164h186l-173 -183q30 -15 50.5 -42t42.5 -79l82 -196h-154l-56 135q-26 61 -59 82l-71 -76v-141h-141v730h141z" />
<glyph unicode="l" horiz-adv-x="305" d="M59 129v601h141v-568q0 -47 34 -47q16 0 35 9l20 -117q-54 -17 -100 -17q-130 0 -130 139z" />
<glyph unicode="m" horiz-adv-x="837" d="M309 510q94 0 133 -78q54 78 152 78q84 0 134 -45.5t50 -132.5v-332h-141v334q0 28 -18 42.5t-41 14.5q-89 0 -89 -128v-263h-141v328q0 30 -18.5 46.5t-44.5 16.5q-38 0 -61.5 -34t-23.5 -95v-262h-141v500h141v-50q40 60 109 60z" />
<glyph unicode="n" horiz-adv-x="557" d="M200 236v-236h-141v500h141v-47q56 57 139 57q76 0 117.5 -47.5t41.5 -141.5v-321h-141v318q0 73 -70 73q-87 0 -87 -155z" />
<glyph unicode="o" horiz-adv-x="588" d="M294 391q-53 0 -80.5 -37.5t-27.5 -103.5t27.5 -103.5t80.5 -37.5t80 37.5t27 103.5t-27 103.5t-80 37.5zM294 -10q-122 0 -185.5 70t-63.5 190t63.5 190t185.5 70q121 0 184.5 -70t63.5 -190t-63.5 -190t-184.5 -70z" />
<glyph unicode="p" horiz-adv-x="577" d="M200 -200h-141v700h141v-53q49 63 137 63q87 0 141 -64t54 -187q0 -133 -57 -201t-157 -68q-69 0 -118 49v-239zM200 222v-62q45 -51 94 -51q45 0 71 39.5t26 110.5q0 65 -23.5 98.5t-64.5 33.5q-45 0 -74 -44.5t-29 -124.5z" />
<glyph unicode="q" horiz-adv-x="577" d="M377 -200v251q-64 -61 -137 -61q-87 0 -141 64t-54 187q0 132 57 200.5t157 68.5q66 0 118 -50v40h141v-700h-141zM274 109q45 0 74 44.5t29 124.5v62q-45 51 -94 51q-45 0 -71 -39.5t-26 -110.5q0 -65 24 -98.5t64 -33.5z" />
<glyph unicode="r" horiz-adv-x="370" d="M351 500l-24 -131q-31 10 -55 10q-43 0 -57.5 -29.5t-14.5 -91.5v-258h-141v500h141v-47q36 57 96 57q26 0 55 -10z" />
<glyph unicode="s" horiz-adv-x="486" d="M434 467l-52 -114q-70 38 -135 38q-55 0 -55 -31q0 -17 26.5 -28.5t64 -22t74.5 -25.5t63.5 -47.5t26.5 -80.5q0 -84 -57 -125t-151 -41q-130 0 -210 66l65 108q81 -55 146 -55q66 0 66 37q0 20 -26.5 32.5t-63.5 22.5t-74.5 24.5t-64 48.5t-26.5 86q0 76 57 113t144 37 q104 0 182 -43z" />
<glyph unicode="t" horiz-adv-x="379" d="M85 381h-67v119h67v160h141v-160h124v-119h-124v-197q0 -40 12.5 -57.5t39.5 -17.5q29 0 62 20l29 -113q-63 -26 -117 -26q-167 0 -167 186v205z" />
<glyph unicode="u" horiz-adv-x="557" d="M357 56q-42 -66 -126 -66q-172 0 -172 190v320h141v-314q0 -38 18 -57.5t48 -19.5q42 0 66.5 39t24.5 110v242h141v-318q0 -101 11 -182h-140q-11 27 -12 56z" />
<glyph unicode="v" horiz-adv-x="532" d="M10 500h152l103 -297l105 297h151l-196 -500h-119z" />
<glyph unicode="w" horiz-adv-x="714" d="M281 0h-123l-148 500h153l59 -250l65 250h140l64 -250l60 250h153l-148 -500h-123l-76 263z" />
<glyph unicode="x" horiz-adv-x="527" d="M10 0l168 257l-158 243h171l72 -141l73 141h171l-158 -243l168 -257h-171l-83 156l-82 -156h-171z" />
<glyph unicode="y" horiz-adv-x="532" d="M87 -200l103 253l-180 447h153l103 -296l104 296h151l-282 -700h-152z" />
<glyph unicode="z" horiz-adv-x="483" d="M448 437l-212 -313h221v-124h-432v63l211 313h-202v124h414v-63z" />
<glyph unicode="{" horiz-adv-x="299" d="M218 426q0 -81 -57 -121q57 -41 57 -121v-116q0 -23 7.5 -31t28.5 -8h23v-119h-64q-75 0 -105.5 26t-30.5 90v144q0 38 -10.5 54.5t-44.5 26.5v108q34 10 44.5 26.5t10.5 54.5v144q0 64 30.5 90t105.5 26h64v-119h-23q-19 0 -27.5 -7t-8.5 -25v-123z" />
<glyph unicode="|" horiz-adv-x="286" d="M214 760v-870h-141v870h141z" />
<glyph unicode="}" horiz-adv-x="299" d="M81 184q0 81 57 121q-57 39 -57 121v116q0 23 -7.5 31t-28.5 8h-23v119h64q75 0 105.5 -26t30.5 -90v-144q0 -38 10.5 -54.5t44.5 -26.5v-108q-34 -10 -44.5 -26.5t-10.5 -54.5v-144q0 -64 -30.5 -90t-105.5 -26h-64v119h23q20 0 28 7t8 25v123z" />
<glyph unicode="~" horiz-adv-x="495" d="M329 368q10 0 14 13t4 54h121q0 -191 -134 -191q-34 0 -68.5 19t-60 38.5t-38.5 19.5q-10 0 -14.5 -13.5t-4.5 -53.5h-121q0 92 33.5 141.5t100.5 49.5q33 0 67.5 -19.5t60.5 -38.5t40 -19z" />
<glyph unicode="&#xa1;" horiz-adv-x="238" d="M190 369v-489h-141v489h141zM49 441v139h141v-139h-141z" />
<glyph unicode="&#xa2;" horiz-adv-x="616" d="M417 285l128 -57q-47 -106 -158 -132v-96h-141v97q-87 20 -131.5 86t-44.5 166t44.5 166t131.5 86v99h141v-99q102 -23 151 -112l-122 -73q-36 74 -97 74q-53 0 -80.5 -37.5t-27.5 -103.5t27.5 -103.5t80.5 -37.5q30 0 57 20t41 57z" />
<glyph unicode="&#xa3;" horiz-adv-x="616" d="M61 396h112v127q0 91 53 139t141 48q68 0 116.5 -34.5t62.5 -96.5l-114 -46q-10 58 -62 58q-56 0 -56 -71v-124h156v-119h-156v-21q0 -86 -28 -137h289v-119h-535v119q79 0 106 28t27 105v25h-112v119z" />
<glyph unicode="&#xa5;" horiz-adv-x="616" d="M26 700h159l122 -231l123 231h159l-154 -285h99v-119h-156v-43h156v-119h-156v-134h-141v134h-156v119h156v43h-156v119h99z" />
<glyph unicode="&#xa6;" horiz-adv-x="286" d="M214 760v-385h-141v385h141zM214 275v-385h-141v385h141z" />
<glyph unicode="&#xa7;" horiz-adv-x="492" d="M455 265q0 -87 -55 -142q14 -37 14 -73q0 -75 -53 -112.5t-138 -37.5q-102 0 -182 43l51 118q54 -42 122 -42q64 0 64 42q0 25 -25 46t-60.5 40t-71 42t-60.5 63.5t-25 92.5q0 85 55 142q-14 33 -14 73q0 75 53 112.5t138 37.5q102 0 182 -43l-51 -118q-54 42 -122 42 q-64 0 -64 -42q0 -25 25 -46t60.5 -40t71 -42t60.5 -63.5t25 -92.5zM314 256q0 17 -7 31t-22 27.5t-28.5 22.5t-37.5 24t-37 24q-5 -15 -5 -31q0 -17 7 -31t22 -27.5t28 -22.5t37.5 -24.5t37.5 -24.5q5 17 5 32z" />
<glyph unicode="&#xa8;" horiz-adv-x="341" d="M17 569v120h123v-120h-123zM201 569v120h123v-120h-123z" />
<glyph unicode="&#xaa;" horiz-adv-x="364" d="M58 591l-24 84q72 35 152 35q69 0 113 -31t44 -99v-102q0 -72 6 -118h-116q-3 16 -5 48q-32 -58 -102 -58q-47 0 -81.5 29.5t-34.5 78.5q0 64 45 93.5t109 29.5q29 0 64 -7q0 48 -54 48q-46 0 -116 -31zM228 505q-24 4 -44 4q-59 0 -59 -42q0 -35 34 -35q30 0 49.5 22.5 t19.5 50.5z" />
<glyph unicode="&#xab;" horiz-adv-x="516" d="M477 331l-81 -81l81 -81v-182l-214 205v116l214 205v-182zM253 331l-81 -81l81 -81v-182l-213 205v116l213 205v-182z" />
<glyph unicode="&#xac;" horiz-adv-x="466" d="M435 380v-220h-141v96h-264v124h405z" />
<glyph unicode="&#xad;" horiz-adv-x="301" d="M27 316h247v-119h-247v119z" />
<glyph unicode="&#xaf;" horiz-adv-x="336" d="M17 682h302v-113h-302v113z" />
<glyph unicode="&#xb0;" horiz-adv-x="326" d="M163 443q-133 0 -133 133q0 134 133 134t133 -134q0 -133 -133 -133zM163 538q38 0 38 38q0 41 -38 41t-38 -41q0 -38 38 -38z" />
<glyph unicode="&#xb1;" horiz-adv-x="466" d="M303 599v-137h136v-136h-136v-137h-141v137h-135v136h135v137h141zM27 136h412v-136h-412v136z" />
<glyph unicode="&#xb2;" horiz-adv-x="339" d="M130 709l-111 25q11 47 49.5 76.5t97.5 29.5q57 0 97.5 -28.5t40.5 -85.5q0 -42 -19 -72.5t-67 -80.5l-23 -23h125v-100h-303v73l104 106q38 38 52.5 58t14.5 38q0 27 -24 27q-26 0 -34 -43z" />
<glyph unicode="&#xb3;" horiz-adv-x="339" d="M14 553l102 26q1 -24 13 -37.5t32 -13.5q22 0 35.5 10t13.5 29q0 17 -13.5 28.5t-40.5 11.5h-61v88h63q38 0 38 30q0 27 -32 27q-36 0 -39 -34l-103 22q9 47 52 73.5t98 26.5q71 0 105 -29t34 -70q0 -49 -42 -84q56 -30 56 -93q0 -60 -43.5 -92t-112.5 -32 q-61 0 -103.5 29t-51.5 84z" />
<glyph unicode="&#xb4;" horiz-adv-x="214" d="M206 651l-162 -116l-36 32l98 168z" />
<glyph unicode="&#xb5;" horiz-adv-x="557" d="M357 56q-42 -66 -126 -66q-11 0 -31 2v-192h-141v700h141v-314q0 -38 18 -57.5t48 -19.5q42 0 66.5 39t24.5 110v242h141v-318q0 -101 11 -182h-140q-11 27 -12 56z" />
<glyph unicode="&#xb6;" horiz-adv-x="630" d="M573 700v-800h-141v681h-47v-681h-141v345q-115 0 -166 64t-51 163q0 228 239 228h307z" />
<glyph unicode="&#xb7;" horiz-adv-x="183" d="M35 263v112h114v-112h-114z" />
<glyph unicode="&#xb8;" horiz-adv-x="249" d="M34 -107l23 107h97l-8 -40q80 -9 80 -78q0 -51 -34 -75t-87 -24q-46 0 -97 17l23 78q33 -13 72 -13q26 0 26 13q0 15 -39 15h-56z" />
<glyph unicode="&#xb9;" horiz-adv-x="339" d="M128 840h102v-296h75v-94h-266v94h76v186l-63 -28l-37 87z" />
<glyph unicode="&#xba;" horiz-adv-x="420" d="M210 438q58 0 58 92t-58 92q-59 0 -59 -92t59 -92zM210 350q-86 0 -130 48t-44 132t44 132t130 48t129.5 -48t43.5 -132t-43.5 -132t-129.5 -48z" />
<glyph unicode="&#xbb;" horiz-adv-x="516" d="M263 -13v182l80 81l-80 81v182l214 -205v-116zM40 -13v182l80 81l-80 81v182l213 -205v-116z" />
<glyph unicode="&#xbc;" horiz-adv-x="819" d="M637 700h142l-491 -700h-142zM665 390l83 -52l-130 -204h39v50h102v-50h50v-88h-50v-46h-102v46h-169v67zM128 710h102v-296h75v-94h-266v94h76v186l-63 -28l-37 87z" />
<glyph unicode="&#xbd;" horiz-adv-x="819" d="M610 259l-111 25q11 47 49.5 76.5t97.5 29.5q57 0 97.5 -28.5t40.5 -85.5q0 -42 -19 -72.5t-67 -80.5l-23 -23h125v-100h-303v73l104 106q38 38 52.5 58t14.5 38q0 27 -24 27q-26 0 -34 -43zM128 710h102v-296h75v-94h-266v94h76v186l-63 -28l-37 87zM600 700h142 l-491 -700h-142z" />
<glyph unicode="&#xbe;" horiz-adv-x="819" d="M630 700h142l-491 -700h-142zM665 390l83 -52l-130 -204h39v50h102v-50h50v-88h-50v-46h-102v46h-169v67zM14 423l102 26q1 -24 13 -37.5t32 -13.5q22 0 35.5 10t13.5 29q0 17 -13.5 28.5t-40.5 11.5h-61v88h63q38 0 38 30q0 27 -32 27q-36 0 -39 -34l-103 22 q9 47 52 73.5t98 26.5q71 0 105 -29t34 -70q0 -49 -42 -84q56 -30 56 -93q0 -60 -43.5 -92t-112.5 -32q-61 0 -103.5 29t-51.5 84z" />
<glyph unicode="&#xbf;" horiz-adv-x="505" d="M318 77l142 -34q-10 -84 -70.5 -128.5t-151.5 -44.5q-87 0 -146 42t-59 131q0 48 19.5 92t43.5 72.5t49 72.5t34 90h141q-6 -45 -23 -85t-37 -68t-39.5 -54t-32.5 -55t-13 -59q0 -29 17.5 -44.5t44.5 -15.5q78 0 81 88zM320 580v-139h-141v139h141z" />
<glyph unicode="&#xc0;" horiz-adv-x="696" d="M527 0l-54 151h-250l-54 -151h-152l256 700h150l256 -700h-152zM347 496l-79 -226h159zM402 735l-162 116l100 84l98 -168z" />
<glyph unicode="&#xc1;" horiz-adv-x="696" d="M527 0l-54 151h-250l-54 -151h-152l256 700h150l256 -700h-152zM347 496l-79 -226h159zM467 851l-162 -116l-36 32l98 168z" />
<glyph unicode="&#xc2;" horiz-adv-x="696" d="M527 0l-54 151h-250l-54 -151h-152l256 700h150l256 -700h-152zM347 496l-79 -226h159zM311 762h-134l118 150h105l117 -150h-134l-36 46z" />
<glyph unicode="&#xc3;" horiz-adv-x="696" d="M527 0l-54 151h-250l-54 -151h-152l256 700h150l256 -700h-152zM347 496l-79 -226h159zM275 769l-87 22q16 112 94 112q27 0 67 -16.5t51 -16.5q16 0 21 33l87 -22q-16 -112 -94 -112q-27 0 -67 16.5t-51 16.5q-16 0 -21 -33z" />
<glyph unicode="&#xc4;" horiz-adv-x="696" d="M527 0l-54 151h-250l-54 -151h-152l256 700h150l256 -700h-152zM347 496l-79 -226h159zM194 769v120h123v-120h-123zM378 769v120h123v-120h-123z" />
<glyph unicode="&#xc5;" horiz-adv-x="696" d="M527 0l-54 151h-250l-54 -151h-152l256 700h150l256 -700h-152zM347 496l-79 -226h159zM348 823q25 0 25 26q0 25 -25 25t-25 -25q0 -26 25 -26zM348 755q-43 0 -69 25t-26 69t25.5 68.5t69.5 24.5q43 0 69 -24.5t26 -68.5t-26 -69t-69 -25z" />
<glyph unicode="&#xc6;" horiz-adv-x="870" d="M830 0h-420v151h-187l-54 -151h-152l256 700h547v-119h-269v-171h254v-119h-254v-172h279v-119zM380 581l-112 -311h142v311h-30z" />
<glyph unicode="&#xc7;" horiz-adv-x="683" d="M284 -107l21 100q-261 26 -261 356q0 99 24 171t67.5 112.5t97.5 59t121 18.5q225 0 290 -201l-133 -43q-30 125 -157 125q-169 0 -169 -242q0 -133 45.5 -186.5t123.5 -53.5q57 0 100 33t59 106l136 -38q-52 -195 -247 -217l-6 -33q80 -9 80 -78q0 -51 -34 -75t-87 -24 q-46 0 -97 17l23 78q33 -13 72 -13q26 0 26 13q0 15 -39 15h-56z" />
<glyph unicode="&#xc8;" horiz-adv-x="564" d="M499 291h-299v-172h324v-119h-465v700h455v-119h-314v-171h299v-119zM336 735l-162 116l100 84l98 -168z" />
<glyph unicode="&#xc9;" horiz-adv-x="564" d="M499 291h-299v-172h324v-119h-465v700h455v-119h-314v-171h299v-119zM400 851l-162 -116l-36 32l98 168z" />
<glyph unicode="&#xca;" horiz-adv-x="564" d="M499 291h-299v-172h324v-119h-465v700h455v-119h-314v-171h299v-119zM262 762h-134l118 150h105l117 -150h-134l-36 46z" />
<glyph unicode="&#xcb;" horiz-adv-x="564" d="M499 291h-299v-172h324v-119h-465v700h455v-119h-314v-171h299v-119zM146 769v120h123v-120h-123zM330 769v120h123v-120h-123z" />
<glyph unicode="&#xcc;" horiz-adv-x="382" d="M333 700v-119h-72v-462h72v-119h-285v119h72v462h-72v119h285zM247 735l-162 116l100 84l98 -168z" />
<glyph unicode="&#xcd;" horiz-adv-x="382" d="M333 700v-119h-72v-462h72v-119h-285v119h72v462h-72v119h285zM312 851l-162 -116l-36 32l98 168z" />
<glyph unicode="&#xce;" horiz-adv-x="382" d="M333 700v-119h-72v-462h72v-119h-285v119h72v462h-72v119h285zM155 762h-134l118 150h105l117 -150h-134l-36 46z" />
<glyph unicode="&#xcf;" horiz-adv-x="382" d="M333 700v-119h-72v-462h72v-119h-285v119h72v462h-72v119h285zM37 769v120h123v-120h-123zM221 769v120h123v-120h-123z" />
<glyph unicode="&#xd0;" horiz-adv-x="668" d="M276 0h-217v290h-62v119h62v291h204q75 0 132.5 -10.5t97 -32.5t65.5 -51t40.5 -71t20 -87t5.5 -105q0 -81 -15 -139.5t-52.5 -106.5t-107.5 -72.5t-173 -24.5zM263 581h-63v-172h165v-119h-165v-171h79q65 0 107 15t62.5 47t27.5 68.5t7 93.5q0 67 -6.5 105t-28 71.5 t-66.5 47.5t-119 14z" />
<glyph unicode="&#xd1;" horiz-adv-x="668" d="M59 700h128l281 -424v424h141v-700h-128l-281 423v-423h-141v700zM270 769l-87 22q16 112 94 112q27 0 67 -16.5t51 -16.5q17 0 21 33l87 -22q-16 -112 -94 -112q-27 0 -67 16.5t-51 16.5q-17 0 -21 -33z" />
<glyph unicode="&#xd2;" horiz-adv-x="709" d="M354 109q83 0 126.5 53.5t43.5 187.5t-43.5 187.5t-126.5 53.5q-82 0 -125.5 -53.5t-43.5 -187.5t43.5 -187.5t125.5 -53.5zM354 -10q-150 0 -230 82.5t-80 277.5t80 277.5t230 82.5t230.5 -82.5t80.5 -277.5t-80.5 -277.5t-230.5 -82.5zM417 735l-162 116l100 84 l98 -168z" />
<glyph unicode="&#xd3;" horiz-adv-x="709" d="M354 109q83 0 126.5 53.5t43.5 187.5t-43.5 187.5t-126.5 53.5q-82 0 -125.5 -53.5t-43.5 -187.5t43.5 -187.5t125.5 -53.5zM354 -10q-150 0 -230 82.5t-80 277.5t80 277.5t230 82.5t230.5 -82.5t80.5 -277.5t-80.5 -277.5t-230.5 -82.5zM453 851l-162 -116l-36 32 l98 168z" />
<glyph unicode="&#xd4;" horiz-adv-x="709" d="M354 109q83 0 126.5 53.5t43.5 187.5t-43.5 187.5t-126.5 53.5q-82 0 -125.5 -53.5t-43.5 -187.5t43.5 -187.5t125.5 -53.5zM354 -10q-150 0 -230 82.5t-80 277.5t80 277.5t230 82.5t230.5 -82.5t80.5 -277.5t-80.5 -277.5t-230.5 -82.5zM318 762h-134l118 150h105 l117 -150h-134l-36 46z" />
<glyph unicode="&#xd5;" horiz-adv-x="709" d="M354 109q83 0 126.5 53.5t43.5 187.5t-43.5 187.5t-126.5 53.5q-82 0 -125.5 -53.5t-43.5 -187.5t43.5 -187.5t125.5 -53.5zM354 -10q-150 0 -230 82.5t-80 277.5t80 277.5t230 82.5t230.5 -82.5t80.5 -277.5t-80.5 -277.5t-230.5 -82.5zM282 769l-87 22q16 112 94 112 q27 0 67 -16.5t51 -16.5q17 0 21 33l87 -22q-16 -112 -94 -112q-27 0 -67 16.5t-51 16.5q-17 0 -21 -33z" />
<glyph unicode="&#xd6;" horiz-adv-x="709" d="M354 109q83 0 126.5 53.5t43.5 187.5t-43.5 187.5t-126.5 53.5q-82 0 -125.5 -53.5t-43.5 -187.5t43.5 -187.5t125.5 -53.5zM354 -10q-150 0 -230 82.5t-80 277.5t80 277.5t230 82.5t230.5 -82.5t80.5 -277.5t-80.5 -277.5t-230.5 -82.5zM201 769v120h123v-120h-123z M385 769v120h123v-120h-123z" />
<glyph unicode="&#xd8;" horiz-adv-x="709" d="M354 -10q-71 0 -128 18l-33 -58h-138l70 122q-81 89 -81 278q0 195 80 277.5t230 82.5q71 0 128 -18l34 58h138l-71 -122q82 -88 82 -278q0 -195 -80.5 -277.5t-230.5 -82.5zM185 350q0 -86 19 -141l215 373q-30 9 -65 9q-82 0 -125.5 -53.5t-43.5 -187.5zM354 109 q83 0 126.5 53.5t43.5 187.5q0 87 -20 141l-214 -373q24 -9 64 -9z" />
<glyph unicode="&#xd9;" horiz-adv-x="683" d="M624 700v-474q0 -82 -42.5 -137t-104 -77t-136.5 -22q-118 0 -200 58.5t-82 177.5v474h141v-474q0 -60 40.5 -88.5t100.5 -28.5t101 28.5t41 88.5v474h141zM404 735l-162 116l100 84l98 -168z" />
<glyph unicode="&#xda;" horiz-adv-x="683" d="M624 700v-474q0 -82 -42.5 -137t-104 -77t-136.5 -22q-118 0 -200 58.5t-82 177.5v474h141v-474q0 -60 40.5 -88.5t100.5 -28.5t101 28.5t41 88.5v474h141zM440 851l-162 -116l-36 32l98 168z" />
<glyph unicode="&#xdb;" horiz-adv-x="683" d="M624 700v-474q0 -82 -42.5 -137t-104 -77t-136.5 -22q-118 0 -200 58.5t-82 177.5v474h141v-474q0 -60 40.5 -88.5t100.5 -28.5t101 28.5t41 88.5v474h141zM305 762h-134l118 150h105l117 -150h-134l-36 46z" />
<glyph unicode="&#xdc;" horiz-adv-x="683" d="M624 700v-474q0 -82 -42.5 -137t-104 -77t-136.5 -22q-118 0 -200 58.5t-82 177.5v474h141v-474q0 -60 40.5 -88.5t100.5 -28.5t101 28.5t41 88.5v474h141zM188 769v120h123v-120h-123zM372 769v120h123v-120h-123z" />
<glyph unicode="&#xdd;" horiz-adv-x="597" d="M17 700h159l122 -231l123 231h159l-211 -391v-309h-141v309zM399 851l-162 -116l-36 32l98 168z" />
<glyph unicode="&#xde;" horiz-adv-x="566" d="M59 700h141v-113h63q252 0 252 -237t-252 -237h-63v-113h-141v700zM263 468h-63v-236h63q55 0 83 27t28 91q0 65 -28 91.5t-83 26.5z" />
<glyph unicode="&#xdf;" horiz-adv-x="602" d="M538 692l-153 -239q90 -49 133.5 -106t43.5 -146q0 -106 -53 -158.5t-138 -52.5q-61 0 -128 26l38 113q43 -20 74 -20q66 0 66 89q0 62 -35.5 102.5t-119.5 78.5v112l79 123q-32 7 -54 7q-91 0 -91 -92v-529h-141v516q0 224 231 224q106 0 248 -48z" />
<glyph unicode="&#xe0;" horiz-adv-x="523" d="M475 0h-142q-9 26 -10 49q-50 -59 -132 -59q-80 0 -123 41.5t-43 119.5q0 151 208 151q41 0 90 -7v37q0 59 -64 59q-48 0 -59 -44l-153 18q12 67 71 106t142 39q89 0 146.5 -44t57.5 -129v-160q0 -106 11 -177zM323 204h-62q-95 0 -95 -54q0 -41 53 -41q43 0 73.5 27 t30.5 68zM323 535l-162 116l100 84l98 -168z" />
<glyph unicode="&#xe1;" horiz-adv-x="523" d="M475 0h-142q-9 26 -10 49q-50 -59 -132 -59q-80 0 -123 41.5t-43 119.5q0 151 208 151q41 0 90 -7v37q0 59 -64 59q-48 0 -59 -44l-153 18q12 67 71 106t142 39q89 0 146.5 -44t57.5 -129v-160q0 -106 11 -177zM323 204h-62q-95 0 -95 -54q0 -41 53 -41q43 0 73.5 27 t30.5 68zM361 651l-162 -116l-36 32l98 168z" />
<glyph unicode="&#xe2;" horiz-adv-x="523" d="M475 0h-142q-9 26 -10 49q-50 -59 -132 -59q-80 0 -123 41.5t-43 119.5q0 151 208 151q41 0 90 -7v37q0 59 -64 59q-48 0 -59 -44l-153 18q12 67 71 106t142 39q89 0 146.5 -44t57.5 -129v-160q0 -106 11 -177zM323 204h-62q-95 0 -95 -54q0 -41 53 -41q43 0 73.5 27 t30.5 68zM225 562h-134l118 150h105l117 -150h-134l-36 46z" />
<glyph unicode="&#xe3;" horiz-adv-x="523" d="M475 0h-142q-9 26 -10 49q-50 -59 -132 -59q-80 0 -123 41.5t-43 119.5q0 151 208 151q41 0 90 -7v37q0 59 -64 59q-48 0 -59 -44l-153 18q12 67 71 106t142 39q89 0 146.5 -44t57.5 -129v-160q0 -106 11 -177zM323 204h-62q-95 0 -95 -54q0 -41 53 -41q43 0 73.5 27 t30.5 68zM189 569l-87 22q16 112 94 112q27 0 67 -16.5t51 -16.5q16 0 21 33l87 -22q-16 -112 -94 -112q-27 0 -67 16.5t-51 16.5q-16 0 -21 -33z" />
<glyph unicode="&#xe4;" horiz-adv-x="523" d="M475 0h-142q-9 26 -10 49q-50 -59 -132 -59q-80 0 -123 41.5t-43 119.5q0 151 208 151q41 0 90 -7v37q0 59 -64 59q-48 0 -59 -44l-153 18q12 67 71 106t142 39q89 0 146.5 -44t57.5 -129v-160q0 -106 11 -177zM323 204h-62q-95 0 -95 -54q0 -41 53 -41q43 0 73.5 27 t30.5 68zM108 569v120h123v-120h-123zM292 569v120h123v-120h-123z" />
<glyph unicode="&#xe5;" horiz-adv-x="523" d="M475 0h-142q-9 26 -10 49q-50 -59 -132 -59q-80 0 -123 41.5t-43 119.5q0 151 208 151q41 0 90 -7v37q0 59 -64 59q-48 0 -59 -44l-153 18q12 67 71 106t142 39q89 0 146.5 -44t57.5 -129v-160q0 -106 11 -177zM323 204h-62q-95 0 -95 -54q0 -41 53 -41q43 0 73.5 27 t30.5 68zM261 623q25 0 25 26q0 25 -25 25t-25 -25q0 -26 25 -26zM261 555q-43 0 -69 25t-26 69t25.5 68.5t69.5 24.5q43 0 69 -24.5t26 -68.5t-26 -69t-69 -25z" />
<glyph unicode="&#xe6;" horiz-adv-x="853" d="M753 150l45 -111q-102 -49 -198 -49q-149 0 -221 91q-34 -43 -83 -67t-102 -24q-76 0 -122.5 40.5t-46.5 120.5q0 151 215 151q33 0 87 -6l5 32q-9 63 -67 63q-54 0 -65 -44l-153 18q12 67 71 106t142 39q92 0 151 -50q63 50 163 50q113 0 173 -65t60 -173v-74h-336 q22 -89 132 -89q65 0 150 41zM221 109q32 0 66 20.5t44 53.5l-3 21h-73q-89 0 -89 -53q0 -42 55 -42zM574 391q-78 0 -100 -78h191q-6 78 -91 78z" />
<glyph unicode="&#xe7;" horiz-adv-x="528" d="M218 -107l22 101q-96 15 -145.5 82.5t-49.5 173.5q0 120 63.5 190t185.5 70q78 0 133.5 -32t85.5 -88l-122 -73q-36 74 -97 74q-53 0 -80.5 -37.5t-27.5 -103.5t27.5 -103.5t80.5 -37.5q30 0 57 20t41 57l128 -57q-53 -120 -184 -136l-6 -33q80 -9 80 -78q0 -51 -34 -75 t-87 -24q-46 0 -97 17l23 78q33 -13 72 -13q26 0 26 13q0 15 -39 15h-56z" />
<glyph unicode="&#xe8;" horiz-adv-x="573" d="M473 150l45 -111q-102 -49 -198 -49q-128 0 -201.5 69.5t-73.5 190.5q0 120 64 190t185 70q113 0 173 -65t60 -173v-74h-336q22 -89 132 -89q65 0 150 41zM294 391q-78 0 -100 -78h191q-6 78 -91 78zM357 535l-162 116l100 84l98 -168z" />
<glyph unicode="&#xe9;" horiz-adv-x="573" d="M473 150l45 -111q-102 -49 -198 -49q-128 0 -201.5 69.5t-73.5 190.5q0 120 64 190t185 70q113 0 173 -65t60 -173v-74h-336q22 -89 132 -89q65 0 150 41zM294 391q-78 0 -100 -78h191q-6 78 -91 78zM391 651l-162 -116l-36 32l98 168z" />
<glyph unicode="&#xea;" horiz-adv-x="573" d="M473 150l45 -111q-102 -49 -198 -49q-128 0 -201.5 69.5t-73.5 190.5q0 120 64 190t185 70q113 0 173 -65t60 -173v-74h-336q22 -89 132 -89q65 0 150 41zM294 391q-78 0 -100 -78h191q-6 78 -91 78zM258 562h-134l118 150h105l117 -150h-134l-36 46z" />
<glyph unicode="&#xeb;" horiz-adv-x="573" d="M473 150l45 -111q-102 -49 -198 -49q-128 0 -201.5 69.5t-73.5 190.5q0 120 64 190t185 70q113 0 173 -65t60 -173v-74h-336q22 -89 132 -89q65 0 150 41zM294 391q-78 0 -100 -78h191q-6 78 -91 78zM140 569v120h123v-120h-123zM324 569v120h123v-120h-123z" />
<glyph unicode="&#xec;" horiz-adv-x="280" d="M182 535l-162 116l100 84l98 -168zM80 0v381h-58v119h133q39 0 52.5 -10.5t13.5 -44.5v-445h-141z" />
<glyph unicode="&#xed;" horiz-adv-x="280" d="M240 651l-162 -116l-36 32l98 168zM80 0v381h-58v119h133q39 0 52.5 -10.5t13.5 -44.5v-445h-141z" />
<glyph unicode="&#xee;" horiz-adv-x="280" d="M100 562h-134l118 150h105l117 -150h-134l-36 46zM80 0v381h-58v119h133q39 0 52.5 -10.5t13.5 -44.5v-445h-141z" />
<glyph unicode="&#xef;" horiz-adv-x="280" d="M-15 569v120h123v-120h-123zM169 569v120h123v-120h-123zM80 0v381h-58v119h133q39 0 52.5 -10.5t13.5 -44.5v-445h-141z" />
<glyph unicode="&#xf0;" horiz-adv-x="588" d="M152 608l62 30q-20 16 -39 30l115 72q36 -26 53 -40l85 41l40 -76l-60 -30q134 -156 134 -348q0 -141 -63 -219t-185 -78t-185.5 70t-63.5 190q0 115 59 187.5t152 72.5q26 0 71 -8q-25 41 -49 70l-86 -41zM401 250q0 66 -27 103.5t-80 37.5t-80.5 -37.5t-27.5 -103.5 t27.5 -103.5t80.5 -37.5t80 37.5t27 103.5z" />
<glyph unicode="&#xf1;" horiz-adv-x="544" d="M193 236v-236h-141v500h141v-47q56 57 139 57q76 0 117.5 -47.5t41.5 -141.5v-321h-141v318q0 73 -70 73q-87 0 -87 -155zM195 569l-87 22q16 112 94 112q27 0 67 -16.5t51 -16.5q16 0 21 33l87 -22q-16 -112 -94 -112q-27 0 -67 16.5t-51 16.5q-16 0 -21 -33z" />
<glyph unicode="&#xf2;" horiz-adv-x="588" d="M294 391q-53 0 -80.5 -37.5t-27.5 -103.5t27.5 -103.5t80.5 -37.5t80 37.5t27 103.5t-27 103.5t-80 37.5zM294 -10q-122 0 -185.5 70t-63.5 190t63.5 190t185.5 70q121 0 184.5 -70t63.5 -190t-63.5 -190t-184.5 -70zM357 535l-162 116l100 84l98 -168z" />
<glyph unicode="&#xf3;" horiz-adv-x="588" d="M294 391q-53 0 -80.5 -37.5t-27.5 -103.5t27.5 -103.5t80.5 -37.5t80 37.5t27 103.5t-27 103.5t-80 37.5zM294 -10q-122 0 -185.5 70t-63.5 190t63.5 190t185.5 70q121 0 184.5 -70t63.5 -190t-63.5 -190t-184.5 -70zM393 651l-162 -116l-36 32l98 168z" />
<glyph unicode="&#xf4;" horiz-adv-x="588" d="M294 391q-53 0 -80.5 -37.5t-27.5 -103.5t27.5 -103.5t80.5 -37.5t80 37.5t27 103.5t-27 103.5t-80 37.5zM294 -10q-122 0 -185.5 70t-63.5 190t63.5 190t185.5 70q121 0 184.5 -70t63.5 -190t-63.5 -190t-184.5 -70zM258 562h-134l118 150h105l117 -150h-134l-36 46z " />
<glyph unicode="&#xf5;" horiz-adv-x="588" d="M294 391q-53 0 -80.5 -37.5t-27.5 -103.5t27.5 -103.5t80.5 -37.5t80 37.5t27 103.5t-27 103.5t-80 37.5zM294 -10q-122 0 -185.5 70t-63.5 190t63.5 190t185.5 70q121 0 184.5 -70t63.5 -190t-63.5 -190t-184.5 -70zM222 569l-87 22q16 112 94 112q27 0 67 -16.5 t51 -16.5q17 0 21 33l87 -22q-16 -112 -94 -112q-27 0 -67 16.5t-51 16.5q-17 0 -21 -33z" />
<glyph unicode="&#xf6;" horiz-adv-x="588" d="M294 391q-53 0 -80.5 -37.5t-27.5 -103.5t27.5 -103.5t80.5 -37.5t80 37.5t27 103.5t-27 103.5t-80 37.5zM294 -10q-122 0 -185.5 70t-63.5 190t63.5 190t185.5 70q121 0 184.5 -70t63.5 -190t-63.5 -190t-184.5 -70zM140 569v120h123v-120h-123zM324 569v120h123v-120 h-123z" />
<glyph unicode="&#xf8;" horiz-adv-x="588" d="M294 -10q-42 0 -82 10l-29 -50h-127l60 103q-71 68 -71 197q0 120 63.5 190t185.5 70q40 0 82 -10l29 50h126l-60 -103q71 -68 71 -197q0 -120 -63.5 -190t-184.5 -70zM294 391q-53 0 -80.5 -37.5t-27.5 -103.5q0 -39 8 -63l118 203q-6 1 -18 1zM401 250q0 33 -8 62 l-117 -202q5 -1 18 -1q53 0 80 37.5t27 103.5z" />
<glyph unicode="&#xf9;" horiz-adv-x="557" d="M357 56q-42 -66 -126 -66q-172 0 -172 190v320h141v-314q0 -38 18 -57.5t48 -19.5q42 0 66.5 39t24.5 110v242h141v-318q0 -101 11 -182h-140q-11 27 -12 56zM339 535l-162 116l100 84l98 -168z" />
<glyph unicode="&#xfa;" horiz-adv-x="557" d="M357 56q-42 -66 -126 -66q-172 0 -172 190v320h141v-314q0 -38 18 -57.5t48 -19.5q42 0 66.5 39t24.5 110v242h141v-318q0 -101 11 -182h-140q-11 27 -12 56zM380 651l-162 -116l-36 32l98 168z" />
<glyph unicode="&#xfb;" horiz-adv-x="557" d="M357 56q-42 -66 -126 -66q-172 0 -172 190v320h141v-314q0 -38 18 -57.5t48 -19.5q42 0 66.5 39t24.5 110v242h141v-318q0 -101 11 -182h-140q-11 27 -12 56zM241 562h-134l118 150h105l117 -150h-134l-36 46z" />
<glyph unicode="&#xfc;" horiz-adv-x="557" d="M357 56q-42 -66 -126 -66q-172 0 -172 190v320h141v-314q0 -38 18 -57.5t48 -19.5q42 0 66.5 39t24.5 110v242h141v-318q0 -101 11 -182h-140q-11 27 -12 56zM123 569v120h123v-120h-123zM307 569v120h123v-120h-123z" />
<glyph unicode="&#xfd;" horiz-adv-x="532" d="M87 -200l103 253l-180 447h153l103 -296l104 296h151l-282 -700h-152zM367 651l-162 -116l-36 32l98 168z" />
<glyph unicode="&#xfe;" horiz-adv-x="577" d="M200 -200h-141v930h141v-283q49 63 137 63q87 0 141 -64t54 -187q0 -133 -57 -201t-157 -68q-69 0 -118 50v-240zM200 222v-62q45 -51 94 -51q45 0 71 39.5t26 110.5q0 65 -23.5 98.5t-64.5 33.5q-45 0 -74 -44.5t-29 -124.5z" />
<glyph unicode="&#xff;" horiz-adv-x="532" d="M87 -200l103 253l-180 447h153l103 -296l104 296h151l-282 -700h-152zM113 569v120h123v-120h-123zM297 569v120h123v-120h-123z" />
<glyph unicode="&#x100;" horiz-adv-x="696" d="M527 0l-54 151h-250l-54 -151h-152l256 700h150l256 -700h-152zM347 496l-79 -226h159zM196 882h302v-113h-302v113z" />
<glyph unicode="&#x101;" horiz-adv-x="523" d="M475 0h-142q-9 26 -10 49q-50 -59 -132 -59q-80 0 -123 41.5t-43 119.5q0 151 208 151q41 0 90 -7v37q0 59 -64 59q-48 0 -59 -44l-153 18q12 67 71 106t142 39q89 0 146.5 -44t57.5 -129v-160q0 -106 11 -177zM323 204h-62q-95 0 -95 -54q0 -41 53 -41q43 0 73.5 27 t30.5 68zM110 682h302v-113h-302v113z" />
<glyph unicode="&#x102;" horiz-adv-x="696" d="M527 0l-54 151h-250l-54 -151h-152l256 700h150l256 -700h-152zM347 496l-79 -226h159zM478 912v-35q0 -58 -35 -86.5t-95 -28.5q-59 0 -94.5 28.5t-35.5 86.5v35h109v-26q0 -24 20 -24q21 0 21 24v26h110z" />
<glyph unicode="&#x103;" horiz-adv-x="523" d="M475 0h-142q-9 26 -10 49q-50 -59 -132 -59q-80 0 -123 41.5t-43 119.5q0 151 208 151q41 0 90 -7v37q0 59 -64 59q-48 0 -59 -44l-153 18q12 67 71 106t142 39q89 0 146.5 -44t57.5 -129v-160q0 -106 11 -177zM323 204h-62q-95 0 -95 -54q0 -41 53 -41q43 0 73.5 27 t30.5 68zM391 712v-35q0 -58 -35 -86.5t-95 -28.5q-59 0 -94.5 28.5t-35.5 86.5v35h109v-26q0 -24 20 -24q21 0 21 24v26h110z" />
<glyph unicode="&#x104;" horiz-adv-x="696" d="M527 0l-54 151h-250l-54 -151h-152l256 700h150l256 -700q-65 -43 -65 -91q0 -32 42 -32h30l-43 -94h-13q-124 0 -124 98q0 72 71 119h-50zM347 496l-79 -226h159z" />
<glyph unicode="&#x105;" horiz-adv-x="523" d="M475 0q-65 -43 -65 -91q0 -32 42 -32h30l-43 -94h-13q-124 0 -124 98q0 72 71 119h-40q-9 26 -10 49q-50 -59 -132 -59q-80 0 -123 41.5t-43 119.5q0 151 208 151q41 0 90 -7v37q0 59 -64 59q-48 0 -59 -44l-153 18q12 67 71 106t142 39q89 0 146.5 -44t57.5 -129v-160 q0 -106 11 -177zM323 204h-62q-95 0 -95 -54q0 -41 53 -41q43 0 73.5 27t30.5 68z" />
<glyph unicode="&#x106;" horiz-adv-x="683" d="M513 248l136 -38q-31 -115 -108.5 -167.5t-186.5 -52.5q-310 0 -310 359q0 99 24 171t67.5 112.5t97.5 59t121 18.5q225 0 290 -201l-133 -43q-30 125 -157 125q-169 0 -169 -242q0 -133 45.5 -186.5t123.5 -53.5q57 0 100 33t59 106zM462 851l-162 -116l-36 32l98 168z " />
<glyph unicode="&#x107;" horiz-adv-x="528" d="M392 186l128 -57q-28 -65 -85.5 -102t-140.5 -37q-122 0 -185.5 70t-63.5 190t63.5 190t185.5 70q78 0 133.5 -32t85.5 -88l-122 -73q-36 74 -97 74q-53 0 -80.5 -37.5t-27.5 -103.5t27.5 -103.5t80.5 -37.5q30 0 57 20t41 57zM392 651l-162 -116l-36 32l98 168z" />
<glyph unicode="&#x108;" horiz-adv-x="683" d="M513 248l136 -38q-31 -115 -108.5 -167.5t-186.5 -52.5q-310 0 -310 359q0 99 24 171t67.5 112.5t97.5 59t121 18.5q225 0 290 -201l-133 -43q-30 125 -157 125q-169 0 -169 -242q0 -133 45.5 -186.5t123.5 -53.5q57 0 100 33t59 106zM320 762h-134l118 150h105l117 -150 h-134l-36 46z" />
<glyph unicode="&#x109;" horiz-adv-x="528" d="M392 186l128 -57q-28 -65 -85.5 -102t-140.5 -37q-122 0 -185.5 70t-63.5 190t63.5 190t185.5 70q78 0 133.5 -32t85.5 -88l-122 -73q-36 74 -97 74q-53 0 -80.5 -37.5t-27.5 -103.5t27.5 -103.5t80.5 -37.5q30 0 57 20t41 57zM254 562h-134l118 150h105l117 -150h-134 l-36 46z" />
<glyph unicode="&#x10a;" horiz-adv-x="683" d="M513 248l136 -38q-31 -115 -108.5 -167.5t-186.5 -52.5q-310 0 -310 359q0 99 24 171t67.5 112.5t97.5 59t121 18.5q225 0 290 -201l-133 -43q-30 125 -157 125q-169 0 -169 -242q0 -133 45.5 -186.5t123.5 -53.5q57 0 100 33t59 106zM294 769v120h123v-120h-123z" />
<glyph unicode="&#x10b;" horiz-adv-x="528" d="M392 186l128 -57q-28 -65 -85.5 -102t-140.5 -37q-122 0 -185.5 70t-63.5 190t63.5 190t185.5 70q78 0 133.5 -32t85.5 -88l-122 -73q-36 74 -97 74q-53 0 -80.5 -37.5t-27.5 -103.5t27.5 -103.5t80.5 -37.5q30 0 57 20t41 57zM229 569v120h123v-120h-123z" />
<glyph unicode="&#x10c;" horiz-adv-x="683" d="M513 248l136 -38q-31 -115 -108.5 -167.5t-186.5 -52.5q-310 0 -310 359q0 99 24 171t67.5 112.5t97.5 59t121 18.5q225 0 290 -201l-133 -43q-30 125 -157 125q-169 0 -169 -242q0 -133 45.5 -186.5t123.5 -53.5q57 0 100 33t59 106zM186 912h134l36 -47l36 47h134 l-117 -150h-105z" />
<glyph unicode="&#x10d;" horiz-adv-x="528" d="M392 186l128 -57q-28 -65 -85.5 -102t-140.5 -37q-122 0 -185.5 70t-63.5 190t63.5 190t185.5 70q78 0 133.5 -32t85.5 -88l-122 -73q-36 74 -97 74q-53 0 -80.5 -37.5t-27.5 -103.5t27.5 -103.5t80.5 -37.5q30 0 57 20t41 57zM120 712h134l36 -47l36 47h134l-117 -150 h-105z" />
<glyph unicode="&#x10e;" horiz-adv-x="668" d="M276 0h-217v700h204q75 0 132.5 -10.5t97 -32.5t65.5 -51t40.5 -71t20 -87t5.5 -105q0 -81 -15 -139.5t-52.5 -106.5t-107.5 -72.5t-173 -24.5zM263 581h-63v-462h79q65 0 107 15t62.5 47t27.5 68.5t7 93.5q0 67 -6.5 105t-28 71.5t-66.5 47.5t-119 14zM123 912h134 l36 -47l36 47h134l-117 -150h-105z" />
<glyph unicode="&#x10f;" horiz-adv-x="705" d="M404 0q-11 23 -20 59q-61 -69 -143 -69q-87 0 -141.5 64t-54.5 189q0 130 57 198.5t155 68.5q71 0 120 -55v275h141v-548q0 -101 11 -182h-125zM275 109q45 0 73.5 44t28.5 125v53q-22 31 -43 45.5t-52 14.5q-43 0 -69.5 -40t-26.5 -108q0 -66 24 -100t65 -34zM574 700 h134v-51q0 -116 -50 -189l-74 22q34 45 41 95h-51v123z" />
<glyph unicode="&#x111;" horiz-adv-x="577" d="M404 0q-11 23 -20 59q-61 -69 -143 -69q-87 0 -141.5 64t-54.5 189q0 130 57 198.5t155 68.5q71 0 120 -55v107h-118v119h118v49h141v-49h59v-119h-59v-380q0 -101 11 -182h-125zM275 109q45 0 73.5 44t28.5 125v53q-22 31 -43 45.5t-52 14.5q-43 0 -69.5 -40t-26.5 -108 q0 -66 24 -100t65 -34z" />
<glyph unicode="&#x112;" horiz-adv-x="564" d="M499 291h-299v-172h324v-119h-465v700h455v-119h-314v-171h299v-119zM148 882h302v-113h-302v113z" />
<glyph unicode="&#x113;" horiz-adv-x="573" d="M473 150l45 -111q-102 -49 -198 -49q-128 0 -201.5 69.5t-73.5 190.5q0 120 64 190t185 70q113 0 173 -65t60 -173v-74h-336q22 -89 132 -89q65 0 150 41zM294 391q-78 0 -100 -78h191q-6 78 -91 78zM143 682h302v-113h-302v113z" />
<glyph unicode="&#x114;" horiz-adv-x="564" d="M499 291h-299v-172h324v-119h-465v700h455v-119h-314v-171h299v-119zM429 912v-35q0 -58 -35 -86.5t-95 -28.5q-59 0 -94.5 28.5t-35.5 86.5v35h109v-26q0 -24 20 -24q21 0 21 24v26h110z" />
<glyph unicode="&#x115;" horiz-adv-x="573" d="M473 150l45 -111q-102 -49 -198 -49q-128 0 -201.5 69.5t-73.5 190.5q0 120 64 190t185 70q113 0 173 -65t60 -173v-74h-336q22 -89 132 -89q65 0 150 41zM294 391q-78 0 -100 -78h191q-6 78 -91 78zM424 712v-35q0 -58 -35 -86.5t-95 -28.5q-59 0 -94.5 28.5t-35.5 86.5 v35h109v-26q0 -24 20 -24q21 0 21 24v26h110z" />
<glyph unicode="&#x116;" horiz-adv-x="564" d="M499 291h-299v-172h324v-119h-465v700h455v-119h-314v-171h299v-119zM238 769v120h123v-120h-123z" />
<glyph unicode="&#x117;" horiz-adv-x="573" d="M473 150l45 -111q-102 -49 -198 -49q-128 0 -201.5 69.5t-73.5 190.5q0 120 64 190t185 70q113 0 173 -65t60 -173v-74h-336q22 -89 132 -89q65 0 150 41zM294 391q-78 0 -100 -78h191q-6 78 -91 78zM232 569v120h123v-120h-123z" />
<glyph unicode="&#x118;" horiz-adv-x="564" d="M422 0h-363v700h455v-119h-314v-171h299v-119h-299v-172h324v-119q-65 -43 -65 -91q0 -32 42 -32h30l-43 -94h-13q-124 0 -124 98q0 72 71 119z" />
<glyph unicode="&#x119;" horiz-adv-x="573" d="M473 150l45 -111q-72 -34 -134 -43q-58 -40 -58 -87q0 -32 42 -32h30l-43 -94h-13q-124 0 -124 98q0 68 59 111q-109 11 -170.5 79.5t-61.5 178.5q0 120 64 190t185 70q113 0 173 -65t60 -173v-74h-336q22 -89 132 -89q65 0 150 41zM294 391q-78 0 -100 -78h191 q-6 78 -91 78z" />
<glyph unicode="&#x11a;" horiz-adv-x="564" d="M499 291h-299v-172h324v-119h-465v700h455v-119h-314v-171h299v-119zM129 912h134l36 -47l36 47h134l-117 -150h-105z" />
<glyph unicode="&#x11b;" horiz-adv-x="573" d="M473 150l45 -111q-102 -49 -198 -49q-128 0 -201.5 69.5t-73.5 190.5q0 120 64 190t185 70q113 0 173 -65t60 -173v-74h-336q22 -89 132 -89q65 0 150 41zM294 391q-78 0 -100 -78h191q-6 78 -91 78zM124 712h134l36 -47l36 47h134l-117 -150h-105z" />
<glyph unicode="&#x11c;" horiz-adv-x="697" d="M322 390h331v-84q0 -155 -79 -235.5t-215 -80.5q-68 0 -122 18t-99 58t-69.5 112t-24.5 171t24.5 171.5t69.5 112.5t99.5 58.5t121.5 18.5q220 0 285 -202l-130 -41q-35 124 -155 124q-174 0 -174 -242q0 -240 174 -240q68 0 106.5 35.5t44.5 126.5h-188v119zM312 762 h-134l118 150h105l117 -150h-134l-36 46z" />
<glyph unicode="&#x11d;" horiz-adv-x="541" d="M313 0h-230v55l49 119q-87 43 -87 156q0 85 52.5 132.5t158.5 47.5q45 0 85 -10h194v-104h-78q10 -29 10 -66q0 -85 -52.5 -132.5t-158.5 -47.5h-5l-19 -46h102q91 0 129 -36t38 -103q0 -90 -64.5 -132.5t-171.5 -42.5q-140 0 -232 55l51 103q49 -26 86.5 -35t89.5 -9 q100 0 100 58q0 38 -47 38zM256 396q-70 0 -70 -66t70 -66t70 66t-70 66zM217 562h-134l118 150h105l117 -150h-134l-36 46z" />
<glyph unicode="&#x11e;" horiz-adv-x="697" d="M322 390h331v-84q0 -155 -79 -235.5t-215 -80.5q-68 0 -122 18t-99 58t-69.5 112t-24.5 171t24.5 171.5t69.5 112.5t99.5 58.5t121.5 18.5q220 0 285 -202l-130 -41q-35 124 -155 124q-174 0 -174 -242q0 -240 174 -240q68 0 106.5 35.5t44.5 126.5h-188v119zM478 912 v-35q0 -58 -35 -86.5t-95 -28.5q-59 0 -94.5 28.5t-35.5 86.5v35h109v-26q0 -24 20 -24q21 0 21 24v26h110z" />
<glyph unicode="&#x11f;" horiz-adv-x="541" d="M313 0h-230v55l49 119q-87 43 -87 156q0 85 52.5 132.5t158.5 47.5q45 0 85 -10h194v-104h-78q10 -29 10 -66q0 -85 -52.5 -132.5t-158.5 -47.5h-5l-19 -46h102q91 0 129 -36t38 -103q0 -90 -64.5 -132.5t-171.5 -42.5q-140 0 -232 55l51 103q49 -26 86.5 -35t89.5 -9 q100 0 100 58q0 38 -47 38zM256 396q-70 0 -70 -66t70 -66t70 66t-70 66zM384 712v-35q0 -58 -35 -86.5t-95 -28.5q-59 0 -94.5 28.5t-35.5 86.5v35h109v-26q0 -24 20 -24q21 0 21 24v26h110z" />
<glyph unicode="&#x120;" horiz-adv-x="697" d="M322 390h331v-84q0 -155 -79 -235.5t-215 -80.5q-68 0 -122 18t-99 58t-69.5 112t-24.5 171t24.5 171.5t69.5 112.5t99.5 58.5t121.5 18.5q220 0 285 -202l-130 -41q-35 124 -155 124q-174 0 -174 -242q0 -240 174 -240q68 0 106.5 35.5t44.5 126.5h-188v119zM287 769 v120h123v-120h-123z" />
<glyph unicode="&#x121;" horiz-adv-x="541" d="M313 0h-230v55l49 119q-87 43 -87 156q0 85 52.5 132.5t158.5 47.5q45 0 85 -10h194v-104h-78q10 -29 10 -66q0 -85 -52.5 -132.5t-158.5 -47.5h-5l-19 -46h102q91 0 129 -36t38 -103q0 -90 -64.5 -132.5t-171.5 -42.5q-140 0 -232 55l51 103q49 -26 86.5 -35t89.5 -9 q100 0 100 58q0 38 -47 38zM256 396q-70 0 -70 -66t70 -66t70 66t-70 66zM192 569v120h123v-120h-123z" />
<glyph unicode="&#x122;" horiz-adv-x="697" d="M322 390h331v-84q0 -155 -79 -235.5t-215 -80.5q-68 0 -122 18t-99 58t-69.5 112t-24.5 171t24.5 171.5t69.5 112.5t99.5 58.5t121.5 18.5q220 0 285 -202l-130 -41q-35 124 -155 124q-174 0 -174 -242q0 -240 174 -240q68 0 106.5 35.5t44.5 126.5h-188v119zM302 -47 h114v-78q0 -54 -13 -89.5t-42 -74.5l-74 12q47 61 54 118h-39v112z" />
<glyph unicode="&#x123;" horiz-adv-x="541" d="M313 0h-230v55l49 119q-87 43 -87 156q0 85 52.5 132.5t158.5 47.5q45 0 85 -10h194v-104h-78q10 -29 10 -66q0 -85 -52.5 -132.5t-158.5 -47.5h-5l-19 -46h102q91 0 129 -36t38 -103q0 -90 -64.5 -132.5t-171.5 -42.5q-140 0 -232 55l51 103q49 -26 86.5 -35t89.5 -9 q100 0 100 58q0 38 -47 38zM256 396q-70 0 -70 -66t70 -66t70 66t-70 66zM315 543h-114v78q0 54 13 89.5t42 74.5l74 -12q-47 -61 -54 -118h39v-112z" />
<glyph unicode="&#x124;" horiz-adv-x="673" d="M200 700v-300h273v300h141v-700h-141v281h-273v-281h-141v700h141zM302 762h-134l118 150h105l117 -150h-134l-36 46z" />
<glyph unicode="&#x125;" horiz-adv-x="557" d="M200 234v-234h-141v730h141v-277q56 57 139 57q76 0 117.5 -47.5t41.5 -141.5v-321h-141v318q0 73 -70 73q-87 0 -87 -157zM94 762h-134l118 150h105l117 -150h-134l-36 46z" />
<glyph unicode="&#x126;" horiz-adv-x="673" d="M200 700v-64h273v64h141v-64h49v-119h-49v-517h-141v281h-273v-281h-141v517h-49v119h49v64h141zM200 400h273v117h-273v-117z" />
<glyph unicode="&#x127;" horiz-adv-x="557" d="M200 234v-234h-141v562h-59v119h59v49h141v-49h118v-119h-118v-109q56 57 139 57q76 0 117.5 -47.5t41.5 -141.5v-321h-141v318q0 73 -70 73q-87 0 -87 -157z" />
<glyph unicode="&#x128;" horiz-adv-x="382" d="M333 700v-119h-72v-462h72v-119h-285v119h72v462h-72v119h285zM118 769l-87 22q16 112 94 112q27 0 67 -16.5t51 -16.5q17 0 21 33l87 -22q-16 -112 -94 -112q-27 0 -67 16.5t-51 16.5q-17 0 -21 -33z" />
<glyph unicode="&#x129;" horiz-adv-x="280" d="M61 569l-87 22q16 112 94 112q27 0 67 -16.5t51 -16.5q16 0 21 33l87 -22q-16 -112 -94 -112q-27 0 -67 16.5t-51 16.5q-16 0 -21 -33zM80 0v381h-58v119h133q39 0 52.5 -10.5t13.5 -44.5v-445h-141z" />
<glyph unicode="&#x12a;" horiz-adv-x="382" d="M333 700v-119h-72v-462h72v-119h-285v119h72v462h-72v119h285zM40 882h302v-113h-302v113z" />
<glyph unicode="&#x12b;" horiz-adv-x="280" d="M-12 682h302v-113h-302v113zM80 0v381h-58v119h133q39 0 52.5 -10.5t13.5 -44.5v-445h-141z" />
<glyph unicode="&#x12c;" horiz-adv-x="382" d="M333 700v-119h-72v-462h72v-119h-285v119h72v462h-72v119h285zM321 912v-35q0 -58 -35 -86.5t-95 -28.5q-59 0 -94.5 28.5t-35.5 86.5v35h109v-26q0 -24 20 -24q21 0 21 24v26h110z" />
<glyph unicode="&#x12d;" horiz-adv-x="280" d="M80 0v381h-58v119h133q39 0 52.5 -10.5t13.5 -44.5v-445h-141zM270 712v-35q0 -58 -35 -86.5t-95 -28.5q-59 0 -94.5 28.5t-35.5 86.5v35h109v-26q0 -24 20 -24q21 0 21 24v26h110z" />
<glyph unicode="&#x12e;" horiz-adv-x="382" d="M182 0h-134v119h72v462h-72v119h285v-119h-72v-462h72v-119h-49q-65 -43 -65 -91q0 -32 42 -32h30l-43 -94h-13q-124 0 -124 98q0 72 71 119z" />
<glyph unicode="&#x12f;" horiz-adv-x="280" d="M80 0v381h-58v119h133q39 0 52.5 -10.5t13.5 -44.5v-445q-65 -43 -65 -91q0 -32 42 -32h30l-43 -94h-13q-124 0 -124 98q0 72 71 119h-39zM83 568v132h136v-132h-136z" />
<glyph unicode="&#x130;" horiz-adv-x="382" d="M333 700v-119h-72v-462h72v-119h-285v119h72v462h-72v119h285zM129 769v120h123v-120h-123z" />
<glyph unicode="&#x131;" horiz-adv-x="280" d="M80 0v381h-58v119h133q39 0 52.5 -10.5t13.5 -44.5v-445h-141z" />
<glyph unicode="&#x134;" horiz-adv-x="391" d="M140 127q51 0 51 69v385h-84v119h225v-511q0 -99 -47 -149t-125 -50q-91 0 -155 63l63 115q36 -41 72 -41zM195 762h-134l118 150h105l117 -150h-134l-36 46z" />
<glyph unicode="&#x135;" horiz-adv-x="280" d="M144 -210l-123 69q36 47 47.5 80t11.5 90v352h-58v119h133q39 0 52.5 -10.5t13.5 -44.5v-410q0 -84 -14.5 -136t-62.5 -109zM109 562h-134l118 150h105l117 -150h-134l-36 46z" />
<glyph unicode="&#x136;" horiz-adv-x="636" d="M200 700v-288l238 288h180l-241 -287q54 -26 88.5 -68t64.5 -113l97 -232h-154l-82 198q-21 48 -42 73.5t-56 41.5l-93 -112v-201h-141v700h141zM264 -47h114v-78q0 -54 -13 -89.5t-42 -74.5l-74 12q47 61 54 118h-39v112z" />
<glyph unicode="&#x137;" horiz-adv-x="550" d="M200 730v-394l152 164h186l-173 -183q30 -15 50.5 -42t42.5 -79l82 -196h-154l-56 135q-26 61 -59 82l-71 -76v-141h-141v730h141zM233 -47h114v-78q0 -54 -13 -89.5t-42 -74.5l-74 12q47 61 54 118h-39v112z" />
<glyph unicode="&#x138;" horiz-adv-x="550" d="M200 500v-164l152 164h186l-173 -183q30 -15 50.5 -42t42.5 -79l82 -196h-154l-56 135q-26 61 -59 82l-71 -76v-141h-141v500h141z" />
<glyph unicode="&#x139;" horiz-adv-x="524" d="M200 700v-581h285v-119h-426v700h141zM238 851l-162 -116l-36 32l98 168z" />
<glyph unicode="&#x13a;" horiz-adv-x="305" d="M248 877l-162 -116l-36 32l98 168zM48 129v601h141v-568q0 -47 34 -47q15 0 35 9l20 -117q-54 -17 -100 -17q-130 0 -130 139z" />
<glyph unicode="&#x13b;" horiz-adv-x="524" d="M200 700v-581h285v-119h-426v700h141zM221 -47h114v-78q0 -54 -13 -89.5t-42 -74.5l-74 12q47 61 54 118h-39v112z" />
<glyph unicode="&#x13c;" horiz-adv-x="305" d="M59 129v601h141v-568q0 -47 34 -47q16 0 35 9l20 -117q-54 -17 -100 -17q-130 0 -130 139zM107 -47h114v-78q0 -54 -13 -89.5t-42 -74.5l-74 12q47 61 54 118h-39v112z" />
<glyph unicode="&#x13d;" horiz-adv-x="524" d="M200 700v-581h285v-119h-426v700h141zM246 700h134v-51q0 -116 -50 -189l-74 22q34 45 41 95h-51v123z" />
<glyph unicode="&#x13e;" horiz-adv-x="386" d="M59 129v601h141v-568q0 -47 34 -47q16 0 35 9l20 -117q-54 -17 -100 -17q-130 0 -130 139zM255 700h134v-51q0 -116 -50 -189l-74 22q34 45 41 95h-51v123z" />
<glyph unicode="&#x13f;" horiz-adv-x="524" d="M200 700v-581h285v-119h-426v700h141zM264 235v120h123v-120h-123z" />
<glyph unicode="&#x140;" horiz-adv-x="398" d="M59 129v601h141v-568q0 -47 34 -47q16 0 35 9l20 -117q-54 -17 -100 -17q-130 0 -130 139zM265 235v120h123v-120h-123z" />
<glyph unicode="&#x141;" horiz-adv-x="524" d="M200 700v-305l143 71v-134l-143 -71v-142h285v-119h-426v190l-49 -24v134l49 24v376h141z" />
<glyph unicode="&#x142;" horiz-adv-x="305" d="M59 129v61l-49 -24v134l49 24v406h141v-336l95 47v-134l-95 -47v-98q0 -47 34 -47q16 0 35 9l20 -117q-54 -17 -100 -17q-130 0 -130 139z" />
<glyph unicode="&#x143;" horiz-adv-x="668" d="M59 700h128l281 -424v424h141v-700h-128l-281 423v-423h-141v700zM449 851l-162 -116l-36 32l98 168z" />
<glyph unicode="&#x144;" horiz-adv-x="557" d="M200 236v-236h-141v500h141v-47q56 57 139 57q76 0 117.5 -47.5t41.5 -141.5v-321h-141v318q0 73 -70 73q-87 0 -87 -155zM385 651l-162 -116l-36 32l98 168z" />
<glyph unicode="&#x145;" horiz-adv-x="668" d="M59 700h128l281 -424v424h141v-700h-128l-281 423v-423h-141v700zM283 -47h114v-78q0 -54 -13 -89.5t-42 -74.5l-74 12q47 61 54 118h-39v112z" />
<glyph unicode="&#x146;" horiz-adv-x="557" d="M200 236v-236h-141v500h141v-47q56 57 139 57q76 0 117.5 -47.5t41.5 -141.5v-321h-141v318q0 73 -70 73q-87 0 -87 -155zM221 -47h114v-78q0 -54 -13 -89.5t-42 -74.5l-74 12q47 61 54 118h-39v112z" />
<glyph unicode="&#x147;" horiz-adv-x="668" d="M59 700h128l281 -424v424h141v-700h-128l-281 423v-423h-141v700zM172 912h134l36 -47l36 47h134l-117 -150h-105z" />
<glyph unicode="&#x148;" horiz-adv-x="557" d="M200 236v-236h-141v500h141v-47q56 57 139 57q76 0 117.5 -47.5t41.5 -141.5v-321h-141v318q0 73 -70 73q-87 0 -87 -155zM108 712h134l36 -47l36 47h134l-117 -150h-105z" />
<glyph unicode="&#x149;" horiz-adv-x="684" d="M327 236v-236h-141v500h141v-47q56 57 139 57q76 0 117.5 -47.5t41.5 -141.5v-321h-141v318q0 73 -70 73q-87 0 -87 -155zM23 700h134v-51q0 -116 -50 -189l-74 22q34 45 41 95h-51v123z" />
<glyph unicode="&#x14a;" horiz-adv-x="668" d="M468 -4v23l-268 404v-423h-141v700h128l281 -424v424h141v-711q0 -99 -47 -149t-125 -50q-91 0 -155 63l63 115q36 -41 72 -41q51 0 51 69z" />
<glyph unicode="&#x14b;" horiz-adv-x="557" d="M498 321v-332q0 -99 -47 -149t-125 -50q-91 0 -155 63l63 115q36 -41 72 -41q51 0 51 69v322q0 73 -70 73q-87 0 -87 -155v-236h-141v500h141v-47q56 57 139 57q76 0 117.5 -47.5t41.5 -141.5z" />
<glyph unicode="&#x14c;" horiz-adv-x="709" d="M354 109q83 0 126.5 53.5t43.5 187.5t-43.5 187.5t-126.5 53.5q-82 0 -125.5 -53.5t-43.5 -187.5t43.5 -187.5t125.5 -53.5zM354 -10q-150 0 -230 82.5t-80 277.5t80 277.5t230 82.5t230.5 -82.5t80.5 -277.5t-80.5 -277.5t-230.5 -82.5zM203 882h302v-113h-302v113z" />
<glyph unicode="&#x14d;" horiz-adv-x="588" d="M294 391q-53 0 -80.5 -37.5t-27.5 -103.5t27.5 -103.5t80.5 -37.5t80 37.5t27 103.5t-27 103.5t-80 37.5zM294 -10q-122 0 -185.5 70t-63.5 190t63.5 190t185.5 70q121 0 184.5 -70t63.5 -190t-63.5 -190t-184.5 -70zM143 682h302v-113h-302v113z" />
<glyph unicode="&#x14e;" horiz-adv-x="709" d="M354 109q83 0 126.5 53.5t43.5 187.5t-43.5 187.5t-126.5 53.5q-82 0 -125.5 -53.5t-43.5 -187.5t43.5 -187.5t125.5 -53.5zM354 -10q-150 0 -230 82.5t-80 277.5t80 277.5t230 82.5t230.5 -82.5t80.5 -277.5t-80.5 -277.5t-230.5 -82.5zM485 912v-35q0 -58 -35 -86.5 t-95 -28.5q-59 0 -94.5 28.5t-35.5 86.5v35h109v-26q0 -24 20 -24q21 0 21 24v26h110z" />
<glyph unicode="&#x14f;" horiz-adv-x="588" d="M294 391q-53 0 -80.5 -37.5t-27.5 -103.5t27.5 -103.5t80.5 -37.5t80 37.5t27 103.5t-27 103.5t-80 37.5zM294 -10q-122 0 -185.5 70t-63.5 190t63.5 190t185.5 70q121 0 184.5 -70t63.5 -190t-63.5 -190t-184.5 -70zM424 712v-35q0 -58 -35 -86.5t-95 -28.5 q-59 0 -94.5 28.5t-35.5 86.5v35h109v-26q0 -24 20 -24q21 0 21 24v26h110z" />
<glyph unicode="&#x150;" horiz-adv-x="709" d="M354 109q83 0 126.5 53.5t43.5 187.5t-43.5 187.5t-126.5 53.5q-82 0 -125.5 -53.5t-43.5 -187.5t43.5 -187.5t125.5 -53.5zM354 -10q-150 0 -230 82.5t-80 277.5t80 277.5t230 82.5t230.5 -82.5t80.5 -277.5t-80.5 -277.5t-230.5 -82.5zM410 873l-126 -138l-40 22 l64 178zM552 873l-127 -138l-39 22l64 178z" />
<glyph unicode="&#x151;" horiz-adv-x="588" d="M294 391q-53 0 -80.5 -37.5t-27.5 -103.5t27.5 -103.5t80.5 -37.5t80 37.5t27 103.5t-27 103.5t-80 37.5zM294 -10q-122 0 -185.5 70t-63.5 190t63.5 190t185.5 70q121 0 184.5 -70t63.5 -190t-63.5 -190t-184.5 -70zM341 673l-126 -138l-40 22l64 178zM483 673 l-127 -138l-39 22l64 178z" />
<glyph unicode="&#x152;" horiz-adv-x="1029" d="M354 109q84 0 127 53.5t43 187.5t-43.5 187.5t-126.5 53.5q-82 0 -125.5 -53.5t-43.5 -187.5t43.5 -187.5t125.5 -53.5zM524 700h455v-119h-314v-171h299v-119h-299v-172h324v-119h-465v36q-81 -46 -170 -46q-150 0 -230 82.5t-80 277.5t80 277.5t230 82.5q89 0 170 -46 v36z" />
<glyph unicode="&#x153;" horiz-adv-x="929" d="M829 150l45 -111q-102 -49 -198 -49q-126 0 -199 68q-65 -68 -183 -68q-122 0 -185.5 70t-63.5 190t63.5 190t185.5 70q113 0 178 -63q65 63 178 63t173 -65t60 -173v-74h-336q22 -89 132 -89q65 0 150 41zM294 391q-53 0 -80.5 -37.5t-27.5 -103.5t27.5 -103.5 t80.5 -37.5t80 37.5t27 103.5t-27 103.5t-80 37.5zM650 391q-78 0 -100 -78h191q-6 78 -91 78z" />
<glyph unicode="&#x154;" horiz-adv-x="583" d="M536 501q0 -167 -144 -205l173 -296h-161l-166 285h-38v-285h-141v700h238q116 0 177.5 -52t61.5 -147zM297 581h-97v-177h97q52 0 75 20.5t23 72.5q0 39 -25 61.5t-73 22.5zM409 851l-162 -116l-36 32l98 168z" />
<glyph unicode="&#x155;" horiz-adv-x="370" d="M351 500l-24 -131q-31 10 -55 10q-43 0 -57.5 -29.5t-14.5 -91.5v-258h-141v500h141v-47q36 57 96 57q26 0 55 -10zM312 651l-162 -116l-36 32l98 168z" />
<glyph unicode="&#x156;" horiz-adv-x="583" d="M536 501q0 -167 -144 -205l173 -296h-161l-166 285h-38v-285h-141v700h238q116 0 177.5 -52t61.5 -147zM297 581h-97v-177h97q52 0 75 20.5t23 72.5q0 39 -25 61.5t-73 22.5zM236 -47h114v-78q0 -54 -13 -89.5t-42 -74.5l-74 12q47 61 54 118h-39v112z" />
<glyph unicode="&#x157;" horiz-adv-x="370" d="M351 500l-24 -131q-31 10 -55 10q-43 0 -57.5 -29.5t-14.5 -91.5v-258h-141v500h141v-47q36 57 96 57q26 0 55 -10zM72 -47h114v-78q0 -54 -13 -89.5t-42 -74.5l-74 12q47 61 54 118h-39v112z" />
<glyph unicode="&#x158;" horiz-adv-x="583" d="M536 501q0 -167 -144 -205l173 -296h-161l-166 285h-38v-285h-141v700h238q116 0 177.5 -52t61.5 -147zM297 581h-97v-177h97q52 0 75 20.5t23 72.5q0 39 -25 61.5t-73 22.5zM108 912h134l36 -47l36 47h134l-117 -150h-105z" />
<glyph unicode="&#x159;" horiz-adv-x="370" d="M351 500l-24 -131q-31 10 -55 10q-43 0 -57.5 -29.5t-14.5 -91.5v-258h-141v500h141v-47q36 57 96 57q26 0 55 -10zM43 712h134l36 -47l36 47h134l-117 -150h-105z" />
<glyph unicode="&#x15a;" horiz-adv-x="603" d="M560 204q0 -114 -71.5 -164t-191.5 -50q-139 0 -258 68l55 113q55 -36 98 -49t104 -13q123 0 123 91q0 30 -20 49t-52 28.5t-70.5 17.5t-77 22t-70.5 36t-52 65t-20 104q0 92 68.5 140t175.5 48q131 0 243 -55l-47 -112q-92 48 -196 48q-46 0 -74.5 -17.5t-28.5 -51.5 t20 -55.5t52 -32t70.5 -18t77 -20t70.5 -32.5t52 -61t20 -99zM409 851l-162 -116l-36 32l98 168z" />
<glyph unicode="&#x15b;" horiz-adv-x="486" d="M434 467l-52 -114q-70 38 -135 38q-55 0 -55 -31q0 -17 26.5 -28.5t64 -22t74.5 -25.5t63.5 -47.5t26.5 -80.5q0 -84 -57 -125t-151 -41q-130 0 -210 66l65 108q81 -55 146 -55q66 0 66 37q0 20 -26.5 32.5t-63.5 22.5t-74.5 24.5t-64 48.5t-26.5 86q0 76 57 113t144 37 q104 0 182 -43zM349 651l-162 -116l-36 32l98 168z" />
<glyph unicode="&#x15c;" horiz-adv-x="603" d="M560 204q0 -114 -71.5 -164t-191.5 -50q-139 0 -258 68l55 113q55 -36 98 -49t104 -13q123 0 123 91q0 30 -20 49t-52 28.5t-70.5 17.5t-77 22t-70.5 36t-52 65t-20 104q0 92 68.5 140t175.5 48q131 0 243 -55l-47 -112q-92 48 -196 48q-46 0 -74.5 -17.5t-28.5 -51.5 t20 -55.5t52 -32t70.5 -18t77 -20t70.5 -32.5t52 -61t20 -99zM274 762h-134l118 150h105l117 -150h-134l-36 46z" />
<glyph unicode="&#x15d;" horiz-adv-x="486" d="M434 467l-52 -114q-70 38 -135 38q-55 0 -55 -31q0 -17 26.5 -28.5t64 -22t74.5 -25.5t63.5 -47.5t26.5 -80.5q0 -84 -57 -125t-151 -41q-130 0 -210 66l65 108q81 -55 146 -55q66 0 66 37q0 20 -26.5 32.5t-63.5 22.5t-74.5 24.5t-64 48.5t-26.5 86q0 76 57 113t144 37 q104 0 182 -43zM207 562h-134l118 150h105l117 -150h-134l-36 46z" />
<glyph unicode="&#x15e;" horiz-adv-x="603" d="M227 -107l21 100q-114 10 -209 65l55 113q55 -36 98 -49t104 -13q123 0 123 91q0 30 -20 49t-52 28.5t-70.5 17.5t-77 22t-70.5 36t-52 65t-20 104q0 92 68.5 140t175.5 48q131 0 243 -55l-47 -112q-92 48 -196 48q-46 0 -74.5 -17.5t-28.5 -51.5t20 -55.5t52 -32 t70.5 -18t77 -20t70.5 -32.5t52 -61t20 -99q0 -193 -215 -212l-6 -32q80 -9 80 -78q0 -51 -34 -75t-87 -24q-46 0 -97 17l23 78q32 -13 72 -13q26 0 26 13q0 15 -39 15h-56z" />
<glyph unicode="&#x15f;" horiz-adv-x="486" d="M170 -107l21 100q-100 10 -162 63l65 108q81 -55 146 -55q66 0 66 37q0 20 -26.5 32.5t-63.5 22.5t-74.5 24.5t-64 48.5t-26.5 86q0 76 57 113t144 37q104 0 182 -43l-52 -114q-70 38 -135 38q-55 0 -55 -31q0 -17 26.5 -28.5t64 -22t74.5 -25.5t63.5 -47.5t26.5 -80.5 q0 -141 -159 -162l-6 -34q80 -9 80 -78q0 -51 -34 -75t-87 -24q-46 0 -97 17l23 78q32 -13 72 -13q26 0 26 13q0 15 -39 15h-56z" />
<glyph unicode="&#x160;" horiz-adv-x="603" d="M560 204q0 -114 -71.5 -164t-191.5 -50q-139 0 -258 68l55 113q55 -36 98 -49t104 -13q123 0 123 91q0 30 -20 49t-52 28.5t-70.5 17.5t-77 22t-70.5 36t-52 65t-20 104q0 92 68.5 140t175.5 48q131 0 243 -55l-47 -112q-92 48 -196 48q-46 0 -74.5 -17.5t-28.5 -51.5 t20 -55.5t52 -32t70.5 -18t77 -20t70.5 -32.5t52 -61t20 -99zM140 912h134l36 -47l36 47h134l-117 -150h-105z" />
<glyph unicode="&#x161;" horiz-adv-x="486" d="M434 467l-52 -114q-70 38 -135 38q-55 0 -55 -31q0 -17 26.5 -28.5t64 -22t74.5 -25.5t63.5 -47.5t26.5 -80.5q0 -84 -57 -125t-151 -41q-130 0 -210 66l65 108q81 -55 146 -55q66 0 66 37q0 20 -26.5 32.5t-63.5 22.5t-74.5 24.5t-64 48.5t-26.5 86q0 76 57 113t144 37 q104 0 182 -43zM73 712h134l36 -47l36 47h134l-117 -150h-105z" />
<glyph unicode="&#x162;" horiz-adv-x="588" d="M551 581h-187v-581h-141v581h-187v119h515v-119zM233 -47h114v-78q0 -54 -13 -89.5t-42 -74.5l-74 12q47 61 54 118h-39v112z" />
<glyph unicode="&#x163;" horiz-adv-x="379" d="M85 381h-67v119h67v160h141v-160h124v-119h-124v-197q0 -40 12.5 -57.5t39.5 -17.5q29 0 62 20l29 -113q-63 -26 -117 -26q-167 0 -167 186v205zM147 -47h114v-78q0 -54 -13 -89.5t-42 -74.5l-74 12q47 61 54 118h-39v112z" />
<glyph unicode="&#x164;" horiz-adv-x="588" d="M551 581h-187v-581h-141v581h-187v119h515v-119zM125 912h134l36 -47l36 47h134l-117 -150h-105z" />
<glyph unicode="&#x165;" horiz-adv-x="500" d="M85 381h-67v119h67v160h141v-160h124v-119h-124v-197q0 -40 12.5 -57.5t39.5 -17.5q29 0 62 20l29 -113q-63 -26 -117 -26q-167 0 -167 186v205zM369 700h134v-51q0 -116 -50 -189l-74 22q34 45 41 95h-51v123z" />
<glyph unicode="&#x166;" horiz-adv-x="588" d="M551 581h-187v-136h117v-122h-117v-323h-141v323h-117v122h117v136h-187v119h515v-119z" />
<glyph unicode="&#x167;" horiz-adv-x="379" d="M85 381h-67v119h67v160h141v-160h124v-119h-124v-56h124v-119h-124v-22q0 -40 12.5 -57.5t39.5 -17.5q29 0 62 20l29 -113q-63 -26 -117 -26q-167 0 -167 186v30h-67v119h67v56z" />
<glyph unicode="&#x168;" horiz-adv-x="683" d="M624 700v-474q0 -82 -42.5 -137t-104 -77t-136.5 -22q-118 0 -200 58.5t-82 177.5v474h141v-474q0 -60 40.5 -88.5t100.5 -28.5t101 28.5t41 88.5v474h141zM269 769l-87 22q16 112 94 112q27 0 67 -16.5t51 -16.5q16 0 21 33l87 -22q-16 -112 -94 -112q-27 0 -67 16.5 t-51 16.5q-16 0 -21 -33z" />
<glyph unicode="&#x169;" horiz-adv-x="557" d="M357 56q-42 -66 -126 -66q-172 0 -172 190v320h141v-314q0 -38 18 -57.5t48 -19.5q42 0 66.5 39t24.5 110v242h141v-318q0 -101 11 -182h-140q-11 27 -12 56zM205 569l-87 22q16 112 94 112q27 0 67 -16.5t51 -16.5q16 0 21 33l87 -22q-16 -112 -94 -112q-27 0 -67 16.5 t-51 16.5q-16 0 -21 -33z" />
<glyph unicode="&#x16a;" horiz-adv-x="683" d="M624 700v-474q0 -82 -42.5 -137t-104 -77t-136.5 -22q-118 0 -200 58.5t-82 177.5v474h141v-474q0 -60 40.5 -88.5t100.5 -28.5t101 28.5t41 88.5v474h141zM190 882h302v-113h-302v113z" />
<glyph unicode="&#x16b;" horiz-adv-x="557" d="M357 56q-42 -66 -126 -66q-172 0 -172 190v320h141v-314q0 -38 18 -57.5t48 -19.5q42 0 66.5 39t24.5 110v242h141v-318q0 -101 11 -182h-140q-11 27 -12 56zM126 682h302v-113h-302v113z" />
<glyph unicode="&#x16c;" horiz-adv-x="683" d="M624 700v-474q0 -82 -42.5 -137t-104 -77t-136.5 -22q-118 0 -200 58.5t-82 177.5v474h141v-474q0 -60 40.5 -88.5t100.5 -28.5t101 28.5t41 88.5v474h141zM472 912v-35q0 -58 -35 -86.5t-95 -28.5q-59 0 -94.5 28.5t-35.5 86.5v35h109v-26q0 -24 20 -24q21 0 21 24v26 h110z" />
<glyph unicode="&#x16d;" horiz-adv-x="557" d="M357 56q-42 -66 -126 -66q-172 0 -172 190v320h141v-314q0 -38 18 -57.5t48 -19.5q42 0 66.5 39t24.5 110v242h141v-318q0 -101 11 -182h-140q-11 27 -12 56zM407 712v-35q0 -58 -35 -86.5t-95 -28.5q-59 0 -94.5 28.5t-35.5 86.5v35h109v-26q0 -24 20 -24q21 0 21 24v26 h110z" />
<glyph unicode="&#x16e;" horiz-adv-x="683" d="M624 700v-474q0 -82 -42.5 -137t-104 -77t-136.5 -22q-118 0 -200 58.5t-82 177.5v474h141v-474q0 -60 40.5 -88.5t100.5 -28.5t101 28.5t41 88.5v474h141zM342 823q25 0 25 26q0 25 -25 25t-25 -25q0 -26 25 -26zM342 755q-43 0 -69 25t-26 69t25.5 68.5t69.5 24.5 q43 0 69 -24.5t26 -68.5t-26 -69t-69 -25z" />
<glyph unicode="&#x16f;" horiz-adv-x="557" d="M357 56q-42 -66 -126 -66q-172 0 -172 190v320h141v-314q0 -38 18 -57.5t48 -19.5q42 0 66.5 39t24.5 110v242h141v-318q0 -101 11 -182h-140q-11 27 -12 56zM277 623q25 0 25 26q0 25 -25 25t-25 -25q0 -26 25 -26zM277 555q-43 0 -69 25t-26 69t25.5 68.5t69.5 24.5 q43 0 69 -24.5t26 -68.5t-26 -69t-69 -25z" />
<glyph unicode="&#x170;" horiz-adv-x="683" d="M624 700v-474q0 -82 -42.5 -137t-104 -77t-136.5 -22q-118 0 -200 58.5t-82 177.5v474h141v-474q0 -60 40.5 -88.5t100.5 -28.5t101 28.5t41 88.5v474h141zM395 873l-126 -138l-40 22l64 178zM537 873l-127 -138l-39 22l64 178z" />
<glyph unicode="&#x171;" horiz-adv-x="557" d="M357 56q-42 -66 -126 -66q-172 0 -172 190v320h141v-314q0 -38 18 -57.5t48 -19.5q42 0 66.5 39t24.5 110v242h141v-318q0 -101 11 -182h-140q-11 27 -12 56zM331 673l-126 -138l-40 22l64 178zM473 673l-127 -138l-39 22l64 178z" />
<glyph unicode="&#x172;" horiz-adv-x="683" d="M624 700v-474q0 -97 -56 -154t-145 -74q-61 -41 -61 -89q0 -32 42 -32h30l-43 -94h-13q-124 0 -124 98q0 67 58 110q-109 7 -181 65.5t-72 169.5v474h141v-474q0 -60 40.5 -88.5t100.5 -28.5t101 28.5t41 88.5v474h141z" />
<glyph unicode="&#x173;" horiz-adv-x="557" d="M407 0h-38q-11 27 -12 56q-42 -66 -126 -66q-172 0 -172 190v320h141v-314q0 -38 18 -57.5t48 -19.5q42 0 66.5 39t24.5 110v242h141v-318q0 -101 11 -182q-65 -43 -65 -91q0 -32 42 -32h30l-43 -94h-13q-124 0 -124 98q0 72 71 119z" />
<glyph unicode="&#x174;" horiz-adv-x="1011" d="M430 700h151l133 -431l133 431h147l-216 -700h-128l-145 468l-144 -468h-128l-216 700h147l133 -431zM469 762h-134l118 150h105l117 -150h-134l-36 46z" />
<glyph unicode="&#x175;" horiz-adv-x="714" d="M158 0h123l76 263l76 -263h123l148 500h-153l-60 -250l-64 250h-140l-65 -250l-59 250h-153zM320 562h-134l118 150h105l117 -150h-134l-36 46z" />
<glyph unicode="&#x176;" horiz-adv-x="597" d="M17 700h159l122 -231l123 231h159l-211 -391v-309h-141v309zM262 762h-134l118 150h105l117 -150h-134l-36 46z" />
<glyph unicode="&#x177;" horiz-adv-x="532" d="M87 -200l103 253l-180 447h153l103 -296l104 296h151l-282 -700h-152zM231 562h-134l118 150h105l117 -150h-134l-36 46z" />
<glyph unicode="&#x178;" horiz-adv-x="597" d="M17 700h159l122 -231l123 231h159l-211 -391v-309h-141v309zM145 769v120h123v-120h-123zM329 769v120h123v-120h-123z" />
<glyph unicode="&#x179;" horiz-adv-x="622" d="M566 639l-322 -515h337v-124h-541v61l321 515h-306v124h511v-61zM411 851l-162 -116l-36 32l98 168z" />
<glyph unicode="&#x17a;" horiz-adv-x="483" d="M448 437l-212 -313h221v-124h-432v63l211 313h-202v124h414v-63zM345 651l-162 -116l-36 32l98 168z" />
<glyph unicode="&#x17b;" horiz-adv-x="622" d="M566 639l-322 -515h337v-124h-541v61l321 515h-306v124h511v-61zM243 769v120h123v-120h-123z" />
<glyph unicode="&#x17c;" horiz-adv-x="483" d="M448 437l-212 -313h221v-124h-432v63l211 313h-202v124h414v-63zM182 569v120h123v-120h-123z" />
<glyph unicode="&#x17d;" horiz-adv-x="622" d="M566 639l-322 -515h337v-124h-541v61l321 515h-306v124h511v-61zM134 912h134l36 -47l36 47h134l-117 -150h-105z" />
<glyph unicode="&#x17e;" horiz-adv-x="483" d="M448 437l-212 -313h221v-124h-432v63l211 313h-202v124h414v-63zM73 712h134l36 -47l36 47h134l-117 -150h-105z" />
<glyph unicode="&#x192;" horiz-adv-x="616" d="M219 117l12 223h-148v119h155l4 65q12 216 195 216q56 0 133 -21l-30 -112q-54 14 -77 14q-74 0 -79 -98l-4 -64h153v-119h-160l-12 -224q-12 -216 -195 -216q-56 0 -133 21l30 112q47 -14 77 -14q74 0 79 98z" />
<glyph unicode="&#x2c6;" horiz-adv-x="344" d="M136 562h-134l118 150h105l117 -150h-134l-36 46z" />
<glyph unicode="&#x2c7;" horiz-adv-x="344" d="M2 712h134l36 -47l36 47h134l-117 -150h-105z" />
<glyph unicode="&#x2d8;" horiz-adv-x="274" d="M267 712v-35q0 -58 -35 -86.5t-95 -28.5q-59 0 -94.5 28.5t-35.5 86.5v35h109v-26q0 -24 20 -24q21 0 21 24v26h110z" />
<glyph unicode="&#x2d9;" horiz-adv-x="157" d="M17 569v120h123v-120h-123z" />
<glyph unicode="&#x2da;" horiz-adv-x="230" d="M115 623q25 0 25 26q0 25 -25 25t-25 -25q0 -26 25 -26zM115 555q-43 0 -69 25t-26 69t25.5 68.5t69.5 24.5q43 0 69 -24.5t26 -68.5t-26 -69t-69 -25z" />
<glyph unicode="&#x2db;" horiz-adv-x="207" d="M91 0h102q-65 -43 -65 -91q0 -32 42 -32h30l-43 -94h-13q-124 0 -124 98q0 72 71 119z" />
<glyph unicode="&#x2dc;" horiz-adv-x="334" d="M94 569l-87 22q16 112 94 112q27 0 67 -16.5t51 -16.5q17 0 21 33l87 -22q-16 -112 -94 -112q-27 0 -67 16.5t-51 16.5q-17 0 -21 -33z" />
<glyph unicode="&#x2dd;" horiz-adv-x="324" d="M174 673l-126 -138l-40 22l64 178zM316 673l-127 -138l-39 22l64 178z" />
<glyph unicode="&#x3c0;" horiz-adv-x="644" d="M251 0h-141v461h-80v119h597v-119h-103v-306q0 -40 29 -40q17 0 45 14l27 -118q-66 -21 -110 -21q-68 0 -100 40t-32 133v298h-132v-461z" />
<glyph unicode="&#xe01;" horiz-adv-x="543" d="M348 0v305q0 49 -19.5 67.5t-58.5 18.5q-17 0 -51 -4l28 -54q-33 -21 -42.5 -48t-9.5 -87v-198h-141v213q0 65 8.5 90t41.5 52l-66 127q133 28 223 28q126 0 177 -48.5t51 -152.5v-309h-141z" />
<glyph unicode="&#xe02;" horiz-adv-x="507" d="M50 500h130q58 0 77.5 -17t19.5 -67v-83l-60 -63q-18 -19 -22 -31.5t-4 -48.5v-31q0 -24 18 -37t43 -13t42.5 13t17.5 38v340h141v-349q0 -73 -60.5 -117t-140.5 -44q-82 0 -142 42.5t-60 113.5v42q0 54 6.5 75.5t29.5 46.5l54 57v14h-90v119z" />
<glyph unicode="&#xe03;" horiz-adv-x="507" d="M453 500v-349q0 -73 -60.5 -117t-140.5 -44q-82 0 -142 42.5t-60 113.5v21q0 54 6.5 75.5t29.5 46.5l80 83v19q-30 -33 -70 -33q-27 0 -45 20t-18 57v65h115v-44q0 -22 12 -22q14 0 25 29l13 37h79v-188l-60 -63q-17 -18 -21.5 -31.5t-4.5 -49.5v-9q0 -24 18 -37t43 -13 t42.5 13t17.5 38v340h141z" />
<glyph unicode="&#xe04;" horiz-adv-x="536" d="M35 0l71 174q-69 54 -69 148q0 88 59 138t170 50q95 0 155.5 -45t60.5 -140v-325h-141v308q0 46 -20 64.5t-63 18.5q-80 0 -80 -88v-13h127v-119h-48l-69 -171h-153z" />
<glyph unicode="&#xe05;" horiz-adv-x="536" d="M35 0l71 174q-69 55 -69 148q0 87 44.5 137.5t118.5 50.5q46 0 76.5 -17.5t54.5 -56.5h18l21 64h112v-500h-141v317h-48q-18 0 -25 6t-15 24q-10 25 -19 34.5t-24 9.5q-32 0 -32 -55v-77h127v-119h-60l-57 -140h-153z" />
<glyph unicode="&#xe06;" horiz-adv-x="536" d="M148 500v-44q0 -22 12 -22q14 0 25 29l13 37h83v-188l-63 -66q-30 -31 -30 -75q0 -30 21.5 -46t54.5 -16q77 0 77 81v310h141v-328q0 -96 -50 -139t-124 -43q-75 0 -120 62q-2 -22 -10 -52h-141q10 64 10 153v12q0 54 6.5 75.5t29.5 46.5l83 85v19q-30 -33 -70 -33 q-27 0 -45 20t-18 57v65h115z" />
<glyph unicode="&#xe07;" horiz-adv-x="477" d="M196 0h-24q-27 0 -38 6t-19 26l-108 251h148l69 -164q34 0 52.5 39t18.5 105q0 63 -29.5 90.5t-100.5 27.5h-13v119h32q133 0 192.5 -59.5t59.5 -177.5q0 -127 -61.5 -195t-178.5 -68z" />
<glyph unicode="&#xe08;" horiz-adv-x="534" d="M245 0h-55q-30 0 -40.5 8.5t-18.5 31.5l-35 113h-67v119h170l49 -153h6q46 0 73 40.5t27 109.5q0 68 -23 95t-71 27q-77 0 -97 -75l-132 46q56 148 229 148q118 0 176.5 -58t58.5 -183q0 -121 -63 -195t-187 -74z" />
<glyph unicode="&#xe09;" horiz-adv-x="561" d="M31 291h89q58 0 76.5 -17t18.5 -69v-13q0 -43 16.5 -63t43.5 -20q43 0 67 32t24 92v68q0 90 -88 90q-80 0 -109 -79l-132 46q58 152 237 152q109 0 171 -53t62 -156v-148q0 -89 10 -153h-139q-9 26 -12 52q-59 -62 -139 -62q-66 0 -109.5 44.5t-43.5 125.5v12h-43v119z " />
<glyph unicode="&#xe0a;" horiz-adv-x="507" d="M50 146v42q0 54 6.5 75.5t29.5 46.5l54 57v14h-90v119h130q58 0 77.5 -17t19.5 -67v-11h3l71 115h151l-92 -151q43 -31 43 -115v-103q0 -73 -60.5 -117t-140.5 -44q-82 0 -142 42.5t-60 113.5zM312 239q0 45 -10 58.5t-44 15.5l-41 -43q-18 -19 -22 -31.5t-4 -48.5v-31 q0 -24 18 -37t43 -13t42.5 13t17.5 38v79z" />
<glyph unicode="&#xe0b;" horiz-adv-x="507" d="M96 358q-27 0 -45 20t-18 57v65h115v-44q0 -22 13 -22q15 0 24 29l13 37h79v-101l74 121h151l-92 -151q43 -31 43 -115v-103q0 -73 -60.5 -117t-140.5 -44q-82 0 -142 42.5t-60 113.5v21q0 54 6.5 75.5t29.5 46.5l80 83v19q-30 -33 -70 -33zM312 239q0 40 -7.5 53 t-31.5 15l-56 -58q-17 -18 -21.5 -31.5t-4.5 -49.5v-9q0 -24 18 -37t43 -13t42.5 13t17.5 38v79z" />
<glyph unicode="&#xe0c;" horiz-adv-x="837" d="M489 309v-70q0 -61 24.5 -95.5t60.5 -34.5q68 0 68 81v310h141v-328q0 -91 -45 -136.5t-113 -45.5q-85 0 -136 62q-4 -30 -10 -52h-141q10 64 10 153v152q0 49 -19.5 67.5t-58.5 18.5q-17 0 -51 -4l28 -54q-33 -21 -42.5 -48t-9.5 -87v-79h83v-119h-152q-40 0 -56 13 t-16 46v154q0 65 8.5 90t41.5 52l-66 127q133 28 223 28q126 0 177 -48.5t51 -152.5z" />
<glyph unicode="&#xe0d;" horiz-adv-x="837" d="M642 187v313h141v-341q0 -69 -45 -111q45 -39 45 -96q0 -55 -41 -89t-120 -34h-233l54 119h153q22 0 34 8.5t12 21.5q0 8 -7 19q-32 -7 -70 -7q-91 0 -154 43t-63 130v142q0 49 -19.5 67.5t-58.5 18.5q-17 0 -51 -4l28 -54q-33 -21 -42.5 -48t-9.5 -87v-79h83v-119h-152 q-40 0 -56 13t-16 46v154q0 65 8.5 90t41.5 52l-66 127q133 28 223 28q126 0 177 -48.5t51 -152.5v-122q0 -39 22.5 -58.5t54.5 -19.5t54 19.5t22 58.5z" />
<glyph unicode="&#xe0e;" horiz-adv-x="543" d="M348 8v297q0 49 -19.5 67.5t-58.5 18.5q-17 0 -51 -4l28 -54q-33 -21 -42.5 -48t-9.5 -87v-106q0 -54 -20 -73t-78 -19h-87v119h67l-23 63v31q0 65 8.5 90t41.5 52l-66 127q133 28 223 28q126 0 177 -48.5t51 -152.5v-317q0 -109 -45 -150.5t-166 -41.5h-231v119h218 q47 0 65 17.5t18 71.5z" />
<glyph unicode="&#xe0f;" horiz-adv-x="543" d="M208 -13h73l67 -42v360q0 49 -19.5 67.5t-58.5 18.5q-17 0 -51 -4l28 -54q-33 -21 -42.5 -48t-9.5 -87v-106q0 -54 -20 -73t-78 -19h-87v119h67l-23 63v31q0 65 8.5 90t41.5 52l-66 127q133 28 223 28q126 0 177 -48.5t51 -152.5v-509h-132l-109 70q-75 -70 -211 -70v119 q136 0 171 68z" />
<glyph unicode="&#xe10;" horiz-adv-x="490" d="M442 284v-80q0 -101 -49 -152.5t-167 -51.5h-118l-32 106h-50v119h151l34 -112h18q40 0 56 22.5t16 68.5v44h-269v55q0 98 58 152.5t178 54.5q78 0 179 -22l-28 -106q-77 22 -143 22q-83 0 -103 -43h184q50 0 67.5 -17t17.5 -60zM329 -23h141v-177h-132l-109 61 q-67 -61 -212 -61v119q70 0 112.5 12.5t59.5 45.5h73l67 -37v37z" />
<glyph unicode="&#xe11;" horiz-adv-x="567" d="M224 260v-260h-141v131q0 62 12 110t28.5 86.5t20.5 58.5q-29 -28 -66 -28q-28 0 -45.5 20t-17.5 57v65h115v-44q0 -21 14 -21q16 0 19 20l7 45h93v-46q45 56 119 56q63 0 97 -45t34 -131v-334h-141v318q0 39 -16 56t-50 17q-82 0 -82 -131z" />
<glyph unicode="&#xe12;" horiz-adv-x="848" d="M359 153v141h-22q-28 0 -41.5 11t-26.5 37q-25 49 -51 49q-50 0 -50 -142q0 -140 82 -140q18 0 44 7l28 -108q-44 -18 -87 -18q-97 0 -152.5 65t-55.5 178q0 277 181 277q55 0 88 -23t60 -74h7l27 87h110v-261q0 -61 24.5 -95.5t60.5 -34.5q68 0 68 81v310h141v-328 q0 -91 -45 -136.5t-113 -45.5q-85 0 -136 62q-4 -30 -10 -52h-141q10 64 10 153z" />
<glyph unicode="&#xe13;" horiz-adv-x="837" d="M348 189v116q0 49 -19.5 67.5t-58.5 18.5q-17 0 -51 -4l28 -54q-33 -21 -42.5 -48t-9.5 -87v-79h83v-119h-152q-40 0 -56 13t-16 46v154q0 65 8.5 90t41.5 52l-66 127q133 28 223 28q126 0 177 -48.5t51 -152.5v-105q0 -95 59 -95q94 0 94 153v238h141v-347 q0 -89 10 -153h-145q-5 31 -6 56q-66 -66 -142 -66q-72 0 -112 49t-40 150z" />
<glyph unicode="&#xe14;" horiz-adv-x="554" d="M250 109q18 0 44 7l28 -108q-44 -18 -87 -18q-101 0 -154.5 65.5t-53.5 184.5q0 137 63.5 203.5t180.5 66.5q229 0 229 -226v-284h-141v285q0 106 -88 106q-52 0 -77.5 -40.5t-25.5 -110.5q0 -62 21 -96.5t61 -34.5z" />
<glyph unicode="&#xe15;" horiz-adv-x="554" d="M294 116l28 -108q-44 -18 -87 -18q-97 0 -152.5 65t-55.5 178q0 277 181 277q55 0 88 -23t60 -74h7l27 87h110v-500h-141v294h-22q-28 0 -41.5 11t-26.5 37q-25 49 -51 49q-50 0 -50 -142q0 -140 82 -140q18 0 44 7z" />
<glyph unicode="&#xe16;" horiz-adv-x="543" d="M348 0v305q0 49 -19.5 67.5t-58.5 18.5q-17 0 -51 -4l28 -54q-33 -21 -42.5 -48t-9.5 -87v-79h83v-119h-152q-43 0 -57.5 14.5t-14.5 55.5v143q0 65 8.5 90t41.5 52l-66 127q133 28 223 28q126 0 177 -48.5t51 -152.5v-309h-141z" />
<glyph unicode="&#xe17;" horiz-adv-x="538" d="M54 0v347q0 89 -10 153h142q7 -24 9 -52q57 62 125 62q69 0 116.5 -43.5t47.5 -139.5v-327h-141v318q0 39 -16 56t-50 17q-82 0 -82 -131v-260h-141z" />
<glyph unicode="&#xe18;" horiz-adv-x="513" d="M459 265v-102q0 -88 -58.5 -130.5t-148.5 -42.5t-147.5 42t-57.5 132v61h141v-48q0 -39 16.5 -53.5t47.5 -14.5t48.5 14.5t17.5 54.5v70h-274v53q0 118 61.5 163t178.5 45q76 0 177 -21l-24 -105q-60 17 -134 17q-87 0 -109 -42h163q61 0 81.5 -19t20.5 -74z" />
<glyph unicode="&#xe19;" horiz-adv-x="543" d="M54 500h141v-296q0 -95 59 -95q94 0 94 153v238h141v-347q0 -89 10 -153h-145q-5 31 -6 56q-66 -66 -142 -66q-72 0 -112 49t-40 150v311z" />
<glyph unicode="&#xe1a;" horiz-adv-x="543" d="M54 500h141v-321q0 -34 22.5 -52t53.5 -18q32 0 54.5 18t22.5 52v321h141v-339q0 -84 -63.5 -127.5t-154.5 -43.5q-90 0 -153.5 43.5t-63.5 127.5v339z" />
<glyph unicode="&#xe1b;" horiz-adv-x="543" d="M54 500h141v-321q0 -34 22.5 -52t53.5 -18q32 0 54.5 18t22.5 52v521h141v-539q0 -84 -63.5 -127.5t-154.5 -43.5q-90 0 -153.5 43.5t-63.5 127.5v339z" />
<glyph unicode="&#xe1c;" horiz-adv-x="613" d="M259 332h95l64 -130v298h141v-500h-141l-112 167l-111 -167h-141v316q0 110 33.5 147t142.5 37h59v-119h-49q-27 0 -36 -13.5t-9 -56.5v-109z" />
<glyph unicode="&#xe1d;" horiz-adv-x="613" d="M259 332h95l64 -130v498h141v-700h-141l-112 167l-111 -167h-141v316q0 110 33.5 147t142.5 37h59v-119h-49q-27 0 -36 -13.5t-9 -56.5v-109z" />
<glyph unicode="&#xe1e;" horiz-adv-x="613" d="M54 500h141v-245l67 174h89l67 -174v245h141v-500h-141l-112 216l-111 -216h-141v500z" />
<glyph unicode="&#xe1f;" horiz-adv-x="613" d="M54 500h141v-245l67 174h89l67 -174v445h141v-700h-141l-112 216l-111 -216h-141v500z" />
<glyph unicode="&#xe20;" horiz-adv-x="543" d="M54 182v31q0 65 8.5 90t41.5 52l-66 127q133 28 223 28q126 0 177 -48.5t51 -152.5v-309h-141v305q0 49 -19.5 67.5t-58.5 18.5q-17 0 -51 -4l28 -54q-33 -21 -42.5 -48t-9.5 -87v-106q0 -54 -20 -73t-78 -19h-87v119h67z" />
<glyph unicode="&#xe21;" horiz-adv-x="543" d="M54 500h141v-261q0 -61 24.5 -95.5t60.5 -34.5q68 0 68 81v310h141v-328q0 -91 -45 -136.5t-113 -45.5q-85 0 -136 62q-4 -30 -10 -52h-141q10 64 10 153v347z" />
<glyph unicode="&#xe22;" horiz-adv-x="537" d="M47 403v27q0 41 15 55.5t60 14.5h151v-119h-85q0 -24 11 -34.5t40 -10.5h59v-119h-55q-37 0 -53.5 -11t-16.5 -37q0 -60 79 -60q90 0 90 93v298h142v-332q0 -89 -62 -133.5t-162 -44.5q-65 0 -113.5 14.5t-81.5 54t-33 101.5q0 79 74 120q-59 40 -59 123z" />
<glyph unicode="&#xe23;" horiz-adv-x="476" d="M416 474l-41 -118q-82 29 -144 29q-49 0 -49 -23q0 -18 26.5 -29t64 -20t74.5 -23t63.5 -46t26.5 -80q0 -92 -58 -133t-148 -41q-115 0 -202 40l39 121q79 -36 155 -36q73 0 73 29q0 18 -19 30.5t-47 19t-61.5 19t-61.5 28t-47 47.5t-19 77q0 73 55.5 109t139.5 36 q95 0 180 -36z" />
<glyph unicode="&#xe24;" horiz-adv-x="543" d="M348 -200v505q0 49 -19.5 67.5t-58.5 18.5q-17 0 -51 -4l28 -54q-33 -21 -42.5 -48t-9.5 -87v-79h83v-119h-152q-43 0 -57.5 14.5t-14.5 55.5v143q0 65 8.5 90t41.5 52l-66 127q133 28 223 28q126 0 177 -48.5t51 -152.5v-509h-141z" />
<glyph unicode="&#xe25;" horiz-adv-x="523" d="M469 323v-323h-141v183q-46 8 -74 8q-91 0 -91 -46q0 -36 43 -36q24 0 67 13l23 -109q-51 -23 -108 -23q-68 0 -117 40t-49 112q0 79 55 123.5t169 44.5q20 0 82 -6v20q0 31 -20 49t-55 18q-66 0 -84 -61l-133 43q50 137 227 137q92 0 149 -48t57 -139z" />
<glyph unicode="&#xe26;" horiz-adv-x="543" d="M54 182v31q0 65 8.5 90t41.5 52l-66 127q133 28 223 28q126 0 177 -48.5t51 -152.5v-509h-141v505q0 49 -19.5 67.5t-58.5 18.5q-17 0 -51 -4l28 -54q-33 -21 -42.5 -48t-9.5 -87v-106q0 -54 -20 -73t-78 -19h-87v119h67z" />
<glyph unicode="&#xe27;" horiz-adv-x="512" d="M39 121l125 58q11 -35 27.5 -52.5t45.5 -17.5q96 0 96 144q0 138 -92 138q-33 0 -51.5 -17.5t-35.5 -56.5l-130 41q61 152 217 152q115 0 174 -66t59 -191q0 -263 -237 -263q-85 0 -129 37t-69 94z" />
<glyph unicode="&#xe28;" horiz-adv-x="536" d="M35 0l71 174q-69 54 -69 148q0 88 59 138t170 50q47 0 89 -12l21 32h160l-75 -112q21 -40 21 -93v-325h-141v308q0 46 -20 64.5t-63 18.5q-80 0 -80 -88v-13h127v-119h-48l-69 -171h-153z" />
<glyph unicode="&#xe29;" horiz-adv-x="543" d="M271 219v119h77v162h141v-162h44v-59l-44 -45v-73q0 -84 -63.5 -127.5t-154.5 -43.5q-90 0 -153.5 43.5t-63.5 127.5v339h141v-321q0 -34 22.5 -52t53.5 -18q32 0 54.5 18t22.5 52v40h-77z" />
<glyph unicode="&#xe2a;" horiz-adv-x="523" d="M469 323v-323h-141v183q-46 8 -74 8q-91 0 -91 -46q0 -36 43 -36q24 0 67 13l23 -109q-51 -23 -108 -23q-68 0 -117 40t-49 112q0 79 55 123.5t169 44.5q20 0 82 -6v20q0 31 -20 49t-55 18q-66 0 -84 -61l-133 43q50 137 227 137q41 0 79 -11l21 31h160l-76 -113 q22 -41 22 -94z" />
<glyph unicode="&#xe2b;" horiz-adv-x="544" d="M54 500h141v-145h39l96 145h159l-103 -155q59 -15 83.5 -57.5t24.5 -123.5v-164h-141v147q0 49 -16.5 69t-60.5 20h-81v-236h-141v500z" />
<glyph unicode="&#xe2c;" horiz-adv-x="613" d="M418 255v168q0 38 -10.5 52t-42.5 14h-64v79l98 132h160l-88 -118q88 -25 88 -159v-423h-141l-112 216l-111 -216h-141v500h141v-245l67 174h89z" />
<glyph unicode="&#xe2d;" horiz-adv-x="550" d="M112 303h179v-119h-113q0 -35 24 -55t62 -20q53 0 80 34t27 112q0 72 -29.5 104t-71.5 32q-67 0 -85 -62l-133 44q20 64 77 100.5t141 36.5q112 0 177 -61.5t65 -193.5q0 -265 -248 -265q-101 0 -164 55t-63 162v24q0 42 15 57t60 15z" />
<glyph unicode="&#xe2e;" horiz-adv-x="550" d="M112 303h179v-119h-113q0 -35 24 -55t62 -20q53 0 80 34t27 112q0 72 -29.5 104t-71.5 32q-67 0 -85 -62l-133 44q20 64 77 100.5t141 36.5q52 0 97 -14l23 34h160l-77 -115q39 -61 39 -160q0 -265 -248 -265q-101 0 -164 55t-63 162v24q0 42 15 57t60 15z" />
<glyph unicode="&#xe2f;" horiz-adv-x="495" d="M441 500v-500h-141v246q-48 -45 -125 -45q-141 0 -141 154q0 74 41.5 114.5t116.5 40.5q38 0 89 -14l-27 -113q-24 8 -42 8q-37 0 -37 -36q0 -35 32 -35q37 0 60 31.5t43 94.5l17 54h114z" />
<glyph unicode="&#xe30;" horiz-adv-x="345" d="M184 489v-53h121v-119h-186q-41 0 -58.5 15.5t-17.5 54.5v102h141zM184 207v-52h121v-119h-186q-41 0 -58.5 15.5t-17.5 54.5v101h141z" />
<glyph unicode="&#xe31;" d="M-216 725v-63h232l-41 -113h-253q-39 0 -52.5 13t-13.5 55v108h128z" />
<glyph unicode="&#xe32;" horiz-adv-x="365" d="M311 334v-334h-141v326q0 36 -14 50.5t-42 14.5q-37 0 -76 -18l-28 116q69 21 128 21q173 0 173 -176z" />
<glyph unicode="&#xe33;" horiz-adv-x="365" d="M-142 659q-24 0 -24 -24t24 -24q23 0 23 24t-23 24zM-142 548q-42 0 -65 22.5t-23 64.5t23 64.5t65 22.5t65 -22.5t23 -64.5t-23 -64.5t-65 -22.5zM311 334v-334h-141v326q0 36 -14 50.5t-42 14.5q-37 0 -76 -18l-28 116q69 21 128 21q173 0 173 -176z" />
<glyph unicode="&#xe34;" d="M-435 549v113h381l-51 -113h-330z" />
<glyph unicode="&#xe35;" d="M-54 549h-381l52 113h201v60h128v-173z" />
<glyph unicode="&#xe36;" d="M-136 549h-299l52 113h162q15 60 85 60q41 0 64.5 -22.5t23.5 -64.5q0 -40 -23.5 -63t-64.5 -23zM-136 663q-28 0 -28 -28q0 -27 28 -27t28 27q0 28 -28 28z" />
<glyph unicode="&#xe37;" d="M-54 549h-381l52 113h114v60h95v-60h24v60h96v-173z" />
<glyph unicode="&#xe38;" d="M-53 -225h-115v83h-35v107h81q38 0 53.5 -13.5t15.5 -54.5v-122z" />
<glyph unicode="&#xe39;" d="M-171 -225q-112 0 -112 105v85h102v-74q0 -21 10 -21t10 21v74h102v-85q0 -105 -112 -105z" />
<glyph unicode="&#xe3a;" d="M-219 -120q0 35 25.5 60t60.5 25q36 0 61.5 -25t25.5 -60t-25.5 -60t-61.5 -25q-35 0 -60.5 25t-25.5 60z" />
<glyph unicode="&#xe3f;" horiz-adv-x="616" d="M543 468q0 -97 -75 -146q83 -42 83 -144q0 -82 -43 -125t-132 -51v-96h-141v94h-150v638h150v92h141v-94q167 -18 167 -168zM311 259h-85v-140h86q51 0 74.5 16t23.5 57q0 37 -23.5 52t-75.5 15zM226 519v-141h86q47 0 68.5 18t21.5 60q0 34 -23 48.5t-72 14.5h-81z" />
<glyph unicode="&#xe40;" horiz-adv-x="267" d="M54 71v429h141v-381h52v-119h-121q-43 0 -57.5 14.5t-14.5 56.5z" />
<glyph unicode="&#xe41;" horiz-adv-x="519" d="M306 71v429h141v-381h52v-119h-122q-42 0 -56.5 14.5t-14.5 56.5zM54 71v429h141v-381h62v-119h-131q-43 0 -57.5 14.5t-14.5 56.5z" />
<glyph unicode="&#xe42;" horiz-adv-x="274" d="M64 71v502q0 84 -13 123t-57 78v76h350l-52 -119h-110q15 -29 19 -59t4 -99v-454h52v-119h-122q-42 0 -56.5 14.5t-14.5 56.5z" />
<glyph unicode="&#xe43;" horiz-adv-x="274" d="M64 71v315q0 54 23 113t46.5 109.5t23.5 82.5q0 40 -21 40q-22 0 -22 -35v-54l-135 41v23q0 64 39.5 104t116.5 40q74 0 115.5 -33.5t41.5 -100.5q0 -53 -21.5 -109.5t-43.5 -118.5t-22 -129v-240h52v-119h-122q-42 0 -56.5 14.5t-14.5 56.5z" />
<glyph unicode="&#xe44;" horiz-adv-x="274" d="M64 71v497q0 109 27 163h-150l53 119h265v-84q-33 -46 -43.5 -93.5t-10.5 -128.5v-425h52v-119h-122q-42 0 -56.5 14.5t-14.5 56.5z" />
<glyph unicode="&#xe45;" horiz-adv-x="365" d="M311 334v-534h-141v526q0 36 -14 50.5t-42 14.5q-37 0 -76 -18l-28 116q69 21 128 21q173 0 173 -176z" />
<glyph unicode="&#xe46;" horiz-adv-x="513" d="M253 300l28 -108q-50 -19 -96 -19q-68 0 -109.5 42t-41.5 128q0 79 41.5 123t114.5 44q45 0 74.5 -17.5t62.5 -57.5h14l24 65h94v-700h-141v516h-7q-17 0 -29 9.5t-28 32.5q-23 33 -46 33q-33 0 -33 -47q0 -52 41 -52q16 0 37 8z" />
<glyph unicode="&#xe47;" d="M-256 670q-24 0 -24 -14t24 -14h133v-15q0 -76 -77 -76q-55 0 -90 50l-16 -39h-89v73q0 70 27 96.5t101 26.5h199l-40 -88h-148z" />
<glyph unicode="&#xe48;" d="M-172 740v156h108v-156h-108z" />
<glyph unicode="&#xe49;" d="M-160 852v-27h197l-39 -85h-255v71h-51v85h99q31 0 40 -8.5t9 -35.5z" />
<glyph unicode="&#xe4a;" d="M-183 740v29q0 70 -24 70q-15 0 -15 -17q0 -19 17 -19h8l-13 -63h-16q-76 0 -76 83q0 38 18.5 57.5t48.5 19.5q38 0 62 -33l11 28h48v-92q11 0 14 5.5t3 22.5v64h70v-69q0 -86 -85 -86h-71z" />
<glyph unicode="&#xe4b;" d="M0 792h-64v-52h-108v52h-63v59h63v45h108v-45h64v-59z" />
<glyph unicode="&#xe4c;" d="M-27 762h-118q-29 0 -38 -13.5t-9 -48.5h-109q0 93 25.5 125t114.5 32h178z" />
<glyph unicode="&#xe4d;" d="M-142 659q-24 0 -24 -24t24 -24q23 0 23 24t-23 24zM-142 548q-42 0 -65 22.5t-23 64.5t23 64.5t65 22.5t65 -22.5t23 -64.5t-23 -64.5t-65 -22.5z" />
<glyph unicode="&#xe4e;" d="M-54 653h-79q-27 0 -27 -14q0 -16 27 -16h79q0 -40 -24.5 -54.5t-70.5 -14.5q-40 0 -64 23t-24 65q0 86 97 86h13q13 43 66 62l70 -42q-40 -15 -51.5 -35t-11.5 -60z" />
<glyph unicode="&#xe4f;" horiz-adv-x="514" d="M481 226q0 -94 -66 -160t-160 -66t-160 66t-66 160t66 160t160 66t160 -66t66 -160zM430 226q0 72 -51.5 123.5t-123.5 51.5t-123.5 -51.5t-51.5 -123.5t51.5 -123.5t123.5 -51.5t123.5 51.5t51.5 123.5zM374 226q0 -49 -35 -84t-84 -35t-84 35t-35 84t35 84t84 35 t84 -35t35 -84z" />
<glyph unicode="&#xe50;" horiz-adv-x="511" d="M255 109q81 0 81 91t-81 91q-80 0 -80 -91t80 -91zM255 -10q-116 0 -168.5 58t-52.5 152q0 95 52.5 152.5t168.5 57.5q117 0 169.5 -57.5t52.5 -152.5q0 -94 -52.5 -152t-169.5 -58z" />
<glyph unicode="&#xe51;" horiz-adv-x="511" d="M372 -70l-93 97q57 81 57 162q0 102 -80 102q-81 0 -81 -95q0 -87 58 -87h24l-7 -119h-23q-193 0 -193 206q0 96 53 155t169 59q221 0 221 -221q0 -158 -105 -259z" />
<glyph unicode="&#xe52;" horiz-adv-x="511" d="M315 182h-130v121q0 55 19 81t64 26q58 0 105 -55l26 45h91v-252q0 -74 -70 -116t-165 -42q-96 0 -165.5 42t-69.5 117v351h134v-329q0 -30 27 -46t73 -16t73.5 16t27.5 46v72q0 51 -40 51v-112z" />
<glyph unicode="&#xe53;" horiz-adv-x="511" d="M38 188q0 110 40 166t116 56q48 0 80.5 -19.5t63.5 -62.5h18l17 72h104v-400h-141v209h-32q-16 0 -28.5 7t-18 14.5t-13.5 21.5q-1 2 -3.5 6.5t-3.5 6.5t-3.5 6t-4 5.5t-3.5 4.5t-4 4.5t-4.5 3t-5.5 2t-6 0.5q-27 0 -27 -94q0 -45 11.5 -66.5t40.5 -21.5q21 0 46 8 l39 -105q-54 -22 -105 -22q-82 0 -127.5 51.5t-45.5 146.5z" />
<glyph unicode="&#xe54;" horiz-adv-x="511" d="M457 143h-60q0 -17 12.5 -25.5t46.5 -8.5h33v-109h-49q-86 0 -114 42q-47 -52 -132 -52q-179 0 -179 189q0 120 53 170.5t166 50.5h91l33 100h145l-72 -210h-204q-38 0 -54.5 -22.5t-16.5 -69.5q0 -89 52 -89q48 0 48 57v20q0 39 13.5 53t49.5 14h138v-110z" />
<glyph unicode="&#xe55;" horiz-adv-x="511" d="M319 253h138v-110h-60q0 -17 12.5 -25.5t46.5 -8.5h33v-109h-49q-86 0 -114 42q-47 -52 -132 -52q-179 0 -179 189q0 147 84 194q-5 17 -5 32q0 43 31 74.5t74 31.5q44 0 75.5 -31t31.5 -75v-5h19l33 100h145l-72 -210h-204q-38 0 -54.5 -22.5t-16.5 -69.5q0 -89 52 -89 q48 0 48 57v20q0 39 13.5 53t49.5 14zM169 405q0 -13 8.5 -21.5t21.5 -8.5t22 8.5t9 21.5t-9 22t-22 9t-21.5 -9t-8.5 -22z" />
<glyph unicode="&#xe56;" horiz-adv-x="511" d="M47 185q0 38 15 53.5t53 15.5h167v-115h-90q10 -30 67 -30q90 0 90 86q0 52 -26.5 69t-112.5 17h-129l-74 219h154l33 -100h59q132 0 184.5 -54t52.5 -151q0 -92 -57 -148.5t-174 -56.5q-60 0 -103.5 16.5t-66 45.5t-32.5 61.5t-10 71.5z" />
<glyph unicode="&#xe57;" horiz-adv-x="606" d="M399 400v-281q45 0 45 66v315h134v-324q0 -91 -52.5 -133.5t-143.5 -42.5h-118v211q-22 0 -43 42l-4 8t-4.5 8t-4 6.5t-4 6.5t-4 4.5t-4.5 3.5t-5 1q-29 0 -29 -101q0 -81 46 -81q8 0 18 3l12 -106q-38 -16 -72 -16q-69 0 -107 56t-38 144q0 108 40 164t113 56 q41 0 68 -20t49 -62h7l22 72h79z" />
<glyph unicode="&#xe58;" horiz-adv-x="511" d="M325 400l33 100h145l-72 -210h-183q-45 0 -62.5 -19.5t-21.5 -63.5h55q27 -55 44 -76.5t40 -21.5q20 0 20 21v6h-35v115h112q38 0 51 -15.5t13 -56.5v-68q0 -55 -38 -88t-103 -33q-61 0 -91.5 21t-69.5 75v-86h-141v184q0 117 52 166.5t159 49.5h93z" />
<glyph unicode="&#xe59;" horiz-adv-x="511" d="M329 400l33 100h145l-75 -219h-60l110 -281h-150l-96 246q-8 20 -15.5 27.5t-20.5 7.5q-38 0 -38 -88q0 -84 49 -84q17 0 42 12l35 -112q-45 -19 -86 -19q-87 0 -134 51.5t-47 151.5q0 101 45.5 154t123.5 53h139z" />
<glyph unicode="&#xe5a;" horiz-adv-x="680" d="M441 500v-500h-141v246q-48 -45 -125 -45q-141 0 -141 154q0 74 41.5 114.5t116.5 40.5q38 0 89 -14l-27 -113q-24 8 -42 8q-37 0 -37 -36q0 -35 32 -35q37 0 60 31.5t43 94.5l17 54h114zM485 500h141v-500h-141v500z" />
<glyph unicode="&#xe5b;" horiz-adv-x="622" d="M418 347h180v-118h-107l-30 -60h-112l-29 55q-51 -104 -144 -104q-67 0 -109.5 43t-42.5 120q0 76 43.5 119.5t108.5 43.5q44 0 88 -21l-33 -108q-17 10 -33 10q-33 0 -33 -45q0 -43 26 -43q22 0 41 36t41 105h90l36 -69z" />
<glyph unicode="&#x2000;" horiz-adv-x="480" />
<glyph unicode="&#x2001;" horiz-adv-x="961" />
<glyph unicode="&#x2002;" horiz-adv-x="480" />
<glyph unicode="&#x2003;" horiz-adv-x="961" />
<glyph unicode="&#x2004;" horiz-adv-x="320" />
<glyph unicode="&#x2005;" horiz-adv-x="240" />
<glyph unicode="&#x2006;" horiz-adv-x="160" />
<glyph unicode="&#x2007;" horiz-adv-x="160" />
<glyph unicode="&#x2008;" horiz-adv-x="120" />
<glyph unicode="&#x2009;" horiz-adv-x="192" />
<glyph unicode="&#x200a;" horiz-adv-x="53" />
<glyph unicode="&#x2010;" horiz-adv-x="301" d="M27 316h247v-119h-247v119z" />
<glyph unicode="&#x2011;" horiz-adv-x="301" d="M27 316h247v-119h-247v119z" />
<glyph unicode="&#x2012;" horiz-adv-x="301" d="M27 316h247v-119h-247v119z" />
<glyph unicode="&#x2013;" horiz-adv-x="427" d="M27 316h373v-119h-373v119z" />
<glyph unicode="&#x2014;" horiz-adv-x="604" d="M27 316h550v-119h-550v119z" />
<glyph unicode="&#x2018;" horiz-adv-x="194" d="M164 470h-134v51q0 116 50 189l74 -22q-34 -43 -43 -95h53v-123z" />
<glyph unicode="&#x2019;" horiz-adv-x="194" d="M30 700h134v-51q0 -116 -50 -189l-74 22q34 45 41 95h-51v123z" />
<glyph unicode="&#x201a;" horiz-adv-x="194" d="M30 123h134v-51q0 -116 -50 -189l-74 22q34 47 41 95h-51v123z" />
<glyph unicode="&#x201e;" horiz-adv-x="366" d="M30 123h134v-51q0 -116 -50 -189l-74 22q34 47 41 95h-51v123zM202 123h134v-51q0 -118 -50 -189l-74 22q33 44 42 95h-52v123z" />
<glyph unicode="&#x2020;" horiz-adv-x="455" d="M296 -100h-138v251l46 267l-58 -34h-106v116h106l58 -38l-46 140v98h138v-98l-45 -140l58 38h106v-116h-106l-58 34l45 -267v-251z" />
<glyph unicode="&#x2021;" horiz-adv-x="455" d="M296 274l-45 -92l58 34h106v-116h-106l-58 38l45 -140v-98h-138v98l46 140l-58 -38h-106v116h106l58 -34l-46 92v52l46 92l-58 -34h-106v116h106l58 -38l-46 140v98h138v-98l-45 -140l58 38h106v-116h-106l-58 34l45 -92v-52z" />
<glyph unicode="&#x2022;" horiz-adv-x="284" d="M142 224q-72 0 -72 72t72 72t72 -72t-72 -72z" />
<glyph unicode="&#x2026;" horiz-adv-x="550" d="M35 0v112h114v-112h-114zM218 0v112h114v-112h-114zM402 0v112h114v-112h-114z" />
<glyph unicode="&#x202f;" horiz-adv-x="192" />
<glyph unicode="&#x2030;" horiz-adv-x="1181" d="M98 0l468 700h161l-468 -700h-161zM353 537q0 -81 -42 -127t-113 -46t-113 46t-42 127t42 127t113 46t113 -46t42 -127zM171 537q0 -55 27 -55t27 55t-27 55t-27 -55zM782 163q0 -81 -42 -127t-113 -46t-113 46t-42 127t42 127t113 46t113 -46t42 -127zM600 163 q0 -55 27 -55t27 55t-27 55t-27 -55zM1138 163q0 -81 -42 -127t-113 -46t-113 46t-42 127t42 127t113 46t113 -46t42 -127zM956 163q0 -55 27 -55t27 55t-27 55t-27 -55z" />
<glyph unicode="&#x2039;" horiz-adv-x="317" d="M277 328l-88 -78l88 -78v-177l-237 205v100l237 205v-177z" />
<glyph unicode="&#x203a;" horiz-adv-x="317" d="M40 -5v177l87 78l-87 78v177l237 -205v-100z" />
<glyph unicode="&#x205f;" horiz-adv-x="240" />
<glyph unicode="&#x2070;" horiz-adv-x="339" d="M169 528q41 0 41 112t-41 112t-41 -112t41 -112zM169 440q-81 0 -118.5 48t-37.5 152t37.5 152t118.5 48t118.5 -48t37.5 -152t-37.5 -152t-118.5 -48z" />
<glyph unicode="&#x2074;" horiz-adv-x="339" d="M185 840l83 -52l-130 -204h39v50h102v-50h50v-88h-50v-46h-102v46h-169v67z" />
<glyph unicode="&#x2075;" horiz-adv-x="339" d="M16 564l97 18q6 -54 49 -54q18 0 31 13t13 36q0 45 -42 45q-20 0 -48 -19h-79l10 227h250v-94h-152l-2 -34q28 8 53 8q65 0 95 -37.5t30 -93.5q0 -68 -44.5 -103.5t-114.5 -35.5q-58 0 -98 32t-48 92z" />
<glyph unicode="&#x2076;" horiz-adv-x="339" d="M309 776l-77 -59q-20 35 -52 35q-45 0 -45 -60q19 16 55 16q57 0 93.5 -33.5t36.5 -96.5q0 -57 -38 -97.5t-113 -40.5q-151 0 -151 185q0 215 165 215q88 0 126 -64zM166 528q39 0 39 47q0 45 -36 45q-37 0 -37 -47q0 -18 8.5 -31.5t25.5 -13.5z" />
<glyph unicode="&#x2077;" horiz-adv-x="339" d="M320 830v-72l-129 -308h-125l121 286h-169v94h302z" />
<glyph unicode="&#x2078;" horiz-adv-x="339" d="M169 440q-76 0 -113.5 34t-37.5 88q0 59 48 92q-34 28 -34 69q0 53 34 85t103 32t103 -32t34 -85q0 -41 -34 -69q48 -33 48 -92q0 -55 -37.5 -88.5t-113.5 -33.5zM169 528q36 0 36 39q0 40 -36 40t-36 -40q0 -39 36 -39zM169 695q13 0 21 8.5t8 19.5q0 29 -29 29 q-28 0 -28 -29q0 -11 7.5 -19.5t20.5 -8.5z" />
<glyph unicode="&#x2079;" horiz-adv-x="339" d="M30 504l77 59q20 -35 51 -35q46 0 46 60q-19 -16 -55 -16q-57 0 -94 33.5t-37 96.5q0 57 38 97.5t114 40.5q150 0 150 -185q0 -215 -165 -215q-87 0 -125 64zM173 752q-21 0 -30.5 -14t-9.5 -33q0 -45 37 -45t37 47q0 18 -8.5 31.5t-25.5 13.5z" />
<glyph unicode="&#x2080;" horiz-adv-x="339" d="M169 -62q41 0 41 112t-41 112t-41 -112t41 -112zM169 -150q-81 0 -118.5 48t-37.5 152t37.5 152t118.5 48t118.5 -48t37.5 -152t-37.5 -152t-118.5 -48z" />
<glyph unicode="&#x2081;" horiz-adv-x="339" d="M128 250h102v-296h75v-94h-266v94h76v186l-63 -28l-37 87z" />
<glyph unicode="&#x2082;" horiz-adv-x="339" d="M130 119l-111 25q11 47 49.5 76.5t97.5 29.5q57 0 97.5 -28.5t40.5 -85.5q0 -42 -19 -72.5t-67 -80.5l-23 -23h125v-100h-303v73l104 106q38 38 52.5 58t14.5 38q0 27 -24 27q-26 0 -34 -43z" />
<glyph unicode="&#x2083;" horiz-adv-x="339" d="M14 -37l102 26q1 -24 13 -37.5t32 -13.5q22 0 35.5 10t13.5 29q0 17 -13.5 28.5t-40.5 11.5h-61v88h63q38 0 38 30q0 27 -32 27q-36 0 -39 -34l-103 22q9 47 52 73.5t98 26.5q71 0 105 -29t34 -70q0 -49 -42 -84q56 -30 56 -93q0 -60 -43.5 -92t-112.5 -32 q-61 0 -103.5 29t-51.5 84z" />
<glyph unicode="&#x2084;" horiz-adv-x="339" d="M185 250l83 -52l-130 -204h39v50h102v-50h50v-88h-50v-46h-102v46h-169v67z" />
<glyph unicode="&#x2085;" horiz-adv-x="339" d="M16 -26l97 18q6 -54 49 -54q18 0 31 13t13 36q0 45 -42 45q-20 0 -48 -19h-79l10 227h250v-94h-152l-2 -34q28 8 53 8q65 0 95 -37.5t30 -93.5q0 -68 -44.5 -103.5t-114.5 -35.5q-58 0 -98 32t-48 92z" />
<glyph unicode="&#x2086;" horiz-adv-x="339" d="M309 186l-77 -59q-20 35 -52 35q-45 0 -45 -60q19 16 55 16q57 0 93.5 -33.5t36.5 -96.5q0 -57 -38 -97.5t-113 -40.5q-151 0 -151 185q0 215 165 215q88 0 126 -64zM166 -62q39 0 39 47q0 45 -36 45q-37 0 -37 -47q0 -18 8.5 -31.5t25.5 -13.5z" />
<glyph unicode="&#x2087;" horiz-adv-x="339" d="M320 240v-72l-129 -308h-125l121 286h-169v94h302z" />
<glyph unicode="&#x2088;" horiz-adv-x="339" d="M169 -150q-76 0 -113.5 34t-37.5 88q0 59 48 92q-34 28 -34 69q0 53 34 85t103 32t103 -32t34 -85q0 -41 -34 -69q48 -33 48 -92q0 -55 -37.5 -88.5t-113.5 -33.5zM169 -62q36 0 36 39q0 40 -36 40t-36 -40q0 -39 36 -39zM169 105q13 0 21 8.5t8 19.5q0 29 -29 29 q-28 0 -28 -29q0 -11 7.5 -19.5t20.5 -8.5z" />
<glyph unicode="&#x2089;" horiz-adv-x="339" d="M30 -86l77 59q20 -35 51 -35q46 0 46 60q-19 -16 -55 -16q-57 0 -94 33.5t-37 96.5q0 57 38 97.5t114 40.5q150 0 150 -185q0 -215 -165 -215q-87 0 -125 64zM173 162q-21 0 -30.5 -14t-9.5 -33q0 -45 37 -45t37 47q0 18 -8.5 31.5t-25.5 13.5z" />
<glyph unicode="&#x20ac;" horiz-adv-x="616" d="M6 371v118h95q26 118 97 169.5t181 51.5h4q157 0 227 -99l-107 -87q-35 67 -124 67q-105 0 -135 -102h215v-118h-230v-44h230v-118h-214q16 -55 49 -77.5t85 -22.5h4q82 0 116 58l111 -78q-72 -99 -231 -99q-111 0 -181.5 51t-96.5 168h-95v118h82v44h-82z" />
<glyph unicode="&#x2126;" horiz-adv-x="812" d="M750 384q0 -154 -100 -266h118v-118h-338v88q59 40 96 78t60 93t23 125q0 96 -58.5 151.5t-144.5 55.5t-145 -55.5t-59 -151.5q0 -101 44.5 -168t135.5 -128v-88h-339v118h119q-101 111 -101 266q0 152 100 239t245 87t244.5 -87t99.5 -239z" />
<glyph unicode="&#x2153;" horiz-adv-x="819" d="M601 700h142l-491 -700h-142zM494 103l102 26q1 -24 13 -37.5t32 -13.5q22 0 35.5 10t13.5 29q0 17 -13.5 28.5t-40.5 11.5h-61v88h63q38 0 38 30q0 27 -32 27q-36 0 -39 -34l-103 22q9 47 52 73.5t98 26.5q71 0 105 -29t34 -70q0 -50 -42 -84q56 -30 56 -93 q0 -60 -43.5 -92t-112.5 -32q-61 0 -103.5 29t-51.5 84zM128 710h102v-296h75v-94h-266v94h76v186l-63 -28l-37 87z" />
<glyph unicode="&#x2154;" horiz-adv-x="819" d="M608 700h142l-491 -700h-142zM494 103l102 26q1 -24 13 -37.5t32 -13.5q22 0 35.5 10t13.5 29q0 17 -13.5 28.5t-40.5 11.5h-61v88h63q38 0 38 30q0 27 -32 27q-36 0 -39 -34l-103 22q9 47 52 73.5t98 26.5q71 0 105 -29t34 -70q0 -50 -42 -84q56 -30 56 -93 q0 -60 -43.5 -92t-112.5 -32q-61 0 -103.5 29t-51.5 84zM130 579l-111 25q11 47 49.5 76.5t97.5 29.5q57 0 97.5 -28.5t40.5 -85.5q0 -42 -19 -72.5t-67 -80.5l-23 -23h125v-100h-303v73l104 106q38 38 52.5 58t14.5 38q0 27 -24 27q-26 0 -34 -43z" />
<glyph unicode="&#x2155;" horiz-adv-x="819" d="M496 114l97 18q6 -54 49 -54q18 0 31 13t13 36q0 45 -42 45q-20 0 -48 -19h-79l10 227h250v-94h-152l-2 -34q28 8 53 8q65 0 95 -37.5t30 -93.5q0 -68 -44.5 -103.5t-114.5 -35.5q-58 0 -98 32t-48 92zM591 700h142l-491 -700h-142zM128 710h102v-296h75v-94h-266v94h76 v186l-63 -28l-37 87z" />
<glyph unicode="&#x2156;" horiz-adv-x="819" d="M496 114l97 18q6 -54 49 -54q18 0 31 13t13 36q0 45 -42 45q-20 0 -48 -19h-79l10 227h250v-94h-152l-2 -34q28 8 53 8q65 0 95 -37.5t30 -93.5q0 -68 -44.5 -103.5t-114.5 -35.5q-58 0 -98 32t-48 92zM600 700h142l-491 -700h-142zM130 579l-111 25q11 47 49.5 76.5 t97.5 29.5q57 0 97.5 -28.5t40.5 -85.5q0 -42 -19 -72.5t-67 -80.5l-23 -23h125v-100h-303v73l104 106q38 38 52.5 58t14.5 38q0 27 -24 27q-26 0 -34 -43z" />
<glyph unicode="&#x2157;" horiz-adv-x="819" d="M496 114l97 18q6 -54 49 -54q18 0 31 13t13 36q0 45 -42 45q-20 0 -48 -19h-79l10 227h250v-94h-152l-2 -34q28 8 53 8q65 0 95 -37.5t30 -93.5q0 -68 -44.5 -103.5t-114.5 -35.5q-58 0 -98 32t-48 92zM14 423l102 26q1 -24 13 -37.5t32 -13.5q22 0 35.5 10t13.5 29 q0 17 -13.5 28.5t-40.5 11.5h-61v88h63q38 0 38 30q0 27 -32 27q-36 0 -39 -34l-103 22q9 47 52 73.5t98 26.5q71 0 105 -29t34 -70q0 -49 -42 -84q56 -30 56 -93q0 -60 -43.5 -92t-112.5 -32q-61 0 -103.5 29t-51.5 84zM580 700h142l-491 -700h-142z" />
<glyph unicode="&#x2158;" horiz-adv-x="819" d="M496 114l97 18q6 -54 49 -54q18 0 31 13t13 36q0 45 -42 45q-20 0 -48 -19h-79l10 227h250v-94h-152l-2 -34q28 8 53 8q65 0 95 -37.5t30 -93.5q0 -68 -44.5 -103.5t-114.5 -35.5q-58 0 -98 32t-48 92zM587 700h142l-491 -700h-142zM185 710l83 -52l-130 -204h39v50h102 v-50h50v-88h-50v-46h-102v46h-169v67z" />
<glyph unicode="&#x2159;" horiz-adv-x="819" d="M608 700h142l-491 -700h-142zM789 326l-77 -59q-20 35 -52 35q-45 0 -45 -60q19 16 55 16q57 0 93.5 -33.5t36.5 -96.5q0 -57 -38 -97.5t-113 -40.5q-151 0 -151 185q0 215 165 215q88 0 126 -64zM646 78q39 0 39 47q0 45 -36 45q-37 0 -37 -47q0 -18 8.5 -31.5 t25.5 -13.5zM128 710h102v-296h75v-94h-266v94h76v186l-63 -28l-37 87z" />
<glyph unicode="&#x215a;" horiz-adv-x="819" d="M592 700h142l-491 -700h-142zM789 326l-77 -59q-20 35 -52 35q-45 0 -45 -60q19 16 55 16q57 0 93.5 -33.5t36.5 -96.5q0 -57 -38 -97.5t-113 -40.5q-151 0 -151 185q0 215 165 215q88 0 126 -64zM646 78q39 0 39 47q0 45 -36 45q-37 0 -37 -47q0 -18 8.5 -31.5 t25.5 -13.5zM16 434l97 18q6 -54 49 -54q18 0 31 13t13 36q0 45 -42 45q-20 0 -48 -19h-79l10 227h250v-94h-152l-2 -34q28 8 53 8q65 0 95 -37.5t30 -93.5q0 -68 -44.5 -103.5t-114.5 -35.5q-58 0 -98 32t-48 92z" />
<glyph unicode="&#x215b;" horiz-adv-x="819" d="M603 700h142l-491 -700h-142zM649 -10q-76 0 -113.5 34t-37.5 88q0 59 48 92q-34 28 -34 69q0 53 34 85t103 32t103 -32t34 -85q0 -41 -34 -69q48 -33 48 -92q0 -55 -37.5 -88.5t-113.5 -33.5zM649 78q36 0 36 39q0 40 -36 40t-36 -40q0 -39 36 -39zM649 245q13 0 21 8.5 t8 19.5q0 29 -29 29q-28 0 -28 -29q0 -11 7.5 -19.5t20.5 -8.5zM128 710h102v-296h75v-94h-266v94h76v186l-63 -28l-37 87z" />
<glyph unicode="&#x215c;" horiz-adv-x="819" d="M590 700h142l-491 -700h-142zM649 -10q-76 0 -113.5 34t-37.5 88q0 59 48 92q-34 28 -34 69q0 53 34 85t103 32t103 -32t34 -85q0 -41 -34 -69q48 -33 48 -92q0 -55 -37.5 -88.5t-113.5 -33.5zM649 78q36 0 36 39q0 40 -36 40t-36 -40q0 -39 36 -39zM649 245q13 0 21 8.5 t8 19.5q0 29 -29 29q-28 0 -28 -29q0 -11 7.5 -19.5t20.5 -8.5zM14 423l102 26q1 -24 13 -37.5t32 -13.5q22 0 35.5 10t13.5 29q0 17 -13.5 28.5t-40.5 11.5h-61v88h63q38 0 38 30q0 27 -32 27q-36 0 -39 -34l-103 22q9 47 52 73.5t98 26.5q71 0 105 -29t34 -70 q0 -49 -42 -84q56 -30 56 -93q0 -60 -43.5 -92t-112.5 -32q-61 0 -103.5 29t-51.5 84z" />
<glyph unicode="&#x215d;" horiz-adv-x="819" d="M586 700h142l-491 -700h-142zM649 -10q-76 0 -113.5 34t-37.5 88q0 59 48 92q-34 28 -34 69q0 53 34 85t103 32t103 -32t34 -85q0 -41 -34 -69q48 -33 48 -92q0 -55 -37.5 -88.5t-113.5 -33.5zM649 78q36 0 36 39q0 40 -36 40t-36 -40q0 -39 36 -39zM649 245q13 0 21 8.5 t8 19.5q0 29 -29 29q-28 0 -28 -29q0 -11 7.5 -19.5t20.5 -8.5zM16 434l97 18q6 -54 49 -54q18 0 31 13t13 36q0 45 -42 45q-20 0 -48 -19h-79l10 227h250v-94h-152l-2 -34q28 8 53 8q65 0 95 -37.5t30 -93.5q0 -68 -44.5 -103.5t-114.5 -35.5q-58 0 -98 32t-48 92z" />
<glyph unicode="&#x215e;" horiz-adv-x="819" d="M563 700h142l-491 -700h-142zM320 700v-72l-129 -308h-125l121 286h-169v94h302zM649 -10q-76 0 -113.5 34t-37.5 88q0 59 48 92q-34 28 -34 69q0 53 34 85t103 32t103 -32t34 -85q0 -41 -34 -69q48 -33 48 -92q0 -55 -37.5 -88.5t-113.5 -33.5zM649 78q36 0 36 39 q0 40 -36 40t-36 -40q0 -39 36 -39zM649 245q13 0 21 8.5t8 19.5q0 29 -29 29q-28 0 -28 -29q0 -11 7.5 -19.5t20.5 -8.5z" />
<glyph unicode="&#x215f;" horiz-adv-x="819" d="M601 700h142l-491 -700h-142zM128 710h102v-296h75v-94h-266v94h76v186l-63 -28l-37 87z" />
<glyph unicode="&#x2206;" horiz-adv-x="641" d="M634 0h-627l313 740zM320 388l-113 -270h226z" />
<glyph unicode="&#x220f;" horiz-adv-x="635" d="M105 581h-85v119h595v-119h-85v-681h-141v681h-143v-681h-141v681z" />
<glyph unicode="&#x2211;" horiz-adv-x="516" d="M30 0v105l212 245l-212 245v105h455v-130h-249l168 -194v-52l-168 -194h249v-130h-455z" />
<glyph unicode="&#x2212;" horiz-adv-x="466" d="M27 388h412v-136h-412v136z" />
<glyph unicode="&#x2215;" horiz-adv-x="607" d="M478 700h142l-491 -700h-142z" />
<glyph unicode="&#x221a;" horiz-adv-x="563" d="M427 730h149l-250 -730h-140l-91 263h-78v118h185l53 -154z" />
<glyph unicode="&#x221e;" horiz-adv-x="615" d="M415 211q-71 0 -108 47q-39 -47 -107 -47q-83 0 -128 45t-45 125t45 125.5t128 45.5q69 0 107 -48q36 48 108 48q84 0 128.5 -45t44.5 -126q0 -80 -44.5 -125t-128.5 -45zM371 381q0 -45 44 -45q23 0 37 12t14 33q0 22 -14 34.5t-37 12.5q-44 0 -44 -47zM148 381 q0 -45 46 -45q23 0 36 12t13 33q0 22 -13 34.5t-36 12.5q-46 0 -46 -47z" />
<glyph unicode="&#x222b;" horiz-adv-x="361" d="M124 88q0 53 -14.5 229t-14.5 229q0 96 37.5 145t121.5 49q41 0 90 -10l-13 -119q-27 10 -48 10q-28 0 -37.5 -16.5t-9.5 -53.5q0 -48 14.5 -223.5t14.5 -234.5q0 -95 -37.5 -144t-120.5 -49q-42 0 -91 10l14 119q27 -10 48 -10q27 0 36.5 16.5t9.5 52.5z" />
<glyph unicode="&#x2248;" horiz-adv-x="466" d="M134 338h-120q0 66 36 110t99 44q36 0 90 -24.5t68 -24.5q25 0 25 37h120q0 -66 -36 -110t-99 -44q-36 0 -90 24.5t-68 24.5q-25 0 -25 -37zM134 161h-120q0 66 36 110t99 44q36 0 90 -24.5t68 -24.5q25 0 25 37h120q0 -66 -36 -110t-99 -44q-36 0 -90 24.5t-68 24.5 q-25 0 -25 -37z" />
<glyph unicode="&#x2260;" horiz-adv-x="466" d="M27 486h215l25 47h158l-25 -47h39v-136h-111l-32 -60h143v-136h-215l-24 -46h-158l24 46h-39v136h111l32 60h-143v136z" />
<glyph unicode="&#x2264;" horiz-adv-x="466" d="M439 497l-209 -86l209 -85v-148l-412 167v133l412 167v-148zM27 136h412v-136h-412v136z" />
<glyph unicode="&#x2265;" horiz-adv-x="466" d="M27 178v149l207 85l-207 85v148l412 -167v-133zM27 136h412v-136h-412v136z" />
<glyph unicode="&#x25ca;" horiz-adv-x="465" d="M459 365l-227 -375l-226 375l226 375zM164 365l68 -113l68 113l-68 113z" />
<glyph unicode="&#x25fc;" horiz-adv-x="500" d="M0 500h500v-500h-500v500z" />
<glyph unicode="&#xf700;" horiz-adv-x="490" d="M442 284v-80q0 -101 -49 -152.5t-167 -51.5h-118l-32 106h-50v119h151l34 -112h18q40 0 56 22.5t16 68.5v44h-269v55q0 98 58 152.5t178 54.5q78 0 179 -22l-28 -106q-80 22 -132 22q-90 0 -113 -43h183q50 0 67.5 -17t17.5 -60z" />
<glyph unicode="&#xf701;" d="M-527 549v113h301l-51 -113h-250z" />
<glyph unicode="&#xf702;" d="M-226 549h-301l52 113h121v60h128v-173z" />
<glyph unicode="&#xf703;" d="M-314 549h-213l52 113h76q15 60 85 60q41 0 64.5 -22.5t23.5 -64.5q0 -40 -23.5 -63t-64.5 -23zM-314 663q-28 0 -28 -28q0 -27 28 -27t28 27q0 28 -28 28z" />
<glyph unicode="&#xf704;" d="M-226 549h-301l52 113h34v60h96v-60h24v60h95v-173z" />
<glyph unicode="&#xf705;" d="M-354 549v186h128v-186h-128z" />
<glyph unicode="&#xf706;" d="M-251 682v-32h228l-46 -101h-297v85h-60v101h115q39 0 49.5 -10t10.5 -43z" />
<glyph unicode="&#xf707;" d="M-411 549v49q0 69 -30 69q-17 0 -17 -22q0 -20 20 -20h11l-19 -76h-11q-57 0 -78 25.5t-21 67.5q0 50 22 74.5t58 24.5q44 0 77 -36l11 30h61v-110q17 0 17 26v84h84v-77q0 -60 -23.5 -84.5t-77.5 -24.5h-84z" />
<glyph unicode="&#xf708;" d="M-226 611h-76v-62h-128v62h-76v70h76v54h128v-54h76v-70z" />
<glyph unicode="&#xf709;" d="M-70 622h-132q-35 0 -46 -16t-11 -58h-128q0 111 30.5 149t136.5 38h201z" />
<glyph unicode="&#xf70a;" d="M-182 549v186h128v-186h-128z" />
<glyph unicode="&#xf70b;" d="M-199 682v-32h213l-46 -101h-282v85h-60v101h115q39 0 49.5 -10t10.5 -43z" />
<glyph unicode="&#xf70c;" d="M-253 549v49q0 69 -30 69q-17 0 -17 -22q0 -20 20 -20h11l-19 -76h-11q-57 0 -78 25.5t-21 67.5q0 50 22 74.5t58 24.5q44 0 77 -36l11 30h61v-110q17 0 17 26v84h84v-77q0 -60 -23.5 -84.5t-77.5 -24.5h-84z" />
<glyph unicode="&#xf70d;" d="M-54 611h-76v-62h-128v62h-76v70h76v54h128v-54h76v-70z" />
<glyph unicode="&#xf70e;" d="M-61 622h-79q-35 0 -46 -16t-11 -58h-128q0 111 30.5 149t136.5 38h148z" />
<glyph unicode="&#xf70f;" horiz-adv-x="837" d="M642 187v313h141v-341q0 -85 -64 -127t-154 -42q-91 0 -154 43t-63 130v142q0 49 -19.5 67.5t-58.5 18.5q-17 0 -51 -4l28 -54q-33 -21 -42.5 -48t-9.5 -87v-79h83v-119h-152q-40 0 -56 13t-16 46v154q0 65 8.5 90t41.5 52l-66 127q133 28 223 28q126 0 177 -48.5 t51 -152.5v-122q0 -39 22.5 -58.5t54.5 -19.5t54 19.5t22 58.5z" />
<glyph unicode="&#xf710;" d="M-260 725v-63h230l-40 -113h-252q-40 0 -53 13t-13 55v108h128z" />
<glyph unicode="&#xf711;" d="M-314 659q-23 0 -23 -24t23 -24q24 0 24 24t-24 24zM-314 548q-42 0 -65 22.5t-23 64.5t23 64.5t65 22.5t65 -22.5t23 -64.5t-23 -64.5t-65 -22.5z" />
<glyph unicode="&#xf712;" d="M-352 670q-24 0 -24 -14t24 -14h126v-15q0 -40 -15.5 -58t-54.5 -18q-55 0 -90 50l-16 -39h-89v73q0 70 27 96.5t101 26.5h347l-40 -88h-296z" />
<glyph unicode="&#xf713;" d="M-344 740v156h109v-156h-109z" />
<glyph unicode="&#xf714;" d="M-227 852v-27h196l-39 -85h-254v71h-51v85h99q31 0 40 -8.5t9 -35.5z" />
<glyph unicode="&#xf715;" d="M-308 740v29q0 70 -24 70q-15 0 -15 -17q0 -19 17 -19h8l-13 -63h-16q-76 0 -76 83q0 38 18.5 57.5t48.5 19.5q38 0 62 -33l11 28h48v-92q11 0 14 5.5t3 22.5v64h70v-69q0 -86 -85 -86h-71z" />
<glyph unicode="&#xf716;" d="M-172 792h-63v-52h-109v52h-63v59h63v45h109v-45h63v-59z" />
<glyph unicode="&#xf717;" d="M-102 762h-110q-29 0 -38 -13.5t-9 -48.5h-109q0 93 26 125t115 32h169z" />
<glyph unicode="&#xf718;" d="M-53 -419h-115v83h-35v106h81q39 0 54 -14t15 -58v-117z" />
<glyph unicode="&#xf719;" d="M-171 -419q-112 0 -112 105v84h102v-74q0 -21 10 -21t10 21v74h102v-84q0 -105 -112 -105z" />
<glyph unicode="&#xf71a;" d="M-219 -315q0 35 25.5 60t60.5 25q36 0 61.5 -25t25.5 -60t-25.5 -60t-61.5 -25q-35 0 -60.5 25t-25.5 60z" />
<glyph unicode="&#xf71d;" horiz-adv-x="613" d="M559 309v-309h-141l-112 149l-111 -149h-141v500h141v-294l67 110h89l67 -110v97q0 40 -12 54.5t-46 14.5h-23v92l62 76h159l-67 -81q68 -29 68 -150z" />
<glyph horiz-adv-x="365" d="M-314 659q-23 0 -23 -24t23 -24q24 0 24 24t-24 24zM-314 548q-42 0 -65 22.5t-23 64.5t23 64.5t65 22.5t65 -22.5t23 -64.5t-23 -64.5t-65 -22.5zM311 334v-334h-141v326q0 36 -14 50.5t-42 14.5q-37 0 -76 -18l-28 116q69 21 128 21q173 0 173 -176z" />
<glyph horiz-adv-x="524" d="M-226 653h-79q-27 0 -27 -14q0 -16 27 -16h79q0 -40 -24.5 -54.5t-70.5 -14.5q-40 0 -64 23t-24 65q0 86 97 86h13q13 43 66 62l70 -42q-40 -15 -51.5 -35t-11.5 -60z" />
<glyph horiz-adv-x="607" d="M99 380l190 47l-148 31q-43 9 -71 -8l-13 -9zM527 348l-76 -30q23 -9 37 -29t14 -44q0 -31 -23 -54t-54 -23q-20 0 -37 9t-23 21v-170q78 20 129 84t51 146q0 49 -18 90zM238 103v297l-142 -36q-24 -48 -24 -106q0 -56 25 -105.5t68 -82.5zM348 -55v61q-20 -3 -40 -3 q-106 0 -180.5 75t-74.5 180q0 64 31 115l-47 71l80 55q16 12 50 9l70 -6v30q0 42 38 59l90 40v-17l-49 -23v-78l-39 -16l71 -7v78l17 8v-88l215 -22v-6l-90 -40q-59 -26 -113 -12l-12 3v-84l-17 -15v102l-32 7v-262q0 -38 -39 -57l-96 -43q59 -38 127 -38q14 0 40 4v205 l17 15q0 -25 17.5 -42.5t42.5 -17.5t42.5 17.5t17.5 42.5t-17.5 42.5t-42.5 17.5v17l111 47q27 -41 27 -111q0 -90 -56 -159.5t-142 -88.5v-49l-16 -17zM123 258q0 -95 79 -152l-18 -9q-37 28 -58.5 70.5t-21.5 90.5q0 52 24 98l29 10q-34 -48 -34 -108zM148 471l232 -46 q55 -11 103 10l49 22l-368 38q-21 3 -39 -7l-20 -14q16 3 43 -3zM253 404v-295l21 10q26 10 26 40v257zM300 523v60l-21 -9q-26 -12 -26 -40v-29zM425 212q-14 0 -23.5 9.5t-9.5 23.5t9.5 23.5t23.5 9.5q13 0 22.5 -9.5t9.5 -23.5t-9.5 -23.5t-22.5 -9.5z" />
<glyph horiz-adv-x="599" d="M168 350q0 -119 28 -174t103 -55q76 0 104 55t28 174q0 125 -28 183t-104 58q-75 0 -103 -58t-28 -183zM572 350q0 -189 -62.5 -274.5t-210.5 -85.5t-210 85.5t-62 274.5t62 274.5t210 85.5t210.5 -85.5t62.5 -274.5z" />
<glyph horiz-adv-x="506" d="M247 710h77v-591h137v-119h-415v119h137v423l-115 -53l-48 118z" />
<glyph horiz-adv-x="588" d="M187 475l-141 30q9 97 78 151t175 54q101 0 165.5 -51.5t64.5 -129.5q0 -81 -36.5 -136.5t-142.5 -164.5l-12 -12l-82 -85h302v-131h-528v94l244 252q71 74 91 105q23 38 23 71q0 69 -93 69q-103 0 -108 -116z" />
<glyph horiz-adv-x="591" d="M25 199l141 31q4 -53 36 -87t89 -34q56 0 88 26.5t32 75.5q0 96 -150 96h-96v119h99q126 0 126 91q0 74 -100 74q-97 0 -105 -80l-141 24q13 81 79.5 128t162.5 47q105 0 175 -43.5t70 -126.5q0 -107 -91 -167q112 -54 112 -164q0 -107 -72 -163t-189 -56q-108 0 -182 55 t-84 154z" />
<glyph horiz-adv-x="589" d="M343 710l121 -60l-269 -422h144v170h141v-170h92v-119h-92v-109h-141v109h-322v91z" />
<glyph horiz-adv-x="593" d="M30 200l133 38q4 -57 42 -93t89 -36q54 0 87.5 34.5t33.5 96.5q0 50 -25 83.5t-82 33.5q-48 0 -95 -29h-142l18 372h429v-124h-295l-6 -120q58 20 118 20q99 0 160 -57.5t61 -178.5q0 -124 -71 -187t-195 -63q-97 0 -171.5 55.5t-88.5 154.5z" />
<glyph horiz-adv-x="588" d="M531 604l-109 -82q-43 69 -116 69q-60 0 -93.5 -44t-33.5 -124q60 48 142 48q102 0 166 -59t64 -169q0 -48 -13.5 -91.5t-41.5 -80.5t-78 -59t-115 -22q-134 0 -200 90.5t-66 252.5q0 173 70.5 275t203.5 102q135 0 220 -106zM293 109q62 0 89.5 34.5t27.5 86.5t-28 87 t-89 35t-88 -35t-27 -87t27.5 -86.5t87.5 -34.5z" />
<glyph horiz-adv-x="587" d="M295 0h-152l239 569h-357v131h537v-67z" />
<glyph horiz-adv-x="597" d="M298 -10q-123 0 -184 57.5t-61 150.5q0 121 95 175q-70 52 -70 156q0 82 54.5 131.5t165.5 49.5q112 0 166.5 -49.5t54.5 -131.5q0 -102 -70 -156q95 -55 95 -175q0 -93 -61 -150.5t-185 -57.5zM298 109q54 0 79.5 28.5t25.5 77.5q0 42 -26 69t-79 27q-52 0 -78 -27 t-26 -69q0 -49 25.5 -77.5t78.5 -28.5zM298 430q80 0 80 84q0 77 -80 77q-79 0 -79 -77q0 -84 79 -84z" />
<glyph horiz-adv-x="588" d="M57 96l109 82q43 -69 116 -69q60 0 93.5 44t33.5 124q-60 -48 -142 -48q-102 0 -166 59t-64 169q0 48 13.5 91.5t41.5 80.5t78 59t115 22q134 0 200 -90.5t66 -252.5q0 -173 -70.5 -275t-203.5 -102q-135 0 -220 106zM295 591q-62 0 -89.5 -34.5t-27.5 -86.5t28 -87 t89 -35t88 35t27 87t-27.5 86.5t-87.5 34.5z" />
<glyph horiz-adv-x="339" d="M169 398q41 0 41 112t-41 112t-41 -112t41 -112zM169 310q-81 0 -118.5 48t-37.5 152t37.5 152t118.5 48t118.5 -48t37.5 -152t-37.5 -152t-118.5 -48z" />
<glyph horiz-adv-x="339" d="M128 710h102v-296h75v-94h-266v94h76v186l-63 -28l-37 87z" />
<glyph horiz-adv-x="339" d="M130 579l-111 25q11 47 49.5 76.5t97.5 29.5q57 0 97.5 -28.5t40.5 -85.5q0 -42 -19 -72.5t-67 -80.5l-23 -23h125v-100h-303v73l104 106q38 38 52.5 58t14.5 38q0 27 -24 27q-26 0 -34 -43z" />
<glyph horiz-adv-x="339" d="M14 423l102 26q1 -24 13 -37.5t32 -13.5q22 0 35.5 10t13.5 29q0 17 -13.5 28.5t-40.5 11.5h-61v88h63q38 0 38 30q0 27 -32 27q-36 0 -39 -34l-103 22q9 47 52 73.5t98 26.5q71 0 105 -29t34 -70q0 -49 -42 -84q56 -30 56 -93q0 -60 -43.5 -92t-112.5 -32 q-61 0 -103.5 29t-51.5 84z" />
<glyph horiz-adv-x="339" d="M185 710l83 -52l-130 -204h39v50h102v-50h50v-88h-50v-46h-102v46h-169v67z" />
<glyph horiz-adv-x="339" d="M16 434l97 18q6 -54 49 -54q18 0 31 13t13 36q0 45 -42 45q-20 0 -48 -19h-79l10 227h250v-94h-152l-2 -34q28 8 53 8q65 0 95 -37.5t30 -93.5q0 -68 -44.5 -103.5t-114.5 -35.5q-58 0 -98 32t-48 92z" />
<glyph horiz-adv-x="339" d="M309 646l-77 -59q-20 35 -52 35q-45 0 -45 -60q19 16 55 16q57 0 93.5 -33.5t36.5 -96.5q0 -57 -38 -97.5t-113 -40.5q-151 0 -151 185q0 215 165 215q88 0 126 -64zM166 398q39 0 39 47q0 45 -36 45q-37 0 -37 -47q0 -18 8.5 -31.5t25.5 -13.5z" />
<glyph horiz-adv-x="339" d="M320 700v-72l-129 -308h-125l121 286h-169v94h302z" />
<glyph horiz-adv-x="339" d="M169 310q-76 0 -113.5 34t-37.5 88q0 59 48 92q-34 28 -34 69q0 53 34 85t103 32t103 -32t34 -85q0 -41 -34 -69q48 -33 48 -92q0 -55 -37.5 -88.5t-113.5 -33.5zM169 398q36 0 36 39q0 40 -36 40t-36 -40q0 -39 36 -39zM169 565q13 0 21 8.5t8 19.5q0 29 -29 29 q-28 0 -28 -29q0 -11 7.5 -19.5t20.5 -8.5z" />
<glyph horiz-adv-x="339" d="M30 374l77 59q20 -35 51 -35q46 0 46 60q-19 -16 -55 -16q-57 0 -94 33.5t-37 96.5q0 57 38 97.5t114 40.5q150 0 150 -185q0 -215 -165 -215q-87 0 -125 64zM173 622q-21 0 -30.5 -14t-9.5 -33q0 -45 37 -45t37 47q0 18 -8.5 31.5t-25.5 13.5z" />
<glyph horiz-adv-x="339" d="M169 78q41 0 41 112t-41 112t-41 -112t41 -112zM169 -10q-81 0 -118.5 48t-37.5 152t37.5 152t118.5 48t118.5 -48t37.5 -152t-37.5 -152t-118.5 -48z" />
<glyph horiz-adv-x="339" d="M128 390h102v-296h75v-94h-266v94h76v186l-63 -28l-37 87z" />
<glyph horiz-adv-x="339" d="M130 259l-111 25q11 47 49.5 76.5t97.5 29.5q57 0 97.5 -28.5t40.5 -85.5q0 -42 -19 -72.5t-67 -80.5l-23 -23h125v-100h-303v73l104 106q38 38 52.5 58t14.5 38q0 27 -24 27q-26 0 -34 -43z" />
<glyph horiz-adv-x="339" d="M14 103l102 26q1 -24 13 -37.5t32 -13.5q22 0 35.5 10t13.5 29q0 17 -13.5 28.5t-40.5 11.5h-61v88h63q38 0 38 30q0 27 -32 27q-36 0 -39 -34l-103 22q9 47 52 73.5t98 26.5q71 0 105 -29t34 -70q0 -50 -42 -84q56 -30 56 -93q0 -60 -43.5 -92t-112.5 -32 q-61 0 -103.5 29t-51.5 84z" />
<glyph horiz-adv-x="339" d="M185 390l83 -52l-130 -204h39v50h102v-50h50v-88h-50v-46h-102v46h-169v67z" />
<glyph horiz-adv-x="339" d="M16 114l97 18q6 -54 49 -54q18 0 31 13t13 36q0 45 -42 45q-20 0 -48 -19h-79l10 227h250v-94h-152l-2 -34q28 8 53 8q65 0 95 -37.5t30 -93.5q0 -68 -44.5 -103.5t-114.5 -35.5q-58 0 -98 32t-48 92z" />
<glyph horiz-adv-x="339" d="M309 326l-77 -59q-20 35 -52 35q-45 0 -45 -60q19 16 55 16q57 0 93.5 -33.5t36.5 -96.5q0 -57 -38 -97.5t-113 -40.5q-151 0 -151 185q0 215 165 215q88 0 126 -64zM166 78q39 0 39 47q0 45 -36 45q-37 0 -37 -47q0 -18 8.5 -31.5t25.5 -13.5z" />
<glyph horiz-adv-x="339" d="M320 380v-72l-129 -308h-125l121 286h-169v94h302z" />
<glyph horiz-adv-x="339" d="M169 -10q-76 0 -113.5 34t-37.5 88q0 59 48 92q-34 28 -34 69q0 53 34 85t103 32t103 -32t34 -85q0 -41 -34 -69q48 -33 48 -92q0 -55 -37.5 -88.5t-113.5 -33.5zM169 78q36 0 36 39q0 40 -36 40t-36 -40q0 -39 36 -39zM169 245q13 0 21 8.5t8 19.5q0 29 -29 29 q-28 0 -28 -29q0 -11 7.5 -19.5t20.5 -8.5z" />
<glyph horiz-adv-x="339" d="M30 54l77 59q20 -35 51 -35q46 0 46 60q-19 -16 -55 -16q-57 0 -94 33.5t-37 96.5q0 57 38 97.5t114 40.5q150 0 150 -185q0 -215 -165 -215q-87 0 -125 64zM173 302q-21 0 -30.5 -14t-9.5 -33q0 -45 37 -45t37 47q0 18 -8.5 31.5t-25.5 13.5z" />
<glyph horiz-adv-x="567" d="M283 109q46 0 76 35.5t30 105.5t-30 105.5t-76 35.5q-45 0 -75 -35.5t-30 -105.5t30 -105.5t75 -35.5zM283 -10q-112 0 -179 65.5t-67 194.5t67 194.5t179 65.5t179.5 -65.5t67.5 -194.5t-67.5 -194.5t-179.5 -65.5z" />
<glyph horiz-adv-x="567" d="M238 510h117v-391h117v-119h-375v119h117v235l-100 -46l-46 124z" />
<glyph horiz-adv-x="567" d="M485 338q0 -67 -34 -118t-104 -96h164v-124h-454v97q161 76 224 124.5t63 101.5q0 32 -18 50t-49 18q-32 0 -51 -19.5t-21 -58.5l-130 23q6 84 62 129t147 45q93 0 147 -43.5t54 -128.5z" />
<glyph horiz-adv-x="567" d="M37 -103l70 108q71 -56 155 -56q117 0 117 85q0 35 -34 57t-100 22h-98v119h103q49 0 77 22t28 60q0 77 -84 77q-33 0 -58 -17t-31 -49l-132 43q17 69 78.5 105.5t142.5 36.5q111 0 168 -51t57 -132q0 -96 -74 -150q98 -47 98 -149q0 -88 -67.5 -143t-189.5 -55 q-119 0 -226 67z" />
<glyph horiz-adv-x="567" d="M300 510l126 -61l-209 -330h95v109h141v-109h77v-119h-77v-160h-141v160h-275v97z" />
<glyph horiz-adv-x="567" d="M36 -119l43 121q89 -54 172 -54q123 0 123 126q0 99 -80 99q-49 0 -100 -36h-130l32 363h396v-124h-268l-9 -106q50 22 107 22q87 0 140 -55.5t53 -164.5q0 -123 -71.5 -183t-187.5 -60q-119 0 -220 52z" />
<glyph horiz-adv-x="567" d="M521 604l-109 -82q-43 69 -116 69q-60 0 -93.5 -44t-33.5 -124q60 48 142 48q102 0 166 -59t64 -169q0 -48 -13.5 -91.5t-41.5 -80.5t-78 -59t-115 -22q-134 0 -200 90.5t-66 252.5q0 173 70.5 275t203.5 102q135 0 220 -106zM283 109q62 0 89.5 34.5t27.5 86.5t-28 87 t-89 35t-88 -35t-27 -87t27.5 -86.5t87.5 -34.5z" />
<glyph horiz-adv-x="567" d="M274 -160h-156l253 536h-339v124h503v-103z" />
<glyph horiz-adv-x="567" d="M283 -10q-123 0 -184 57.5t-61 150.5q0 121 95 175q-70 52 -70 156q0 82 54.5 131.5t165.5 49.5q112 0 166.5 -49.5t54.5 -131.5q0 -102 -70 -156q95 -55 95 -175q0 -93 -61 -150.5t-185 -57.5zM283 109q54 0 79.5 28.5t25.5 77.5q0 42 -26 69t-79 27q-52 0 -78 -27 t-26 -69q0 -49 25.5 -77.5t78.5 -28.5zM283 430q80 0 80 84q0 77 -80 77q-79 0 -79 -77q0 -84 79 -84z" />
<glyph horiz-adv-x="567" d="M94 -130l43 115q60 -36 123 -36q62 0 94.5 42.5t32.5 113.5q-63 -50 -139 -50q-96 0 -152.5 57.5t-56.5 157.5t57.5 170t177.5 70q255 0 255 -315q0 -178 -70.5 -271.5t-196.5 -93.5q-77 0 -168 40zM285 391q-54 0 -79.5 -32t-25.5 -77q0 -47 25.5 -77.5t81.5 -30.5 q50 0 74.5 32.5t24.5 79.5q0 44 -24.5 74.5t-76.5 30.5z" />
<glyph horiz-adv-x="567" d="M283 109q46 0 76 35.5t30 105.5t-30 105.5t-76 35.5q-45 0 -75 -35.5t-30 -105.5t30 -105.5t75 -35.5zM283 -10q-112 0 -179 65.5t-67 194.5t67 194.5t179 65.5t179.5 -65.5t67.5 -194.5t-67.5 -194.5t-179.5 -65.5z" />
<glyph horiz-adv-x="436" d="M171 510h117v-391h117v-119h-375v119h117v235l-100 -46l-46 124z" />
<glyph horiz-adv-x="515" d="M458 338q0 -67 -34 -118t-104 -96h164v-124h-454v97q161 76 224 124.5t63 101.5q0 32 -18 50t-49 18q-32 0 -51 -19.5t-21 -58.5l-130 23q6 84 62 129t147 45q93 0 147 -43.5t54 -128.5z" />
<glyph horiz-adv-x="530" d="M16 -103l70 108q71 -56 155 -56q117 0 117 85q0 35 -34 57t-100 22h-98v119h103q49 0 77 22t28 60q0 77 -84 77q-33 0 -58 -17t-31 -49l-132 43q17 69 78.5 105.5t142.5 36.5q111 0 168 -51t57 -132q0 -96 -74 -150q98 -47 98 -149q0 -88 -67.5 -143t-189.5 -55 q-119 0 -226 67z" />
<glyph horiz-adv-x="534" d="M283 510l126 -61l-209 -330h95v109h141v-109h77v-119h-77v-160h-141v160h-275v97z" />
<glyph horiz-adv-x="533" d="M17 -119l43 121q89 -54 172 -54q123 0 123 126q0 99 -80 99q-49 0 -100 -36h-130l32 363h396v-124h-268l-9 -106q50 22 107 22q87 0 140 -55.5t53 -164.5q0 -123 -71.5 -183t-187.5 -60q-119 0 -220 52z" />
<glyph horiz-adv-x="554" d="M514 604l-109 -82q-43 69 -116 69q-60 0 -93.5 -44t-33.5 -124q60 48 142 48q102 0 166 -59t64 -169q0 -48 -13.5 -91.5t-41.5 -80.5t-78 -59t-115 -22q-134 0 -200 90.5t-66 252.5q0 173 70.5 275t203.5 102q135 0 220 -106zM276 109q62 0 89.5 34.5t27.5 86.5t-28 87 t-89 35t-88 -35t-27 -87t27.5 -86.5t87.5 -34.5z" />
<glyph horiz-adv-x="524" d="M252 -160h-156l253 536h-339v124h503v-103z" />
<glyph horiz-adv-x="554" d="M276 -10q-123 0 -184 57.5t-61 150.5q0 121 95 175q-70 52 -70 156q0 82 54.5 131.5t165.5 49.5q112 0 166.5 -49.5t54.5 -131.5q0 -102 -70 -156q95 -55 95 -175q0 -93 -61 -150.5t-185 -57.5zM276 109q54 0 79.5 28.5t25.5 77.5q0 42 -26 69t-79 27q-52 0 -78 -27 t-26 -69q0 -49 25.5 -77.5t78.5 -28.5zM276 430q80 0 80 84q0 77 -80 77q-79 0 -79 -77q0 -84 79 -84z" />
<glyph horiz-adv-x="554" d="M87 -130l43 115q60 -36 123 -36q62 0 94.5 42.5t32.5 113.5q-62 -50 -139 -50q-96 0 -152.5 57.5t-56.5 157.5t57.5 170t177.5 70q255 0 255 -315q0 -178 -70.5 -271.5t-196.5 -93.5q-77 0 -168 40zM278 391q-54 0 -79.5 -32t-25.5 -77q0 -47 25.5 -77.5t81.5 -30.5 q50 0 74.5 32.5t24.5 79.5q0 44 -24.5 74.5t-76.5 30.5z" />
<glyph horiz-adv-x="340" d="M303 680l-40 -86q-47 28 -87 28q-34 0 -34 -16q0 -13 26.5 -22t59 -16.5t59 -33.5t26.5 -69q0 -59 -41.5 -87t-108.5 -28q-42 0 -74 10t-74 35l52 83q55 -40 99 -40q32 0 32 19q0 12 -17.5 19.5t-43 14t-50.5 17t-42.5 34.5t-17.5 60q0 55 41.5 81.5t103.5 26.5 q76 0 131 -30z" />
<glyph horiz-adv-x="276" d="M58 612h-46v88h46v110h115v-110h86v-88h-86v-126q0 -44 33 -44q18 0 41 12l17 -86q-42 -18 -84 -18q-122 0 -122 129v133z" />
<glyph horiz-adv-x="373" d="M142 524v-164h-115v340h115v-32q36 42 93 42q111 0 111 -133v-217h-115v217q0 45 -38 45q-51 0 -51 -98z" />
<glyph horiz-adv-x="395" d="M269 361q-7 17 -12 38q-40 -49 -97 -49q-60 0 -98.5 44.5t-38.5 131.5q0 89 41.5 136.5t113.5 47.5q43 0 75 -29v181h115v-380q0 -66 8 -121h-107zM191 438q27 0 44.5 29t17.5 80v46q-23 29 -55 29q-27 0 -43.5 -26t-16.5 -70q0 -43 14.5 -65.5t38.5 -22.5z" />
<glyph horiz-adv-x="248" d="M241 703l-17 -97q-23 10 -42 10q-23 0 -31.5 -18.5t-8.5 -60.5v-177h-115v340h115v-31q21 41 60 41q18 0 39 -7z" />
<glyph horiz-adv-x="373" d="M142 524v-164h-115v502h115v-194q36 42 93 42q111 0 111 -133v-217h-115v217q0 45 -38 45q-51 0 -51 -98z" />
</font>
</defs>
</svg>
