<?xml version="1.0" standalone="no"?>
<!DOCTYPE svg PUBLIC "-//W3C//DTD SVG 1.1//EN" "http://www.w3.org/Graphics/SVG/1.1/DTD/svg11.dtd" >
<svg xmlns="http://www.w3.org/2000/svg" xmlns:xlink="http://www.w3.org/1999/xlink" version="1.1">
<metadata></metadata>
<defs>
<font id="cloud_lightlight" horiz-adv-x="0" >
<font-face units-per-em="1000" ascent="750" descent="-250" />
<missing-glyph horiz-adv-x="310" />
<glyph unicode="&#x3b;&#x3b;For&#x20;Education&#x20;Used&#x20;Only&#x3b;&#x3b;" horiz-adv-x="840" d="M421 -10q-149 0 -255 106t-106 255q0 148 106 253.5t255 105.5q148 0 253.5 -105.5t105.5 -253.5q0 -149 -105.5 -255t-253.5 -106zM421 40q127 0 218 91t91 220q0 127 -91 218t-218 91q-129 0 -220 -91t-91 -218q0 -129 91 -220t220 -91zM551 253l41 -21 q-43 -112 -171 -112q-94 0 -144 62.5t-50 168.5t50 167.5t144 61.5q119 0 165 -99l-38 -27q-35 81 -127 81q-144 0 -144 -184q0 -89 36 -137.5t108 -48.5q95 0 130 88z" />
<glyph unicode="&#x3b;&#x3b;Registered&#x3b;&#x3b;" horiz-adv-x="530" d="M30 475q0 97 69 166t166 69t166 -69t69 -166t-69 -166t-166 -69t-166 69t-69 166zM75 475q0 -79 55.5 -134.5t134.5 -55.5t134.5 55.5t55.5 134.5t-55.5 134.5t-134.5 55.5t-134.5 -55.5t-55.5 -134.5zM363 530q0 -27 -14.5 -48.5t-41.5 -29.5l67 -113h-51l-65 110h-37 v-110h-45v273h104q40 0 61.5 -24.5t21.5 -57.5zM221 569v-77h59q18 0 28 11.5t10 26.5t-10 27t-28 12h-59z" />
<glyph unicode="&#x3b;&#x3b;Multiply&#x3b;&#x3b;" horiz-adv-x="440" d="M101 474l119 -119l119 119l35 -35l-119 -119l119 -119l-35 -35l-119 119l-119 -119l-35 35l119 119l-119 119z" />
<glyph unicode="&#x3b;&#x3b;Divide&#x3b;&#x3b;" horiz-adv-x="440" d="M40 345h360v-50h-360v50zM185 415v70h70v-70h-70zM185 155v70h70v-70h-70z" />
<glyph unicode="&#x2018;&#x2018;" horiz-adv-x="295" d="M125 470h-95v56q0 116 50 184l43 -13q-43 -56 -48 -142h50v-85zM265 470h-95v56q0 116 50 184l43 -13q-43 -56 -48 -142h50v-85z" />
<glyph unicode="&#x2019;&#x2019;" horiz-adv-x="295" d="M170 700h95v-56q0 -116 -50 -184l-43 13q44 58 47 142h-49v85zM30 700h95v-56q0 -116 -50 -184l-43 13q44 58 47 142h-49v85z" />
<glyph unicode="&#x3b;&#x3b;Trademark&#x3b;&#x3b;" horiz-adv-x="527" d="M487 465h-50v122l-56 -122h-35l-56 122v-122h-50v235h50l73 -161l74 161h50v-235zM210 655h-70v-190h-50v190h-70v45h190v-45z" />
<glyph unicode="&#xe24;&#xe32;" horiz-adv-x="780" d="M400 -200v515q0 79 -32 114.5t-114 35.5q-46 0 -112 -15l53 -103q-40 -22 -52.5 -51t-12.5 -88v-163h90v-45h-101q-23 0 -31 8t-8 31v181q0 59 9.5 86.5t44.5 53.5l-63 122q109 28 184 28q87 0 131 -31q80 31 145 31q77 0 123 -46t46 -147v-517h-50v517q0 148 -122 148 q-47 0 -107 -20q29 -44 29 -130v-515h-50z" />
<glyph unicode="&#xe26;&#xe32;" horiz-adv-x="780" d="M400 -200v515q0 79 -32 114.5t-114 35.5q-46 0 -112 -15l53 -103q-40 -22 -52.5 -51t-12.5 -88v-169q0 -23 -8 -31t-31 -8h-81v45h70v175q0 59 9.5 86.5t44.5 53.5l-63 122q109 28 184 28q87 0 131 -31q80 31 145 31q77 0 123 -46t46 -147v-517h-50v517q0 148 -122 148 q-47 0 -107 -20q29 -44 29 -130v-515h-50z" />
<glyph unicode=" "  horiz-adv-x="310" />
<glyph unicode="&#x09;" horiz-adv-x="310" />
<glyph unicode="&#xa0;" horiz-adv-x="310" />
<glyph unicode="!" horiz-adv-x="202" d="M126 700v-550h-50v550h50zM62 0v78h78v-78h-78z" />
<glyph unicode="&#x22;" horiz-adv-x="300" d="M105 645l-10 -175h-35l-10 175v55h55v-55zM250 645l-10 -175h-35l-10 175v55h55v-55z" />
<glyph unicode="#" horiz-adv-x="639" d="M357 0l26 200h-167l-26 -200h-49l26 200h-117v45h123l28 210h-130v45h136l26 200h49l-26 -200h167l26 200h49l-26 -200h117v-45h-123l-28 -210h130v-45h-136l-26 -200h-49zM250 455l-28 -210h167l28 210h-167z" />
<glyph unicode="$" horiz-adv-x="534" d="M296 730v-86q88 -7 163 -48l-16 -43q-70 37 -147 45v-251q41 -10 66 -19.5t54.5 -29.5t43.5 -53t14 -80q0 -160 -178 -174v-85h-50v85q-105 4 -192 60l19 44q83 -55 173 -60v271q-40 10 -65.5 20t-53.5 30t-42 53.5t-14 80.5q0 74 48 113.5t127 41.5v85h50zM424 165 q0 57 -33 84.5t-95 43.5v-257q62 6 95 35.5t33 93.5zM121 490q0 -58 32.5 -86t92.5 -44v241q-125 -3 -125 -111z" />
<glyph unicode="%" horiz-adv-x="800" d="M134 0l468 700h63l-468 -700h-63zM360 537q0 -81 -42 -127t-113 -46t-113 46t-42 127t42 127t113 46t113 -46t42 -127zM100 537q0 -55 25.5 -89t79.5 -34t79.5 34t25.5 89t-25.5 89t-79.5 34t-79.5 -34t-25.5 -89zM750 163q0 -81 -42 -127t-113 -46t-113 46t-42 127 t42 127t113 46t113 -46t42 -127zM490 163q0 -55 25.5 -89t79.5 -34t79.5 34t25.5 89t-25.5 89t-79.5 34t-79.5 -34t-25.5 -89z" />
<glyph unicode="&#x26;" horiz-adv-x="646" d="M439 595l-48 -14q-14 84 -104 84q-47 0 -75 -29t-28 -79q0 -64 66 -151l175 -232q20 37 45 95l56 133h100v-45h-65l-47 -111q-27 -62 -57 -114q39 -53 64 -74.5t48 -21.5q25 0 57 24l19 -41q-39 -29 -78 -29q-68 0 -141 97q-79 -97 -196 -97q-91 0 -138 48.5t-47 116.5 q0 145 160 230q-39 53 -55 91.5t-16 80.5q0 72 41.5 112.5t111.5 40.5q62 0 101.5 -29t50.5 -86zM230 35q98 0 166 93l-165 221q-136 -70 -136 -194q0 -50 32.5 -85t102.5 -35z" />
<glyph unicode="'" horiz-adv-x="155" d="M105 645l-10 -175h-35l-10 175v55h55v-55z" />
<glyph unicode="(" horiz-adv-x="260" d="M60 305q0 160 27 253.5t100 151.5l38 -26q-67 -55 -91 -140.5t-24 -238.5t24 -238.5t91 -140.5l-38 -26q-73 58 -100 151.5t-27 253.5z" />
<glyph unicode=")" horiz-adv-x="260" d="M200 305q0 -160 -27 -253.5t-100 -151.5l-38 26q67 55 91 140.5t24 238.5t-24 238.5t-91 140.5l38 26q73 -58 100 -151.5t27 -253.5z" />
<glyph unicode="*" horiz-adv-x="369" d="M70 454l80 94l-110 37l20 52l103 -48l-6 111h55l-6 -111l103 48l20 -52l-110 -37l80 -94l-45 -34l-70 106l-69 -106z" />
<glyph unicode="+" horiz-adv-x="440" d="M245 500v-155h155v-50h-155v-155h-50v155h-155v50h155v155h50z" />
<glyph unicode="," horiz-adv-x="190" d="M58 74h74v-49q0 -96 -44 -155l-38 11q38 51 41 119h-33v74z" />
<glyph unicode="-" horiz-adv-x="275" d="M40 273h195v-45h-195v45z" />
<glyph unicode="." horiz-adv-x="190" d="M58 0v74h74v-74h-74z" />
<glyph unicode="/" horiz-adv-x="403" d="M351 700h52l-351 -800h-52z" />
<glyph unicode="0" horiz-adv-x="560" d="M90 350q0 -163 40.5 -239t149.5 -76t149.5 76t40.5 239t-40.5 239t-149.5 76t-149.5 -76t-40.5 -239zM520 350q0 -189 -54.5 -274.5t-185.5 -85.5t-185.5 85.5t-54.5 274.5t54.5 274.5t185.5 85.5t185.5 -85.5t54.5 -274.5z" />
<glyph unicode="1" horiz-adv-x="560" d="M274 710h31v-665h150v-45h-350v45h150v605l-167 -76l-15 44z" />
<glyph unicode="2" horiz-adv-x="560" d="M114 528l-49 11q8 85 66 128t148 43q91 0 147.5 -45t56.5 -132q0 -72 -39 -130t-136 -158l-193 -198h397v-47h-463v47l225 232q89 91 124 143t35 111q0 64 -41.5 98t-112.5 34q-72 0 -116.5 -34t-48.5 -103z" />
<glyph unicode="3" horiz-adv-x="560" d="M49 178l49 12q5 -75 56.5 -115t128.5 -40q82 0 130 43t48 127q0 138 -189 138h-86v45h89q89 0 127 41.5t38 105.5t-45.5 97t-116.5 33q-66 0 -110.5 -28.5t-50.5 -83.5l-49 10q10 71 68.5 109t141.5 38q91 0 151.5 -43.5t60.5 -126.5q0 -121 -99 -171q120 -47 120 -167 q0 -104 -62.5 -158t-165.5 -54q-95 0 -160 49t-74 139z" />
<glyph unicode="4" horiz-adv-x="560" d="M371 710l43 -22l-322 -503h278v315h50v-315h105v-45h-105v-140h-50v140h-335v45z" />
<glyph unicode="5" horiz-adv-x="560" d="M50 183l48 15q7 -79 56 -121t124 -42q81 0 132 50t51 146q0 75 -37 121.5t-122 46.5q-62 0 -162 -38h-49l16 339h360v-47h-313l-12 -241q94 33 161 33q75 0 123.5 -32t66.5 -78t18 -104q0 -116 -66 -178.5t-167 -62.5q-85 0 -150.5 51t-77.5 142z" />
<glyph unicode="6" horiz-adv-x="560" d="M480 610l-40 -30q-50 85 -142 85q-195 0 -195 -339q59 114 186 114q97 0 156.5 -55.5t59.5 -159.5q0 -45 -12 -85t-36 -74.5t-67 -55t-100 -20.5q-234 0 -234 333q0 387 242 387q126 0 182 -100zM290 35q84 0 124.5 53.5t40.5 129.5q0 75 -40 126t-125 51t-125 -51 t-40 -126q0 -76 40.5 -129.5t124.5 -53.5z" />
<glyph unicode="7" horiz-adv-x="560" d="M230 0h-55l276 653h-407v47h472v-24z" />
<glyph unicode="8" horiz-adv-x="560" d="M280 -10q-114 0 -170 55t-56 147q0 62 29.5 109.5t85.5 71.5q-90 47 -90 156q0 82 50 131.5t151 49.5t151 -49.5t50 -131.5q0 -109 -91 -156q57 -24 86.5 -71.5t29.5 -109.5q0 -92 -56 -147t-170 -55zM280 35q90 0 133 42t43 115q0 72 -43 114t-133 42t-133 -42t-43 -114 q0 -73 43 -115t133 -42zM280 393q78 0 114.5 36.5t36.5 99.5t-36.5 99.5t-114.5 36.5t-114.5 -36.5t-36.5 -99.5t36.5 -99.5t114.5 -36.5z" />
<glyph unicode="9" horiz-adv-x="560" d="M81 90l40 30q50 -85 142 -85q195 0 195 339q-63 -114 -186 -114q-97 0 -156.5 55.5t-59.5 159.5q0 45 12 85t36 74.5t67 55t100 20.5q234 0 234 -333q0 -387 -242 -387q-126 0 -182 100zM271 665q-84 0 -124.5 -53.5t-40.5 -129.5q0 -75 40 -126t125 -51t125 51t40 126 q0 76 -40.5 129.5t-124.5 53.5z" />
<glyph unicode=":" horiz-adv-x="190" d="M58 0v74h74v-74h-74zM58 426v74h74v-74h-74z" />
<glyph unicode=";" horiz-adv-x="190" d="M58 74h74v-49q0 -96 -44 -155l-38 11q38 51 41 119h-33v74zM58 426v74h74v-74h-74z" />
<glyph unicode="&#x3c;" horiz-adv-x="440" d="M399 531l-308 -241l308 -241v-59l-359 279v42l359 279v-59z" />
<glyph unicode="=" horiz-adv-x="440" d="M40 425h360v-50h-360v50zM40 265h360v-50h-360v50z" />
<glyph unicode="&#x3e;" horiz-adv-x="440" d="M41 -10v59l307 241l-307 241v59l359 -279v-42z" />
<glyph unicode="?" horiz-adv-x="446" d="M89 552l-49 12q8 74 58 110t122 36q80 0 130.5 -38t50.5 -121q0 -46 -16.5 -85.5t-39.5 -70.5t-46 -63t-39.5 -76.5t-16.5 -97.5h-50q0 60 16.5 109.5t39.5 82t46 62t39.5 64.5t16.5 75q0 114 -131 114q-56 0 -91.5 -27t-39.5 -86zM179 0v78h78v-78h-78z" />
<glyph unicode="@" horiz-adv-x="808" d="M561 418v-224q0 -55 10.5 -84.5t42.5 -29.5q39 0 61.5 60.5t22.5 135.5q0 139 -79.5 216t-214.5 77q-144 0 -219 -87t-75 -233t75 -233t219 -87q96 0 162 40l17 -45q-78 -40 -179 -40q-169 0 -256.5 99t-87.5 266t87.5 266t256.5 99q161 0 252.5 -89t91.5 -249 q0 -42 -7.5 -82t-23 -77t-44.5 -59.5t-67 -22.5q-36 0 -58.5 19t-30.5 49q-49 -68 -135 -68q-74 0 -116 53.5t-42 149.5q0 227 180 227q76 0 157 -47zM386 80q58 0 91.5 48t33.5 144v120q-59 28 -106 28q-65 0 -98 -42t-33 -140q0 -79 29.5 -118.5t82.5 -39.5z" />
<glyph unicode="A" horiz-adv-x="622" d="M540 0l-75 205h-308l-75 -205h-52l256 700h50l256 -700h-52zM311 626l-138 -376h275z" />
<glyph unicode="B" horiz-adv-x="582" d="M513 525q0 -122 -94 -174q103 -37 103 -156q0 -102 -50 -148.5t-157 -46.5h-230v700h230q198 0 198 -175zM315 327h-180v-282h180q80 0 118.5 34.5t38.5 115.5q0 72 -38 102t-119 30zM135 655v-283h180q75 0 111.5 35.5t36.5 114.5q0 70 -36.5 101.5t-111.5 31.5h-180z " />
<glyph unicode="C" horiz-adv-x="670" d="M562 209l48 -13q-51 -206 -262 -206q-278 0 -278 359q0 193 76 277t202 84q201 0 257 -189l-47 -15q-44 159 -210 159q-50 0 -89 -15t-71.5 -49.5t-50 -98t-17.5 -153.5q0 -173 61 -243.5t167 -70.5q173 0 214 174z" />
<glyph unicode="D" horiz-adv-x="655" d="M270 0h-185v700h172q102 0 168 -23t100.5 -72.5t47 -110t12.5 -151.5q0 -81 -13.5 -139.5t-47.5 -106.5t-97.5 -72.5t-156.5 -24.5zM257 655h-122v-610h135q149 0 207 75t58 223q0 83 -11 136.5t-41 95.5t-85 61t-141 19z" />
<glyph unicode="E" horiz-adv-x="545" d="M460 328h-325v-283h350v-45h-400v700h390v-45h-340v-282h325v-45z" />
<glyph unicode="F" horiz-adv-x="495" d="M135 0h-50v700h350v-45h-300v-292h285v-45h-285v-318z" />
<glyph unicode="G" horiz-adv-x="684" d="M348 353h266v-76q0 -141 -70 -214t-191 -73q-60 0 -109 18t-89.5 58t-62.5 112t-22 171t22 171.5t62.5 112.5t89.5 58.5t109 18.5q196 0 252 -189l-47 -15q-24 87 -76 123t-129 36q-233 0 -233 -316q0 -314 233 -314q98 0 154.5 59.5t56.5 182.5v31h-216v45z" />
<glyph unicode="H" horiz-adv-x="660" d="M135 700v-337h390v337h50v-700h-50v318h-390v-318h-50v700h50z" />
<glyph unicode="I" horiz-adv-x="330" d="M275 700v-45h-85v-610h85v-45h-220v45h85v610h-85v45h220z" />
<glyph unicode="J" horiz-adv-x="381" d="M158 35q88 0 88 122v498h-110v45h160v-543q0 -85 -37.5 -126t-101.5 -41q-83 0 -131 63l26 42q42 -60 106 -60z" />
<glyph unicode="K" horiz-adv-x="617" d="M135 700v-422l348 422h64l-250 -304q64 -23 101 -58.5t67 -105.5l97 -232h-54l-90 215q-26 60 -60 91t-93 52l-130 -158v-200h-50v700h50z" />
<glyph unicode="L" horiz-adv-x="511" d="M135 700v-655h311v-45h-361v700h50z" />
<glyph unicode="M" horiz-adv-x="802" d="M112 700h49l240 -628l240 628h49l37 -700h-50l-30 579l-221 -579h-50l-221 579l-30 -579h-50z" />
<glyph unicode="N" horiz-adv-x="655" d="M85 700h50l385 -607v607h50v-700h-50l-385 607v-607h-50v700z" />
<glyph unicode="O" horiz-adv-x="696" d="M348 35q112 0 170 69.5t58 245.5t-58 245.5t-170 69.5t-170 -69.5t-58 -245.5t58 -245.5t170 -69.5zM348 -10q-134 0 -206 82.5t-72 277.5t72 277.5t206 82.5t206 -82.5t72 -277.5t-72 -277.5t-206 -82.5z" />
<glyph unicode="P" horiz-adv-x="552" d="M281 290h-146v-290h-50v700h196q216 0 216 -205q0 -106 -54 -155.5t-162 -49.5zM281 655h-146v-320h146q85 0 125.5 36.5t40.5 123.5q0 88 -40 124t-126 36z" />
<glyph unicode="Q" horiz-adv-x="696" d="M609 -120q-117 0 -170 21t-113 90q-124 6 -190 89t-66 270q0 195 72 277.5t206 82.5t206 -82.5t72 -277.5q0 -179 -61 -263t-175 -95q42 -41 89 -54t147 -13zM348 35q112 0 170 69.5t58 245.5t-58 245.5t-170 69.5t-170 -69.5t-58 -245.5t58 -245.5t170 -69.5z" />
<glyph unicode="R" horiz-adv-x="567" d="M497 508q0 -84 -42 -132.5t-124 -57.5l186 -318h-58l-185 316h-139v-316h-50v700h206q101 0 153.5 -49t52.5 -143zM291 655h-156v-294h156q80 0 118 35.5t38 111.5t-38.5 111.5t-117.5 35.5z" />
<glyph unicode="S" horiz-adv-x="599" d="M524 182q0 -102 -63 -147t-168 -45q-125 0 -228 67l21 44q100 -66 206 -66q182 0 182 147q0 47 -21.5 77.5t-55.5 45t-75.5 24t-83 22t-75.5 31.5t-55.5 58.5t-21.5 98.5q0 84 59 127.5t152 43.5q115 0 213 -55l-18 -43q-94 53 -195 53q-71 0 -116 -32.5t-45 -93.5 q0 -48 21.5 -79t55.5 -45.5t75.5 -25t83 -22.5t75.5 -30.5t55.5 -57.5t21.5 -97z" />
<glyph unicode="T" horiz-adv-x="510" d="M480 655h-200v-655h-50v655h-200v45h450v-45z" />
<glyph unicode="U" horiz-adv-x="670" d="M585 700v-483q0 -62 -21 -107.5t-57.5 -71t-79 -37t-92.5 -11.5t-92.5 12t-79 37t-57.5 70.5t-21 107.5v483h50v-483q0 -51 16.5 -88t46 -57t63.5 -28.5t74 -8.5t74 8.5t63.5 28.5t46 57t16.5 88v483h50z" />
<glyph unicode="V" horiz-adv-x="642" d="M321 71l239 629h52l-266 -700h-50l-266 700h52z" />
<glyph unicode="W" horiz-adv-x="972" d="M460 700h52l189 -612l189 612h52l-216 -700h-50l-190 615l-190 -615h-50l-216 700h52l189 -612z" />
<glyph unicode="X" horiz-adv-x="588" d="M543 700l-220 -342l230 -358h-59l-200 312l-200 -312h-59l229 358l-219 342h59l190 -296l190 296h59z" />
<glyph unicode="Y" horiz-adv-x="558" d="M30 700h56l193 -357l193 357h56l-224 -414v-286h-50v286z" />
<glyph unicode="Z" horiz-adv-x="596" d="M521 655l-400 -608h415v-47h-476v45l400 608h-385v47h446v-45z" />
<glyph unicode="[" horiz-adv-x="260" d="M70 700h140v-45h-90v-710h90v-45h-140v800z" />
<glyph unicode="\" horiz-adv-x="403" d="M0 700h52l351 -800h-52z" />
<glyph unicode="]" horiz-adv-x="260" d="M50 700h140v-800h-140v45h90v710h-90v45z" />
<glyph unicode="^" horiz-adv-x="494" d="M416 400l-169 246l-169 -246h-58l206 300h42l206 -300h-58z" />
<glyph unicode="_" horiz-adv-x="430" d="M20 0h390v-45h-390v45z" />
<glyph unicode="`" horiz-adv-x="169" d="M139 560l-124 107l49 43l90 -136z" />
<glyph unicode="a" horiz-adv-x="504" d="M430 0h-50q-10 47 -11 90q-33 -48 -82 -74t-99 -26q-66 0 -104.5 36.5t-38.5 106.5q0 79 50.5 121t146.5 42q57 0 127 -15v66q0 58 -34 88t-89 30q-48 0 -81.5 -22.5t-41.5 -63.5l-50 7q9 58 57.5 91t116.5 33q75 0 123.5 -41.5t48.5 -121.5v-165q0 -101 11 -182z M369 221v15q-74 15 -127 15q-147 0 -147 -118q0 -98 95 -98q65 0 122 52t57 134z" />
<glyph unicode="b" horiz-adv-x="558" d="M85 182v548h50v-330q55 110 166 110q85 0 138.5 -64t53.5 -187q0 -131 -56 -200t-146 -69q-98 0 -159 83q-2 -21 -8 -73h-50q11 81 11 182zM135 222v-83q35 -54 71 -79t82 -25q71 0 113 59.5t42 164.5q0 101 -40 153.5t-106 52.5q-71 0 -116.5 -64t-45.5 -179z" />
<glyph unicode="c" horiz-adv-x="515" d="M428 135l47 -18q-50 -127 -194 -127q-105 0 -160.5 70t-55.5 190t55.5 190t160.5 70q134 0 187 -112l-43 -25q-40 92 -144 92q-82 0 -124 -57.5t-42 -157.5t42 -157.5t124 -57.5q107 0 147 100z" />
<glyph unicode="d" horiz-adv-x="558" d="M434 0q-8 48 -9 94q-63 -104 -170 -104q-85 0 -137.5 63t-52.5 178q0 141 57.5 210t152.5 69q79 0 148 -54v274h50v-548q0 -101 11 -182h-50zM259 35q72 0 118 63.5t46 179.5v123q-76 64 -149 64q-76 0 -117.5 -59.5t-41.5 -174.5q0 -96 39.5 -146t104.5 -50z" />
<glyph unicode="e" horiz-adv-x="547" d="M450 81l17 -42q-84 -49 -174 -49q-103 0 -165.5 63.5t-62.5 196.5q0 120 55.5 190t160.5 70q103 0 152 -68t49 -184v-29h-367q5 -98 52 -146t127 -48q79 0 156 46zM281 465q-77 0 -118.5 -50.5t-46.5 -140.5h316q-5 191 -151 191z" />
<glyph unicode="f" horiz-adv-x="330" d="M105 455h-80v45h80v91q0 72 33 110.5t92 38.5q34 0 72 -13l-14 -45q-32 13 -56 13q-35 0 -56 -25.5t-21 -78.5v-91h140v-45h-140v-455h-50v455z" />
<glyph unicode="g" horiz-adv-x="520" d="M336 0h-229v24l55 133q-88 43 -88 168q0 86 44.5 135.5t133.5 49.5q37 0 70 -10h183v-45h-114q40 -49 40 -130q0 -86 -44.5 -135.5t-134.5 -49.5q-23 0 -44 3l-41 -98h168q65 0 97.5 -28.5t32.5 -77.5q0 -75 -56.5 -112t-152.5 -37q-117 0 -199 58l20 43q87 -56 179 -56 q76 0 117.5 29t41.5 75q0 61 -79 61zM252 465q-128 0 -128 -140q0 -66 31.5 -103t96.5 -37q129 0 129 140t-129 140z" />
<glyph unicode="h" horiz-adv-x="544" d="M135 259v-259h-50v730h50v-318q58 98 170 98q154 0 154 -175v-335h-50v335q0 65 -30 97.5t-82 32.5q-71 0 -116.5 -55t-45.5 -151z" />
<glyph unicode="i" horiz-adv-x="235" d="M100 0v458h-65v42h77q23 0 30.5 -7t7.5 -31v-462h-50zM91 634v66h66v-66h-66z" />
<glyph unicode="j" horiz-adv-x="235" d="M80 -210l-42 24q37 51 49.5 92.5t12.5 111.5v440h-65v42h77q23 0 30.5 -7t7.5 -31v-444q0 -74 -15 -123t-55 -105zM91 634v66h66v-66h-66z" />
<glyph unicode="k" horiz-adv-x="519" d="M135 730v-518l270 288h65l-182 -194q45 -12 71 -37t52 -85l77 -184h-54l-70 167q-21 50 -42 69.5t-69 32.5l-118 -126v-143h-50v730h50z" />
<glyph unicode="l" horiz-adv-x="245" d="M85 91v639h50v-635q0 -60 41 -60q21 0 48 13l11 -42q-32 -16 -63 -16q-38 0 -62.5 26.5t-24.5 74.5z" />
<glyph unicode="m" horiz-adv-x="824" d="M292 510q48 0 84 -23.5t51 -69.5q53 93 161 93q69 0 110 -41t41 -120v-349h-50v349q0 58 -29.5 87t-77.5 29q-62 0 -103.5 -49t-41.5 -133v-283h-50v349q0 116 -98 116q-63 0 -108.5 -49.5t-45.5 -132.5v-283h-50v500h50v-82q53 92 157 92z" />
<glyph unicode="n" horiz-adv-x="544" d="M135 259v-259h-50v500h50v-88q58 98 170 98q154 0 154 -175v-335h-50v335q0 65 -30 97.5t-82 32.5q-71 0 -116.5 -55t-45.5 -151z" />
<glyph unicode="o" horiz-adv-x="562" d="M281 465q-82 0 -124 -57.5t-42 -157.5t42 -157.5t124 -57.5t124 57.5t42 157.5t-42 157.5t-124 57.5zM281 -10q-105 0 -160.5 70t-55.5 190t55.5 190t160.5 70t160.5 -70t55.5 -190t-55.5 -190t-160.5 -70z" />
<glyph unicode="p" horiz-adv-x="558" d="M135 -200h-50v700h50v-100q55 110 166 110q85 0 138.5 -64t53.5 -187q0 -131 -56 -200t-146 -69q-96 0 -156 79v-269zM135 222v-82q36 -55 71.5 -80t81.5 -25q71 0 113 59.5t42 164.5q0 101 -40 153.5t-106 52.5q-71 0 -116.5 -64t-45.5 -179z" />
<glyph unicode="q" horiz-adv-x="558" d="M423 -200v300q-55 -110 -166 -110q-85 0 -138.5 64t-53.5 187q0 131 56 200t146 69q95 0 156 -78v68h50v-700h-50zM261 35q71 0 116.5 64t45.5 179v83q-36 54 -71.5 79t-81.5 25q-71 0 -113 -59.5t-42 -164.5q0 -101 40 -153.5t106 -52.5z" />
<glyph unicode="r" horiz-adv-x="345" d="M320 500l-11 -46q-27 11 -51 11q-54 0 -88.5 -48.5t-34.5 -141.5v-275h-50v500h50v-69q39 79 123 79q32 0 62 -10z" />
<glyph unicode="s" horiz-adv-x="470" d="M400 467l-22 -44q-61 42 -139 42q-50 0 -82.5 -22t-32.5 -65q0 -37 29 -57.5t70 -30.5t82.5 -22.5t70.5 -45.5t29 -88q0 -73 -50.5 -108.5t-125.5 -35.5q-51 0 -99 15.5t-78 41.5l27 40q22 -23 65 -37.5t88 -14.5q53 0 88 24t35 75q0 39 -29 61t-70.5 33t-82.5 23.5 t-70 44t-29 82.5q0 66 48 99t120 33q91 0 158 -43z" />
<glyph unicode="t" horiz-adv-x="340" d="M105 455h-80v45h80v160h50v-160h150v-45h-150v-332q0 -46 20 -67t52 -21q35 0 74 23l15 -42q-42 -26 -93 -26t-84.5 32t-33.5 101v332z" />
<glyph unicode="u" horiz-adv-x="544" d="M409 88q-58 -98 -170 -98q-154 0 -154 175v335h50v-335q0 -65 30 -97.5t82 -32.5q71 0 116.5 55t45.5 151v259h50v-318q0 -101 11 -182h-50q-10 47 -11 88z" />
<glyph unicode="v" horiz-adv-x="498" d="M30 500h54l165 -421l165 421h54l-196 -500h-46z" />
<glyph unicode="w" horiz-adv-x="700" d="M228 0h-50l-148 500h52l121 -410l121 410h52l121 -410l121 410h52l-148 -500h-50l-122 414z" />
<glyph unicode="x" horiz-adv-x="469" d="M30 0l174 257l-164 243h60l134 -199l135 199h60l-165 -243l175 -257h-60l-145 213l-144 -213h-60z" />
<glyph unicode="y" horiz-adv-x="498" d="M130 -200l91 226l-191 474h54l164 -407l166 407h54l-284 -700h-54z" />
<glyph unicode="z" horiz-adv-x="457" d="M403 476l-283 -429h292v-47h-367v24l283 429h-274v47h349v-24z" />
<glyph unicode="{" horiz-adv-x="260" d="M153 412q0 -75 -53 -107q53 -32 53 -107v-194q0 -28 8.5 -38.5t31.5 -10.5h32v-45h-32q-51 0 -70.5 21.5t-19.5 72.5v194q0 39 -13.5 56.5t-54.5 27.5v46q41 10 54.5 27.5t13.5 56.5v194q0 51 19.5 72.5t70.5 21.5h32v-45h-32q-23 0 -31.5 -10.5t-8.5 -38.5v-194z" />
<glyph unicode="|" horiz-adv-x="259" d="M154 760v-870h-50v870h50z" />
<glyph unicode="}" horiz-adv-x="260" d="M107 198q0 76 53 107q-53 31 -53 107v194q0 28 -8.5 38.5t-31.5 10.5h-32v45h32q51 0 70.5 -21.5t19.5 -72.5v-194q0 -39 13.5 -56.5t54.5 -27.5v-46q-41 -10 -54.5 -27.5t-13.5 -56.5v-194q0 -51 -19.5 -72.5t-70.5 -21.5h-32v45h32q23 0 31.5 10.5t8.5 38.5v194z" />
<glyph unicode="~" horiz-adv-x="450" d="M312 326q26 0 37 20t11 64h50q0 -58 -24.5 -96t-73.5 -38q-30 0 -62 23.5t-61 47t-51 23.5q-26 0 -37 -20t-11 -64h-50q0 58 24.5 96t73.5 38q34 0 67.5 -23.5t61 -47t45.5 -23.5z" />
<glyph unicode="&#xa1;" horiz-adv-x="202" d="M126 430v-550h-50v550h50zM62 502v78h78v-78h-78z" />
<glyph unicode="&#xa2;" horiz-adv-x="534" d="M425 234l47 -18q-48 -120 -178 -127v-89h-50v91q-89 11 -135.5 79.5t-46.5 178.5t46.5 178t135.5 80v93h50v-92q122 -6 171 -111l-43 -25q-36 84 -128 91v-429q95 7 131 100zM112 349q0 -89 33.5 -144.5t98.5 -67.5v424q-65 -12 -98.5 -67.5t-33.5 -144.5z" />
<glyph unicode="&#xa3;" horiz-adv-x="534" d="M53 359h112v182q0 82 42.5 125.5t113.5 43.5q58 0 99 -29.5t53 -86.5l-48 -18q-15 89 -104 89q-106 0 -106 -123v-183h182v-45h-182v-126q0 -60 -12 -91.5t-42 -51.5h341v-45h-470v45q79 0 106 30.5t27 112.5v126h-112v45z" />
<glyph unicode="&#xa5;" horiz-adv-x="534" d="M18 700h56l193 -357l193 357h56l-200 -370h141v-45h-165v-80h165v-45h-165v-160h-50v160h-165v45h165v80h-165v45h141z" />
<glyph unicode="&#xa6;" horiz-adv-x="259" d="M154 760v-385h-50v385h50zM154 275v-385h-50v385h50z" />
<glyph unicode="&#xa7;" horiz-adv-x="453" d="M403 250q0 -76 -67 -122q27 -41 27 -87q0 -70 -44.5 -105.5t-114.5 -35.5q-86 0 -153 43l22 44q61 -42 134 -42q48 0 77 24.5t29 71.5q0 40 -27 73t-66 56.5t-77.5 48t-65.5 60.5t-27 81q0 75 66 121q-26 39 -26 88q0 70 44.5 105.5t114.5 35.5q86 0 153 -43l-22 -44 q-61 42 -134 42q-48 0 -77 -24.5t-29 -71.5q0 -40 27 -73t66 -56.5t77.5 -48t65.5 -60.5t27 -81zM353 250q0 32 -22.5 60t-51.5 45.5t-70 43.5t-64 48q-45 -29 -45 -87q0 -41 32.5 -72.5t90.5 -66t84 -59.5q46 31 46 88z" />
<glyph unicode="&#xa8;" horiz-adv-x="292" d="M30 600v66h66v-66h-66zM196 600v66h66v-66h-66z" />
<glyph unicode="&#xaa;" horiz-adv-x="364" d="M324 360h-49q-6 24 -8 62q-18 -32 -53.5 -52t-73.5 -20q-47 0 -75.5 26.5t-28.5 82.5t40.5 85.5t103.5 29.5q45 0 87 -14v32q0 36 -23 54.5t-60 18.5q-33 0 -56 -14.5t-27 -40.5l-47 14q10 42 45 64t85 22q57 0 95 -31t38 -87v-108q0 -77 7 -124zM267 511v4 q-51 14 -89 14q-41 0 -66.5 -17.5t-25.5 -52.5q0 -64 61 -64q42 0 81 34.5t39 81.5z" />
<glyph unicode="&#xab;" horiz-adv-x="471" d="M253 416l-170 -166l170 -166v-61l-213 205v44l213 205v-61zM431 416l-170 -166l170 -166v-61l-213 205v44l213 205v-61z" />
<glyph unicode="&#xac;" horiz-adv-x="440" d="M390 328v-145h-50v95h-290v50h340z" />
<glyph unicode="&#xad;" horiz-adv-x="275" d="M40 273h195v-45h-195v45z" />
<glyph unicode="&#xaf;" horiz-adv-x="310" d="M30 645h250v-45h-250v45z" />
<glyph unicode="&#xb0;" horiz-adv-x="308" d="M154 460q-124 0 -124 125t124 125t124 -125t-124 -125zM154 510q74 0 74 75t-74 75t-74 -75t74 -75z" />
<glyph unicode="&#xb1;" horiz-adv-x="440" d="M245 500v-155h155v-50h-155v-155h-50v155h-155v50h155v155h50zM40 50h360v-50h-360v50z" />
<glyph unicode="&#xb2;" horiz-adv-x="300" d="M81 750l-49 12q8 37 39.5 57.5t75.5 20.5q50 0 83 -26t33 -74q0 -40 -20.5 -72t-71.5 -84l-86 -87h195v-47h-260v47l109 111q50 51 67 75.5t17 56.5q0 26 -18.5 40.5t-48.5 14.5q-56 0 -65 -45z" />
<glyph unicode="&#xb3;" horiz-adv-x="300" d="M19 535l50 15q3 -30 25.5 -47.5t54.5 -17.5q35 0 58 18.5t23 53.5q0 29 -21.5 50t-62.5 21h-44v45h46q36 0 52 20.5t16 48.5q0 26 -20 39.5t-49 13.5q-27 0 -46 -11.5t-22 -33.5l-50 11q7 38 40 58.5t78 20.5q51 0 85 -24t34 -70q0 -66 -50 -94q64 -26 64 -94 q0 -57 -36.5 -87.5t-93.5 -30.5q-51 0 -87 24.5t-44 70.5z" />
<glyph unicode="&#xb4;" horiz-adv-x="169" d="M154 667l-124 -107l-15 14l90 136z" />
<glyph unicode="&#xb5;" horiz-adv-x="544" d="M409 88q-58 -98 -170 -98q-67 0 -104 33v-223h-50v700h50v-335q0 -65 30 -97.5t82 -32.5q71 0 116.5 55t45.5 151v259h50v-318q0 -101 11 -182h-50q-10 47 -11 88z" />
<glyph unicode="&#xb6;" horiz-adv-x="533" d="M463 700v-800h-50v755h-80v-755h-50v441h-73q-89 0 -129.5 51.5t-40.5 127.5q0 49 15 87.5t55 65.5t101 27h252z" />
<glyph unicode="&#xb7;" horiz-adv-x="190" d="M58 263v74h74v-74h-74z" />
<glyph unicode="&#xb8;" horiz-adv-x="175" d="M38 -85l18 85h45l-8 -40q36 0 54 -18t18 -47q0 -30 -20 -52.5t-63 -22.5q-33 0 -67 14l12 46q25 -15 56 -15q37 0 37 29q0 21 -34 21h-48z" />
<glyph unicode="&#xb9;" horiz-adv-x="300" d="M125 840h50v-345h82v-45h-214v45h82v293l-82 -37l-18 43z" />
<glyph unicode="&#xba;" horiz-adv-x="368" d="M184 395q52 0 78 36t26 99t-26 99t-78 36t-78 -36t-26 -99t26 -99t78 -36zM184 350q-77 0 -115.5 48t-38.5 132t38.5 132t115.5 48q76 0 115 -48t39 -132t-39 -132t-115 -48z" />
<glyph unicode="&#xbb;" horiz-adv-x="471" d="M218 23v61l170 166l-170 166v61l213 -205v-44zM40 23v61l170 166l-170 166v61l213 -205v-44z" />
<glyph unicode="&#xbc;" horiz-adv-x="735" d="M122 710h50v-345h82v-45h-214v45h82v293l-82 -37l-18 43zM617 700h59l-491 -700h-59zM627 390l40 -24l-163 -253h115v115h50v-115h50v-45h-50v-68h-50v68h-169v45z" />
<glyph unicode="&#xbd;" horiz-adv-x="735" d="M122 710h50v-345h82v-45h-214v45h82v293l-82 -37l-18 43zM590 700h59l-491 -700h-59zM516 300l-49 12q8 37 39.5 57.5t75.5 20.5q50 0 83 -26t33 -74q0 -40 -20.5 -72t-71.5 -84l-86 -87h195v-47h-260v47l109 111q50 51 67 75.5t17 56.5q0 26 -18.5 40.5t-48.5 14.5 q-56 0 -65 -45z" />
<glyph unicode="&#xbe;" horiz-adv-x="735" d="M627 700h59l-491 -700h-59zM627 390l40 -24l-163 -253h115v115h50v-115h50v-45h-50v-68h-50v68h-169v45zM19 405l50 15q3 -30 25.5 -47.5t54.5 -17.5q35 0 58 18.5t23 53.5q0 29 -21.5 50t-62.5 21h-44v45h46q36 0 52 20.5t16 48.5q0 26 -20 39.5t-49 13.5 q-27 0 -46 -11.5t-22 -33.5l-50 11q7 38 40 58.5t78 20.5q51 0 85 -24t34 -70q0 -66 -50 -94q64 -26 64 -94q0 -57 -36.5 -87.5t-93.5 -30.5q-51 0 -87 24.5t-44 70.5z" />
<glyph unicode="&#xbf;" horiz-adv-x="446" d="M352 28l49 -12q-8 -74 -58 -110t-122 -36q-80 0 -130.5 38t-50.5 121q0 46 16.5 85.5t39.5 70.5t46 63t39.5 76.5t16.5 97.5h50q0 -60 -16.5 -109.5t-39.5 -82t-46 -62t-39.5 -64.5t-16.5 -75q0 -114 131 -114q56 0 91.5 27t39.5 86zM262 580v-78h-78v78h78z" />
<glyph unicode="&#xc0;" horiz-adv-x="622" d="M540 0l-75 205h-308l-75 -205h-52l256 700h50l256 -700h-52zM311 626l-138 -376h275zM365 760l-124 107l49 43l90 -136z" />
<glyph unicode="&#xc1;" horiz-adv-x="622" d="M540 0l-75 205h-308l-75 -205h-52l256 700h50l256 -700h-52zM311 626l-138 -376h275zM380 867l-124 -107l-15 14l90 136z" />
<glyph unicode="&#xc2;" horiz-adv-x="622" d="M540 0l-75 205h-308l-75 -205h-52l256 700h50l256 -700h-52zM311 626l-138 -376h275zM368 780l-57 73l-57 -73h-56l93 120h40l93 -120h-56z" />
<glyph unicode="&#xc3;" horiz-adv-x="622" d="M540 0l-75 205h-308l-75 -205h-52l256 700h50l256 -700h-52zM311 626l-138 -376h275zM232 800l-44 12q15 43 32 58.5t45 15.5q23 0 53.5 -20.5t42.5 -20.5q19 0 30 41l44 -12q-15 -43 -32 -58.5t-45 -15.5q-23 0 -53.5 20.5t-42.5 20.5q-19 0 -30 -41z" />
<glyph unicode="&#xc4;" horiz-adv-x="622" d="M540 0l-75 205h-308l-75 -205h-52l256 700h50l256 -700h-52zM311 626l-138 -376h275zM195 800v66h66v-66h-66zM361 800v66h66v-66h-66z" />
<glyph unicode="&#xc5;" horiz-adv-x="622" d="M540 0l-75 205h-308l-75 -205h-52l256 700h50l256 -700h-52zM311 626l-138 -376h275zM311 821q34 0 34 34t-34 34t-34 -34t34 -34zM311 780q-35 0 -54.5 19.5t-19.5 55.5t19.5 55.5t54.5 19.5t54.5 -19.5t19.5 -55.5t-19.5 -55.5t-54.5 -19.5z" />
<glyph unicode="&#xc6;" horiz-adv-x="858" d="M443 0v205h-286l-75 -205h-52l256 700h502v-45h-295v-282h280v-45h-280v-283h305v-45h-355zM322 655l-149 -405h270v405h-121z" />
<glyph unicode="&#xc7;" horiz-adv-x="670" d="M310 -85l16 76q-256 14 -256 358q0 193 76 277t202 84q201 0 257 -189l-47 -15q-44 159 -210 159q-50 0 -89 -15t-71.5 -49.5t-50 -98t-17.5 -153.5q0 -173 61 -243.5t167 -70.5q173 0 214 174l48 -13q-48 -193 -239 -205l-6 -31q36 0 54 -18t18 -47q0 -30 -20 -52.5 t-63 -22.5q-33 0 -67 14l12 46q25 -15 56 -15q37 0 37 29q0 21 -34 21h-48z" />
<glyph unicode="&#xc8;" horiz-adv-x="545" d="M460 328h-325v-283h350v-45h-400v700h390v-45h-340v-282h325v-45zM337 760l-124 107l49 43l90 -136z" />
<glyph unicode="&#xc9;" horiz-adv-x="545" d="M460 328h-325v-283h350v-45h-400v700h390v-45h-340v-282h325v-45zM352 867l-124 -107l-15 14l90 136z" />
<glyph unicode="&#xca;" horiz-adv-x="545" d="M460 328h-325v-283h350v-45h-400v700h390v-45h-340v-282h325v-45zM339 780l-57 73l-57 -73h-56l93 120h40l93 -120h-56z" />
<glyph unicode="&#xcb;" horiz-adv-x="545" d="M460 328h-325v-283h350v-45h-400v700h390v-45h-340v-282h325v-45zM166 800v66h66v-66h-66zM332 800v66h66v-66h-66z" />
<glyph unicode="&#xcc;" horiz-adv-x="330" d="M275 700v-45h-85v-610h85v-45h-220v45h85v610h-85v45h220zM219 760l-124 107l49 43l90 -136z" />
<glyph unicode="&#xcd;" horiz-adv-x="330" d="M275 700v-45h-85v-610h85v-45h-220v45h85v610h-85v45h220zM234 867l-124 -107l-15 14l90 136z" />
<glyph unicode="&#xce;" horiz-adv-x="330" d="M275 700v-45h-85v-610h85v-45h-220v45h85v610h-85v45h220zM222 780l-57 73l-57 -73h-56l93 120h40l93 -120h-56z" />
<glyph unicode="&#xcf;" horiz-adv-x="330" d="M275 700v-45h-85v-610h85v-45h-220v45h85v610h-85v45h220zM49 800v66h66v-66h-66zM215 800v66h66v-66h-66z" />
<glyph unicode="&#xd0;" horiz-adv-x="655" d="M270 0h-185v328h-75v45h75v327h172q102 0 168 -23t100.5 -72.5t47 -110t12.5 -151.5q0 -81 -13.5 -139.5t-47.5 -106.5t-97.5 -72.5t-156.5 -24.5zM257 655h-122v-282h209v-45h-209v-283h135q149 0 207 75t58 223q0 83 -11 136.5t-41 95.5t-85 61t-141 19z" />
<glyph unicode="&#xd1;" horiz-adv-x="655" d="M85 700h50l385 -607v607h50v-700h-50l-385 607v-607h-50v700zM248 800l-44 12q15 43 32 58.5t45 15.5q23 0 53.5 -20.5t42.5 -20.5q19 0 30 41l44 -12q-15 -43 -32 -58.5t-45 -15.5q-23 0 -53.5 20.5t-42.5 20.5q-19 0 -30 -41z" />
<glyph unicode="&#xd2;" horiz-adv-x="696" d="M348 35q112 0 170 69.5t58 245.5t-58 245.5t-170 69.5t-170 -69.5t-58 -245.5t58 -245.5t170 -69.5zM348 -10q-134 0 -206 82.5t-72 277.5t72 277.5t206 82.5t206 -82.5t72 -277.5t-72 -277.5t-206 -82.5zM402 760l-124 107l49 43l90 -136z" />
<glyph unicode="&#xd3;" horiz-adv-x="696" d="M348 35q112 0 170 69.5t58 245.5t-58 245.5t-170 69.5t-170 -69.5t-58 -245.5t58 -245.5t170 -69.5zM348 -10q-134 0 -206 82.5t-72 277.5t72 277.5t206 82.5t206 -82.5t72 -277.5t-72 -277.5t-206 -82.5zM417 867l-124 -107l-15 14l90 136z" />
<glyph unicode="&#xd4;" horiz-adv-x="696" d="M348 35q112 0 170 69.5t58 245.5t-58 245.5t-170 69.5t-170 -69.5t-58 -245.5t58 -245.5t170 -69.5zM348 -10q-134 0 -206 82.5t-72 277.5t72 277.5t206 82.5t206 -82.5t72 -277.5t-72 -277.5t-206 -82.5zM405 780l-57 73l-57 -73h-56l93 120h40l93 -120h-56z" />
<glyph unicode="&#xd5;" horiz-adv-x="696" d="M348 35q112 0 170 69.5t58 245.5t-58 245.5t-170 69.5t-170 -69.5t-58 -245.5t58 -245.5t170 -69.5zM348 -10q-134 0 -206 82.5t-72 277.5t72 277.5t206 82.5t206 -82.5t72 -277.5t-72 -277.5t-206 -82.5zM268 800l-44 12q15 43 32 58.5t45 15.5q23 0 53.5 -20.5 t42.5 -20.5q19 0 30 41l44 -12q-15 -43 -32 -58.5t-45 -15.5q-23 0 -53.5 20.5t-42.5 20.5q-19 0 -30 -41z" />
<glyph unicode="&#xd6;" horiz-adv-x="696" d="M348 35q112 0 170 69.5t58 245.5t-58 245.5t-170 69.5t-170 -69.5t-58 -245.5t58 -245.5t170 -69.5zM348 -10q-134 0 -206 82.5t-72 277.5t72 277.5t206 82.5t206 -82.5t72 -277.5t-72 -277.5t-206 -82.5zM232 800v66h66v-66h-66zM398 800v66h66v-66h-66z" />
<glyph unicode="&#xd8;" horiz-adv-x="696" d="M348 -10q-85 0 -142 30l-36 -70h-50l48 95q-98 84 -98 305q0 195 72 277.5t206 82.5q84 0 142 -31l36 71h50l-49 -96q99 -83 99 -304q0 -195 -72 -277.5t-206 -82.5zM348 35q112 0 170 69.5t58 245.5q0 186 -71 260l-278 -548q46 -27 121 -27zM120 350q0 -187 71 -260 l278 548q-48 27 -121 27q-112 0 -170 -69.5t-58 -245.5z" />
<glyph unicode="&#xd9;" horiz-adv-x="670" d="M585 700v-483q0 -62 -21 -107.5t-57.5 -71t-79 -37t-92.5 -11.5t-92.5 12t-79 37t-57.5 70.5t-21 107.5v483h50v-483q0 -51 16.5 -88t46 -57t63.5 -28.5t74 -8.5t74 8.5t63.5 28.5t46 57t16.5 88v483h50zM389 760l-124 107l49 43l90 -136z" />
<glyph unicode="&#xda;" horiz-adv-x="670" d="M585 700v-483q0 -62 -21 -107.5t-57.5 -71t-79 -37t-92.5 -11.5t-92.5 12t-79 37t-57.5 70.5t-21 107.5v483h50v-483q0 -51 16.5 -88t46 -57t63.5 -28.5t74 -8.5t74 8.5t63.5 28.5t46 57t16.5 88v483h50zM404 867l-124 -107l-15 14l90 136z" />
<glyph unicode="&#xdb;" horiz-adv-x="670" d="M585 700v-483q0 -62 -21 -107.5t-57.5 -71t-79 -37t-92.5 -11.5t-92.5 12t-79 37t-57.5 70.5t-21 107.5v483h50v-483q0 -51 16.5 -88t46 -57t63.5 -28.5t74 -8.5t74 8.5t63.5 28.5t46 57t16.5 88v483h50zM392 780l-57 73l-57 -73h-56l93 120h40l93 -120h-56z" />
<glyph unicode="&#xdc;" horiz-adv-x="670" d="M585 700v-483q0 -62 -21 -107.5t-57.5 -71t-79 -37t-92.5 -11.5t-92.5 12t-79 37t-57.5 70.5t-21 107.5v483h50v-483q0 -51 16.5 -88t46 -57t63.5 -28.5t74 -8.5t74 8.5t63.5 28.5t46 57t16.5 88v483h50zM219 800v66h66v-66h-66zM385 800v66h66v-66h-66z" />
<glyph unicode="&#xdd;" horiz-adv-x="558" d="M30 700h56l193 -357l193 357h56l-224 -414v-286h-50v286zM348 867l-124 -107l-15 14l90 136z" />
<glyph unicode="&#xde;" horiz-adv-x="534" d="M85 700h50v-145h128q216 0 216 -205q0 -106 -54 -155.5t-162 -49.5h-128v-145h-50v700zM263 510h-128v-320h128q85 0 125.5 36.5t40.5 123.5q0 88 -40 124t-126 36z" />
<glyph unicode="&#xdf;" horiz-adv-x="545" d="M460 692l-154 -249q98 -54 148.5 -110.5t50.5 -145.5t-43.5 -143t-126.5 -54q-61 0 -134 35l17 44q62 -34 115 -34q62 0 92 41t30 111q0 72 -48.5 123t-151.5 106v38l135 219q-58 22 -111 22q-72 0 -108 -33t-36 -117v-545h-50v545q0 107 50 151t143 44t182 -48z" />
<glyph unicode="&#xe0;" horiz-adv-x="504" d="M430 0h-50q-10 47 -11 90q-33 -48 -82 -74t-99 -26q-66 0 -104.5 36.5t-38.5 106.5q0 79 50.5 121t146.5 42q57 0 127 -15v66q0 58 -34 88t-89 30q-48 0 -81.5 -22.5t-41.5 -63.5l-50 7q9 58 57.5 91t116.5 33q75 0 123.5 -41.5t48.5 -121.5v-165q0 -101 11 -182z M369 221v15q-74 15 -127 15q-147 0 -147 -118q0 -98 95 -98q65 0 122 52t57 134zM301 560l-124 107l49 43l90 -136z" />
<glyph unicode="&#xe1;" horiz-adv-x="504" d="M430 0h-50q-10 47 -11 90q-33 -48 -82 -74t-99 -26q-66 0 -104.5 36.5t-38.5 106.5q0 79 50.5 121t146.5 42q57 0 127 -15v66q0 58 -34 88t-89 30q-48 0 -81.5 -22.5t-41.5 -63.5l-50 7q9 58 57.5 91t116.5 33q75 0 123.5 -41.5t48.5 -121.5v-165q0 -101 11 -182z M369 221v15q-74 15 -127 15q-147 0 -147 -118q0 -98 95 -98q65 0 122 52t57 134zM316 667l-124 -107l-15 14l90 136z" />
<glyph unicode="&#xe2;" horiz-adv-x="504" d="M430 0h-50q-10 47 -11 90q-33 -48 -82 -74t-99 -26q-66 0 -104.5 36.5t-38.5 106.5q0 79 50.5 121t146.5 42q57 0 127 -15v66q0 58 -34 88t-89 30q-48 0 -81.5 -22.5t-41.5 -63.5l-50 7q9 58 57.5 91t116.5 33q75 0 123.5 -41.5t48.5 -121.5v-165q0 -101 11 -182z M369 221v15q-74 15 -127 15q-147 0 -147 -118q0 -98 95 -98q65 0 122 52t57 134zM304 580l-57 73l-57 -73h-56l93 120h40l93 -120h-56z" />
<glyph unicode="&#xe3;" horiz-adv-x="504" d="M430 0h-50q-10 47 -11 90q-33 -48 -82 -74t-99 -26q-66 0 -104.5 36.5t-38.5 106.5q0 79 50.5 121t146.5 42q57 0 127 -15v66q0 58 -34 88t-89 30q-48 0 -81.5 -22.5t-41.5 -63.5l-50 7q9 58 57.5 91t116.5 33q75 0 123.5 -41.5t48.5 -121.5v-165q0 -101 11 -182z M369 221v15q-74 15 -127 15q-147 0 -147 -118q0 -98 95 -98q65 0 122 52t57 134zM167 600l-44 12q15 43 32 58.5t45 15.5q23 0 53.5 -20.5t42.5 -20.5q19 0 30 41l44 -12q-15 -43 -32 -58.5t-45 -15.5q-23 0 -53.5 20.5t-42.5 20.5q-19 0 -30 -41z" />
<glyph unicode="&#xe4;" horiz-adv-x="504" d="M430 0h-50q-10 47 -11 90q-33 -48 -82 -74t-99 -26q-66 0 -104.5 36.5t-38.5 106.5q0 79 50.5 121t146.5 42q57 0 127 -15v66q0 58 -34 88t-89 30q-48 0 -81.5 -22.5t-41.5 -63.5l-50 7q9 58 57.5 91t116.5 33q75 0 123.5 -41.5t48.5 -121.5v-165q0 -101 11 -182z M369 221v15q-74 15 -127 15q-147 0 -147 -118q0 -98 95 -98q65 0 122 52t57 134zM131 600v66h66v-66h-66zM297 600v66h66v-66h-66z" />
<glyph unicode="&#xe5;" horiz-adv-x="504" d="M430 0h-50q-10 47 -11 90q-33 -48 -82 -74t-99 -26q-66 0 -104.5 36.5t-38.5 106.5q0 79 50.5 121t146.5 42q57 0 127 -15v66q0 58 -34 88t-89 30q-48 0 -81.5 -22.5t-41.5 -63.5l-50 7q9 58 57.5 91t116.5 33q75 0 123.5 -41.5t48.5 -121.5v-165q0 -101 11 -182z M369 221v15q-74 15 -127 15q-147 0 -147 -118q0 -98 95 -98q65 0 122 52t57 134zM247 621q34 0 34 34t-34 34t-34 -34t34 -34zM247 580q-35 0 -54.5 19.5t-19.5 55.5t19.5 55.5t54.5 19.5t54.5 -19.5t19.5 -55.5t-19.5 -55.5t-54.5 -19.5z" />
<glyph unicode="&#xe6;" horiz-adv-x="819" d="M722 81l17 -42q-84 -49 -174 -49q-136 0 -193 100q-80 -100 -184 -100q-66 0 -104.5 36.5t-38.5 106.5q0 79 50.5 121t146.5 42q45 0 96 -9q4 56 25 104q-12 36 -43.5 55t-73.5 19q-48 0 -81.5 -22.5t-41.5 -63.5l-50 7q9 58 57.5 91t116.5 33q102 0 146 -69 q56 69 160 69q103 0 152 -68t49 -184v-29h-367q5 -98 52 -146t127 -48q79 0 156 46zM553 465q-77 0 -118.5 -50.5t-46.5 -140.5h316q-5 191 -151 191zM190 35q92 0 164 97q-17 48 -17 110q-54 9 -95 9q-147 0 -147 -118q0 -98 95 -98z" />
<glyph unicode="&#xe7;" horiz-adv-x="515" d="M238 -85l16 76q-92 9 -140.5 78t-48.5 181q0 120 55.5 190t160.5 70q134 0 187 -112l-43 -25q-40 92 -144 92q-82 0 -124 -57.5t-42 -157.5t42 -157.5t124 -57.5q107 0 147 100l47 -18q-46 -117 -176 -126l-6 -31q36 0 54 -18t18 -47q0 -30 -20 -52.5t-63 -22.5 q-33 0 -67 14l12 46q25 -15 56 -15q37 0 37 29q0 21 -34 21h-48z" />
<glyph unicode="&#xe8;" horiz-adv-x="547" d="M450 81l17 -42q-84 -49 -174 -49q-103 0 -165.5 63.5t-62.5 196.5q0 120 55.5 190t160.5 70q103 0 152 -68t49 -184v-29h-367q5 -98 52 -146t127 -48q79 0 156 46zM281 465q-77 0 -118.5 -50.5t-46.5 -140.5h316q-5 191 -151 191zM335 560l-124 107l49 43l90 -136z" />
<glyph unicode="&#xe9;" horiz-adv-x="547" d="M450 81l17 -42q-84 -49 -174 -49q-103 0 -165.5 63.5t-62.5 196.5q0 120 55.5 190t160.5 70q103 0 152 -68t49 -184v-29h-367q5 -98 52 -146t127 -48q79 0 156 46zM281 465q-77 0 -118.5 -50.5t-46.5 -140.5h316q-5 191 -151 191zM359 667l-124 -107l-15 14l90 136z" />
<glyph unicode="&#xea;" horiz-adv-x="547" d="M450 81l17 -42q-84 -49 -174 -49q-103 0 -165.5 63.5t-62.5 196.5q0 120 55.5 190t160.5 70q103 0 152 -68t49 -184v-29h-367q5 -98 52 -146t127 -48q79 0 156 46zM281 465q-77 0 -118.5 -50.5t-46.5 -140.5h316q-5 191 -151 191zM338 580l-57 73l-57 -73h-56l93 120h40 l93 -120h-56z" />
<glyph unicode="&#xeb;" horiz-adv-x="547" d="M450 81l17 -42q-84 -49 -174 -49q-103 0 -165.5 63.5t-62.5 196.5q0 120 55.5 190t160.5 70q103 0 152 -68t49 -184v-29h-367q5 -98 52 -146t127 -48q79 0 156 46zM281 465q-77 0 -118.5 -50.5t-46.5 -140.5h316q-5 191 -151 191zM165 600v66h66v-66h-66zM331 600v66h66 v-66h-66z" />
<glyph unicode="&#xec;" horiz-adv-x="235" d="M100 0v458h-65v42h77q23 0 30.5 -7t7.5 -31v-462h-50zM172 560l-124 107l49 43l90 -136z" />
<glyph unicode="&#xed;" horiz-adv-x="235" d="M100 0v458h-65v42h77q23 0 30.5 -7t7.5 -31v-462h-50zM187 667l-124 -107l-15 14l90 136z" />
<glyph unicode="&#xee;" horiz-adv-x="235" d="M100 0v458h-65v42h77q23 0 30.5 -7t7.5 -31v-462h-50zM175 580l-57 73l-57 -73h-56l93 120h40l93 -120h-56z" />
<glyph unicode="&#xef;" horiz-adv-x="235" d="M100 0v458h-65v42h77q23 0 30.5 -7t7.5 -31v-462h-50zM2 600v66h66v-66h-66zM168 600v66h66v-66h-66z" />
<glyph unicode="&#xf0;" horiz-adv-x="562" d="M183 599l83 55q-31 28 -74 58l42 28q40 -27 75 -57l87 58l27 -42l-77 -52q151 -156 151 -377q0 -134 -54.5 -207t-161.5 -73q-105 0 -160.5 70t-55.5 190t55.5 190t160.5 70q70 0 119 -32q-34 74 -97 141l-92 -62zM447 250q0 100 -42 157.5t-124 57.5t-124 -57.5 t-42 -157.5t42 -157.5t124 -57.5t124 57.5t42 157.5z" />
<glyph unicode="&#xf1;" horiz-adv-x="544" d="M135 259v-259h-50v500h50v-88q58 98 170 98q154 0 154 -175v-335h-50v335q0 65 -30 97.5t-82 32.5q-71 0 -116.5 -55t-45.5 -151zM192 600l-44 12q15 43 32 58.5t45 15.5q23 0 53.5 -20.5t42.5 -20.5q19 0 30 41l44 -12q-15 -43 -32 -58.5t-45 -15.5q-23 0 -53.5 20.5 t-42.5 20.5q-19 0 -30 -41z" />
<glyph unicode="&#xf2;" horiz-adv-x="562" d="M281 465q-82 0 -124 -57.5t-42 -157.5t42 -157.5t124 -57.5t124 57.5t42 157.5t-42 157.5t-124 57.5zM281 -10q-105 0 -160.5 70t-55.5 190t55.5 190t160.5 70t160.5 -70t55.5 -190t-55.5 -190t-160.5 -70zM335 560l-124 107l49 43l90 -136z" />
<glyph unicode="&#xf3;" horiz-adv-x="562" d="M281 465q-82 0 -124 -57.5t-42 -157.5t42 -157.5t124 -57.5t124 57.5t42 157.5t-42 157.5t-124 57.5zM281 -10q-105 0 -160.5 70t-55.5 190t55.5 190t160.5 70t160.5 -70t55.5 -190t-55.5 -190t-160.5 -70zM350 667l-124 -107l-15 14l90 136z" />
<glyph unicode="&#xf4;" horiz-adv-x="562" d="M281 465q-82 0 -124 -57.5t-42 -157.5t42 -157.5t124 -57.5t124 57.5t42 157.5t-42 157.5t-124 57.5zM281 -10q-105 0 -160.5 70t-55.5 190t55.5 190t160.5 70t160.5 -70t55.5 -190t-55.5 -190t-160.5 -70zM338 580l-57 73l-57 -73h-56l93 120h40l93 -120h-56z" />
<glyph unicode="&#xf5;" horiz-adv-x="562" d="M281 465q-82 0 -124 -57.5t-42 -157.5t42 -157.5t124 -57.5t124 57.5t42 157.5t-42 157.5t-124 57.5zM281 -10q-105 0 -160.5 70t-55.5 190t55.5 190t160.5 70t160.5 -70t55.5 -190t-55.5 -190t-160.5 -70zM201 600l-44 12q15 43 32 58.5t45 15.5q23 0 53.5 -20.5 t42.5 -20.5q19 0 30 41l44 -12q-15 -43 -32 -58.5t-45 -15.5q-23 0 -53.5 20.5t-42.5 20.5q-19 0 -30 -41z" />
<glyph unicode="&#xf6;" horiz-adv-x="562" d="M281 465q-82 0 -124 -57.5t-42 -157.5t42 -157.5t124 -57.5t124 57.5t42 157.5t-42 157.5t-124 57.5zM281 -10q-105 0 -160.5 70t-55.5 190t55.5 190t160.5 70t160.5 -70t55.5 -190t-55.5 -190t-160.5 -70zM165 600v66h66v-66h-66zM331 600v66h66v-66h-66z" />
<glyph unicode="&#xf8;" horiz-adv-x="562" d="M281 -10q-48 0 -90 16l-26 -56h-50l37 79q-87 66 -87 221q0 120 55.5 190t160.5 70q49 0 89 -17l27 57h50l-37 -79q87 -66 87 -221q0 -120 -55.5 -190t-160.5 -70zM447 250q0 121 -58 176l-178 -377q31 -14 70 -14q82 0 124 57.5t42 157.5zM281 465q-82 0 -124 -57.5 t-42 -157.5q0 -121 58 -176l177 377q-31 14 -69 14z" />
<glyph unicode="&#xf9;" horiz-adv-x="544" d="M409 88q-58 -98 -170 -98q-154 0 -154 175v335h50v-335q0 -65 30 -97.5t82 -32.5q71 0 116.5 55t45.5 151v259h50v-318q0 -101 11 -182h-50q-10 47 -11 88zM326 560l-124 107l49 43l90 -136z" />
<glyph unicode="&#xfa;" horiz-adv-x="544" d="M409 88q-58 -98 -170 -98q-154 0 -154 175v335h50v-335q0 -65 30 -97.5t82 -32.5q71 0 116.5 55t45.5 151v259h50v-318q0 -101 11 -182h-50q-10 47 -11 88zM341 667l-124 -107l-15 14l90 136z" />
<glyph unicode="&#xfb;" horiz-adv-x="544" d="M409 88q-58 -98 -170 -98q-154 0 -154 175v335h50v-335q0 -65 30 -97.5t82 -32.5q71 0 116.5 55t45.5 151v259h50v-318q0 -101 11 -182h-50q-10 47 -11 88zM329 580l-57 73l-57 -73h-56l93 120h40l93 -120h-56z" />
<glyph unicode="&#xfc;" horiz-adv-x="544" d="M409 88q-58 -98 -170 -98q-154 0 -154 175v335h50v-335q0 -65 30 -97.5t82 -32.5q71 0 116.5 55t45.5 151v259h50v-318q0 -101 11 -182h-50q-10 47 -11 88zM156 600v66h66v-66h-66zM322 600v66h66v-66h-66z" />
<glyph unicode="&#xfd;" horiz-adv-x="498" d="M130 -200l91 226l-191 474h54l164 -407l166 407h54l-284 -700h-54zM318 667l-124 -107l-15 14l90 136z" />
<glyph unicode="&#xfe;" horiz-adv-x="558" d="M135 -200h-50v930h50v-330q55 110 166 110q85 0 138.5 -64t53.5 -187q0 -131 -56 -200t-146 -69q-96 0 -156 78v-268zM135 222v-84q35 -54 70.5 -78.5t82.5 -24.5q71 0 113 59.5t42 164.5q0 101 -40 153.5t-106 52.5q-71 0 -116.5 -64t-45.5 -179z" />
<glyph unicode="&#xff;" horiz-adv-x="498" d="M130 -200l91 226l-191 474h54l164 -407l166 407h54l-284 -700h-54zM133 600v66h66v-66h-66zM299 600v66h66v-66h-66z" />
<glyph unicode="&#x100;" horiz-adv-x="622" d="M540 0l-75 205h-308l-75 -205h-52l256 700h50l256 -700h-52zM311 626l-138 -376h275zM186 845h250v-45h-250v45z" />
<glyph unicode="&#x101;" horiz-adv-x="504" d="M430 0h-50q-10 47 -11 90q-33 -48 -82 -74t-99 -26q-66 0 -104.5 36.5t-38.5 106.5q0 79 50.5 121t146.5 42q57 0 127 -15v66q0 58 -34 88t-89 30q-48 0 -81.5 -22.5t-41.5 -63.5l-50 7q9 58 57.5 91t116.5 33q75 0 123.5 -41.5t48.5 -121.5v-165q0 -101 11 -182z M369 221v15q-74 15 -127 15q-147 0 -147 -118q0 -98 95 -98q65 0 122 52t57 134zM122 645h250v-45h-250v45z" />
<glyph unicode="&#x102;" horiz-adv-x="622" d="M540 0l-75 205h-308l-75 -205h-52l256 700h50l256 -700h-52zM311 626l-138 -376h275zM407 900v-35q0 -41 -26.5 -63t-69.5 -22t-69.5 22t-26.5 63v35h47v-35q0 -40 50 -40q48 0 48 40v35h47z" />
<glyph unicode="&#x103;" horiz-adv-x="504" d="M430 0h-50q-10 47 -11 90q-33 -48 -82 -74t-99 -26q-66 0 -104.5 36.5t-38.5 106.5q0 79 50.5 121t146.5 42q57 0 127 -15v66q0 58 -34 88t-89 30q-48 0 -81.5 -22.5t-41.5 -63.5l-50 7q9 58 57.5 91t116.5 33q75 0 123.5 -41.5t48.5 -121.5v-165q0 -101 11 -182z M369 221v15q-74 15 -127 15q-147 0 -147 -118q0 -98 95 -98q65 0 122 52t57 134zM343 700v-35q0 -41 -26.5 -63t-69.5 -22t-69.5 22t-26.5 63v35h47v-35q0 -40 50 -40q48 0 48 40v35h47z" />
<glyph unicode="&#x104;" horiz-adv-x="622" d="M336 700l256 -700q-31 -21 -47.5 -47t-16.5 -49q0 -39 37 -39h30l-20 -45h-21q-77 0 -77 78q0 30 16.5 59t45.5 44l-74 204h-308l-75 -205h-52l256 700h50zM311 626l-138 -376h275z" />
<glyph unicode="&#x105;" horiz-adv-x="504" d="M380 0q-10 47 -11 90q-33 -48 -82 -74t-99 -26q-66 0 -104.5 36.5t-38.5 106.5q0 79 50.5 121t146.5 42q57 0 127 -15v66q0 58 -34 88t-89 30q-48 0 -81.5 -22.5t-41.5 -63.5l-50 7q9 58 57.5 91t116.5 33q75 0 123.5 -41.5t48.5 -121.5v-165q0 -101 11 -182 q-31 -21 -47.5 -47t-16.5 -49q0 -39 37 -39h30l-20 -45h-21q-77 0 -77 78q0 31 17.5 59t47.5 43zM369 221v15q-74 15 -127 15q-147 0 -147 -118q0 -98 95 -98q65 0 122 52t57 134z" />
<glyph unicode="&#x106;" horiz-adv-x="670" d="M562 209l48 -13q-51 -206 -262 -206q-278 0 -278 359q0 193 76 277t202 84q201 0 257 -189l-47 -15q-44 159 -210 159q-50 0 -89 -15t-71.5 -49.5t-50 -98t-17.5 -153.5q0 -173 61 -243.5t167 -70.5q173 0 214 174zM414 867l-124 -107l-15 14l90 136z" />
<glyph unicode="&#x107;" horiz-adv-x="515" d="M428 135l47 -18q-50 -127 -194 -127q-105 0 -160.5 70t-55.5 190t55.5 190t160.5 70q134 0 187 -112l-43 -25q-40 92 -144 92q-82 0 -124 -57.5t-42 -157.5t42 -157.5t124 -57.5q107 0 147 100zM347 667l-124 -107l-15 14l90 136z" />
<glyph unicode="&#x108;" horiz-adv-x="670" d="M562 209l48 -13q-51 -206 -262 -206q-278 0 -278 359q0 193 76 277t202 84q201 0 257 -189l-47 -15q-44 159 -210 159q-50 0 -89 -15t-71.5 -49.5t-50 -98t-17.5 -153.5q0 -173 61 -243.5t167 -70.5q173 0 214 174zM402 780l-57 73l-57 -73h-56l93 120h40l93 -120h-56z " />
<glyph unicode="&#x109;" horiz-adv-x="515" d="M428 135l47 -18q-50 -127 -194 -127q-105 0 -160.5 70t-55.5 190t55.5 190t160.5 70q134 0 187 -112l-43 -25q-40 92 -144 92q-82 0 -124 -57.5t-42 -157.5t42 -157.5t124 -57.5q107 0 147 100zM334 580l-57 73l-57 -73h-56l93 120h40l93 -120h-56z" />
<glyph unicode="&#x10a;" horiz-adv-x="670" d="M562 209l48 -13q-51 -206 -262 -206q-278 0 -278 359q0 193 76 277t202 84q201 0 257 -189l-47 -15q-44 159 -210 159q-50 0 -89 -15t-71.5 -49.5t-50 -98t-17.5 -153.5q0 -173 61 -243.5t167 -70.5q173 0 214 174zM312 800v66h66v-66h-66z" />
<glyph unicode="&#x10b;" horiz-adv-x="515" d="M428 135l47 -18q-50 -127 -194 -127q-105 0 -160.5 70t-55.5 190t55.5 190t160.5 70q134 0 187 -112l-43 -25q-40 92 -144 92q-82 0 -124 -57.5t-42 -157.5t42 -157.5t124 -57.5q107 0 147 100zM244 600v66h66v-66h-66z" />
<glyph unicode="&#x10c;" horiz-adv-x="670" d="M562 209l48 -13q-51 -206 -262 -206q-278 0 -278 359q0 193 76 277t202 84q201 0 257 -189l-47 -15q-44 159 -210 159q-50 0 -89 -15t-71.5 -49.5t-50 -98t-17.5 -153.5q0 -173 61 -243.5t167 -70.5q173 0 214 174zM232 900h56l57 -74l57 74h56l-93 -120h-40z" />
<glyph unicode="&#x10d;" horiz-adv-x="515" d="M428 135l47 -18q-50 -127 -194 -127q-105 0 -160.5 70t-55.5 190t55.5 190t160.5 70q134 0 187 -112l-43 -25q-40 92 -144 92q-82 0 -124 -57.5t-42 -157.5t42 -157.5t124 -57.5q107 0 147 100zM164 700h56l57 -74l57 74h56l-93 -120h-40z" />
<glyph unicode="&#x10e;" horiz-adv-x="655" d="M270 0h-185v700h172q102 0 168 -23t100.5 -72.5t47 -110t12.5 -151.5q0 -81 -13.5 -139.5t-47.5 -106.5t-97.5 -72.5t-156.5 -24.5zM257 655h-122v-610h135q149 0 207 75t58 223q0 83 -11 136.5t-41 95.5t-85 61t-141 19zM184 900h56l57 -74l57 74h56l-93 -120h-40z" />
<glyph unicode="&#x10f;" horiz-adv-x="653" d="M434 0q-8 48 -9 94q-63 -104 -170 -104q-85 0 -137.5 63t-52.5 178q0 141 57.5 210t152.5 69q79 0 148 -54v274h50v-548q0 -101 11 -182h-50zM259 35q72 0 118 63.5t46 179.5v123q-76 64 -149 64q-76 0 -117.5 -59.5t-41.5 -174.5q0 -96 39.5 -146t104.5 -50zM548 700h95 v-56q0 -116 -50 -184l-43 13q44 58 47 142h-49v85z" />
<glyph unicode="&#x111;" horiz-adv-x="558" d="M434 0q-8 48 -9 94q-63 -104 -170 -104q-85 0 -137.5 63t-52.5 178q0 141 57.5 210t152.5 69q79 0 148 -54v154h-115v45h115v75h50v-75h75v-45h-75v-428q0 -101 11 -182h-50zM259 35q72 0 118 63.5t46 179.5v123q-76 64 -149 64q-76 0 -117.5 -59.5t-41.5 -174.5 q0 -96 39.5 -146t104.5 -50z" />
<glyph unicode="&#x112;" horiz-adv-x="545" d="M460 328h-325v-283h350v-45h-400v700h390v-45h-340v-282h325v-45zM157 845h250v-45h-250v45z" />
<glyph unicode="&#x113;" horiz-adv-x="547" d="M450 81l17 -42q-84 -49 -174 -49q-103 0 -165.5 63.5t-62.5 196.5q0 120 55.5 190t160.5 70q103 0 152 -68t49 -184v-29h-367q5 -98 52 -146t127 -48q79 0 156 46zM281 465q-77 0 -118.5 -50.5t-46.5 -140.5h316q-5 191 -151 191zM156 645h250v-45h-250v45z" />
<glyph unicode="&#x114;" horiz-adv-x="545" d="M460 328h-325v-283h350v-45h-400v700h390v-45h-340v-282h325v-45zM378 900v-35q0 -41 -26.5 -63t-69.5 -22t-69.5 22t-26.5 63v35h47v-35q0 -40 50 -40q48 0 48 40v35h47z" />
<glyph unicode="&#x115;" horiz-adv-x="547" d="M450 81l17 -42q-84 -49 -174 -49q-103 0 -165.5 63.5t-62.5 196.5q0 120 55.5 190t160.5 70q103 0 152 -68t49 -184v-29h-367q5 -98 52 -146t127 -48q79 0 156 46zM281 465q-77 0 -118.5 -50.5t-46.5 -140.5h316q-5 191 -151 191zM377 700v-35q0 -41 -26.5 -63t-69.5 -22 t-69.5 22t-26.5 63v35h47v-35q0 -40 50 -40q48 0 48 40v35h47z" />
<glyph unicode="&#x116;" horiz-adv-x="545" d="M460 328h-325v-283h350v-45h-400v700h390v-45h-340v-282h325v-45zM249 800v66h66v-66h-66z" />
<glyph unicode="&#x117;" horiz-adv-x="547" d="M450 81l17 -42q-84 -49 -174 -49q-103 0 -165.5 63.5t-62.5 196.5q0 120 55.5 190t160.5 70q103 0 152 -68t49 -184v-29h-367q5 -98 52 -146t127 -48q79 0 156 46zM281 465q-77 0 -118.5 -50.5t-46.5 -140.5h316q-5 191 -151 191zM248 600v66h66v-66h-66z" />
<glyph unicode="&#x118;" horiz-adv-x="545" d="M435 0h-350v700h390v-45h-340v-282h325v-45h-325v-283h350v-45q-31 -21 -47.5 -47t-16.5 -49q0 -39 37 -39h30l-20 -45h-21q-77 0 -77 78q0 31 17.5 59t47.5 43z" />
<glyph unicode="&#x119;" horiz-adv-x="547" d="M450 81l17 -42q-54 -32 -114 -43q-58 -42 -58 -92q0 -39 37 -39h30l-20 -45h-21q-77 0 -77 78q0 58 48 92q-103 0 -165 63.5t-62 196.5q0 120 55.5 190t160.5 70q103 0 152 -68t49 -184v-29h-367q5 -98 52 -146t127 -48q79 0 156 46zM281 465q-77 0 -118.5 -50.5 t-46.5 -140.5h316q-5 191 -151 191z" />
<glyph unicode="&#x11a;" horiz-adv-x="545" d="M460 328h-325v-283h350v-45h-400v700h390v-45h-340v-282h325v-45zM169 900h56l57 -74l57 74h56l-93 -120h-40z" />
<glyph unicode="&#x11b;" horiz-adv-x="547" d="M450 81l17 -42q-84 -49 -174 -49q-103 0 -165.5 63.5t-62.5 196.5q0 120 55.5 190t160.5 70q103 0 152 -68t49 -184v-29h-367q5 -98 52 -146t127 -48q79 0 156 46zM281 465q-77 0 -118.5 -50.5t-46.5 -140.5h316q-5 191 -151 191zM168 700h56l57 -74l57 74h56l-93 -120 h-40z" />
<glyph unicode="&#x11c;" horiz-adv-x="684" d="M348 353h266v-76q0 -141 -70 -214t-191 -73q-60 0 -109 18t-89.5 58t-62.5 112t-22 171t22 171.5t62.5 112.5t89.5 58.5t109 18.5q196 0 252 -189l-47 -15q-24 87 -76 123t-129 36q-233 0 -233 -316q0 -314 233 -314q98 0 154.5 59.5t56.5 182.5v31h-216v45zM399 780 l-57 73l-57 -73h-56l93 120h40l93 -120h-56z" />
<glyph unicode="&#x11d;" horiz-adv-x="520" d="M336 0h-229v24l55 133q-88 43 -88 168q0 86 44.5 135.5t133.5 49.5q37 0 70 -10h183v-45h-114q40 -49 40 -130q0 -86 -44.5 -135.5t-134.5 -49.5q-23 0 -44 3l-41 -98h168q65 0 97.5 -28.5t32.5 -77.5q0 -75 -56.5 -112t-152.5 -37q-117 0 -199 58l20 43q87 -56 179 -56 q76 0 117.5 29t41.5 75q0 61 -79 61zM252 465q-128 0 -128 -140q0 -66 31.5 -103t96.5 -37q129 0 129 140t-129 140zM317 580l-57 73l-57 -73h-56l93 120h40l93 -120h-56z" />
<glyph unicode="&#x11e;" horiz-adv-x="684" d="M348 353h266v-76q0 -141 -70 -214t-191 -73q-60 0 -109 18t-89.5 58t-62.5 112t-22 171t22 171.5t62.5 112.5t89.5 58.5t109 18.5q196 0 252 -189l-47 -15q-24 87 -76 123t-129 36q-233 0 -233 -316q0 -314 233 -314q98 0 154.5 59.5t56.5 182.5v31h-216v45zM438 900v-35 q0 -41 -26.5 -63t-69.5 -22t-69.5 22t-26.5 63v35h47v-35q0 -40 50 -40q48 0 48 40v35h47z" />
<glyph unicode="&#x11f;" horiz-adv-x="520" d="M336 0h-229v24l55 133q-88 43 -88 168q0 86 44.5 135.5t133.5 49.5q37 0 70 -10h183v-45h-114q40 -49 40 -130q0 -86 -44.5 -135.5t-134.5 -49.5q-23 0 -44 3l-41 -98h168q65 0 97.5 -28.5t32.5 -77.5q0 -75 -56.5 -112t-152.5 -37q-117 0 -199 58l20 43q87 -56 179 -56 q76 0 117.5 29t41.5 75q0 61 -79 61zM252 465q-128 0 -128 -140q0 -66 31.5 -103t96.5 -37q129 0 129 140t-129 140zM356 700v-35q0 -41 -26.5 -63t-69.5 -22t-69.5 22t-26.5 63v35h47v-35q0 -40 50 -40q48 0 48 40v35h47z" />
<glyph unicode="&#x120;" horiz-adv-x="684" d="M348 353h266v-76q0 -141 -70 -214t-191 -73q-60 0 -109 18t-89.5 58t-62.5 112t-22 171t22 171.5t62.5 112.5t89.5 58.5t109 18.5q196 0 252 -189l-47 -15q-24 87 -76 123t-129 36q-233 0 -233 -316q0 -314 233 -314q98 0 154.5 59.5t56.5 182.5v31h-216v45zM309 800v66 h66v-66h-66z" />
<glyph unicode="&#x121;" horiz-adv-x="520" d="M336 0h-229v24l55 133q-88 43 -88 168q0 86 44.5 135.5t133.5 49.5q37 0 70 -10h183v-45h-114q40 -49 40 -130q0 -86 -44.5 -135.5t-134.5 -49.5q-23 0 -44 3l-41 -98h168q65 0 97.5 -28.5t32.5 -77.5q0 -75 -56.5 -112t-152.5 -37q-117 0 -199 58l20 43q87 -56 179 -56 q76 0 117.5 29t41.5 75q0 61 -79 61zM252 465q-128 0 -128 -140q0 -66 31.5 -103t96.5 -37q129 0 129 140t-129 140zM227 600v66h66v-66h-66z" />
<glyph unicode="&#x122;" horiz-adv-x="684" d="M348 353h266v-76q0 -141 -70 -214t-191 -73q-60 0 -109 18t-89.5 58t-62.5 112t-22 171t22 171.5t62.5 112.5t89.5 58.5t109 18.5q196 0 252 -189l-47 -15q-24 87 -76 123t-129 36q-233 0 -233 -316q0 -314 233 -314q98 0 154.5 59.5t56.5 182.5v31h-216v45zM320 -65h74 v-49q0 -96 -44 -155l-38 11q38 51 41 119h-33v74z" />
<glyph unicode="&#x123;" horiz-adv-x="520" d="M336 0h-229v24l55 133q-88 43 -88 168q0 86 44.5 135.5t133.5 49.5q37 0 70 -10h183v-45h-114q40 -49 40 -130q0 -86 -44.5 -135.5t-134.5 -49.5q-23 0 -44 3l-41 -98h168q65 0 97.5 -28.5t32.5 -77.5q0 -75 -56.5 -112t-152.5 -37q-117 0 -199 58l20 43q87 -56 179 -56 q76 0 117.5 29t41.5 75q0 61 -79 61zM252 465q-128 0 -128 -140q0 -66 31.5 -103t96.5 -37q129 0 129 140t-129 140zM287 580h-74v49q0 96 44 155l38 -11q-38 -51 -41 -119h33v-74z" />
<glyph unicode="&#x124;" horiz-adv-x="660" d="M135 700v-337h390v337h50v-700h-50v318h-390v-318h-50v700h50zM387 780l-57 73l-57 -73h-56l93 120h40l93 -120h-56z" />
<glyph unicode="&#x125;" horiz-adv-x="544" d="M135 259v-259h-50v730h50v-318q58 98 170 98q154 0 154 -175v-335h-50v335q0 65 -30 97.5t-82 32.5q-71 0 -116.5 -55t-45.5 -151zM168 780l-57 73l-57 -73h-56l93 120h40l93 -120h-56z" />
<glyph unicode="&#x126;" horiz-adv-x="660" d="M135 700v-95h390v95h50v-95h75v-45h-75v-560h-50v318h-390v-318h-50v560h-75v45h75v95h50zM135 363h390v197h-390v-197z" />
<glyph unicode="&#x127;" horiz-adv-x="544" d="M135 259v-259h-50v610h-75v45h75v75h50v-75h115v-45h-115v-198q58 98 170 98q154 0 154 -175v-335h-50v335q0 65 -30 97.5t-82 32.5q-71 0 -116.5 -55t-45.5 -151z" />
<glyph unicode="&#x128;" horiz-adv-x="330" d="M275 700v-45h-85v-610h85v-45h-220v45h85v610h-85v45h220zM85 800l-44 12q15 43 32 58.5t45 15.5q23 0 53.5 -20.5t42.5 -20.5q19 0 30 41l44 -12q-15 -43 -32 -58.5t-45 -15.5q-23 0 -53.5 20.5t-42.5 20.5q-19 0 -30 -41z" />
<glyph unicode="&#x129;" horiz-adv-x="235" d="M100 0v458h-65v42h77q23 0 30.5 -7t7.5 -31v-462h-50zM38 600l-44 12q15 43 32 58.5t45 15.5q23 0 53.5 -20.5t42.5 -20.5q19 0 30 41l44 -12q-15 -43 -32 -58.5t-45 -15.5q-23 0 -53.5 20.5t-42.5 20.5q-19 0 -30 -41z" />
<glyph unicode="&#x12a;" horiz-adv-x="330" d="M275 700v-45h-85v-610h85v-45h-220v45h85v610h-85v45h220zM40 845h250v-45h-250v45z" />
<glyph unicode="&#x12b;" horiz-adv-x="235" d="M100 0v458h-65v42h77q23 0 30.5 -7t7.5 -31v-462h-50zM-7 645h250v-45h-250v45z" />
<glyph unicode="&#x12c;" horiz-adv-x="330" d="M275 700v-45h-85v-610h85v-45h-220v45h85v610h-85v45h220zM261 900v-35q0 -41 -26.5 -63t-69.5 -22t-69.5 22t-26.5 63v35h47v-35q0 -40 50 -40q48 0 48 40v35h47z" />
<glyph unicode="&#x12d;" horiz-adv-x="235" d="M100 0v458h-65v42h77q23 0 30.5 -7t7.5 -31v-462h-50zM214 700v-35q0 -41 -26.5 -63t-69.5 -22t-69.5 22t-26.5 63v35h47v-35q0 -40 50 -40q48 0 48 40v35h47z" />
<glyph unicode="&#x12e;" horiz-adv-x="330" d="M178 0h-123v45h85v610h-85v45h220v-45h-85v-610h85v-45h-47q-31 -21 -47.5 -47t-16.5 -49q0 -39 37 -39h30l-20 -45h-21q-77 0 -77 78q0 31 17.5 59t47.5 43z" />
<glyph unicode="&#x12f;" horiz-adv-x="235" d="M100 0v458h-65v42h77q23 0 30.5 -7t7.5 -31v-462q-31 -21 -47.5 -47t-16.5 -49q0 -39 37 -39h30l-20 -45h-21q-77 0 -77 78q0 31 17.5 59t47.5 43zM91 634v66h66v-66h-66z" />
<glyph unicode="&#x130;" horiz-adv-x="330" d="M275 700v-45h-85v-610h85v-45h-220v45h85v610h-85v45h220zM132 800v66h66v-66h-66z" />
<glyph unicode="&#x131;" horiz-adv-x="235" d="M100 0v458h-65v42h77q23 0 30.5 -7t7.5 -31v-462h-50z" />
<glyph unicode="&#x134;" horiz-adv-x="381" d="M158 35q88 0 88 122v498h-110v45h160v-543q0 -85 -37.5 -126t-101.5 -41q-83 0 -131 63l26 42q42 -60 106 -60zM295 780l-57 73l-57 -73h-56l93 120h40l93 -120h-56z" />
<glyph unicode="&#x135;" horiz-adv-x="235" d="M80 -210l-42 24q37 51 49.5 92.5t12.5 111.5v440h-65v42h77q23 0 30.5 -7t7.5 -31v-444q0 -74 -15 -123t-55 -105zM175 580l-57 73l-57 -73h-56l93 120h40l93 -120h-56z" />
<glyph unicode="&#x136;" horiz-adv-x="617" d="M135 700v-422l348 422h64l-250 -304q64 -23 101 -58.5t67 -105.5l97 -232h-54l-90 215q-26 60 -60 91t-93 52l-130 -158v-200h-50v700h50zM273 -65h74v-49q0 -96 -44 -155l-38 11q38 51 41 119h-33v74z" />
<glyph unicode="&#x137;" horiz-adv-x="519" d="M135 730v-518l270 288h65l-182 -194q45 -12 71 -37t52 -85l77 -184h-54l-70 167q-21 50 -42 69.5t-69 32.5l-118 -126v-143h-50v730h50zM234 -65h74v-49q0 -96 -44 -155l-38 11q38 51 41 119h-33v74z" />
<glyph unicode="&#x138;" horiz-adv-x="519" d="M135 500v-288l270 288h65l-182 -194q45 -12 71 -37t52 -85l77 -184h-54l-70 167q-21 50 -42 69.5t-69 32.5l-118 -126v-143h-50v500h50z" />
<glyph unicode="&#x139;" horiz-adv-x="511" d="M135 700v-655h311v-45h-361v700h50zM192 867l-124 -107l-15 14l90 136z" />
<glyph unicode="&#x13a;" horiz-adv-x="245" d="M85 91v639h50v-635q0 -60 41 -60q21 0 48 13l11 -42q-32 -16 -63 -16q-38 0 -62.5 26.5t-24.5 74.5zM192 867l-124 -107l-15 14l90 136z" />
<glyph unicode="&#x13b;" horiz-adv-x="511" d="M135 700v-655h311v-45h-361v700h50zM236 -65h74v-49q0 -96 -44 -155l-38 11q38 51 41 119h-33v74z" />
<glyph unicode="&#x13c;" horiz-adv-x="245" d="M85 91v639h50v-635q0 -60 41 -60q21 0 48 13l11 -42q-32 -16 -63 -16q-38 0 -62.5 26.5t-24.5 74.5zM111 -65h74v-49q0 -96 -44 -155l-38 11q38 51 41 119h-33v74z" />
<glyph unicode="&#x13d;" horiz-adv-x="511" d="M135 700v-655h311v-45h-361v700h50zM243 700h95v-56q0 -116 -50 -184l-43 13q44 58 47 142h-49v85z" />
<glyph unicode="&#x13e;" horiz-adv-x="315" d="M85 91v639h50v-635q0 -60 41 -60q21 0 48 13l11 -42q-32 -16 -63 -16q-38 0 -62.5 26.5t-24.5 74.5zM210 700h95v-56q0 -116 -50 -184l-43 13q44 58 47 142h-49v85z" />
<glyph unicode="&#x13f;" horiz-adv-x="511" d="M135 700v-655h311v-45h-361v700h50zM254 266v66h66v-66h-66z" />
<glyph unicode="&#x140;" horiz-adv-x="297" d="M85 91v639h50v-635q0 -60 41 -60q21 0 48 13l11 -42q-32 -16 -63 -16q-38 0 -62.5 26.5t-24.5 74.5zM221 266v66h66v-66h-66z" />
<glyph unicode="&#x141;" horiz-adv-x="511" d="M135 700v-364l143 72v-49l-143 -72v-242h311v-45h-361v262l-75 -38v49l75 38v389h50z" />
<glyph unicode="&#x142;" horiz-adv-x="245" d="M85 91v171l-75 -38v49l75 38v419h50v-394l100 51v-49l-100 -51v-192q0 -60 41 -60q21 0 48 13l11 -42q-32 -16 -63 -16q-38 0 -62.5 26.5t-24.5 74.5z" />
<glyph unicode="&#x143;" horiz-adv-x="655" d="M85 700h50l385 -607v607h50v-700h-50l-385 607v-607h-50v700zM397 867l-124 -107l-15 14l90 136z" />
<glyph unicode="&#x144;" horiz-adv-x="544" d="M135 259v-259h-50v500h50v-88q58 98 170 98q154 0 154 -175v-335h-50v335q0 65 -30 97.5t-82 32.5q-71 0 -116.5 -55t-45.5 -151zM341 667l-124 -107l-15 14l90 136z" />
<glyph unicode="&#x145;" horiz-adv-x="655" d="M85 700h50l385 -607v607h50v-700h-50l-385 607v-607h-50v700zM294 -65h74v-49q0 -96 -44 -155l-38 11q38 51 41 119h-33v74z" />
<glyph unicode="&#x146;" horiz-adv-x="544" d="M135 259v-259h-50v500h50v-88q58 98 170 98q154 0 154 -175v-335h-50v335q0 65 -30 97.5t-82 32.5q-71 0 -116.5 -55t-45.5 -151zM241 -65h74v-49q0 -96 -44 -155l-38 11q38 51 41 119h-33v74z" />
<glyph unicode="&#x147;" horiz-adv-x="655" d="M85 700h50l385 -607v607h50v-700h-50l-385 607v-607h-50v700zM214 900h56l57 -74l57 74h56l-93 -120h-40z" />
<glyph unicode="&#x148;" horiz-adv-x="544" d="M135 259v-259h-50v500h50v-88q58 98 170 98q154 0 154 -175v-335h-50v335q0 65 -30 97.5t-82 32.5q-71 0 -116.5 -55t-45.5 -151zM159 700h56l57 -74l57 74h56l-93 -120h-40z" />
<glyph unicode="&#x149;" horiz-adv-x="626" d="M217 259v-259h-50v500h50v-88q58 98 170 98q154 0 154 -175v-335h-50v335q0 65 -30 97.5t-82 32.5q-71 0 -116.5 -55t-45.5 -151zM10 700h95v-56q0 -116 -50 -184l-43 13q44 58 47 142h-49v85z" />
<glyph unicode="&#x14a;" horiz-adv-x="655" d="M520 -43v43l-385 607v-607h-50v700h50l385 -607v607h50v-743q0 -85 -37.5 -126t-101.5 -41q-83 0 -131 63l26 42q42 -60 106 -60q88 0 88 122z" />
<glyph unicode="&#x14b;" horiz-adv-x="544" d="M409 -44v379q0 65 -30 97.5t-82 32.5q-71 0 -116.5 -55t-45.5 -151v-259h-50v500h50v-88q58 98 170 98q154 0 154 -175v-379q0 -85 -37.5 -126t-101.5 -41q-83 0 -131 63l26 42q42 -60 106 -60q88 0 88 122z" />
<glyph unicode="&#x14c;" horiz-adv-x="696" d="M348 35q112 0 170 69.5t58 245.5t-58 245.5t-170 69.5t-170 -69.5t-58 -245.5t58 -245.5t170 -69.5zM348 -10q-134 0 -206 82.5t-72 277.5t72 277.5t206 82.5t206 -82.5t72 -277.5t-72 -277.5t-206 -82.5zM223 845h250v-45h-250v45z" />
<glyph unicode="&#x14d;" horiz-adv-x="562" d="M281 465q-82 0 -124 -57.5t-42 -157.5t42 -157.5t124 -57.5t124 57.5t42 157.5t-42 157.5t-124 57.5zM281 -10q-105 0 -160.5 70t-55.5 190t55.5 190t160.5 70t160.5 -70t55.5 -190t-55.5 -190t-160.5 -70zM156 645h250v-45h-250v45z" />
<glyph unicode="&#x14e;" horiz-adv-x="696" d="M348 35q112 0 170 69.5t58 245.5t-58 245.5t-170 69.5t-170 -69.5t-58 -245.5t58 -245.5t170 -69.5zM348 -10q-134 0 -206 82.5t-72 277.5t72 277.5t206 82.5t206 -82.5t72 -277.5t-72 -277.5t-206 -82.5zM444 900v-35q0 -41 -26.5 -63t-69.5 -22t-69.5 22t-26.5 63v35 h47v-35q0 -40 50 -40q48 0 48 40v35h47z" />
<glyph unicode="&#x14f;" horiz-adv-x="562" d="M281 465q-82 0 -124 -57.5t-42 -157.5t42 -157.5t124 -57.5t124 57.5t42 157.5t-42 157.5t-124 57.5zM281 -10q-105 0 -160.5 70t-55.5 190t55.5 190t160.5 70t160.5 -70t55.5 -190t-55.5 -190t-160.5 -70zM377 700v-35q0 -41 -26.5 -63t-69.5 -22t-69.5 22t-26.5 63v35 h47v-35q0 -40 50 -40q48 0 48 40v35h47z" />
<glyph unicode="&#x150;" horiz-adv-x="696" d="M348 35q112 0 170 69.5t58 245.5t-58 245.5t-170 69.5t-170 -69.5t-58 -245.5t58 -245.5t170 -69.5zM348 -10q-134 0 -206 82.5t-72 277.5t72 277.5t206 82.5t206 -82.5t72 -277.5t-72 -277.5t-206 -82.5zM376 875l-99 -115l-17 11l60 139zM475 875l-99 -115l-17 11 l60 139z" />
<glyph unicode="&#x151;" horiz-adv-x="562" d="M281 465q-82 0 -124 -57.5t-42 -157.5t42 -157.5t124 -57.5t124 57.5t42 157.5t-42 157.5t-124 57.5zM281 -10q-105 0 -160.5 70t-55.5 190t55.5 190t160.5 70t160.5 -70t55.5 -190t-55.5 -190t-160.5 -70zM309 675l-99 -115l-17 11l60 139zM408 675l-99 -115l-17 11 l60 139z" />
<glyph unicode="&#x152;" horiz-adv-x="1036" d="M348 -10q-134 0 -206 82.5t-72 277.5t72 277.5t206 82.5q162 0 228 -115v105h390v-45h-340v-282h325v-45h-325v-283h350v-45h-400v105q-66 -115 -228 -115zM348 35q53 0 92 14t71 48.5t48.5 97.5t16.5 155q0 176 -58 245.5t-170 69.5t-170 -69.5t-58 -245.5t58 -245.5 t170 -69.5z" />
<glyph unicode="&#x153;" horiz-adv-x="929" d="M832 81l17 -42q-84 -49 -174 -49q-150 0 -203 121q-51 -121 -191 -121q-105 0 -160.5 70t-55.5 190t55.5 190t160.5 70q138 0 191 -121q52 121 191 121q103 0 152 -68t49 -184v-29h-367q5 -98 52 -146t127 -48q79 0 156 46zM281 35q82 0 124 57.5t42 157.5t-42 157.5 t-124 57.5t-124 -57.5t-42 -157.5t42 -157.5t124 -57.5zM663 465q-77 0 -118.5 -50.5t-46.5 -140.5h316q-5 191 -151 191z" />
<glyph unicode="&#x154;" horiz-adv-x="567" d="M497 508q0 -84 -42 -132.5t-124 -57.5l186 -318h-58l-185 316h-139v-316h-50v700h206q101 0 153.5 -49t52.5 -143zM291 655h-156v-294h156q80 0 118 35.5t38 111.5t-38.5 111.5t-117.5 35.5zM353 867l-124 -107l-15 14l90 136z" />
<glyph unicode="&#x155;" horiz-adv-x="345" d="M320 500l-11 -46q-27 11 -51 11q-54 0 -88.5 -48.5t-34.5 -141.5v-275h-50v500h50v-69q39 79 123 79q32 0 62 -10zM242 667l-124 -107l-15 14l90 136z" />
<glyph unicode="&#x156;" horiz-adv-x="567" d="M497 508q0 -84 -42 -132.5t-124 -57.5l186 -318h-58l-185 316h-139v-316h-50v700h206q101 0 153.5 -49t52.5 -143zM291 655h-156v-294h156q80 0 118 35.5t38 111.5t-38.5 111.5t-117.5 35.5zM242 -65h74v-49q0 -96 -44 -155l-38 11q38 51 41 119h-33v74z" />
<glyph unicode="&#x157;" horiz-adv-x="345" d="M320 500l-11 -46q-27 11 -51 11q-54 0 -88.5 -48.5t-34.5 -141.5v-275h-50v500h50v-69q39 79 123 79q32 0 62 -10zM74 -65h74v-49q0 -96 -44 -155l-38 11q38 51 41 119h-33v74z" />
<glyph unicode="&#x158;" horiz-adv-x="567" d="M497 508q0 -84 -42 -132.5t-124 -57.5l186 -318h-58l-185 316h-139v-316h-50v700h206q101 0 153.5 -49t52.5 -143zM291 655h-156v-294h156q80 0 118 35.5t38 111.5t-38.5 111.5t-117.5 35.5zM160 900h56l57 -74l57 74h56l-93 -120h-40z" />
<glyph unicode="&#x159;" horiz-adv-x="345" d="M320 500l-11 -46q-27 11 -51 11q-54 0 -88.5 -48.5t-34.5 -141.5v-275h-50v500h50v-69q39 79 123 79q32 0 62 -10zM70 700h56l57 -74l57 74h56l-93 -120h-40z" />
<glyph unicode="&#x15a;" horiz-adv-x="599" d="M524 182q0 -102 -63 -147t-168 -45q-125 0 -228 67l21 44q100 -66 206 -66q182 0 182 147q0 47 -21.5 77.5t-55.5 45t-75.5 24t-83 22t-75.5 31.5t-55.5 58.5t-21.5 98.5q0 84 59 127.5t152 43.5q115 0 213 -55l-18 -43q-94 53 -195 53q-71 0 -116 -32.5t-45 -93.5 q0 -48 21.5 -79t55.5 -45.5t75.5 -25t83 -22.5t75.5 -30.5t55.5 -57.5t21.5 -97zM369 867l-124 -107l-15 14l90 136z" />
<glyph unicode="&#x15b;" horiz-adv-x="470" d="M400 467l-22 -44q-61 42 -139 42q-50 0 -82.5 -22t-32.5 -65q0 -37 29 -57.5t70 -30.5t82.5 -22.5t70.5 -45.5t29 -88q0 -73 -50.5 -108.5t-125.5 -35.5q-51 0 -99 15.5t-78 41.5l27 40q22 -23 65 -37.5t88 -14.5q53 0 88 24t35 75q0 39 -29 61t-70.5 33t-82.5 23.5 t-70 44t-29 82.5q0 66 48 99t120 33q91 0 158 -43zM304 667l-124 -107l-15 14l90 136z" />
<glyph unicode="&#x15c;" horiz-adv-x="599" d="M524 182q0 -102 -63 -147t-168 -45q-125 0 -228 67l21 44q100 -66 206 -66q182 0 182 147q0 47 -21.5 77.5t-55.5 45t-75.5 24t-83 22t-75.5 31.5t-55.5 58.5t-21.5 98.5q0 84 59 127.5t152 43.5q115 0 213 -55l-18 -43q-94 53 -195 53q-71 0 -116 -32.5t-45 -93.5 q0 -48 21.5 -79t55.5 -45.5t75.5 -25t83 -22.5t75.5 -30.5t55.5 -57.5t21.5 -97zM356 780l-57 73l-57 -73h-56l93 120h40l93 -120h-56z" />
<glyph unicode="&#x15d;" horiz-adv-x="470" d="M400 467l-22 -44q-61 42 -139 42q-50 0 -82.5 -22t-32.5 -65q0 -37 29 -57.5t70 -30.5t82.5 -22.5t70.5 -45.5t29 -88q0 -73 -50.5 -108.5t-125.5 -35.5q-51 0 -99 15.5t-78 41.5l27 40q22 -23 65 -37.5t88 -14.5q53 0 88 24t35 75q0 39 -29 61t-70.5 33t-82.5 23.5 t-70 44t-29 82.5q0 66 48 99t120 33q91 0 158 -43zM292 580l-57 73l-57 -73h-56l93 120h40l93 -120h-56z" />
<glyph unicode="&#x15e;" horiz-adv-x="599" d="M256 -85l16 76q-115 6 -207 66l21 44q100 -66 206 -66q182 0 182 147q0 47 -21.5 77.5t-55.5 45t-75.5 24t-83 22t-75.5 31.5t-55.5 58.5t-21.5 98.5q0 84 59 127.5t152 43.5q115 0 213 -55l-18 -43q-94 53 -195 53q-71 0 -116 -32.5t-45 -93.5q0 -48 21.5 -79 t55.5 -45.5t75.5 -25t83 -22.5t75.5 -30.5t55.5 -57.5t21.5 -97q0 -180 -207 -191l-6 -31q36 0 54 -18t18 -47q0 -30 -20 -52.5t-63 -22.5q-33 0 -67 14l12 46q25 -15 56 -15q37 0 37 29q0 21 -34 21h-48z" />
<glyph unicode="&#x15f;" horiz-adv-x="470" d="M183 -85l16 77q-94 8 -147 55l27 40q22 -23 65 -37.5t88 -14.5q53 0 88 24t35 75q0 39 -29 61t-70.5 33t-82.5 23.5t-70 44t-29 82.5q0 66 48 99t120 33q91 0 158 -43l-22 -44q-61 42 -139 42q-50 0 -82.5 -22t-32.5 -65q0 -37 29 -57.5t70 -30.5t82.5 -22.5t70.5 -45.5 t29 -88q0 -69 -46 -104.5t-115 -38.5l-6 -31q36 0 54 -18t18 -47q0 -30 -20 -52.5t-63 -22.5q-33 0 -67 14l12 46q25 -15 56 -15q37 0 37 29q0 21 -34 21h-48z" />
<glyph unicode="&#x160;" horiz-adv-x="599" d="M524 182q0 -102 -63 -147t-168 -45q-125 0 -228 67l21 44q100 -66 206 -66q182 0 182 147q0 47 -21.5 77.5t-55.5 45t-75.5 24t-83 22t-75.5 31.5t-55.5 58.5t-21.5 98.5q0 84 59 127.5t152 43.5q115 0 213 -55l-18 -43q-94 53 -195 53q-71 0 -116 -32.5t-45 -93.5 q0 -48 21.5 -79t55.5 -45.5t75.5 -25t83 -22.5t75.5 -30.5t55.5 -57.5t21.5 -97zM186 900h56l57 -74l57 74h56l-93 -120h-40z" />
<glyph unicode="&#x161;" horiz-adv-x="470" d="M400 467l-22 -44q-61 42 -139 42q-50 0 -82.5 -22t-32.5 -65q0 -37 29 -57.5t70 -30.5t82.5 -22.5t70.5 -45.5t29 -88q0 -73 -50.5 -108.5t-125.5 -35.5q-51 0 -99 15.5t-78 41.5l27 40q22 -23 65 -37.5t88 -14.5q53 0 88 24t35 75q0 39 -29 61t-70.5 33t-82.5 23.5 t-70 44t-29 82.5q0 66 48 99t120 33q91 0 158 -43zM122 700h56l57 -74l57 74h56l-93 -120h-40z" />
<glyph unicode="&#x162;" horiz-adv-x="510" d="M480 655h-200v-655h-50v655h-200v45h450v-45zM217 -65h74v-49q0 -96 -44 -155l-38 11q38 51 41 119h-33v74z" />
<glyph unicode="&#x163;" horiz-adv-x="340" d="M105 455h-80v45h80v160h50v-160h150v-45h-150v-332q0 -46 20 -67t52 -21q35 0 74 23l15 -42q-42 -26 -93 -26t-84.5 32t-33.5 101v332zM144 -65h74v-49q0 -96 -44 -155l-38 11q38 51 41 119h-33v74z" />
<glyph unicode="&#x164;" horiz-adv-x="510" d="M480 655h-200v-655h-50v655h-200v45h450v-45zM142 900h56l57 -74l57 74h56l-93 -120h-40z" />
<glyph unicode="&#x165;" horiz-adv-x="465" d="M105 455h-80v45h80v160h50v-160h150v-45h-150v-332q0 -46 20 -67t52 -21q35 0 74 23l15 -42q-42 -26 -93 -26t-84.5 32t-33.5 101v332zM360 700h95v-56q0 -116 -50 -184l-43 13q44 58 47 142h-49v85z" />
<glyph unicode="&#x166;" horiz-adv-x="510" d="M480 655h-200v-210h130v-45h-130v-400h-50v400h-130v45h130v210h-200v45h450v-45z" />
<glyph unicode="&#x167;" horiz-adv-x="340" d="M105 455h-80v45h80v160h50v-160h150v-45h-150v-130h150v-45h-150v-157q0 -46 20 -67t52 -21q35 0 74 23l15 -42q-42 -26 -93 -26t-84.5 32t-33.5 101v157h-80v45h80v130z" />
<glyph unicode="&#x168;" horiz-adv-x="670" d="M585 700v-483q0 -62 -21 -107.5t-57.5 -71t-79 -37t-92.5 -11.5t-92.5 12t-79 37t-57.5 70.5t-21 107.5v483h50v-483q0 -51 16.5 -88t46 -57t63.5 -28.5t74 -8.5t74 8.5t63.5 28.5t46 57t16.5 88v483h50zM255 800l-44 12q15 43 32 58.5t45 15.5q23 0 53.5 -20.5 t42.5 -20.5q19 0 30 41l44 -12q-15 -43 -32 -58.5t-45 -15.5q-23 0 -53.5 20.5t-42.5 20.5q-19 0 -30 -41z" />
<glyph unicode="&#x169;" horiz-adv-x="544" d="M409 88q-58 -98 -170 -98q-154 0 -154 175v335h50v-335q0 -65 30 -97.5t82 -32.5q71 0 116.5 55t45.5 151v259h50v-318q0 -101 11 -182h-50q-10 47 -11 88zM192 600l-44 12q15 43 32 58.5t45 15.5q23 0 53.5 -20.5t42.5 -20.5q19 0 30 41l44 -12q-15 -43 -32 -58.5 t-45 -15.5q-23 0 -53.5 20.5t-42.5 20.5q-19 0 -30 -41z" />
<glyph unicode="&#x16a;" horiz-adv-x="670" d="M585 700v-483q0 -62 -21 -107.5t-57.5 -71t-79 -37t-92.5 -11.5t-92.5 12t-79 37t-57.5 70.5t-21 107.5v483h50v-483q0 -51 16.5 -88t46 -57t63.5 -28.5t74 -8.5t74 8.5t63.5 28.5t46 57t16.5 88v483h50zM210 845h250v-45h-250v45z" />
<glyph unicode="&#x16b;" horiz-adv-x="544" d="M409 88q-58 -98 -170 -98q-154 0 -154 175v335h50v-335q0 -65 30 -97.5t82 -32.5q71 0 116.5 55t45.5 151v259h50v-318q0 -101 11 -182h-50q-10 47 -11 88zM147 645h250v-45h-250v45z" />
<glyph unicode="&#x16c;" horiz-adv-x="670" d="M585 700v-483q0 -62 -21 -107.5t-57.5 -71t-79 -37t-92.5 -11.5t-92.5 12t-79 37t-57.5 70.5t-21 107.5v483h50v-483q0 -51 16.5 -88t46 -57t63.5 -28.5t74 -8.5t74 8.5t63.5 28.5t46 57t16.5 88v483h50zM431 900v-35q0 -41 -26.5 -63t-69.5 -22t-69.5 22t-26.5 63v35h47 v-35q0 -40 50 -40q48 0 48 40v35h47z" />
<glyph unicode="&#x16d;" horiz-adv-x="544" d="M409 88q-58 -98 -170 -98q-154 0 -154 175v335h50v-335q0 -65 30 -97.5t82 -32.5q71 0 116.5 55t45.5 151v259h50v-318q0 -101 11 -182h-50q-10 47 -11 88zM368 700v-35q0 -41 -26.5 -63t-69.5 -22t-69.5 22t-26.5 63v35h47v-35q0 -40 50 -40q48 0 48 40v35h47z" />
<glyph unicode="&#x16e;" horiz-adv-x="670" d="M585 700v-483q0 -62 -21 -107.5t-57.5 -71t-79 -37t-92.5 -11.5t-92.5 12t-79 37t-57.5 70.5t-21 107.5v483h50v-483q0 -51 16.5 -88t46 -57t63.5 -28.5t74 -8.5t74 8.5t63.5 28.5t46 57t16.5 88v483h50zM335 821q34 0 34 34t-34 34t-34 -34t34 -34zM335 780 q-35 0 -54.5 19.5t-19.5 55.5t19.5 55.5t54.5 19.5t54.5 -19.5t19.5 -55.5t-19.5 -55.5t-54.5 -19.5z" />
<glyph unicode="&#x16f;" horiz-adv-x="544" d="M409 88q-58 -98 -170 -98q-154 0 -154 175v335h50v-335q0 -65 30 -97.5t82 -32.5q71 0 116.5 55t45.5 151v259h50v-318q0 -101 11 -182h-50q-10 47 -11 88zM272 621q34 0 34 34t-34 34t-34 -34t34 -34zM272 580q-35 0 -54.5 19.5t-19.5 55.5t19.5 55.5t54.5 19.5 t54.5 -19.5t19.5 -55.5t-19.5 -55.5t-54.5 -19.5z" />
<glyph unicode="&#x170;" horiz-adv-x="670" d="M585 700v-483q0 -62 -21 -107.5t-57.5 -71t-79 -37t-92.5 -11.5t-92.5 12t-79 37t-57.5 70.5t-21 107.5v483h50v-483q0 -51 16.5 -88t46 -57t63.5 -28.5t74 -8.5t74 8.5t63.5 28.5t46 57t16.5 88v483h50zM373 875l-99 -115l-17 11l60 139zM472 875l-99 -115l-17 11 l60 139z" />
<glyph unicode="&#x171;" horiz-adv-x="544" d="M409 88q-58 -98 -170 -98q-154 0 -154 175v335h50v-335q0 -65 30 -97.5t82 -32.5q71 0 116.5 55t45.5 151v259h50v-318q0 -101 11 -182h-50q-10 47 -11 88zM310 675l-99 -115l-17 11l60 139zM409 675l-99 -115l-17 11l60 139z" />
<glyph unicode="&#x172;" horiz-adv-x="670" d="M585 700v-483q0 -94 -46 -147.5t-122 -70.5q-62 -43 -62 -95q0 -39 37 -39h30l-20 -45h-21q-77 0 -77 78q0 58 49 93q-6 -1 -18 -1q-50 0 -92.5 12t-79 37t-57.5 70.5t-21 107.5v483h50v-483q0 -51 16.5 -88t46 -57t63.5 -28.5t74 -8.5t74 8.5t63.5 28.5t46 57t16.5 88 v483h50z" />
<glyph unicode="&#x173;" horiz-adv-x="544" d="M420 0q-10 47 -11 88q-58 -98 -170 -98q-154 0 -154 175v335h50v-335q0 -65 30 -97.5t82 -32.5q71 0 116.5 55t45.5 151v259h50v-318q0 -101 11 -182q-31 -21 -47.5 -47t-16.5 -49q0 -39 37 -39h30l-20 -45h-21q-77 0 -77 78q0 31 17.5 59t47.5 43z" />
<glyph unicode="&#x174;" horiz-adv-x="972" d="M460 700h52l189 -612l189 612h52l-216 -700h-50l-190 615l-190 -615h-50l-216 700h52l189 -612zM543 780l-57 73l-57 -73h-56l93 120h40l93 -120h-56z" />
<glyph unicode="&#x175;" horiz-adv-x="700" d="M228 0h-50l-148 500h52l121 -410l121 410h52l121 -410l121 410h52l-148 -500h-50l-122 414zM407 580l-57 73l-57 -73h-56l93 120h40l93 -120h-56z" />
<glyph unicode="&#x176;" horiz-adv-x="558" d="M30 700h56l193 -357l193 357h56l-224 -414v-286h-50v286zM336 780l-57 73l-57 -73h-56l93 120h40l93 -120h-56z" />
<glyph unicode="&#x177;" horiz-adv-x="498" d="M130 -200l91 226l-191 474h54l164 -407l166 407h54l-284 -700h-54zM306 580l-57 73l-57 -73h-56l93 120h40l93 -120h-56z" />
<glyph unicode="&#x178;" horiz-adv-x="558" d="M30 700h56l193 -357l193 357h56l-224 -414v-286h-50v286zM163 800v66h66v-66h-66zM329 800v66h66v-66h-66z" />
<glyph unicode="&#x179;" horiz-adv-x="596" d="M521 655l-400 -608h415v-47h-476v45l400 608h-385v47h446v-45zM367 867l-124 -107l-15 14l90 136z" />
<glyph unicode="&#x17a;" horiz-adv-x="457" d="M403 476l-283 -429h292v-47h-367v24l283 429h-274v47h349v-24zM298 667l-124 -107l-15 14l90 136z" />
<glyph unicode="&#x17b;" horiz-adv-x="596" d="M521 655l-400 -608h415v-47h-476v45l400 608h-385v47h446v-45zM265 800v66h66v-66h-66z" />
<glyph unicode="&#x17c;" horiz-adv-x="457" d="M403 476l-283 -429h292v-47h-367v24l283 429h-274v47h349v-24zM195 600v66h66v-66h-66z" />
<glyph unicode="&#x17d;" horiz-adv-x="596" d="M521 655l-400 -608h415v-47h-476v45l400 608h-385v47h446v-45zM185 900h56l57 -74l57 74h56l-93 -120h-40z" />
<glyph unicode="&#x17e;" horiz-adv-x="457" d="M403 476l-283 -429h292v-47h-367v24l283 429h-274v47h349v-24zM115 700h56l57 -74l57 74h56l-93 -120h-40z" />
<glyph unicode="&#x192;" horiz-adv-x="534" d="M222 54l18 340h-158v45h160l8 148q4 78 45 115.5t101 37.5q45 0 92 -21l-11 -40q-46 16 -81 16q-91 0 -97 -109l-8 -147h161v-45h-163l-18 -341q-4 -78 -45 -115.5t-101 -37.5q-45 0 -92 21l11 40q46 -16 81 -16q91 0 97 109z" />
<glyph unicode="&#x2c6;" horiz-adv-x="256" d="M185 580l-57 73l-57 -73h-56l93 120h40l93 -120h-56z" />
<glyph unicode="&#x2c7;" horiz-adv-x="256" d="M15 700h56l57 -74l57 74h56l-93 -120h-40z" />
<glyph unicode="&#x2d8;" horiz-adv-x="232" d="M212 700v-35q0 -41 -26.5 -63t-69.5 -22t-69.5 22t-26.5 63v35h47v-35q0 -40 50 -40q48 0 48 40v35h47z" />
<glyph unicode="&#x2d9;" horiz-adv-x="126" d="M30 600v66h66v-66h-66z" />
<glyph unicode="&#x2da;" horiz-adv-x="188" d="M94 621q34 0 34 34t-34 34t-34 -34t34 -34zM94 580q-35 0 -54.5 19.5t-19.5 55.5t19.5 55.5t54.5 19.5t54.5 -19.5t19.5 -55.5t-19.5 -55.5t-54.5 -19.5z" />
<glyph unicode="&#x2db;" horiz-adv-x="158" d="M85 0h50q-31 -21 -47.5 -47t-16.5 -49q0 -39 37 -39h30l-20 -45h-21q-77 0 -77 78q0 31 17.5 59t47.5 43z" />
<glyph unicode="&#x2dc;" horiz-adv-x="287" d="M64 600l-44 12q15 43 32 58.5t45 15.5q23 0 53.5 -20.5t42.5 -20.5q19 0 30 41l44 -12q-15 -43 -32 -58.5t-45 -15.5q-23 0 -53.5 20.5t-42.5 20.5q-19 0 -30 -41z" />
<glyph unicode="&#x2dd;" horiz-adv-x="245" d="M131 675l-99 -115l-17 11l60 139zM230 675l-99 -115l-17 11l60 139z" />
<glyph unicode="&#x3c0;" horiz-adv-x="589" d="M160 0h-50v535h-80v45h532v-45h-103v-441q0 -59 42 -59q23 0 55 17l14 -41q-36 -21 -72 -21q-39 0 -64 25.5t-25 77.5v442h-249v-535z" />
<glyph unicode="&#xe01;" horiz-adv-x="530" d="M400 0v315q0 79 -32 114.5t-114 35.5q-46 0 -112 -15l53 -103q-40 -22 -52.5 -51t-12.5 -88v-208h-50v220q0 59 9.5 86.5t44.5 53.5l-63 122q109 28 184 28q108 0 151.5 -47t43.5 -148v-315h-50z" />
<glyph unicode="&#xe02;" horiz-adv-x="488" d="M70 500h101q23 0 31 -8t8 -31v-103l-60 -63q-21 -22 -25.5 -35.5t-4.5 -51.5v-82q0 -43 35 -67t84 -24q48 0 83.5 24t35.5 67v374h50v-374q0 -64 -50.5 -100t-118.5 -36q-69 0 -119 36t-50 100v82q0 51 7 70t35 49l48 50v78h-90v45z" />
<glyph unicode="&#xe03;" horiz-adv-x="488" d="M408 500v-374q0 -64 -50.5 -100t-118.5 -36q-69 0 -119 36t-50 100v46q0 50 7 69t35 49l48 51v66q-23 -33 -61 -33q-25 0 -42 16t-17 45v65h50v-55q0 -27 23 -27q32 0 49 47l13 35h35v-178l-60 -63q-21 -22 -25.5 -35.5t-4.5 -51.5v-46q0 -43 35 -67t84 -24q48 0 83.5 24 t35.5 67v374h50z" />
<glyph unicode="&#xe04;" horiz-adv-x="530" d="M78 0l56 139q-64 63 -64 178q0 80 48 136.5t148 56.5q81 0 132.5 -39t51.5 -120v-351h-50v351q0 114 -134 114q-68 0 -107 -38.5t-39 -109.5q0 -77 36 -123l27 65h138v-45h-102l-87 -214h-54z" />
<glyph unicode="&#xe05;" horiz-adv-x="530" d="M78 0l56 139q-64 63 -64 177q0 91 36.5 142.5t98.5 51.5q88 0 133 -117h62l10 107h40v-500h-50v348h-67q-19 0 -26.5 7.5t-14.5 25.5q-32 84 -86 84q-41 0 -63.5 -39t-22.5 -110q0 -76 36 -122l27 65h138v-45h-102l-87 -214h-54z" />
<glyph unicode="&#xe06;" horiz-adv-x="530" d="M130 202q0 -62 44 -114.5t110 -52.5q53 0 84.5 33t31.5 100v332h50v-332q0 -94 -45 -136t-114 -42q-106 0 -161 92q-1 -36 -10 -82h-50q10 64 10 153v28q0 49 7 68t35 50l38 41v67q-23 -33 -61 -33q-25 0 -42 16t-17 45v65h50v-55q0 -27 23 -27q32 0 49 47l13 35h35v-178 l-47 -51q-22 -25 -27.5 -36t-5.5 -33z" />
<glyph unicode="&#xe07;" horiz-adv-x="464" d="M196 0h-24q-22 0 -30 20l-102 240h55l91 -215h10q75 0 116.5 54t41.5 158q0 101 -33 149.5t-110 48.5h-37v45h37q102 0 147.5 -61.5t45.5 -181.5q0 -126 -53.5 -191.5t-154.5 -65.5z" />
<glyph unicode="&#xe08;" horiz-adv-x="528" d="M254 0h-44q-18 0 -27 7t-14 23l-53 166h-61v45h100l63 -196h36q75 0 117 54t42 158q0 208 -153 208q-115 0 -150 -108l-46 17q22 65 72 100.5t124 35.5q203 0 203 -253q0 -119 -53 -188t-156 -69z" />
<glyph unicode="&#xe09;" horiz-adv-x="547" d="M49 260h61q23 0 31 -8t8 -31v-54q0 -67 31.5 -99.5t84.5 -32.5q65 0 108.5 52.5t43.5 145.5v68q0 83 -40 123.5t-111 40.5q-120 0 -158 -108l-46 17q50 136 204 136q94 0 147.5 -53t53.5 -156v-148q0 -89 10 -153h-50q-9 46 -10 82q-55 -92 -159 -92q-69 0 -114 41.5 t-45 135.5v48h-50v45z" />
<glyph unicode="&#xe0a;" horiz-adv-x="488" d="M210 461v-103l-60 -63q-21 -22 -25.5 -35.5t-4.5 -51.5v-82q0 -43 35 -67t84 -24q48 0 83.5 24t35.5 67v128q0 47 -14 61.5t-57 14.5h-30v26l101 164h58l-91 -147q43 -6 63 -33t20 -86v-128q0 -64 -50.5 -100t-118.5 -36q-69 0 -119 36t-50 100v82q0 51 7 70t35 49l48 50 v78h-90v45h101q23 0 31 -8t8 -31z" />
<glyph unicode="&#xe0b;" horiz-adv-x="488" d="M358 126v128q0 47 -14 61.5t-57 14.5h-30v26l101 164h58l-91 -147q43 -6 63 -33t20 -86v-128q0 -64 -50.5 -100t-118.5 -36q-69 0 -119 36t-50 100v46q0 50 7 69t35 49l48 51v66q-23 -33 -61 -33q-25 0 -42 16t-17 45v65h50v-55q0 -27 23 -27q32 0 49 47l13 35h35v-178 l-60 -63q-21 -22 -25.5 -35.5t-4.5 -51.5v-46q0 -43 35 -67t84 -24q48 0 83.5 24t35.5 67z" />
<glyph unicode="&#xe0c;" horiz-adv-x="850" d="M400 153v162q0 79 -32 114.5t-114 35.5q-46 0 -112 -15l53 -103q-40 -22 -52.5 -51t-12.5 -88v-163h90v-45h-101q-23 0 -31 8t-8 31v181q0 59 9.5 86.5t44.5 53.5l-63 122q109 28 184 28q108 0 151.5 -47t43.5 -148v-82q0 -93 44.5 -145.5t109.5 -52.5q53 0 84.5 33 t31.5 100v332h50v-332q0 -94 -45 -136t-114 -42q-106 0 -161 92q-1 -36 -10 -82h-50q10 64 10 153z" />
<glyph unicode="&#xe0d;" horiz-adv-x="850" d="M400 137v178q0 79 -32 114.5t-114 35.5q-46 0 -112 -15l53 -103q-40 -22 -52.5 -51t-12.5 -88v-163h90v-45h-101q-23 0 -31 8t-8 31v181q0 59 9.5 86.5t44.5 53.5l-63 122q109 28 184 28q108 0 151.5 -47t43.5 -148v-178q0 -52 39 -77t96 -25q56 0 95.5 25t39.5 77v363 h50v-363q0 -66 -46 -104q36 -33 36 -81q0 -38 -27 -65t-75 -27h-227l20 45h207q26 0 39 13t13 33q0 35 -28 57q-44 -18 -97 -18q-77 0 -131 36.5t-54 110.5z" />
<glyph unicode="&#xe0e;" horiz-adv-x="530" d="M400 -33v348q0 79 -32 114.5t-114 35.5q-46 0 -112 -15l53 -103q-40 -22 -52.5 -51t-12.5 -88v-169q0 -23 -8 -31t-31 -8h-81v45h70v175q0 59 9.5 86.5t44.5 53.5l-63 122q109 28 184 28q108 0 151.5 -47t43.5 -148v-348q0 -96 -38.5 -131.5t-139.5 -35.5h-192v45h192 q79 0 103.5 23.5t24.5 98.5z" />
<glyph unicode="&#xe0f;" horiz-adv-x="530" d="M251 -50h26l123 -80v445q0 79 -32 114.5t-114 35.5q-46 0 -112 -15l53 -103q-40 -22 -52.5 -51t-12.5 -88v-169q0 -23 -8 -31t-31 -8h-81v45h70v175q0 59 9.5 86.5t44.5 53.5l-63 122q109 28 184 28q108 0 151.5 -47t43.5 -148v-515h-29l-146 96q-31 -54 -78 -75 t-134 -21v45q87 0 123 21.5t65 83.5z" />
<glyph unicode="&#xe10;" horiz-adv-x="503" d="M423 291v-87q0 -101 -42 -152.5t-142 -51.5h-66l-58 180h-50v45h89l58 -180h27q73 0 103.5 37.5t30.5 121.5v81h-295v33q0 92 51.5 142t151.5 50q65 0 149 -22l-12 -45q-78 22 -136 22q-147 0 -154 -135h256q23 0 31 -8t8 -31zM390 -50h50v-150h-29l-146 96 q-31 -54 -77 -75t-133 -21v45q87 0 122 21.5t64 83.5h26l123 -80v80z" />
<glyph unicode="&#xe11;" horiz-adv-x="577" d="M205 500v-61q47 71 136 71q68 0 112 -43.5t44 -137.5v-329h-50v329q0 68 -30.5 102t-82.5 34q-67 0 -109.5 -67t-42.5 -202v-196h-50v206q0 44 14.5 111t14.5 88v13q-22 -44 -67 -44q-25 0 -42 16t-17 45v65h50v-55q0 -27 23 -27q32 0 49 47l13 35h35z" />
<glyph unicode="&#xe12;" horiz-adv-x="868" d="M418 153v195h-67q-19 0 -27 7.5t-15 24.5q-35 85 -88 85q-49 0 -80 -63t-31 -169q0 -95 32.5 -146.5t96.5 -51.5q44 0 94 27l15 -42q-56 -30 -109 -30q-86 0 -132.5 64.5t-46.5 178.5q0 126 41.5 201.5t119.5 75.5q88 0 135 -117h62l10 107h40v-267q0 -93 44.5 -145.5 t109.5 -52.5q53 0 84.5 33t31.5 100v332h50v-332q0 -94 -45 -136t-114 -42q-106 0 -161 92q-1 -36 -10 -82h-50q10 64 10 153z" />
<glyph unicode="&#xe13;" horiz-adv-x="850" d="M450 315v-147q0 -67 31.5 -100t84.5 -33q65 0 109.5 52.5t44.5 145.5v267h50v-347q0 -89 10 -153h-50q-9 46 -10 82q-55 -92 -161 -92q-69 0 -114 42t-45 136v147q0 79 -32 114.5t-114 35.5q-46 0 -112 -15l53 -103q-40 -22 -52.5 -51t-12.5 -88v-163h90v-45h-101 q-23 0 -31 8t-8 31v181q0 59 9.5 86.5t44.5 53.5l-63 122q109 28 184 28q108 0 151.5 -47t43.5 -148z" />
<glyph unicode="&#xe14;" horiz-adv-x="548" d="M60 233q0 139 59 208t162 69q187 0 187 -215v-295h-50v295q0 170 -137 170q-87 0 -129 -62t-42 -170q0 -95 32.5 -146.5t96.5 -51.5q44 0 94 27l15 -42q-56 -30 -109 -30q-86 0 -132.5 64.5t-46.5 178.5z" />
<glyph unicode="&#xe15;" horiz-adv-x="548" d="M221 510q88 0 135 -117h62l10 107h40v-500h-50v348h-67q-19 0 -27 7.5t-15 24.5q-35 85 -88 85q-49 0 -80 -63t-31 -169q0 -95 32.5 -146.5t96.5 -51.5q44 0 94 27l15 -42q-56 -30 -109 -30q-86 0 -132.5 64.5t-46.5 178.5q0 126 41.5 201.5t119.5 75.5z" />
<glyph unicode="&#xe16;" horiz-adv-x="530" d="M400 0v315q0 79 -32 114.5t-114 35.5q-46 0 -112 -15l53 -103q-40 -22 -52.5 -51t-12.5 -88v-163h90v-45h-101q-23 0 -31 8t-8 31v181q0 59 9.5 86.5t44.5 53.5l-63 122q109 28 184 28q108 0 151.5 -47t43.5 -148v-315h-50z" />
<glyph unicode="&#xe17;" horiz-adv-x="525" d="M80 0v347q0 89 -10 153h50q9 -46 10 -82q55 92 159 92q68 0 112 -41.5t44 -135.5v-333h-50v333q0 132 -117 132q-62 0 -105 -52.5t-43 -145.5v-267h-50z" />
<glyph unicode="&#xe18;" horiz-adv-x="520" d="M440 291v-159q0 -73 -51.5 -107.5t-128.5 -34.5q-78 0 -129 34.5t-51 107.5v93h50v-93q0 -97 130 -97q57 0 93.5 23t36.5 74v153h-300v33q0 100 48 146t141 46q75 0 157 -22l-12 -45q-83 22 -145 22q-67 0 -101.5 -32t-37.5 -103h261q23 0 31 -8t8 -31z" />
<glyph unicode="&#xe19;" horiz-adv-x="530" d="M80 500h50v-332q0 -67 31.5 -100t84.5 -33q65 0 109.5 52.5t44.5 145.5v267h50v-347q0 -89 10 -153h-50q-9 46 -10 82q-55 -92 -161 -92q-69 0 -114 42t-45 136v332z" />
<glyph unicode="&#xe1a;" horiz-adv-x="530" d="M80 500h50v-359q0 -52 39.5 -79t95.5 -27q55 0 95 27t40 79v359h50v-359q0 -74 -54.5 -112.5t-130.5 -38.5q-77 0 -131 38.5t-54 112.5v359z" />
<glyph unicode="&#xe1b;" horiz-adv-x="530" d="M80 500h50v-359q0 -52 39.5 -79t95.5 -27q55 0 95 27t40 79v559h50v-559q0 -74 -54.5 -112.5t-130.5 -38.5q-77 0 -131 38.5t-54 112.5v359z" />
<glyph unicode="&#xe1c;" horiz-adv-x="600" d="M285 300h30l155 -217v417h50v-500h-50l-170 239l-170 -239h-50v333q0 100 27.5 133.5t116.5 33.5h33v-45h-33q-58 0 -76 -23t-18 -99v-251z" />
<glyph unicode="&#xe1d;" horiz-adv-x="600" d="M285 300h30l155 -217v617h50v-700h-50l-170 239l-170 -239h-50v333q0 100 27.5 133.5t116.5 33.5h33v-45h-33q-58 0 -76 -23t-18 -99v-251z" />
<glyph unicode="&#xe1e;" horiz-adv-x="600" d="M80 500h50v-395l155 292h30l155 -290v393h50v-500h-50l-170 319l-170 -319h-50v500z" />
<glyph unicode="&#xe1f;" horiz-adv-x="600" d="M80 500h50v-395l155 292h30l155 -290v593h50v-700h-50l-170 319l-170 -319h-50v500z" />
<glyph unicode="&#xe20;" horiz-adv-x="530" d="M400 0v315q0 79 -32 114.5t-114 35.5q-46 0 -112 -15l53 -103q-40 -22 -52.5 -51t-12.5 -88v-169q0 -23 -8 -31t-31 -8h-81v45h70v175q0 59 9.5 86.5t44.5 53.5l-63 122q109 28 184 28q108 0 151.5 -47t43.5 -148v-315h-50z" />
<glyph unicode="&#xe21;" horiz-adv-x="530" d="M80 500h50v-267q0 -93 44.5 -145.5t109.5 -52.5q53 0 84.5 33t31.5 100v332h50v-332q0 -94 -45 -136t-114 -42q-106 0 -161 92q-1 -36 -10 -82h-50q10 64 10 153v347z" />
<glyph unicode="&#xe22;" horiz-adv-x="531" d="M80 387v72q0 24 8 32.5t34 8.5h138v-45h-130v-68q0 -49 30 -65.5t91 -16.5h28v-45h-23q-76 0 -108.5 -25.5t-32.5 -79.5q0 -65 43.5 -92.5t104.5 -27.5q57 0 97.5 24.5t40.5 73.5v367h50v-367q0 -72 -51.5 -107.5t-136.5 -35.5q-88 0 -143 39t-55 125q0 90 76 127 q-61 30 -61 106z" />
<glyph unicode="&#xe23;" horiz-adv-x="464" d="M389 474l-17 -44q-70 35 -141 35q-50 0 -81.5 -21.5t-31.5 -66.5q0 -35 29 -55.5t70 -30.5t82.5 -23.5t70.5 -46.5t29 -88q0 -74 -48.5 -108.5t-124.5 -34.5q-94 0 -171 40l16 45q78 -40 159 -40q53 0 86 23t33 75q0 33 -21 55t-52 31.5t-67.5 21t-67.5 24t-52 41 t-21 71.5q0 68 46 100.5t117 32.5q83 0 158 -36z" />
<glyph unicode="&#xe24;" horiz-adv-x="530" d="M400 -200v515q0 79 -32 114.5t-114 35.5q-46 0 -112 -15l53 -103q-40 -22 -52.5 -51t-12.5 -88v-163h90v-45h-101q-23 0 -31 8t-8 31v181q0 59 9.5 86.5t44.5 53.5l-63 122q109 28 184 28q108 0 151.5 -47t43.5 -148v-515h-50z" />
<glyph unicode="&#xe25;" horiz-adv-x="517" d="M437 333v-333h-50v220q-82 14 -133 14q-149 0 -149 -103q0 -49 26.5 -72.5t68.5 -23.5q43 0 81 20l15 -42q-44 -23 -96 -23q-61 0 -103 35.5t-42 105.5q0 68 49.5 108t151.5 40q53 0 131 -14v68q0 61 -33 96.5t-91 35.5q-106 0 -136 -96l-49 18q17 59 64.5 91t120.5 32 q78 0 126 -45t48 -132z" />
<glyph unicode="&#xe26;" horiz-adv-x="530" d="M400 -200v515q0 79 -32 114.5t-114 35.5q-46 0 -112 -15l53 -103q-40 -22 -52.5 -51t-12.5 -88v-169q0 -23 -8 -31t-31 -8h-81v45h70v175q0 59 9.5 86.5t44.5 53.5l-63 122q109 28 184 28q108 0 151.5 -47t43.5 -148v-515h-50z" />
<glyph unicode="&#xe27;" horiz-adv-x="504" d="M65 96l47 20q35 -81 119 -81q83 0 118 56.5t35 161.5q0 212 -149 212q-97 0 -138 -104l-47 17q53 132 185 132q98 0 148.5 -66t50.5 -191q0 -263 -203 -263q-119 0 -166 106z" />
<glyph unicode="&#xe28;" horiz-adv-x="530" d="M78 0l56 139q-64 63 -64 178q0 80 48 136.5t148 56.5q90 0 139 -45l45 65h60l-74 -110q14 -30 14 -69v-351h-50v351q0 114 -134 114q-68 0 -107 -38.5t-39 -109.5q0 -77 36 -123l27 65h138v-45h-102l-87 -214h-54z" />
<glyph unicode="&#xe29;" horiz-adv-x="530" d="M265 255v45h135v200h50v-200h70l-20 -45h-50v-114q0 -74 -54.5 -112.5t-130.5 -38.5q-77 0 -131 38.5t-54 112.5v359h50v-359q0 -52 39.5 -79t95.5 -27q55 0 95 27t40 79v114h-135z" />
<glyph unicode="&#xe2a;" horiz-adv-x="517" d="M437 333v-333h-50v220q-82 14 -133 14q-149 0 -149 -103q0 -49 26.5 -72.5t68.5 -23.5q43 0 81 20l15 -42q-44 -23 -96 -23q-61 0 -103 35.5t-42 105.5q0 68 49.5 108t151.5 40q53 0 131 -14v68q0 61 -33 96.5t-91 35.5q-106 0 -136 -96l-49 18q17 59 64.5 91t120.5 32 q80 0 127 -47l47 67h60l-76 -113q16 -37 16 -84z" />
<glyph unicode="&#xe2b;" horiz-adv-x="525" d="M80 500h50v-176h131l117 176h61l-119 -179q73 -8 104 -48t31 -126v-147h-50v147q0 73 -28.5 102.5t-106.5 29.5h-140v-279h-50v500z" />
<glyph unicode="&#xe2c;" horiz-adv-x="600" d="M520 423v-423h-50l-170 319l-170 -319h-50v500h50v-395l155 292h30l155 -290v316q0 60 -19 78.5t-73 18.5h-30v26l115 154h58l-103 -137q51 -7 76.5 -39t25.5 -101z" />
<glyph unicode="&#xe2d;" horiz-adv-x="550" d="M112 272h153v-45h-145v-29q0 -77 39.5 -120t104.5 -43q81 0 123.5 51.5t42.5 168.5q0 113 -43.5 161.5t-110.5 48.5q-112 0 -142 -99l-49 18q16 58 67.5 92t123.5 34q204 0 204 -255q0 -265 -216 -265q-87 0 -140.5 55t-53.5 162v24q0 24 8 32.5t34 8.5z" />
<glyph unicode="&#xe2e;" horiz-adv-x="550" d="M112 272h153v-45h-145v-29q0 -77 39.5 -120t104.5 -43q81 0 123.5 51.5t42.5 168.5q0 113 -43.5 161.5t-110.5 48.5q-112 0 -142 -99l-49 18q16 58 67.5 92t123.5 34q92 0 143 -54l51 74h60l-80 -119q30 -62 30 -156q0 -265 -216 -265q-87 0 -140.5 55t-53.5 162v24 q0 24 8 32.5t34 8.5z" />
<glyph unicode="&#xe2f;" horiz-adv-x="482" d="M402 500v-500h-50v327q-54 -95 -161 -95q-131 0 -131 141q0 66 33 101.5t93 35.5q34 0 74 -14l-11 -43q-34 12 -60 12q-79 0 -79 -92q0 -96 87 -96q57 0 93.5 39t61.5 130l15 54h35z" />
<glyph unicode="&#xe30;" horiz-adv-x="287" d="M100 454v-55h147v-45h-154q-23 0 -33 8.5t-10 30.5v61h50zM100 179v-55h147v-45h-154q-23 0 -33 8.5t-10 30.5v61h50z" />
<glyph unicode="&#xe31;" d="M-248 700v-75h238l-20 -45h-228q-24 0 -32 7t-8 30v83h50z" />
<glyph unicode="&#xe32;" horiz-adv-x="353" d="M273 351v-351h-50v351q0 114 -91 114q-35 0 -89 -19l-13 43q56 21 104 21q64 0 101.5 -39.5t37.5 -119.5z" />
<glyph unicode="&#xe33;" horiz-adv-x="353" d="M-155 665q-30 0 -30 -30t30 -30t30 30t-30 30zM-155 560q-35 0 -55 19.5t-20 55.5t20 55.5t55 19.5t55 -19.5t20 -55.5t-20 -55.5t-55 -19.5zM273 351v-351h-50v351q0 114 -91 114q-35 0 -89 -19l-13 43q56 21 104 21q64 0 101.5 -39.5t37.5 -119.5z" />
<glyph unicode="&#xe34;" d="M-428 580v45h348l-20 -45h-328z" />
<glyph unicode="&#xe35;" d="M-80 580h-348l20 45h278v85h50v-130z" />
<glyph unicode="&#xe36;" d="M-145 580h-283l20 45h200q-2 12 -2 20q0 31 17.5 48t47.5 17t47.5 -17t17.5 -48t-17.5 -48t-47.5 -17zM-145 670q-25 0 -25 -25t25 -25t25 25t-25 25z" />
<glyph unicode="&#xe37;" d="M-80 580h-348l20 45h178v85h50v-85h50v85h50v-130z" />
<glyph unicode="&#xe38;" d="M-85 -200h-50v95h-55v45h68q21 0 29 -8t8 -33v-99z" />
<glyph unicode="&#xe39;" d="M-171 -200q-86 0 -86 74v66h50v-65q0 -30 36 -30t36 30v65h50v-66q0 -74 -86 -74z" />
<glyph unicode="&#xe3a;" d="M-201 -118q0 24 17 41t41 17t41 -17t17 -41t-17 -41t-41 -17t-41 17t-17 41z" />
<glyph unicode="&#xe3f;" horiz-adv-x="534" d="M300 730v-92q173 -5 173 -160q0 -110 -89 -158q97 -34 97 -142q0 -90 -44.5 -133t-136.5 -45v-94h-50v94h-170v638h170v92h50zM130 593v-252h120v252h-120zM130 296v-251h120v251h-120zM431 178q0 63 -32 89.5t-99 28.5v-251q68 2 99.5 32t31.5 101zM423 476 q0 60 -30 87.5t-93 29.5v-252q63 2 93 34t30 101z" />
<glyph unicode="&#xe40;" horiz-adv-x="215" d="M80 39v461h50v-455h55v-45h-66q-23 0 -31 8t-8 31z" />
<glyph unicode="&#xe41;" horiz-adv-x="415" d="M80 39v461h50v-455h65v-45h-76q-23 0 -31 8t-8 31zM280 39v461h50v-455h55v-45h-66q-23 0 -31 8t-8 31z" />
<glyph unicode="&#xe42;" horiz-adv-x="235" d="M90 39v534q0 93 -13 142t-57 108v27h253l-20 -45h-163q32 -43 41 -87.5t9 -144.5v-528h55v-45h-66q-23 0 -31 8t-8 31z" />
<glyph unicode="&#xe43;" horiz-adv-x="235" d="M90 39v347q0 50 15.5 98.5t34.5 81t34.5 74.5t15.5 80q0 41 -20 63t-54 22t-54 -21.5t-20 -62.5v-35l-50 20v14q0 58 31.5 94t92.5 36q54 0 89 -33t35 -96q0 -44 -15.5 -88.5t-34.5 -75.5t-34.5 -77.5t-15.5 -93.5v-341h55v-45h-66q-23 0 -31 8t-8 31z" />
<glyph unicode="&#xe44;" horiz-adv-x="235" d="M90 39v519q0 95 13.5 148.5t46.5 98.5h-175l20 45h225v-27q-45 -60 -62.5 -117.5t-17.5 -147.5v-513h55v-45h-66q-23 0 -31 8t-8 31z" />
<glyph unicode="&#xe45;" horiz-adv-x="353" d="M273 351v-551h-50v551q0 114 -91 114q-35 0 -89 -19l-13 43q56 21 104 21q64 0 101.5 -39.5t37.5 -119.5z" />
<glyph unicode="&#xe46;" horiz-adv-x="500" d="M420 500v-700h-50v554h-51q-20 0 -31 20q-50 91 -105 91q-34 0 -53.5 -29.5t-19.5 -80.5q0 -57 19 -81.5t58 -24.5q35 0 84 21l12 -43q-55 -23 -97 -23q-126 0 -126 151q0 71 34 113t90 42q83 0 145 -111h41l15 101h35z" />
<glyph unicode="&#xe47;" d="M-118 688h-146q-55 0 -55 -30q0 -16 18.5 -27.5t59.5 -11.5h42v40h50v-32q0 -53 -74 -53q-58 0 -96 32l-10 -26h-40v59q0 53 24 73.5t81 20.5h166z" />
<glyph unicode="&#xe48;" d="M-128 740v117h45v-117h-45z" />
<glyph unicode="&#xe49;" d="M-200 820v-40h190l-18 -40h-217v77h-50v40h56q24 0 31.5 -7.5t7.5 -29.5z" />
<glyph unicode="&#xe4a;" d="M-169 740v22q0 31 -15.5 45.5t-39.5 14.5q-29 0 -29 -21t33 -21h30l-18 -40h-19q-71 0 -71 61t62 61q43 0 67 -29l6 24h39v-77q22 0 29 6t7 28v43h45v-45q0 -42 -19 -57t-62 -15h-45z" />
<glyph unicode="&#xe4b;" d="M-38 778h-45v-38h-45v38h-45v41h45v38h45v-38h45v-41z" />
<glyph unicode="&#xe4c;" d="M-58 772h-117q-42 0 -53 -13t-11 -59h-45q0 66 20.5 89.5t88.5 23.5h135z" />
<glyph unicode="&#xe4d;" d="M-155 665q-30 0 -30 -30t30 -30t30 30t-30 30zM-155 560q-35 0 -55 19.5t-20 55.5t20 55.5t55 19.5t55 -19.5t20 -55.5t-20 -55.5t-55 -19.5z" />
<glyph unicode="&#xe4e;" d="M-80 665h-69q-36 0 -36 -30t30 -30t30 41l45 -11q0 -36 -20 -55.5t-55 -19.5t-55 19.5t-20 55.5q0 75 81 75h24q13 52 65 70l42 -25q-36 -13 -49 -32t-13 -58z" />
<glyph unicode="&#xe4f;" horiz-adv-x="514" d="M481 226q0 -94 -66 -160t-160 -66t-160 66t-66 160t66 160t160 66t160 -66t66 -160zM430 226q0 72 -51.5 123.5t-123.5 51.5t-123.5 -51.5t-51.5 -123.5t51.5 -123.5t123.5 -51.5t123.5 51.5t51.5 123.5zM374 226q0 -49 -35 -84t-84 -35t-84 35t-35 84t35 84t84 35 t84 -35t35 -84z" />
<glyph unicode="&#xe50;" horiz-adv-x="498" d="M249 35q139 0 139 165t-139 165t-139 -165t139 -165zM249 -10q-99 0 -144 58t-45 152q0 95 45 152.5t144 57.5t144 -57.5t45 -152.5q0 -94 -45 -152t-144 -58z" />
<glyph unicode="&#xe51;" horiz-adv-x="498" d="M317 -70l-31 37q49 36 75.5 96t26.5 126q0 176 -138 176q-140 0 -140 -169q0 -161 107 -161q23 0 48 6l6 -43q-27 -8 -54 -8q-157 0 -157 206q0 96 45.5 155t144.5 59q188 0 188 -221q0 -158 -121 -259z" />
<glyph unicode="&#xe52;" horiz-adv-x="498" d="M317 209l14 -43q-39 -19 -70 -19q-53 0 -79 34.5t-26 92.5q0 65 24 100.5t67 35.5q68 0 116 -100h38l15 90h35v-274q0 -64 -60.5 -100t-142.5 -36t-142 36t-60 100v374h50v-374q0 -43 45 -67t107 -24t107.5 24t45.5 67v139h-45q-20 0 -29 18q-41 82 -80 82q-41 0 -41 -91 q0 -82 55 -82q24 0 56 17z" />
<glyph unicode="&#xe53;" horiz-adv-x="498" d="M54 188q0 109 31 165.5t87 56.5q84 0 140 -125h66l15 115h35v-400h-50v240h-76q-20 0 -28 19q-21 49 -48 77.5t-54 28.5q-30 0 -49 -45t-19 -132q0 -79 27.5 -116t73.5 -37t98 30l17 -43q-60 -32 -115 -32q-151 0 -151 198z" />
<glyph unicode="&#xe54;" horiz-adv-x="498" d="M362 224h69v-45h-60v-53q0 -47 21 -64t71 -17v-45q-58 0 -88 15.5t-40 50.5q-46 -76 -134 -76q-69 0 -108 48t-39 146q0 117 43.5 166.5t135.5 49.5h147l32 100h48l-47 -145h-180q-70 0 -99.5 -39t-29.5 -132q0 -149 101 -149q53 0 84.5 36.5t31.5 95.5v16q0 24 8 32.5 t33 8.5z" />
<glyph unicode="&#xe55;" horiz-adv-x="498" d="M362 224h69v-45h-60v-53q0 -47 21 -64t71 -17v-45q-58 0 -88 15.5t-40 50.5q-46 -76 -134 -76q-69 0 -108 48t-39 146q0 100 32 150t97 62q-8 16 -8 34q0 32 22 54t53 22q32 0 54 -22t22 -54q0 -16 -6 -30h60l32 100h48l-47 -145h-180q-70 0 -99.5 -39t-29.5 -132 q0 -149 101 -149q53 0 84.5 36.5t31.5 95.5v16q0 24 8 32.5t33 8.5zM220 430q0 -13 8.5 -21.5t21.5 -8.5t22 8.5t9 21.5q0 14 -8.5 22.5t-22.5 8.5q-13 0 -21.5 -9t-8.5 -22z" />
<glyph unicode="&#xe56;" horiz-adv-x="498" d="M60 185q0 21 7.5 29.5t28.5 8.5h147v-45h-133q4 -143 130 -143q76 0 112 43t36 117q0 78 -32.5 119t-121.5 41h-146l-48 145h48l33 -100h113q113 0 158.5 -54t45.5 -151q0 -92 -49 -148.5t-149 -56.5q-98 0 -139 55.5t-41 139.5z" />
<glyph unicode="&#xe57;" horiz-adv-x="606" d="M386 400v-355q64 0 87 25t23 99v331h50v-331q0 -91 -37.5 -130t-122.5 -39h-50v240h-49q-15 0 -22 5.5t-12 18.5q-20 50 -39 75.5t-44 25.5q-27 0 -46.5 -46t-19.5 -129q0 -71 21.5 -113t65.5 -42q35 0 78 30l17 -43q-51 -32 -98 -32q-66 0 -100 52.5t-34 147.5 q0 107 31 163.5t85 56.5q42 0 68.5 -30t55.5 -95h42l15 115h35z" />
<glyph unicode="&#xe58;" horiz-adv-x="498" d="M413 355h-174q-70 0 -99.5 -39t-29.5 -132v-14h86q23 -40 34.5 -59t28 -40t32 -28.5t34.5 -7.5q31 0 47 21t16 55v68h-85v45h94q25 0 33 -8.5t8 -32.5v-72q0 -55 -31.5 -88t-81.5 -33q-51 0 -84.5 32t-72.5 103h-58v-125h-50v184q0 117 43.5 166.5t135.5 49.5h141l32 100 h48z" />
<glyph unicode="&#xe59;" horiz-adv-x="498" d="M54 193q0 101 37 154t99 53h202l33 100h48l-47 -145h-134q34 -35 56 -93l102 -262h-53l-96 248q-21 56 -47 81.5t-64 25.5q-39 0 -62.5 -42.5t-23.5 -119.5q0 -69 23.5 -113.5t74.5 -44.5q34 0 73 19l13 -45q-45 -19 -86 -19q-71 0 -109.5 51.5t-38.5 151.5z" />
<glyph unicode="&#xe5a;" horiz-adv-x="602" d="M402 500v-500h-50v327q-54 -95 -161 -95q-131 0 -131 141q0 66 33 101.5t93 35.5q34 0 74 -14l-11 -43q-34 12 -60 12q-79 0 -79 -92q0 -96 87 -96q57 0 93.5 39t61.5 130l15 54h35zM472 0v500h50v-500h-50z" />
<glyph unicode="&#xe5b;" horiz-adv-x="606" d="M425 311h131v-45h-100l-36 -66h-55l-48 88q-23 -64 -56.5 -100.5t-90.5 -36.5q-53 0 -86.5 35t-33.5 97q0 63 35.5 97.5t96.5 34.5q28 0 50 -6l-15 -45q-15 6 -35 6q-39 0 -60.5 -24t-21.5 -63t18 -63t52 -24q24 0 42.5 12.5t32 37.5t22 47t18.5 56h55l52 -98z" />
<glyph unicode="&#x2000;" horiz-adv-x="465" />
<glyph unicode="&#x2001;" horiz-adv-x="930" />
<glyph unicode="&#x2002;" horiz-adv-x="465" />
<glyph unicode="&#x2003;" horiz-adv-x="930" />
<glyph unicode="&#x2004;" horiz-adv-x="310" />
<glyph unicode="&#x2005;" horiz-adv-x="232" />
<glyph unicode="&#x2006;" horiz-adv-x="155" />
<glyph unicode="&#x2007;" horiz-adv-x="155" />
<glyph unicode="&#x2008;" horiz-adv-x="116" />
<glyph unicode="&#x2009;" horiz-adv-x="186" />
<glyph unicode="&#x200a;" horiz-adv-x="51" />
<glyph unicode="&#x2010;" horiz-adv-x="275" d="M40 273h195v-45h-195v45z" />
<glyph unicode="&#x2011;" horiz-adv-x="275" d="M40 273h195v-45h-195v45z" />
<glyph unicode="&#x2012;" horiz-adv-x="275" d="M40 273h195v-45h-195v45z" />
<glyph unicode="&#x2013;" horiz-adv-x="375" d="M40 273h295v-45h-295v45z" />
<glyph unicode="&#x2014;" horiz-adv-x="552" d="M40 273h472v-45h-472v45z" />
<glyph unicode="&#x2018;" horiz-adv-x="155" d="M125 470h-95v56q0 116 50 184l43 -13q-43 -56 -48 -142h50v-85z" />
<glyph unicode="&#x2019;" horiz-adv-x="155" d="M30 700h95v-56q0 -116 -50 -184l-43 13q44 58 47 142h-49v85z" />
<glyph unicode="&#x201a;" horiz-adv-x="155" d="M30 85h95v-56q0 -117 -50 -184l-43 13q44 59 47 142h-49v85z" />
<glyph unicode="&#x201e;" horiz-adv-x="295" d="M170 85h95v-56q0 -117 -50 -184l-43 13q44 59 47 142h-49v85zM30 85h95v-56q0 -117 -50 -184l-43 13q44 59 47 142h-49v85z" />
<glyph unicode="&#x2020;" horiz-adv-x="390" d="M225 -100h-60v233l21 329l-66 -17h-80v55h80l65 -18l-20 137v81h60v-81l-21 -137l66 18h80v-55h-80l-67 17l22 -329v-233z" />
<glyph unicode="&#x2021;" horiz-adv-x="390" d="M225 274l-22 -136l67 17h80v-55h-80l-66 18l21 -137v-81h-60v81l20 137l-65 -18h-80v55h80l66 -17l-21 136v52l21 136l-66 -17h-80v55h80l65 -18l-20 137v81h60v-81l-21 -137l66 18h80v-55h-80l-67 17l22 -136v-52z" />
<glyph unicode="&#x2022;" horiz-adv-x="284" d="M142 224q-72 0 -72 72t72 72t72 -72t-72 -72z" />
<glyph unicode="&#x2026;" horiz-adv-x="570" d="M58 0v74h74v-74h-74zM248 0v74h74v-74h-74zM438 0v74h74v-74h-74z" />
<glyph unicode="&#x202f;" horiz-adv-x="186" />
<glyph unicode="&#x2030;" horiz-adv-x="1175" d="M134 0l468 700h63l-468 -700h-63zM360 537q0 -81 -42 -127t-113 -46t-113 46t-42 127t42 127t113 46t113 -46t42 -127zM100 537q0 -55 25.5 -89t79.5 -34t79.5 34t25.5 89t-25.5 89t-79.5 34t-79.5 -34t-25.5 -89zM750 163q0 -81 -42 -127t-113 -46t-113 46t-42 127 t42 127t113 46t113 -46t42 -127zM490 163q0 -55 25.5 -89t79.5 -34t79.5 34t25.5 89t-25.5 89t-79.5 34t-79.5 -34t-25.5 -89zM1125 163q0 -81 -42 -127t-113 -46t-113 46t-42 127t42 127t113 46t113 -46t42 -127zM865 163q0 -55 25.5 -89t79.5 -34t79.5 34t25.5 89 t-25.5 89t-79.5 34t-79.5 -34t-25.5 -89z" />
<glyph unicode="&#x2039;" horiz-adv-x="317" d="M277 416l-192 -166l192 -166v-61l-237 205v44l237 205v-61z" />
<glyph unicode="&#x203a;" horiz-adv-x="317" d="M40 23v61l192 166l-192 166v61l237 -205v-44z" />
<glyph unicode="&#x205f;" horiz-adv-x="232" />
<glyph unicode="&#x2070;" horiz-adv-x="300" d="M150 485q80 0 80 155t-80 155t-80 -155t80 -155zM150 440q-67 0 -98.5 48t-31.5 152t31.5 152t98.5 48t98.5 -48t31.5 -152t-31.5 -152t-98.5 -48z" />
<glyph unicode="&#x2074;" horiz-adv-x="300" d="M192 840l40 -24l-163 -253h115v115h50v-115h50v-45h-50v-68h-50v68h-169v45z" />
<glyph unicode="&#x2075;" horiz-adv-x="300" d="M23 546l46 10q4 -35 25 -53t54 -18q35 0 56.5 21.5t21.5 64.5q0 32 -17 53t-50 21q-27 0 -72 -17h-43l10 202h198v-45h-152l-5 -106q39 11 67 11q59 0 86.5 -34t27.5 -84q0 -64 -36 -98t-92 -34q-46 0 -82.5 28t-42.5 78z" />
<glyph unicode="&#x2076;" horiz-adv-x="300" d="M264 785l-37 -34q-25 44 -66 44q-44 0 -67.5 -39.5t-23.5 -108.5q33 43 90 43q50 0 82.5 -32t32.5 -90q0 -53 -29.5 -90.5t-90.5 -37.5q-130 0 -130 185q0 215 139 215q69 0 100 -55zM154 485q37 0 54 24t17 59q0 77 -70 77q-38 0 -56.5 -22.5t-18.5 -55.5q0 -34 18 -58 t56 -24z" />
<glyph unicode="&#x2077;" horiz-adv-x="300" d="M275 830v-25l-150 -355h-52l141 335h-189v45h250z" />
<glyph unicode="&#x2078;" horiz-adv-x="300" d="M150 440q-63 0 -94 32.5t-31 83.5q0 68 60 97q-46 26 -46 84q0 46 27.5 74.5t83.5 28.5t83.5 -28.5t27.5 -74.5q0 -58 -46 -84q60 -29 60 -97q0 -51 -31 -83.5t-94 -32.5zM150 485q38 0 56.5 19.5t18.5 51.5q0 33 -18.5 52.5t-56.5 19.5t-56.5 -19.5t-18.5 -52.5 q0 -32 18.5 -51.5t56.5 -19.5zM150 673q61 0 61 61t-61 61t-61 -61t61 -61z" />
<glyph unicode="&#x2079;" horiz-adv-x="300" d="M36 495l37 34q25 -44 66 -44q44 0 67.5 39.5t23.5 108.5q-33 -43 -90 -43q-50 0 -82.5 32t-32.5 90q0 53 29.5 90.5t90.5 37.5q130 0 130 -185q0 -215 -139 -215q-69 0 -100 55zM146 795q-37 0 -54 -24t-17 -59q0 -77 70 -77q38 0 56.5 22.5t18.5 55.5q0 34 -18 58 t-56 24z" />
<glyph unicode="&#x2080;" horiz-adv-x="300" d="M150 -105q80 0 80 155t-80 155t-80 -155t80 -155zM150 -150q-67 0 -98.5 48t-31.5 152t31.5 152t98.5 48t98.5 -48t31.5 -152t-31.5 -152t-98.5 -48z" />
<glyph unicode="&#x2081;" horiz-adv-x="300" d="M125 250h50v-345h82v-45h-214v45h82v293l-82 -37l-18 43z" />
<glyph unicode="&#x2082;" horiz-adv-x="300" d="M81 160l-49 12q8 37 39.5 57.5t75.5 20.5q50 0 83 -26t33 -74q0 -40 -20.5 -72t-71.5 -84l-86 -87h195v-47h-260v47l109 111q50 51 67 75.5t17 56.5q0 26 -18.5 40.5t-48.5 14.5q-56 0 -65 -45z" />
<glyph unicode="&#x2083;" horiz-adv-x="300" d="M19 -55l50 15q3 -30 25.5 -47.5t54.5 -17.5q35 0 58 18.5t23 53.5q0 29 -21.5 50t-62.5 21h-44v45h46q36 0 52 20.5t16 48.5q0 26 -20 39.5t-49 13.5q-27 0 -46 -11.5t-22 -33.5l-50 11q7 38 40 58.5t78 20.5q51 0 85 -24t34 -70q0 -66 -50 -94q64 -26 64 -94 q0 -57 -36.5 -87.5t-93.5 -30.5q-51 0 -87 24.5t-44 70.5z" />
<glyph unicode="&#x2084;" horiz-adv-x="300" d="M192 250l40 -24l-163 -253h115v115h50v-115h50v-45h-50v-68h-50v68h-169v45z" />
<glyph unicode="&#x2085;" horiz-adv-x="300" d="M23 -44l46 10q4 -35 25 -53t54 -18q35 0 56.5 21.5t21.5 64.5q0 32 -17 53t-50 21q-27 0 -72 -17h-43l10 202h198v-45h-152l-5 -106q39 11 67 11q59 0 86.5 -34t27.5 -84q0 -64 -36 -98t-92 -34q-46 0 -82.5 28t-42.5 78z" />
<glyph unicode="&#x2086;" horiz-adv-x="300" d="M264 195l-37 -34q-25 44 -66 44q-44 0 -67.5 -39.5t-23.5 -108.5q33 43 90 43q50 0 82.5 -32t32.5 -90q0 -53 -29.5 -90.5t-90.5 -37.5q-130 0 -130 185q0 215 139 215q69 0 100 -55zM154 -105q37 0 54 24t17 59q0 77 -70 77q-38 0 -56.5 -22.5t-18.5 -55.5q0 -34 18 -58 t56 -24z" />
<glyph unicode="&#x2087;" horiz-adv-x="300" d="M275 240v-25l-150 -355h-52l141 335h-189v45h250z" />
<glyph unicode="&#x2088;" horiz-adv-x="300" d="M150 -150q-63 0 -94 32.5t-31 83.5q0 68 60 97q-46 26 -46 84q0 46 27.5 74.5t83.5 28.5t83.5 -28.5t27.5 -74.5q0 -58 -46 -84q60 -28 60 -97q0 -51 -31 -83.5t-94 -32.5zM150 -105q38 0 56.5 19.5t18.5 51.5q0 33 -18.5 52.5t-56.5 19.5t-56.5 -19.5t-18.5 -52.5 q0 -32 18.5 -51.5t56.5 -19.5zM150 83q61 0 61 61t-61 61t-61 -61t61 -61z" />
<glyph unicode="&#x2089;" horiz-adv-x="300" d="M36 -95l37 34q25 -44 66 -44q44 0 67.5 39.5t23.5 108.5q-33 -43 -90 -43q-50 0 -82.5 32t-32.5 90q0 53 29.5 90.5t90.5 37.5q130 0 130 -185q0 -215 -139 -215q-69 0 -100 55zM146 205q-37 0 -54 -24t-17 -59q0 -77 70 -77q38 0 56.5 22.5t18.5 55.5q0 34 -18 58 t-56 24z" />
<glyph unicode="&#x20ac;" horiz-adv-x="534" d="M15 389v45h62q15 137 79 206.5t172 69.5q123 0 190 -91l-37 -30q-51 76 -153 76q-177 0 -201 -231h245v-45h-248q-1 -13 -1 -39q0 -28 1 -41h248v-45h-245q25 -229 201 -229q104 0 154 77l36 -30q-66 -92 -190 -92q-107 0 -171 69t-80 205h-62v45h59q-1 13 -1 41v39h-58z " />
<glyph unicode="&#x2126;" horiz-adv-x="760" d="M692 391q0 -117 -43 -194.5t-125 -146.5h186v-50h-270v45q67 48 107.5 92t67.5 108.5t27 145.5q0 131 -75 202.5t-187 71.5t-187 -71.5t-75 -202.5q0 -81 27 -145.5t67.5 -108.5t107.5 -92v-45h-270v50h185q-82 68 -124.5 146t-42.5 195q0 152 90 235.5t222 83.5 t222 -83.5t90 -235.5z" />
<glyph unicode="&#x2153;" horiz-adv-x="735" d="M122 710h50v-345h82v-45h-214v45h82v293l-82 -37l-18 43zM590 700h59l-491 -700h-59zM451 85l50 15q3 -30 25.5 -47.5t54.5 -17.5q35 0 58 18.5t23 53.5q0 29 -21.5 50t-62.5 21h-44v45h46q36 0 52 20.5t16 48.5q0 26 -20 39.5t-49 13.5q-27 0 -46 -11.5t-22 -33.5 l-50 11q7 38 40 58.5t78 20.5q51 0 85 -24t34 -70q0 -66 -50 -94q64 -26 64 -94q0 -57 -36.5 -87.5t-93.5 -30.5q-51 0 -87 24.5t-44 70.5z" />
<glyph unicode="&#x2154;" horiz-adv-x="735" d="M599 700h59l-491 -700h-59zM81 620l-49 12q8 37 39.5 57.5t75.5 20.5q50 0 83 -26t33 -74q0 -40 -20.5 -72t-71.5 -84l-86 -87h195v-47h-260v47l109 111q50 51 67 75.5t17 56.5q0 26 -18.5 40.5t-48.5 14.5q-56 0 -65 -45zM451 85l50 15q3 -30 25.5 -47.5t54.5 -17.5 q35 0 58 18.5t23 53.5q0 29 -21.5 50t-62.5 21h-44v45h46q36 0 52 20.5t16 48.5q0 26 -20 39.5t-49 13.5q-27 0 -46 -11.5t-22 -33.5l-50 11q7 38 40 58.5t78 20.5q51 0 85 -24t34 -70q0 -66 -50 -94q64 -26 64 -94q0 -57 -36.5 -87.5t-93.5 -30.5q-51 0 -87 24.5t-44 70.5z " />
<glyph unicode="&#x2155;" horiz-adv-x="735" d="M593 700h59l-491 -700h-59zM125 710h50v-345h82v-45h-214v45h82v293l-82 -37l-18 43zM458 96l46 10q4 -35 25 -53t54 -18q35 0 56.5 21.5t21.5 64.5q0 32 -17 53t-50 21q-27 0 -72 -17h-43l10 202h198v-45h-152l-5 -106q39 11 67 11q59 0 86.5 -34t27.5 -84 q0 -64 -36 -98t-92 -34q-46 0 -82.5 28t-42.5 78z" />
<glyph unicode="&#x2156;" horiz-adv-x="735" d="M458 96l46 10q4 -35 25 -53t54 -18q35 0 56.5 21.5t21.5 64.5q0 32 -17 53t-50 21q-27 0 -72 -17h-43l10 202h198v-45h-152l-5 -106q39 11 67 11q59 0 86.5 -34t27.5 -84q0 -64 -36 -98t-92 -34q-46 0 -82.5 28t-42.5 78zM599 700h59l-491 -700h-59zM81 620l-49 12 q8 37 39.5 57.5t75.5 20.5q50 0 83 -26t33 -74q0 -40 -20.5 -72t-71.5 -84l-86 -87h195v-47h-260v47l109 111q50 51 67 75.5t17 56.5q0 26 -18.5 40.5t-48.5 14.5q-56 0 -65 -45z" />
<glyph unicode="&#x2157;" horiz-adv-x="735" d="M458 96l46 10q4 -35 25 -53t54 -18q35 0 56.5 21.5t21.5 64.5q0 32 -17 53t-50 21q-27 0 -72 -17h-43l10 202h198v-45h-152l-5 -106q39 11 67 11q59 0 86.5 -34t27.5 -84q0 -64 -36 -98t-92 -34q-46 0 -82.5 28t-42.5 78zM585 700h59l-491 -700h-59zM19 405l50 15 q3 -30 25.5 -47.5t54.5 -17.5q35 0 58 18.5t23 53.5q0 29 -21.5 50t-62.5 21h-44v45h46q36 0 52 20.5t16 48.5q0 26 -20 39.5t-49 13.5q-27 0 -46 -11.5t-22 -33.5l-50 11q7 38 40 58.5t78 20.5q51 0 85 -24t34 -70q0 -66 -50 -94q64 -26 64 -94q0 -57 -36.5 -87.5 t-93.5 -30.5q-51 0 -87 24.5t-44 70.5z" />
<glyph unicode="&#x2158;" horiz-adv-x="735" d="M458 96l46 10q4 -35 25 -53t54 -18q35 0 56.5 21.5t21.5 64.5q0 32 -17 53t-50 21q-27 0 -72 -17h-43l10 202h198v-45h-152l-5 -106q39 11 67 11q59 0 86.5 -34t27.5 -84q0 -64 -36 -98t-92 -34q-46 0 -82.5 28t-42.5 78zM583 700h59l-491 -700h-59zM192 710l40 -24 l-163 -253h115v115h50v-115h50v-45h-50v-68h-50v68h-169v45z" />
<glyph unicode="&#x2159;" horiz-adv-x="735" d="M603 700h59l-491 -700h-59zM699 335l-37 -34q-25 44 -66 44q-44 0 -67.5 -39.5t-23.5 -108.5q33 43 90 43q50 0 82.5 -32t32.5 -90q0 -53 -29.5 -90.5t-90.5 -37.5q-130 0 -130 185q0 215 139 215q69 0 100 -55zM589 35q37 0 54 24t17 59q0 77 -70 77q-38 0 -56.5 -22.5 t-18.5 -55.5q0 -34 18 -58t56 -24zM122 710h50v-345h82v-45h-214v45h82v293l-82 -37l-18 43z" />
<glyph unicode="&#x215a;" horiz-adv-x="735" d="M593 700h59l-491 -700h-59zM699 335l-37 -34q-25 44 -66 44q-44 0 -67.5 -39.5t-23.5 -108.5q33 43 90 43q50 0 82.5 -32t32.5 -90q0 -53 -29.5 -90.5t-90.5 -37.5q-130 0 -130 185q0 215 139 215q69 0 100 -55zM589 35q37 0 54 24t17 59q0 77 -70 77q-38 0 -56.5 -22.5 t-18.5 -55.5q0 -34 18 -58t56 -24zM23 416l46 10q4 -35 25 -53t54 -18q35 0 56.5 21.5t21.5 64.5q0 32 -17 53t-50 21q-27 0 -72 -17h-43l10 202h198v-45h-152l-5 -106q39 11 67 11q59 0 86.5 -34t27.5 -84q0 -64 -36 -98t-92 -34q-46 0 -82.5 28t-42.5 78z" />
<glyph unicode="&#x215b;" horiz-adv-x="735" d="M594 700h59l-491 -700h-59zM585 -10q-63 0 -94 32.5t-31 83.5q0 68 60 97q-46 26 -46 84q0 46 27.5 74.5t83.5 28.5t83.5 -28.5t27.5 -74.5q0 -58 -46 -84q60 -28 60 -97q0 -51 -31 -83.5t-94 -32.5zM585 35q38 0 56.5 19.5t18.5 51.5q0 33 -18.5 52.5t-56.5 19.5 t-56.5 -19.5t-18.5 -52.5q0 -32 18.5 -51.5t56.5 -19.5zM585 223q61 0 61 61t-61 61t-61 -61t61 -61zM122 710h50v-345h82v-45h-214v45h82v293l-82 -37l-18 43z" />
<glyph unicode="&#x215c;" horiz-adv-x="735" d="M590 700h59l-491 -700h-59zM585 -10q-63 0 -94 32.5t-31 83.5q0 68 60 97q-46 26 -46 84q0 46 27.5 74.5t83.5 28.5t83.5 -28.5t27.5 -74.5q0 -58 -46 -84q60 -28 60 -97q0 -51 -31 -83.5t-94 -32.5zM585 35q38 0 56.5 19.5t18.5 51.5q0 33 -18.5 52.5t-56.5 19.5 t-56.5 -19.5t-18.5 -52.5q0 -32 18.5 -51.5t56.5 -19.5zM585 223q61 0 61 61t-61 61t-61 -61t61 -61zM19 405l50 15q3 -30 25.5 -47.5t54.5 -17.5q35 0 58 18.5t23 53.5q0 29 -21.5 50t-62.5 21h-44v45h46q36 0 52 20.5t16 48.5q0 26 -20 39.5t-49 13.5q-27 0 -46 -11.5 t-22 -33.5l-50 11q7 38 40 58.5t78 20.5q51 0 85 -24t34 -70q0 -66 -50 -94q64 -26 64 -94q0 -57 -36.5 -87.5t-93.5 -30.5q-51 0 -87 24.5t-44 70.5z" />
<glyph unicode="&#x215d;" horiz-adv-x="735" d="M590 700h59l-491 -700h-59zM585 -10q-63 0 -94 32.5t-31 83.5q0 68 60 97q-46 26 -46 84q0 46 27.5 74.5t83.5 28.5t83.5 -28.5t27.5 -74.5q0 -58 -46 -84q60 -28 60 -97q0 -51 -31 -83.5t-94 -32.5zM585 35q38 0 56.5 19.5t18.5 51.5q0 33 -18.5 52.5t-56.5 19.5 t-56.5 -19.5t-18.5 -52.5q0 -32 18.5 -51.5t56.5 -19.5zM585 223q61 0 61 61t-61 61t-61 -61t61 -61zM23 416l46 10q4 -35 25 -53t54 -18q35 0 56.5 21.5t21.5 64.5q0 32 -17 53t-50 21q-27 0 -72 -17h-43l10 202h198v-45h-152l-5 -106q39 11 67 11q59 0 86.5 -34t27.5 -84 q0 -64 -36 -98t-92 -34q-46 0 -82.5 28t-42.5 78z" />
<glyph unicode="&#x215e;" horiz-adv-x="735" d="M550 700h59l-491 -700h-59zM585 -10q-63 0 -94 32.5t-31 83.5q0 68 60 97q-46 26 -46 84q0 46 27.5 74.5t83.5 28.5t83.5 -28.5t27.5 -74.5q0 -58 -46 -84q60 -28 60 -97q0 -51 -31 -83.5t-94 -32.5zM585 35q38 0 56.5 19.5t18.5 51.5q0 33 -18.5 52.5t-56.5 19.5 t-56.5 -19.5t-18.5 -52.5q0 -32 18.5 -51.5t56.5 -19.5zM585 223q61 0 61 61t-61 61t-61 -61t61 -61zM275 700v-25l-150 -355h-52l141 335h-189v45h250z" />
<glyph unicode="&#x215f;" horiz-adv-x="735" d="M122 710h50v-345h82v-45h-214v45h82v293l-82 -37l-18 43zM590 700h59l-491 -700h-59z" />
<glyph unicode="&#x2206;" horiz-adv-x="602" d="M582 0h-562l281 740zM301 602l-210 -552h419z" />
<glyph unicode="&#x220f;" horiz-adv-x="570" d="M105 655h-85v45h530v-45h-85v-755h-50v755h-260v-755h-50v755z" />
<glyph unicode="&#x2211;" horiz-adv-x="490" d="M50 0v50l259 300l-259 300v50h390v-50h-322l237 -274v-52l-237 -274h322v-50h-390z" />
<glyph unicode="&#x2212;" horiz-adv-x="440" d="M40 345h360v-50h-360v50z" />
<glyph unicode="&#x2215;" horiz-adv-x="550" d="M491 700h59l-491 -700h-59z" />
<glyph unicode="&#x221a;" horiz-adv-x="508" d="M456 730h52l-250 -730h-46l-103 300h-79v50h114l91 -265z" />
<glyph unicode="&#x221e;" horiz-adv-x="550" d="M383 253q-71 0 -108 47q-39 -47 -107 -47q-62 0 -95 34t-33 94q0 61 33 95t95 34q69 0 107 -48q36 48 108 48q61 0 94 -34t33 -95q0 -60 -33 -94t-94 -34zM300 381q0 -36 22.5 -57t60.5 -21t57.5 20.5t19.5 57.5t-19.5 58t-57.5 21t-60.5 -21t-22.5 -58zM90 381 q0 -37 20 -57.5t58 -20.5t60 21t22 57q0 37 -22 58t-60 21t-58 -21t-20 -58z" />
<glyph unicode="&#x222b;" horiz-adv-x="345" d="M162 72q0 59 -14.5 248t-14.5 247q0 173 113 173q30 0 66 -10l-6 -44q-33 10 -57 10q-39 0 -52.5 -30.5t-13.5 -98.5q0 -54 14.5 -241.5t14.5 -253.5q0 -172 -114 -172q-29 0 -65 10l6 44q33 -10 57 -10q39 0 52.5 30t13.5 98z" />
<glyph unicode="&#x2248;" horiz-adv-x="440" d="M129 393q-39 0 -39 -55h-50q0 45 23.5 75t65.5 30q34 0 97.5 -27.5t84.5 -27.5q39 0 39 55h50q0 -45 -23.5 -75t-65.5 -30q-34 0 -97.5 27.5t-84.5 27.5zM129 253q-39 0 -39 -55h-50q0 45 23.5 75t65.5 30q34 0 97.5 -27.5t84.5 -27.5q39 0 39 55h50q0 -45 -23.5 -75 t-65.5 -30q-34 0 -97.5 27.5t-84.5 27.5z" />
<glyph unicode="&#x2260;" horiz-adv-x="440" d="M40 425h207l40 75h55l-40 -75h98v-50h-124l-58 -110h182v-50h-208l-39 -75h-55l39 75h-97v50h123l58 110h-181v50z" />
<glyph unicode="&#x2264;" horiz-adv-x="440" d="M400 456l-287 -133l287 -133v-54l-360 167v40l360 167v-54zM40 50h360v-50h-360v50z" />
<glyph unicode="&#x2265;" horiz-adv-x="440" d="M40 136v51l290 134l-290 135v54l360 -167v-40zM40 50h360v-50h-360v50z" />
<glyph unicode="&#x25ca;" horiz-adv-x="436" d="M412 365l-194 -375l-194 375l194 375zM79 365l139 -268l138 268l-138 268z" />
<glyph unicode="&#x25fc;" horiz-adv-x="500" d="M0 500h500v-500h-500v500z" />
<glyph unicode="&#xf700;" horiz-adv-x="503" d="M423 291v-87q0 -101 -42 -152.5t-142 -51.5h-66l-58 180h-50v45h89l58 -180h27q73 0 103.5 37.5t30.5 121.5v81h-295v33q0 92 51.5 142t151.5 50q65 0 149 -22l-12 -45q-78 22 -136 22q-147 0 -154 -135h256q23 0 31 -8t8 -31z" />
<glyph unicode="&#xf701;" d="M-498 580v45h318l-20 -45h-298z" />
<glyph unicode="&#xf702;" d="M-180 580h-318l20 45h248v85h50v-130z" />
<glyph unicode="&#xf703;" d="M-245 580h-253l20 45h170q-2 12 -2 20q0 31 17.5 48t47.5 17t47.5 -17t17.5 -48t-17.5 -48t-47.5 -17zM-245 670q-25 0 -25 -25t25 -25t25 25t-25 25z" />
<glyph unicode="&#xf704;" d="M-180 580h-318l20 45h148v85h50v-85h50v85h50v-130z" />
<glyph unicode="&#xf705;" d="M-230 580v130h50v-130h-50z" />
<glyph unicode="&#xf706;" d="M-242 668v-43h232l-20 -45h-262v85h-60v45h66q27 0 35.5 -8.5t8.5 -33.5z" />
<glyph unicode="&#xf707;" d="M-320 580v25q0 34 -17 50t-44 16q-32 0 -32 -23q0 -12 8 -17.5t29 -5.5h36l-20 -45h-24q-74 0 -74 68t64 68q46 0 74 -32l7 26h38v-85q27 0 38.5 7t11.5 31v47h45v-47q0 -83 -90 -83h-50z" />
<glyph unicode="&#xf708;" d="M-180 622h-50v-42h-50v42h-50v45h50v43h50v-43h50v-45z" />
<glyph unicode="&#xf709;" d="M-30 665h-159q-46 0 -58.5 -14.5t-12.5 -65.5h-50q0 73 23 99t98 26h179z" />
<glyph unicode="&#xf70a;" d="M-130 580v130h50v-130h-50z" />
<glyph unicode="&#xf70b;" d="M-242 668v-43h212l-20 -45h-242v85h-60v45h66q27 0 35.5 -8.5t8.5 -33.5z" />
<glyph unicode="&#xf70c;" d="M-252 580v25q0 34 -17 50t-44 16q-32 0 -32 -23q0 -12 8 -17.5t29 -5.5h36l-20 -45h-24q-74 0 -74 68t64 68q46 0 74 -32l7 26h38v-85q27 0 38.5 7t11.5 31v47h45v-47q0 -83 -90 -83h-50z" />
<glyph unicode="&#xf70d;" d="M-80 622h-50v-42h-50v42h-50v45h50v43h50v-43h50v-45z" />
<glyph unicode="&#xf70e;" d="M-57 665h-117q-46 0 -58.5 -14.5t-12.5 -65.5h-50q0 73 23 99t98 26h137z" />
<glyph unicode="&#xf70f;" horiz-adv-x="850" d="M400 137v178q0 79 -32 114.5t-114 35.5q-46 0 -112 -15l53 -103q-40 -22 -52.5 -51t-12.5 -88v-163h90v-45h-101q-23 0 -31 8t-8 31v181q0 59 9.5 86.5t44.5 53.5l-63 122q109 28 184 28q108 0 151.5 -47t43.5 -148v-178q0 -52 39 -77t96 -25q56 0 95.5 25t39.5 77v363 h50v-363q0 -73 -54 -110t-131 -37t-131 36.5t-54 110.5z" />
<glyph unicode="&#xf710;" d="M-298 700v-75h288l-20 -45h-278q-24 0 -32 7t-8 30v83h50z" />
<glyph unicode="&#xf711;" d="M-255 665q-30 0 -30 -30t30 -30t30 30t-30 30zM-255 560q-35 0 -55 19.5t-20 55.5t20 55.5t55 19.5t55 -19.5t20 -55.5t-20 -55.5t-55 -19.5z" />
<glyph unicode="&#xf712;" d="M-80 688h-215q-55 0 -55 -30q0 -16 18.5 -27.5t59.5 -11.5h42v40h50v-32q0 -53 -74 -53q-58 0 -96 32l-10 -26h-40v59q0 53 24 73.5t81 20.5h235z" />
<glyph unicode="&#xf713;" d="M-227 740v117h45v-117h-45z" />
<glyph unicode="&#xf714;" d="M-250 820v-40h188l-18 -40h-215v77h-50v40h56q24 0 31.5 -7.5t7.5 -29.5z" />
<glyph unicode="&#xf715;" d="M-219 740v22q0 31 -15.5 45.5t-39.5 14.5q-29 0 -29 -21t33 -21h30l-18 -40h-19q-71 0 -71 61t62 61q43 0 67 -29l6 24h39v-77q22 0 29 6t7 28v43h45v-45q0 -42 -19 -57t-62 -15h-45z" />
<glyph unicode="&#xf716;" d="M-138 778h-45v-38h-45v38h-45v41h45v38h45v-38h45v-41z" />
<glyph unicode="&#xf717;" d="M-80 772h-146q-42 0 -53 -13t-11 -59h-45q0 66 20.5 89.5t88.5 23.5h164z" />
<glyph unicode="&#xf718;" d="M-85 -370h-50v95h-55v45h68q21 0 29 -8t8 -33v-99z" />
<glyph unicode="&#xf719;" d="M-171 -370q-86 0 -86 74v66h50v-65q0 -30 36 -30t36 30v65h50v-66q0 -74 -86 -74z" />
<glyph unicode="&#xf71a;" d="M-201 -288q0 24 17 41t41 17t41 -17t17 -41t-17 -41t-41 -17t-41 17t-17 41z" />
<glyph unicode="&#xf71d;" horiz-adv-x="600" d="M520 313v-313h-50l-170 319l-170 -319h-50v500h50v-395l155 292h30l155 -290v206q0 51 -14 67.5t-60 16.5h-30v26l98 117h64l-85 -101q77 -15 77 -126z" />
<glyph horiz-adv-x="353" d="M-255 665q-30 0 -30 -30t30 -30t30 30t-30 30zM-255 560q-35 0 -55 19.5t-20 55.5t20 55.5t55 19.5t55 -19.5t20 -55.5t-20 -55.5t-55 -19.5zM273 351v-351h-50v351q0 114 -91 114q-35 0 -89 -19l-13 43q56 21 104 21q64 0 101.5 -39.5t37.5 -119.5z" />
<glyph horiz-adv-x="524" d="M-180 665h-69q-36 0 -36 -30t30 -30t30 41l45 -11q0 -36 -20 -55.5t-55 -19.5t-55 19.5t-20 55.5q0 75 81 75h24q13 52 65 70l42 -25q-36 -13 -49 -32t-13 -58z" />
<glyph horiz-adv-x="607" d="M99 380l190 47l-148 31q-43 9 -71 -8l-13 -9zM527 348l-76 -30q23 -9 37 -29t14 -44q0 -31 -23 -54t-54 -23q-20 0 -37 9t-23 21v-170q78 20 129 84t51 146q0 49 -18 90zM238 103v297l-142 -36q-24 -48 -24 -106q0 -56 25 -105.5t68 -82.5zM348 -55v61q-20 -3 -40 -3 q-106 0 -180.5 75t-74.5 180q0 64 31 115l-47 71l80 55q16 12 50 9l70 -6v30q0 42 38 59l90 40v-17l-49 -23v-78l-39 -16l71 -7v78l17 8v-88l215 -22v-6l-90 -40q-59 -26 -113 -12l-12 3v-84l-17 -15v102l-32 7v-262q0 -38 -39 -57l-96 -43q59 -38 127 -38q14 0 40 4v205 l17 15q0 -25 17.5 -42.5t42.5 -17.5t42.5 17.5t17.5 42.5t-17.5 42.5t-42.5 17.5v17l111 47q27 -41 27 -111q0 -90 -56 -159.5t-142 -88.5v-49l-16 -17zM123 258q0 -95 79 -152l-18 -9q-37 28 -58.5 70.5t-21.5 90.5q0 52 24 98l29 10q-34 -48 -34 -108zM148 471l232 -46 q55 -11 103 10l49 22l-368 38q-21 3 -39 -7l-20 -14q16 3 43 -3zM253 404v-295l21 10q26 10 26 40v257zM300 523v60l-21 -9q-26 -12 -26 -40v-29zM425 212q-14 0 -23.5 9.5t-9.5 23.5t9.5 23.5t23.5 9.5q13 0 22.5 -9.5t9.5 -23.5t-9.5 -23.5t-22.5 -9.5z" />
<glyph horiz-adv-x="560" d="M90 350q0 -163 40.5 -239t149.5 -76t149.5 76t40.5 239t-40.5 239t-149.5 76t-149.5 -76t-40.5 -239zM520 350q0 -189 -54.5 -274.5t-185.5 -85.5t-185.5 85.5t-54.5 274.5t54.5 274.5t185.5 85.5t185.5 -85.5t54.5 -274.5z" />
<glyph horiz-adv-x="480" d="M234 710h31v-665h150v-45h-350v45h150v605l-167 -76l-15 44z" />
<glyph horiz-adv-x="523" d="M95 528l-49 11q8 85 66 128t148 43q91 0 147.5 -45t56.5 -132q0 -72 -39 -130t-136 -158l-193 -198h397v-47h-463v47l225 232q89 91 124 143t35 111q0 64 -41.5 98t-112.5 34q-72 0 -116.5 -34t-48.5 -103z" />
<glyph horiz-adv-x="552" d="M45 178l49 12q5 -75 56.5 -115t128.5 -40q82 0 130 43t48 127q0 138 -189 138h-86v45h89q89 0 127 41.5t38 105.5t-45.5 97t-116.5 33q-66 0 -110.5 -28.5t-50.5 -83.5l-49 10q10 71 68.5 109t141.5 38q91 0 151.5 -43.5t60.5 -126.5q0 -121 -99 -171q120 -47 120 -167 q0 -104 -62.5 -158t-165.5 -54q-95 0 -160 49t-74 139z" />
<glyph horiz-adv-x="550" d="M366 710l43 -22l-322 -503h278v315h50v-315h105v-45h-105v-140h-50v140h-335v45z" />
<glyph horiz-adv-x="541" d="M30 183l48 15q7 -79 56 -121t124 -42q81 0 132 50t51 146q0 75 -37 121.5t-122 46.5q-62 0 -162 -38h-49l16 339h360v-47h-313l-12 -241q94 33 161 33q75 0 123.5 -32t66.5 -78t18 -104q0 -116 -66 -178.5t-167 -62.5q-85 0 -150.5 51t-77.5 142z" />
<glyph horiz-adv-x="549" d="M474 610l-40 -30q-50 85 -142 85q-195 0 -195 -339q59 114 186 114q97 0 156.5 -55.5t59.5 -159.5q0 -45 -12 -85t-36 -74.5t-67 -55t-100 -20.5q-234 0 -234 333q0 387 242 387q126 0 182 -100zM284 35q84 0 124.5 53.5t40.5 129.5q0 75 -40 126t-125 51t-125 -51 t-40 -126q0 -76 40.5 -129.5t124.5 -53.5z" />
<glyph horiz-adv-x="522" d="M211 0h-55l276 653h-407v47h472v-24z" />
<glyph horiz-adv-x="532" d="M266 -10q-114 0 -170 55t-56 147q0 62 29.5 109.5t85.5 71.5q-90 47 -90 156q0 82 50 131.5t151 49.5t151 -49.5t50 -131.5q0 -109 -91 -156q57 -24 86.5 -71.5t29.5 -109.5q0 -92 -56 -147t-170 -55zM266 35q90 0 133 42t43 115q0 72 -43 114t-133 42t-133 -42t-43 -114 q0 -73 43 -115t133 -42zM266 393q78 0 114.5 36.5t36.5 99.5t-36.5 99.5t-114.5 36.5t-114.5 -36.5t-36.5 -99.5t36.5 -99.5t114.5 -36.5z" />
<glyph horiz-adv-x="549" d="M75 90l40 30q50 -85 142 -85q195 0 195 339q-63 -114 -186 -114q-97 0 -156.5 55.5t-59.5 159.5q0 45 12 85t36 74.5t67 55t100 20.5q234 0 234 -333q0 -387 -242 -387q-126 0 -182 100zM265 665q-84 0 -124.5 -53.5t-40.5 -129.5q0 -75 40 -126t125 -51t125 51t40 126 q0 76 -40.5 129.5t-124.5 53.5z" />
<glyph horiz-adv-x="300" d="M150 355q80 0 80 155t-80 155t-80 -155t80 -155zM150 310q-67 0 -98.5 48t-31.5 152t31.5 152t98.5 48t98.5 -48t31.5 -152t-31.5 -152t-98.5 -48z" />
<glyph horiz-adv-x="300" d="M125 710h50v-345h82v-45h-214v45h82v293l-82 -37l-18 43z" />
<glyph horiz-adv-x="300" d="M81 620l-49 12q8 37 39.5 57.5t75.5 20.5q50 0 83 -26t33 -74q0 -40 -20.5 -72t-71.5 -84l-86 -87h195v-47h-260v47l109 111q50 51 67 75.5t17 56.5q0 26 -18.5 40.5t-48.5 14.5q-56 0 -65 -45z" />
<glyph horiz-adv-x="300" d="M19 405l50 15q3 -30 25.5 -47.5t54.5 -17.5q35 0 58 18.5t23 53.5q0 29 -21.5 50t-62.5 21h-44v45h46q36 0 52 20.5t16 48.5q0 26 -20 39.5t-49 13.5q-27 0 -46 -11.5t-22 -33.5l-50 11q7 38 40 58.5t78 20.5q51 0 85 -24t34 -70q0 -66 -50 -94q64 -26 64 -94 q0 -57 -36.5 -87.5t-93.5 -30.5q-51 0 -87 24.5t-44 70.5z" />
<glyph horiz-adv-x="300" d="M192 710l40 -24l-163 -253h115v115h50v-115h50v-45h-50v-68h-50v68h-169v45z" />
<glyph horiz-adv-x="300" d="M23 416l46 10q4 -35 25 -53t54 -18q35 0 56.5 21.5t21.5 64.5q0 32 -17 53t-50 21q-27 0 -72 -17h-43l10 202h198v-45h-152l-5 -106q39 11 67 11q59 0 86.5 -34t27.5 -84q0 -64 -36 -98t-92 -34q-46 0 -82.5 28t-42.5 78z" />
<glyph horiz-adv-x="300" d="M264 655l-37 -34q-25 44 -66 44q-44 0 -67.5 -39.5t-23.5 -108.5q33 43 90 43q50 0 82.5 -32t32.5 -90q0 -53 -29.5 -90.5t-90.5 -37.5q-130 0 -130 185q0 215 139 215q69 0 100 -55zM154 355q37 0 54 24t17 59q0 77 -70 77q-38 0 -56.5 -22.5t-18.5 -55.5q0 -34 18 -58 t56 -24z" />
<glyph horiz-adv-x="300" d="M275 700v-25l-150 -355h-52l141 335h-189v45h250z" />
<glyph horiz-adv-x="300" d="M150 310q-63 0 -94 32.5t-31 83.5q0 68 60 97q-46 26 -46 84q0 46 27.5 74.5t83.5 28.5t83.5 -28.5t27.5 -74.5q0 -58 -46 -84q60 -29 60 -97q0 -51 -31 -83.5t-94 -32.5zM150 355q38 0 56.5 19.5t18.5 51.5q0 33 -18.5 52.5t-56.5 19.5t-56.5 -19.5t-18.5 -52.5 q0 -32 18.5 -51.5t56.5 -19.5zM150 543q61 0 61 61t-61 61t-61 -61t61 -61z" />
<glyph horiz-adv-x="300" d="M36 365l37 34q25 -44 66 -44q44 0 67.5 39.5t23.5 108.5q-33 -43 -90 -43q-50 0 -82.5 32t-32.5 90q0 53 29.5 90.5t90.5 37.5q130 0 130 -185q0 -215 -139 -215q-69 0 -100 55zM146 665q-37 0 -54 -24t-17 -59q0 -77 70 -77q38 0 56.5 22.5t18.5 55.5q0 34 -18 58 t-56 24z" />
<glyph horiz-adv-x="300" d="M150 35q80 0 80 155t-80 155t-80 -155t80 -155zM150 -10q-67 0 -98.5 48t-31.5 152t31.5 152t98.5 48t98.5 -48t31.5 -152t-31.5 -152t-98.5 -48z" />
<glyph horiz-adv-x="300" d="M125 390h50v-345h82v-45h-214v45h82v293l-82 -37l-18 43z" />
<glyph horiz-adv-x="300" d="M81 300l-49 12q8 37 39.5 57.5t75.5 20.5q50 0 83 -26t33 -74q0 -40 -20.5 -72t-71.5 -84l-86 -87h195v-47h-260v47l109 111q50 51 67 75.5t17 56.5q0 26 -18.5 40.5t-48.5 14.5q-56 0 -65 -45z" />
<glyph horiz-adv-x="300" d="M19 85l50 15q3 -30 25.5 -47.5t54.5 -17.5q35 0 58 18.5t23 53.5q0 29 -21.5 50t-62.5 21h-44v45h46q36 0 52 20.5t16 48.5q0 26 -20 39.5t-49 13.5q-27 0 -46 -11.5t-22 -33.5l-50 11q7 38 40 58.5t78 20.5q51 0 85 -24t34 -70q0 -66 -50 -94q64 -26 64 -94 q0 -57 -36.5 -87.5t-93.5 -30.5q-51 0 -87 24.5t-44 70.5z" />
<glyph horiz-adv-x="300" d="M192 390l40 -24l-163 -253h115v115h50v-115h50v-45h-50v-68h-50v68h-169v45z" />
<glyph horiz-adv-x="300" d="M23 96l46 10q4 -35 25 -53t54 -18q35 0 56.5 21.5t21.5 64.5q0 32 -17 53t-50 21q-27 0 -72 -17h-43l10 202h198v-45h-152l-5 -106q39 11 67 11q59 0 86.5 -34t27.5 -84q0 -64 -36 -98t-92 -34q-46 0 -82.5 28t-42.5 78z" />
<glyph horiz-adv-x="300" d="M264 335l-37 -34q-25 44 -66 44q-44 0 -67.5 -39.5t-23.5 -108.5q33 43 90 43q50 0 82.5 -32t32.5 -90q0 -53 -29.5 -90.5t-90.5 -37.5q-130 0 -130 185q0 215 139 215q69 0 100 -55zM154 35q37 0 54 24t17 59q0 77 -70 77q-38 0 -56.5 -22.5t-18.5 -55.5q0 -34 18 -58 t56 -24z" />
<glyph horiz-adv-x="300" d="M275 380v-25l-150 -355h-52l141 335h-189v45h250z" />
<glyph horiz-adv-x="300" d="M150 -10q-63 0 -94 32.5t-31 83.5q0 68 60 97q-46 26 -46 84q0 46 27.5 74.5t83.5 28.5t83.5 -28.5t27.5 -74.5q0 -58 -46 -84q60 -29 60 -97q0 -51 -31 -83.5t-94 -32.5zM150 35q38 0 56.5 19.5t18.5 51.5q0 33 -18.5 52.5t-56.5 19.5t-56.5 -19.5t-18.5 -52.5 q0 -32 18.5 -51.5t56.5 -19.5zM150 223q61 0 61 61t-61 61t-61 -61t61 -61z" />
<glyph horiz-adv-x="300" d="M36 45l37 34q25 -44 66 -44q44 0 67.5 39.5t23.5 108.5q-33 -43 -90 -43q-50 0 -82.5 32t-32.5 90q0 53 29.5 90.5t90.5 37.5q130 0 130 -185q0 -215 -139 -215q-69 0 -100 55zM146 345q-37 0 -54 -24t-17 -59q0 -77 70 -77q38 0 56.5 22.5t18.5 55.5q0 34 -18 58t-56 24 z" />
<glyph horiz-adv-x="528" d="M264 35q71 0 117.5 55t46.5 160t-46.5 160t-117.5 55t-117.5 -55t-46.5 -160t46.5 -160t117.5 -55zM264 -10q-97 0 -155.5 65.5t-58.5 194.5t58.5 194.5t155.5 65.5t155.5 -65.5t58.5 -194.5t-58.5 -194.5t-155.5 -65.5z" />
<glyph horiz-adv-x="528" d="M259 510h31v-465h130v-45h-310v45h130v405l-136 -62l-15 44z" />
<glyph horiz-adv-x="528" d="M433 348q0 -84 -66.5 -155t-208.5 -146h301v-47h-389v47q179 94 246 160.5t67 140.5q0 56 -32 86.5t-86 30.5q-56 0 -90 -31t-38 -92l-49 11q5 76 53.5 116.5t123.5 40.5q74 0 121 -42t47 -120z" />
<glyph horiz-adv-x="528" d="M44 -104l23 38q78 -59 177 -59q82 0 128 38t46 101q0 62 -49.5 99t-148.5 37h-60v45h76q73 0 115.5 41t42.5 106q0 55 -35 89t-107 34q-53 0 -92.5 -24t-48.5 -68l-48 17q14 58 67 89t122 31q94 0 143 -46t49 -120q0 -113 -101 -170q125 -45 125 -162q0 -80 -59 -131 t-165 -51q-109 0 -200 66z" />
<glyph horiz-adv-x="528" d="M347 509l43 -22l-283 -442h231v205h50v-205h90v-45h-90v-160h-50v160h-288v45z" />
<glyph horiz-adv-x="528" d="M49 -119l18 43q84 -49 169 -49q84 0 130.5 45.5t46.5 136.5q0 159 -138 159q-65 0 -149 -42h-49l27 326h336v-47h-292l-19 -227q84 35 151 35q88 0 135.5 -52t47.5 -152q0 -111 -61.5 -169.5t-168.5 -58.5q-98 0 -184 52z" />
<glyph horiz-adv-x="528" d="M465 612l-40 -30q-48 83 -140 83q-98 0 -145.5 -90t-47.5 -249q23 51 71.5 82.5t109.5 31.5q96 0 153 -55t57 -160q0 -45 -11 -85t-34 -75t-65 -55t-99 -20q-229 0 -229 333q0 178 57 282.5t183 104.5q125 0 180 -98zM274 35q79 0 119 54t40 129q0 74 -40 125.5 t-119 51.5t-119 -51.5t-40 -125.5q0 -75 40 -129t119 -54z" />
<glyph horiz-adv-x="528" d="M183 -160h-56l289 613h-371v47h438v-24z" />
<glyph horiz-adv-x="528" d="M264 -10q-110 0 -164.5 55t-54.5 147q0 62 29.5 109.5t85.5 71.5q-90 47 -90 156q0 81 49.5 131t144.5 50t144.5 -50t49.5 -131q0 -109 -91 -156q57 -24 86.5 -71.5t29.5 -109.5q0 -92 -54.5 -147t-164.5 -55zM264 35q84 0 126.5 42t42.5 115q0 71 -43 113.5t-126 42.5 t-126 -42.5t-43 -113.5q0 -73 42.5 -115t126.5 -42zM264 393q72 0 108 37t36 99t-36 99t-108 37t-108 -37t-36 -99t36 -99t108 -37z" />
<glyph horiz-adv-x="528" d="M102 -130l21 42q55 -37 127 -37q86 0 133 86.5t47 230.5q-58 -106 -177 -106q-91 0 -146 53.5t-55 152.5q0 91 49.5 154.5t153.5 63.5q222 0 222 -315q0 -173 -60.5 -269t-166.5 -96q-84 0 -148 40zM255 465q-78 0 -115.5 -50t-37.5 -122q0 -71 35.5 -116.5t114.5 -45.5 t118 47t39 117q0 71 -37.5 120.5t-116.5 49.5z" />
<glyph horiz-adv-x="528" d="M264 35q71 0 117.5 55t46.5 160t-46.5 160t-117.5 55t-117.5 -55t-46.5 -160t46.5 -160t117.5 -55zM264 -10q-97 0 -155.5 65.5t-58.5 194.5t58.5 194.5t155.5 65.5t155.5 -65.5t58.5 -194.5t-58.5 -194.5t-155.5 -65.5z" />
<glyph horiz-adv-x="410" d="M199 510h31v-465h130v-45h-310v45h130v405l-136 -62l-15 44z" />
<glyph horiz-adv-x="489" d="M413 348q0 -84 -66.5 -155t-208.5 -146h301v-47h-389v47q179 94 246 160.5t67 140.5q0 56 -32 86.5t-86 30.5q-56 0 -90 -31t-38 -92l-49 11q5 76 53.5 116.5t123.5 40.5q74 0 121 -42t47 -120z" />
<glyph horiz-adv-x="504" d="M30 -104l23 38q78 -59 177 -59q82 0 128 38t46 101q0 62 -49.5 99t-148.5 37h-60v45h76q73 0 115.5 41t42.5 106q0 55 -35 89t-107 34q-53 0 -92.5 -24t-48.5 -68l-48 17q14 58 67 89t122 31q94 0 143 -46t49 -120q0 -113 -101 -170q125 -45 125 -162q0 -80 -59 -131 t-165 -51q-109 0 -200 66z" />
<glyph horiz-adv-x="508" d="M337 509l43 -22l-283 -442h231v205h50v-205h90v-45h-90v-160h-50v160h-288v45z" />
<glyph horiz-adv-x="507" d="M37 -119l18 43q84 -49 169 -49q84 0 130.5 45.5t46.5 136.5q0 159 -138 159q-65 0 -149 -42h-49l27 326h336v-47h-292l-19 -227q84 35 151 35q88 0 135.5 -52t47.5 -152q0 -111 -61.5 -169.5t-168.5 -58.5q-98 0 -184 52z" />
<glyph horiz-adv-x="528" d="M465 612l-40 -30q-48 83 -140 83q-98 0 -145.5 -90t-47.5 -249q23 51 71.5 82.5t109.5 31.5q96 0 153 -55t57 -160q0 -45 -11 -85t-34 -75t-65 -55t-99 -20q-229 0 -229 333q0 178 57 282.5t183 104.5q125 0 180 -98zM274 35q79 0 119 54t40 129q0 74 -40 125.5 t-119 51.5t-119 -51.5t-40 -125.5q0 -75 40 -129t119 -54z" />
<glyph horiz-adv-x="498" d="M168 -160h-56l289 613h-371v47h438v-24z" />
<glyph horiz-adv-x="528" d="M264 -10q-110 0 -164.5 55t-54.5 147q0 62 29.5 109.5t85.5 71.5q-90 47 -90 156q0 81 49.5 131t144.5 50t144.5 -50t49.5 -131q0 -109 -91 -156q57 -24 86.5 -71.5t29.5 -109.5q0 -92 -54.5 -147t-164.5 -55zM264 35q84 0 126.5 42t42.5 115q0 71 -43 113.5t-126 42.5 t-126 -42.5t-43 -113.5q0 -73 42.5 -115t126.5 -42zM264 393q72 0 108 37t36 99t-36 99t-108 37t-108 -37t-36 -99t36 -99t108 -37z" />
<glyph horiz-adv-x="528" d="M102 -130l21 42q55 -37 127 -37q86 0 133 86.5t47 230.5q-58 -106 -177 -106q-91 0 -146 53.5t-55 152.5q0 91 49.5 154.5t153.5 63.5q222 0 222 -315q0 -173 -60.5 -269t-166.5 -96q-84 0 -148 40zM255 465q-78 0 -115.5 -50t-37.5 -122q0 -71 35.5 -116.5t114.5 -45.5 t118 47t39 117q0 71 -37.5 120.5t-116.5 49.5z" />
<glyph horiz-adv-x="330" d="M284 680l-22 -44q-42 29 -94 29q-30 0 -50 -12t-20 -35t20 -36t48 -20t56 -16t48 -32t20 -61q0 -52 -36.5 -77.5t-91.5 -25.5q-79 0 -127 38l24 42q46 -35 105 -35q76 0 76 57q0 23 -20 37t-48 21.5t-56 16.5t-48 30.5t-20 55.5q0 49 35 73t88 24q66 0 113 -30z" />
<glyph horiz-adv-x="263" d="M80 655h-55v45h55v110h50v-110h102v-45h-102v-206q0 -54 41 -54q21 0 50 16l17 -43q-36 -18 -70 -18q-39 0 -63.5 24.5t-24.5 71.5v209z" />
<glyph horiz-adv-x="347" d="M90 531v-171h-50v340h50v-49q36 59 107 59q110 0 110 -121v-229h-50v229q0 76 -69 76q-43 0 -70.5 -36t-27.5 -98z" />
<glyph horiz-adv-x="366" d="M283 357q-3 18 -5 54q-41 -61 -109 -61q-62 0 -100.5 43.5t-38.5 122.5q0 98 41 146t111 48q48 0 94 -32v184h50v-379q0 -71 8 -126h-51zM168 395q47 0 77.5 42.5t30.5 120.5v64q-50 43 -97 43t-73 -37.5t-26 -111.5q0 -59 24 -90t64 -31z" />
<glyph horiz-adv-x="231" d="M211 703l-10 -43q-22 5 -38 5q-32 0 -52.5 -29.5t-20.5 -86.5v-189h-50v340h50v-38q24 48 76 48q24 0 45 -7z" />
<glyph horiz-adv-x="347" d="M90 531v-171h-50v502h50v-211q36 59 107 59q110 0 110 -121v-229h-50v229q0 76 -69 76q-43 0 -70.5 -36t-27.5 -98z" />
</font>
</defs>
</svg>
