<?xml version="1.0" standalone="no"?>
<!DOCTYPE svg PUBLIC "-//W3C//DTD SVG 1.1//EN" "http://www.w3.org/Graphics/SVG/1.1/DTD/svg11.dtd" >
<svg xmlns="http://www.w3.org/2000/svg" xmlns:xlink="http://www.w3.org/1999/xlink" version="1.1">
<metadata></metadata>
<defs>
<font id="thaisans_neuelight_italic" horiz-adv-x="0" >
<font-face units-per-em="1000" ascent="749" descent="-251" />
<missing-glyph horiz-adv-x="322" />
<glyph unicode="&#x3b;&#x3b;arm&#x3b;&#x3b;" horiz-adv-x="1035" d="M953 312l-13 -22h20zM941 351l-37 -61h20l24 41zM730 850h-36l13 -39zM875 290h13l47 79l-7 24l-56 -93zM877 553l-57 -94l6 -16l56 91zM859 340l7 -23l56 94l-7 22zM834 683l-55 -93l6 -20l56 92zM889 513l-56 -93l6 -16l56 92zM806 773l-56 -93l6 -20l56 93zM774 850 h-25l-35 -57l8 -28zM863 597l-57 -93l7 -20l55 93zM764 636l6 -20l56 93l-6 20zM117 0q0 -11 7.5 -20t22.5 -9q30 0 30 29q0 30 -30 30q-15 0 -22.5 -9t-7.5 -21zM686 120h30l-30 -100h-20zM716 20l20 100h30l-30 -100h-20zM848 643l-56 -93l7 -24l56 93zM903 473l-57 -93 l6 -19l57 91zM729 746l11 -36l56 94l-11 34zM177 820q0 -15 8.5 -27.5t31.5 -12.5t31.5 12.5t8.5 27.5q0 23 -12.5 31.5t-27.5 8.5t-27.5 -8.5t-12.5 -31.5zM957 -19q-2 19 -8 34q-6 13 -17.5 24t-34.5 11q-26 0 -42 -20.5t-24 -44.5q-10 -28 -14 -64zM817 -129 q0 -11 3.5 -23.5t11 -23t19 -17t26.5 -6.5q30 0 46 20t24 45q9 28 10 65zM660 840l-123 -340h232zM777 -99q0 37 9 71.5t25 60.5t38 42t48 16q53 0 81.5 -36.5t28.5 -103.5q0 -98 -35 -144t-95 -46q-19 0 -37 8t-32 24.5t-22.5 43t-8.5 64.5zM37 620v40h160v80 q-11 0 -22 6.5t-19.5 17.5t-13.5 25.5t-5 30.5q0 18 7 32.5t18 25t25.5 16.5t29.5 6q38 0 59 -21t21 -59q0 -13 -4 -27t-11.5 -25.5t-18.5 -19t-26 -8.5v-80h160v-40h-160v-120l107 -240h-40l-87 200l-87 -200h-40l107 240v120h-160zM181 -239l-32 160l18 12q-2 -1 -6 -1 q-4 -1 -14 -1q-9 0 -21.5 3.5t-23 11.5t-18 21t-7.5 33q0 11 4 23.5t12.5 23t21.5 17t32 6.5q30 0 50 -20t20 -50q0 -7 -3.5 -25t-23.5 -32l22 -102l55 110h20l55 -110l35 209h50l-16 -84l11 20l65 15q0 52 6 88.5t18 58.5t31 32t45 10q30 0 45 -20t15 -50h-20 q0 15 -7.5 27.5t-22.5 12.5q-38 0 -54 -37t-16 -112l73 18l9 -37l-82 -21v-40q0 -60 -3 -109.5t-14.5 -85.5t-33.5 -55.5t-59 -19.5q-30 0 -50 15t-20 45h20q0 -15 12.5 -22.5t27.5 -7.5q30 0 46 18t23.5 49.5t9 75.5t1.5 97v30l-80 -20l-34 -180h-26l-70 150l-70 -150h-26z M447 260h-40l228 620h172l200 -620h-160l-61 190h-269z" />
<glyph unicode="&#xd;" horiz-adv-x="322" />
<glyph unicode=" "  horiz-adv-x="322" />
<glyph unicode="&#x09;" horiz-adv-x="322" />
<glyph unicode="&#xa0;" horiz-adv-x="322" />
<glyph unicode="!" horiz-adv-x="125" d="M37 0l10 51h51l-10 -51h-51zM61 114l84 398h51l-85 -398h-50z" />
<glyph unicode="&#x22;" horiz-adv-x="235" d="M248 513h51l-32 -153h-52zM145 513h52l-32 -153h-52z" />
<glyph unicode="#" horiz-adv-x="537" d="M266 302l-55 -114h150l54 114h-149zM141 302l19 40h77l68 141h48l-68 -141h150l68 141h48l-68 -141h86l-19 -40h-86l-55 -114h86l-20 -41h-85l-70 -147h-48l70 147h-150l-70 -147h-48l70 147h-76l19 41h76l54 114h-76z" />
<glyph unicode="$" horiz-adv-x="385" d="M417 422q-13 8 -31 14q-16 5 -40 10t-59 5q-18 0 -38 -5.5t-37 -15t-29 -23.5t-16 -31q-6 -30 9.5 -46.5t42 -28.5t57.5 -22.5t56.5 -27.5t39 -44t4.5 -71q-6 -26 -16.5 -50t-29 -43t-45.5 -32.5t-66 -17.5l-16 -76h-48l15 74q-35 1 -59 7t-39 13q-18 8 -29 17l9 42 q17 -11 38 -20q18 -8 42 -13.5t53 -5.5q55 0 92 27t48 78q8 36 -7 56t-41 33t-58 22.5t-57.5 24.5t-40 38.5t-5.5 65.5q6 26 22 46.5t38 35t48 23t52 10.5l17 76h48l-17 -76q27 -2 46 -6t32 -9q14 -5 24 -12z" />
<glyph unicode="%" horiz-adv-x="564" d="M430 -13q-37 0 -56 32t-5 98q15 71 49.5 106t73.5 35q38 0 56.5 -33t3.5 -102q-14 -69 -49 -102.5t-73 -33.5zM505 120q7 31 7.5 50.5t-3.5 30t-11 14t-16 3.5q-8 0 -16.5 -4t-17 -14.5t-16 -30t-13.5 -50.5q-7 -31 -7.5 -49.5t3.5 -28t11 -12.5t15 -3q9 0 17.5 3.5 t16.5 13.5t16 28.5t14 48.5zM185 283q-38 0 -56.5 32t-4.5 98q15 71 49 106t75 35q38 0 56 -33t3 -102q-7 -34 -20 -59.5t-29.5 -42.5t-35.5 -25.5t-37 -8.5zM260 416q6 30 6.5 49.5t-3.5 30t-11 14.5t-15 4t-16.5 -4t-17 -15t-16 -30t-13.5 -50q-6 -29 -7 -47t3 -28 t11 -13.5t16 -3.5q8 0 16.5 3.5t17 14t16 28.5t13.5 47zM161 0h-53l457 594h52z" />
<glyph unicode="&#x26;" horiz-adv-x="545" d="M371 396q3 14 -2.5 24t-15 16.5t-20.5 9.5t-20 3q-39 0 -63.5 -19t-30.5 -46q-5 -26 3.5 -50t35.5 -41q98 34 113 103zM202 31q44 0 87 16t78 47q-11 21 -21 43.5t-24 43.5t-33.5 39t-48.5 29q-29 -11 -50 -21.5t-36 -24.5t-25 -33t-16 -47q-11 -50 13.5 -71t75.5 -21z M508 0q-51 0 -77 18t-44 44q-41 -35 -89.5 -53t-103.5 -18q-78 0 -112 31.5t-20 100.5q22 107 146 157q-18 14 -33 40t-7 64q6 27 20.5 47.5t35 34t46 20.5t52.5 7q23 0 43 -7t34 -19.5t20.5 -31t1.5 -41.5q-10 -46 -42.5 -73t-86.5 -46q24 -14 42.5 -31.5t32 -36t23 -38 t16.5 -36.5q21 23 40 49.5t34 52.5t24.5 50t12.5 44l2 13h51q-16 -59 -54.5 -124t-90.5 -121q14 -25 33.5 -40.5t57.5 -15.5z" />
<glyph unicode="'" horiz-adv-x="125" d="M145 513h51l-32 -153h-51z" />
<glyph unicode="(" horiz-adv-x="195" d="M109 -140q-44 63 -56.5 145t7.5 178q42 195 189 334h43q-75 -72 -120 -155t-65 -179q-20 -93 -9.5 -173t55.5 -150h-44z" />
<glyph unicode=")" horiz-adv-x="195" d="M-21 -140q141 138 180 323q20 94 10 178t-53 156h43q88 -140 47 -334q-41 -189 -185 -323h-42z" />
<glyph unicode="*" horiz-adv-x="280" d="M117 381l90 42l-72 42l43 45l45 -54l6 79h56l-29 -80l71 55l23 -45l-91 -42l73 -42l-42 -45l-48 55l-5 -80h-56l28 79l-68 -54z" />
<glyph unicode="+" horiz-adv-x="365" d="M237 354h40l-28 -132h125l-8 -41h-125l-26 -121h-41l26 121h-125l8 41h125z" />
<glyph unicode="," horiz-adv-x="125" d="M48 53h50l-11 -56q-4 -20 -18 -39t-30 -34q-18 -18 -41 -33h-37q18 19 34 37q14 16 25.5 34.5t15.5 34.5z" />
<glyph unicode="-" horiz-adv-x="260" d="M77 190l9 43h186l-9 -43h-186z" />
<glyph unicode="." horiz-adv-x="125" d="M37 0l11 53h50l-10 -53h-51z" />
<glyph unicode="/" horiz-adv-x="222" d="M54 0h-47l284 595h47z" />
<glyph unicode="0" horiz-adv-x="405" d="M434 242q-14 -63 -39.5 -110t-58.5 -78.5t-71 -47t-75 -15.5t-65 14.5t-44.5 44.5t-20 75t9.5 106q14 65 38 114t55 81.5t68 49t76 16.5q37 0 66.5 -15t47.5 -45.5t22 -78t-9 -111.5zM382 237q11 53 9.5 93t-14 67t-34 40.5t-49.5 13.5q-55 0 -102 -54.5t-70 -162.5 q-22 -103 3 -153t79 -50q57 0 106.5 51.5t71.5 154.5z" />
<glyph unicode="1" horiz-adv-x="220" d="M285 483l-102 -483h-51l88 415q-9 -5 -23 -13t-30.5 -15.5t-34 -14.5t-33.5 -10l9 42q23 9 46 22t40 26q20 15 39 31h52z" />
<glyph unicode="2" horiz-adv-x="330" d="M328 360q11 49 -9.5 70t-60.5 21q-32 0 -67.5 -9t-61.5 -32l9 42q26 22 58.5 31t70.5 9q60 0 93 -31.5t20 -94.5q-8 -36 -31.5 -67t-54.5 -59t-66 -53.5t-65.5 -50t-53.5 -48t-29 -47.5h251l-8 -41h-301l8 41q6 29 28.5 55.5t53.5 52t66.5 50.5t66.5 51t54 53t29 57z" />
<glyph unicode="3" horiz-adv-x="340" d="M345 130q-7 -34 -26 -60t-45.5 -43.5t-59.5 -26.5t-69 -9q-35 0 -60.5 7.5t-43.5 19.5l9 45q20 -20 45.5 -26t58.5 -6q52 0 90.5 24t48.5 70q11 51 -23.5 77.5t-134.5 26.5l8 37q45 2 83 13q16 4 32 11.5t29.5 17.5t23 23.5t13.5 31.5q10 48 -8.5 68t-55.5 20 q-23 0 -55 -6t-59 -23l9 42q27 15 53 21.5t61 6.5q28 0 50.5 -9t37 -24.5t20.5 -36t1 -43.5q-11 -48 -40 -79.5t-81 -48.5q45 -8 71.5 -40.5t16.5 -80.5z" />
<glyph unicode="4" horiz-adv-x="351" d="M332 483h53l-68 -322h61l-9 -42h-61l-25 -119h-51l25 119h-225l10 46zM93 161h173l53 251z" />
<glyph unicode="5" horiz-adv-x="320" d="M328 142q-16 -75 -71 -113t-130 -38q-35 0 -54.5 5t-33.5 12l8 42q10 -6 23 -10q11 -4 27.5 -6.5t38.5 -2.5q59 0 94 28.5t46 78.5q11 54 -16 83.5t-79 29.5q-23 0 -41 -1.5t-29 -3.5q-14 -2 -23 -4l51 241h227l-9 -42h-176l-33 -154h38q43 0 73 -11t47.5 -30.5t23 -46 t-1.5 -57.5z" />
<glyph unicode="6" horiz-adv-x="354" d="M67 213q29 137 96.5 208t161.5 71h43t37 -8l-9 -41q-10 2 -21 4t-25 3t-34 1q-70 1 -121.5 -53.5t-71.5 -153.5q12 17 28 28t33.5 17t33.5 8.5t28 2.5q31 0 56 -11t41 -31t21.5 -48t-1.5 -62q-8 -34 -25.5 -62.5t-42 -49.5t-56 -33t-65.5 -12q-72 0 -100.5 59t-6.5 163z M110 160q-12 -57 5 -93t68 -36q22 0 43 9.5t39 25.5t30.5 37.5t17.5 44.5q11 53 -9.5 82.5t-71.5 29.5q-26 0 -47.5 -11t-37 -26.5t-25 -32.5t-12.5 -30z" />
<glyph unicode="7" horiz-adv-x="325" d="M420 483l-7 -30l-269 -453h-50l258 441h-252l9 42h311z" />
<glyph unicode="8" horiz-adv-x="345" d="M120 370q6 27 20 49t35 38.5t47 25.5t55 9q27 0 48.5 -9.5t35.5 -26t19.5 -39t0.5 -47.5q-8 -35 -32 -64.5t-60 -44.5q42 -20 55.5 -57t4.5 -78q-7 -34 -24 -59t-41 -42t-53.5 -25.5t-61.5 -8.5q-69 0 -102 33.5t-19 101.5q9 43 39.5 79t78.5 56q-28 15 -41 44.5t-5 64.5 zM223 239q-45 0 -79 -29t-43 -74q-10 -45 8 -75t69 -30q49 0 80.5 30t41.5 75q4 19 1.5 37.5t-12 33t-26 23.5t-40.5 9zM170 364q-7 -32 7 -57t55 -25q18 0 34 7t29 18t22.5 26t12.5 31q8 41 -11 64t-51 23q-39 0 -64.5 -23t-33.5 -64z" />
<glyph unicode="9" horiz-adv-x="354" d="M389 270q-29 -139 -95 -209t-161 -70h-44.5t-38.5 8l9 41q10 -3 22 -5q11 -2 26 -3t35 -1q37 0 68.5 15t56 42.5t41 66t24.5 84.5q-12 -18 -28 -29t-33 -17t-33 -8t-28 -2q-31 0 -56 10.5t-41 30.5t-22 47.5t1 62.5q7 34 24.5 63t42.5 50t56 33t66 12q69 0 100 -58 t8 -164zM345 324q14 63 -6.5 95t-66.5 32q-20 0 -40.5 -8.5t-38.5 -24.5t-31.5 -37.5t-19.5 -46.5q-12 -57 11 -84t70 -27q25 0 46.5 10.5t37 26t25.5 33t13 31.5z" />
<glyph unicode=":" horiz-adv-x="125" d="M98 291l11 51h51l-11 -51h-51zM37 0l10 51h51l-10 -51h-51z" />
<glyph unicode=";" horiz-adv-x="125" d="M98 291l11 52h51l-11 -52h-51zM47 52h51l-11 -55q-5 -22 -19 -41t-30 -33q-18 -17 -40 -32h-37q18 18 34 36q14 16 25.5 34.5t15.5 35.5z" />
<glyph unicode="&#x3c;" horiz-adv-x="352" d="M351 35l-9 -45l-288 161l4 21l361 181l-9 -46l-288 -146z" />
<glyph unicode="=" horiz-adv-x="365" d="M63 123l9 42h290l-9 -42h-290zM85 228l9 41h290l-9 -41h-290z" />
<glyph unicode="&#x3e;" horiz-adv-x="352" d="M4 -10l10 45l284 126l-226 146l10 46l283 -181l-4 -21z" />
<glyph unicode="?" horiz-adv-x="305" d="M97 0l10 51h51l-10 -51h-51zM171 114h-50l20 98q6 29 28.5 48t49 35.5t49.5 35.5t29 49q8 38 -10 55t-46 17q-27 0 -48.5 -6t-36.5 -14q-18 -9 -31 -19l8 43q11 10 28 18q14 7 36 12.5t51 5.5q23 0 44 -6.5t35.5 -19.5t21 -33t0.5 -47q-6 -26 -18.5 -45t-29 -33.5 t-34.5 -25.5t-33.5 -21t-27 -21.5t-14.5 -25.5z" />
<glyph unicode="@" horiz-adv-x="645" d="M420 129q-33 -46 -59.5 -62.5t-62.5 -16.5q-20 0 -38.5 7.5t-31.5 23.5t-17.5 40.5t2.5 58.5q7 31 26 59t44.5 49t55 33t58.5 12q35 0 51 -13.5t21 -26.5l16 39h47l-62 -155q-6 -24 -7 -42q-1 -16 3.5 -29t21.5 -13q22 0 41.5 13t34.5 32.5t25 42.5t15 43q7 31 0.5 66 t-28 64t-58.5 47.5t-91 17.5q-56 -1 -105.5 -23t-88.5 -56t-64.5 -75.5t-34.5 -81.5q-8 -40 -1.5 -79.5t29 -71t61 -51t95.5 -19.5q38 0 76 8t71 20l-8 -40q-32 -10 -68.5 -18t-76.5 -8q-60 0 -106.5 19.5t-76.5 54t-41.5 82t0.5 103.5q12 57 45 106.5t80.5 87t105 60 t117.5 23.5q54 1 99 -16.5t75 -49t42 -75t1 -94.5q-8 -36 -25 -67.5t-40.5 -55t-51.5 -37.5t-56 -14q-36 -1 -51 17.5t-9 60.5zM388 292q-18 0 -38 -7.5t-38 -21.5t-31.5 -34.5t-19.5 -47.5q-10 -47 7 -68.5t41 -21.5q39 0 72.5 33t59.5 118q3 18 -9 34t-44 16z" />
<glyph unicode="A" horiz-adv-x="425" d="M153 172h185l-36 260zM340 483l74 -483h-50l-21 130h-213l-76 -130h-47l279 483h54z" />
<glyph unicode="B" horiz-adv-x="375" d="M37 0l102 483h136q64 0 93 -31.5t18 -80.5q-4 -18 -12.5 -35.5t-22 -33.5t-31.5 -28t-39 -19q48 -8 71.5 -40.5t13.5 -78.5q-6 -29 -23 -54t-42 -43t-57.5 -28.5t-68.5 -10.5h-138zM181 441l-35 -164h65q47 0 80.5 21t41.5 63q8 35 -10 57.5t-72 22.5h-70zM137 236 l-41 -195h81q52 0 90.5 27t47.5 68q10 48 -19 74t-89 26h-70z" />
<glyph unicode="C" horiz-adv-x="400" d="M395 17q-32 -17 -67 -21.5t-73 -4.5q-53 0 -93 17t-64 48.5t-31 77t5 102.5q13 60 40.5 107.5t66 80.5t87 50.5t103.5 17.5q32 0 66.5 -3t56.5 -14l-26 -42q-26 14 -50 16t-56 2q-41 0 -79 -14t-69.5 -41t-54.5 -67t-34 -93q-20 -97 20 -151t128 -54q19 0 33.5 1.5 t27.5 5t26 8.5t29 13z" />
<glyph unicode="D" horiz-adv-x="450" d="M37 0l102 483h134q129 0 180.5 -59.5t26.5 -177.5q-12 -55 -40 -100t-69.5 -77.5t-94 -50.5t-112.5 -18h-127zM181 441l-85 -400h76q48 0 90 13.5t75.5 40t57 64.5t34.5 87q21 100 -24 147.5t-145 47.5h-79z" />
<glyph unicode="E" horiz-adv-x="325" d="M296 41l-8 -41h-251l102 483h251l-9 -42h-200l-38 -179h180l-9 -41h-180l-38 -180h200z" />
<glyph unicode="F" horiz-adv-x="295" d="M134 221l-46 -221h-51l102 483h251l-9 -42h-200l-38 -179h180l-9 -41h-180z" />
<glyph unicode="G" horiz-adv-x="460" d="M474 242l-47 -218q-42 -21 -81.5 -27t-87.5 -6q-53 0 -93.5 16.5t-65.5 47.5t-33 75.5t4 100.5q12 58 42 106.5t72 82.5t93.5 53t106.5 19q35 0 59.5 -4.5t39.5 -9.5q18 -6 28 -13l-8 -39q1 -2 -4 1.5t-20 9t-41.5 10t-67.5 4.5q-43 0 -83 -15.5t-73.5 -44t-57.5 -69 t-35 -91.5t-4.5 -88.5t27.5 -62.5t54.5 -37t76.5 -12q32 0 57.5 5.5t50.5 18.5l31 146h-110l9 41h161z" />
<glyph unicode="H" horiz-adv-x="435" d="M500 483l-102 -483h-51l48 231h-259l-48 -231h-51l102 483h51l-45 -211h259l45 211h51z" />
<glyph unicode="I" horiz-adv-x="125" d="M37 0l102 483h51l-102 -483h-51z" />
<glyph unicode="J" horiz-adv-x="245" d="M309 483l-67 -315q-17 -83 -62.5 -130t-109.5 -47q-19 0 -31 1t-20 3q-9 2 -13 5l25 38q5 -2 12 -4q12 -3 34 -3q85 0 114 137l67 315h51z" />
<glyph unicode="K" horiz-adv-x="380" d="M370 0h-52l-70 279l-129 -129l-31 -150h-51l102 483h51l-55 -258l261 258h58l-164 -162z" />
<glyph unicode="L" horiz-adv-x="295" d="M296 41l-8 -41h-251l102 483h51l-94 -442h200z" />
<glyph unicode="M" horiz-adv-x="575" d="M640 483l-102 -483h-51l89 419l-282 -419h-24l-94 418l-88 -418h-51l102 483h73l87 -405l269 405h72z" />
<glyph unicode="N" horiz-adv-x="465" d="M530 483l-102 -483h-68l-184 416l-88 -416h-51l102 483h68l183 -421l89 421h51z" />
<glyph unicode="O" horiz-adv-x="505" d="M253 31q88 0 148.5 57t81.5 157q10 45 6 83t-21 65.5t-46.5 42.5t-69.5 15q-44 0 -81.5 -15.5t-67 -44t-50.5 -68.5t-31 -89q-10 -45 -6 -82.5t20.5 -64.5t46 -41.5t70.5 -14.5zM244 -9q-103 0 -150 64t-23 179q13 61 39.5 109t64 81t84.5 50.5t102 17.5q50 0 88 -17.5 t61 -49.5t29.5 -77.5t-5.5 -102.5q-13 -61 -40 -108.5t-64.5 -79.5t-84.5 -49t-101 -17z" />
<glyph unicode="P" horiz-adv-x="350" d="M126 181l-38 -181h-51l102 483h133q78 0 110 -38.5t17 -108.5q-7 -33 -24.5 -61.5t-44 -49.5t-61 -32.5t-76.5 -11.5h-67zM181 441l-47 -219h68q59 0 97 31t49 82q11 53 -7 79.5t-78 26.5h-82z" />
<glyph unicode="Q" horiz-adv-x="505" d="M252 31q88 0 149 57t82 157q10 45 5.5 83t-21 65.5t-45.5 42.5t-68 15q-45 0 -83 -15.5t-67.5 -44t-50.5 -68.5t-31 -89q-10 -45 -6 -82.5t20.5 -64.5t45.5 -41.5t70 -14.5zM246 -9q-105 0 -152 64t-23 179q26 122 103 190t189 68q49 0 87 -17.5t60.5 -49.5t29 -77.5 t-5.5 -102.5q-17 -82 -58.5 -139t-102.5 -87q11 -5 22 -12t19 -17.5t11.5 -25t-0.5 -33.5h-47q3 14 -3.5 25t-17 19.5t-22.5 14.5t-21 9q-17 -4 -33.5 -6t-34.5 -2z" />
<glyph unicode="R" horiz-adv-x="390" d="M379 0h-57l-59 139q-6 15 -12.5 28.5t-15.5 23t-21 15t-30 5.5h-52l-44 -211h-51l102 483h147q30 0 54 -8.5t40 -25t22.5 -41t-0.5 -56.5q-11 -53 -50.5 -82t-90.5 -40q21 -8 32.5 -31.5t21.5 -47.5zM181 441l-40 -189h80q45 0 82 25t48 75q9 41 -14.5 66t-71.5 24z" />
<glyph unicode="S" horiz-adv-x="385" d="M417 423q-12 8 -30 14q-16 5 -40 9.5t-59 4.5q-17 0 -37 -5.5t-37 -15t-30 -23.5t-17 -31q-6 -30 9.5 -46.5t42 -28.5t58 -22.5t56.5 -27.5t38.5 -44t4.5 -71q-6 -28 -18.5 -54t-35.5 -46.5t-59 -32.5t-88 -12q-35 0 -59.5 5.5t-41.5 12.5q-19 8 -32 19l10 42 q18 -11 40 -20q19 -8 43.5 -13.5t53.5 -5.5q57 0 91.5 29t44.5 76q7 35 -7.5 55.5t-41 33.5t-58 22.5t-57 24.5t-40 39t-5.5 65q6 29 25 51t44.5 36.5t54.5 22t57 7.5q34 0 58 -5t40 -10q18 -6 31 -14z" />
<glyph unicode="T" horiz-adv-x="340" d="M435 483l-9 -42h-135l-93 -441h-51l93 441h-140l9 42h326z" />
<glyph unicode="U" horiz-adv-x="435" d="M500 483l-62 -294q-21 -101 -77.5 -149.5t-150.5 -48.5q-90 0 -123 46.5t-12 144.5l64 301h51l-63 -297q-16 -75 3 -115t88 -40t110 37.5t57 111.5l64 303h51z" />
<glyph unicode="V" horiz-adv-x="425" d="M222 56l244 427h50l-279 -483h-53l-75 483h51z" />
<glyph unicode="W" horiz-adv-x="635" d="M677 483h50l-249 -483h-63l-11 398l-197 -398h-63l-35 483h51l26 -430l221 430h33l16 -431z" />
<glyph unicode="X" horiz-adv-x="395" d="M274 241l106 -241h-59l-85 199l-170 -199h-59l208 241l-96 242h59l75 -200l170 200h59z" />
<glyph unicode="Y" horiz-adv-x="375" d="M415 483h50l-223 -307l-37 -176h-51l37 172l-82 311h50l68 -258z" />
<glyph unicode="Z" horiz-adv-x="375" d="M470 483l-3 -10l-375 -432h273q-2 -11 -3.5 -20.5t-3.5 -20.5h-351l2 9l375 432h-264l9 42h341z" />
<glyph unicode="[" horiz-adv-x="187" d="M7 -140l139 657h143l-8 -40h-98l-123 -577h98l-8 -40h-143z" />
<glyph unicode="\" horiz-adv-x="222" d="M212 0h-46l-33 595h46z" />
<glyph unicode="]" horiz-adv-x="187" d="M259 517l-139 -657h-141l8 40h96l123 577h-98l8 40h143z" />
<glyph unicode="^" horiz-adv-x="443" d="M124 193h-46l230 325h20l113 -325h-46l-91 258z" />
<glyph unicode="_" horiz-adv-x="365" d="M26 -49l9 43h291l-9 -43h-291z" />
<glyph unicode="`" horiz-adv-x="203" d="M200 543l49 -103h-38l-59 103h48z" />
<glyph unicode="a" horiz-adv-x="345" d="M167 26q16 0 32.5 5t31.5 13t27 17.5t20 17.5l20 93q-15 -4 -31 -8q-14 -3 -29.5 -5.5t-30.5 -2.5q-17 0 -34 -4t-32 -12t-26 -20t-14 -29q-4 -18 0 -30.5t13.5 -20t23 -11t29.5 -3.5zM307 0h-46l8 40q-17 -16 -47.5 -33t-68.5 -17q-26 0 -47.5 6t-35 19t-18 31.5 t2.5 44.5q9 33 27 53.5t39.5 31.5t44.5 15t42 4q26 0 44.5 2.5t30.5 5.5q14 4 23 8q12 57 -8.5 83t-65.5 26q-31 0 -54 -10t-39 -21q-18 -14 -31 -31l-9 39q13 17 33 30q17 11 43.5 20.5t63.5 9.5q24 0 48.5 -6.5t42 -21.5t25.5 -40.5t0 -62.5z" />
<glyph unicode="b" horiz-adv-x="395" d="M83 0h-46l108 512h46l-44 -206q16 14 37 25q18 10 43 18t55 8q26 0 53 -10.5t47 -32t29 -54.5t0 -78q-11 -50 -33 -85t-50.5 -57.5t-60.5 -33t-62 -10.5t-51.5 7.5t-35.5 17.5q-16 11 -26 25zM100 84q12 -16 30 -27q14 -10 35.5 -18t49.5 -8q18 0 40.5 8t44 26t39 47 t26.5 70q7 33 1 59t-19.5 43.5t-32 27t-37.5 9.5q-29 0 -53.5 -8.5t-43.5 -18.5q-22 -11 -41 -26z" />
<glyph unicode="c" horiz-adv-x="295" d="M290 17q-12 -7 -27 -11q-13 -4 -31 -7t-39 -3q-78 0 -115.5 44.5t-20.5 125.5q9 43 30 78.5t50 60.5t64.5 38.5t75.5 13.5q18 0 33 -3.5t26 -7.5q12 -5 22 -11l-24 -36q-7 6 -17 11q-8 4 -20 7.5t-28 3.5q-26 0 -52 -10t-48.5 -29.5t-40 -48.5t-25.5 -67q-8 -36 -2 -61.5 t21 -42t37 -24t48 -7.5q16 0 29.5 3t23.5 8q11 5 21 12z" />
<glyph unicode="d" horiz-adv-x="395" d="M312 0l9 46q-17 -14 -37 -25q-17 -10 -41.5 -17.5t-54.5 -7.5t-58 10t-47 32t-26.5 57.5t3.5 86.5q10 46 33.5 79.5t53 54.5t61.5 31t58 10q30 0 50.5 -8t34.5 -18q15 -11 25 -25l44 206h46l-108 -512h-46zM369 268q-13 15 -30 26q-15 10 -36 18.5t-47 8.5q-19 0 -42 -9 t-44.5 -26.5t-39 -43.5t-24.5 -60q-9 -43 -3.5 -72t19.5 -46.5t33.5 -25t38.5 -7.5q26 0 50.5 8t43.5 18q22 11 42 27z" />
<glyph unicode="e" horiz-adv-x="344" d="M357 166h-255q-8 -36 -3.5 -61.5t17 -42t33 -24t44.5 -7.5q27 0 46 5t31 12q14 8 23 18l9 -39q-14 -9 -32 -16q-15 -6 -36 -10.5t-47 -4.5q-37 0 -65.5 9.5t-46.5 30.5t-23 54t5 80q9 41 28 75.5t45.5 59t58 38.5t64.5 14q66 0 97.5 -43.5t11.5 -126.5zM317 202 q11 57 -8.5 88t-63.5 31q-42 0 -79 -32.5t-57 -86.5h208z" />
<glyph unicode="f" horiz-adv-x="225" d="M71 306l8 36h65l12 58q12 59 42 90.5t76 31.5q17 0 28 -0.5t16 -1.5q6 -1 9 -1l-7 -35q-2 0 -6 1q-4 0 -10.5 0.5t-17.5 0.5q-37 0 -56 -21.5t-28 -64.5l-12 -58h100l-8 -36h-100l-64 -306h-46l64 306h-65z" />
<glyph unicode="g" horiz-adv-x="395" d="M369 269q-13 15 -30 26q-14 10 -35 18.5t-47 8.5q-19 0 -42 -7.5t-44.5 -25.5t-40 -47t-27.5 -72q-7 -34 -0.5 -60t20.5 -43.5t33.5 -26.5t38.5 -9q26 0 50.5 8t43.5 18q22 11 41 27zM386 352h46l-73 -345q-20 -96 -73.5 -138.5t-149.5 -42.5q-30 0 -50.5 5t-33.5 11 q-15 7 -25 16l25 37q8 -10 20 -17q11 -6 28.5 -11t43.5 -5q72 0 112.5 33t54.5 103l10 48q-17 -14 -37 -25q-18 -10 -42.5 -17.5t-54.5 -7.5q-25 0 -52 9.5t-47.5 30.5t-30.5 54t0 80q11 51 33.5 86.5t51 58t60.5 32.5t62 10t51 -8t35 -18q16 -11 26 -25z" />
<glyph unicode="h" horiz-adv-x="365" d="M328 0h-46l49 232q8 39 -15 61.5t-61 22.5q-28 0 -50 -9.5t-37 -20.5q-18 -13 -31 -30l-54 -256h-46l108 512h46l-46 -216q14 17 32 30q16 11 39 21t54 10q36 0 59.5 -9.5t35.5 -27t14.5 -41t-3.5 -50.5z" />
<glyph unicode="i" horiz-adv-x="120" d="M123 409l10 45h45l-9 -45h-46zM37 0l74 352h46l-74 -352h-46z" />
<glyph unicode="j" horiz-adv-x="120" d="M124 409l9 45h45l-9 -45h-45zM-111 -125q5 -4 10 -7q5 -2 11 -4t13 -2q43 0 70.5 33.5t40.5 95.5l77 361h46l-74 -350q-18 -86 -62 -131t-105 -45q-28 0 -41 5q-7 3 -11 6z" />
<glyph unicode="k" horiz-adv-x="320" d="M312 341h51l-112 -110l59 -231h-43l-50 197l-118 -118l-16 -79h-46l108 512h46l-78 -368z" />
<glyph unicode="l" horiz-adv-x="120" d="M37 0l108 512h46l-108 -512h-46z" />
<glyph unicode="m" horiz-adv-x="610" d="M573 0h-46l49 232q8 41 -15.5 62.5t-61.5 21.5q-28 0 -49.5 -9.5t-36.5 -20.5q-18 -13 -31 -30l-54 -256h-46l49 232q8 39 -15 61.5t-61 22.5q-29 0 -50.5 -9.5t-36.5 -20.5q-18 -13 -31 -30l-54 -256h-46l74 352h46l-12 -56q1 1 9.5 10.5t24.5 21t38.5 20.5t51.5 9 q51 0 76 -17t32 -48q5 6 17.5 16.5t30.5 21.5t41 19t49 8q36 0 59.5 -9.5t36 -26.5t14.5 -40.5t-4 -51.5z" />
<glyph unicode="n" horiz-adv-x="365" d="M328 0h-46l49 232q8 41 -15 62.5t-63 21.5q-28 0 -49 -9.5t-36 -20.5q-18 -13 -31 -30l-54 -256h-46l74 352h46l-12 -56q14 17 32 30q16 11 38.5 21t52.5 10q37 0 61 -9.5t36.5 -26.5t14.5 -40.5t-4 -51.5z" />
<glyph unicode="o" horiz-adv-x="384" d="M195 31q57 0 99.5 37t58.5 111q14 68 -11 105t-78 37q-57 0 -100.5 -37.5t-59.5 -112.5q-15 -69 11.5 -104.5t79.5 -35.5zM187 -4q-75 0 -111 45t-18 130q19 91 75.5 138.5t137.5 47.5q75 0 110.5 -46.5t17.5 -131.5q-19 -91 -75 -137t-137 -46z" />
<glyph unicode="p" horiz-adv-x="395" d="M157 352l-10 -46q15 14 36 25q17 10 42.5 18t57.5 8q28 0 55.5 -10t46.5 -32.5t26.5 -58t-3.5 -86.5q-10 -47 -33.5 -80t-52.5 -54t-61 -30.5t-58 -9.5q-30 0 -51 7.5t-35 17.5q-16 11 -25 25l-44 -205h-46l109 511h46zM100 84q12 -15 29 -26q14 -10 35.5 -18t48.5 -8 q21 0 44.5 9.5t44.5 27.5t37 43.5t23 57.5q8 40 3.5 68.5t-17.5 47t-32 27t-39 8.5q-29 0 -53.5 -8t-43.5 -18q-22 -11 -41 -26z" />
<glyph unicode="q" horiz-adv-x="395" d="M386 352h46l-109 -511h-46l44 205q-17 -14 -37 -25q-18 -10 -42.5 -17.5t-54.5 -7.5q-25 0 -52 9.5t-47.5 30.5t-30.5 54t0 80q11 51 34 86.5t52 58t61.5 32.5t62.5 10t50.5 -8t33.5 -18q15 -11 25 -25zM369 269q-12 15 -29 26q-14 10 -35.5 18t-49.5 8q-21 0 -44.5 -8.5 t-44.5 -27t-38 -47t-25 -68.5q-7 -32 -1 -57.5t19.5 -43.5t32.5 -27.5t40 -9.5q27 0 51.5 8t43.5 18q22 11 41 26z" />
<glyph unicode="r" horiz-adv-x="217" d="M275 311q-5 1 -9 2q-10 2 -21 2q-18 0 -39 -16t-38 -35q-20 -23 -40 -51l-45 -213h-46l74 352h46l-19 -92q16 27 34 48q16 18 37 33.5t46 15.5q10 0 20 -2q4 -1 9 -1z" />
<glyph unicode="s" horiz-adv-x="305" d="M311 303q-8 6 -20 11q-11 5 -28 8.5t-42 3.5q-13 0 -26.5 -4.5t-25 -12.5t-19.5 -19t-11 -24q-5 -22 6.5 -33.5t30.5 -18t42 -12.5t41 -17.5t27.5 -32t1.5 -56.5q-4 -19 -15 -38t-30.5 -34t-47.5 -24t-66 -9q-23 0 -40 3t-28 8q-13 4 -22 11l8 36q9 -7 23 -12 q11 -5 28.5 -8t40.5 -3q41 0 68 17t35 53q6 27 -4.5 41.5t-29 23.5t-41.5 15t-41.5 16t-29 26.5t-3.5 47.5q4 19 18 37t33 31t41.5 21t43.5 8q25 0 42 -3.5t28 -8.5q12 -5 20 -11z" />
<glyph unicode="t" horiz-adv-x="225" d="M71 306l8 36h65l36 170h46l-36 -170h100l-8 -36h-100l-40 -189q-9 -43 1 -64.5t47 -21.5q22 0 27 1q4 0 7 1l-7 -34q-3 -1 -10 -2q-6 -1 -17.5 -1h-28.5q-48 0 -63 31.5t-2 90.5l40 188h-65z" />
<glyph unicode="u" horiz-adv-x="365" d="M111 352h46l-50 -234q-8 -36 14 -59.5t64 -23.5q29 0 50.5 9.5t36.5 20.5q18 13 30 30l54 257h46l-75 -352h-45l11 56q-14 -18 -33 -31q-17 -11 -40.5 -20.5t-52.5 -9.5q-36 0 -59.5 9.5t-35.5 26.5t-14 40.5t4 51.5z" />
<glyph unicode="v" horiz-adv-x="335" d="M350 352h47l-197 -352h-60l-57 352h54l43 -301z" />
<glyph unicode="w" horiz-adv-x="510" d="M524 352h50l-181 -352h-53l-23 287l-154 -287h-58l-24 352h54l14 -301l165 301h33l26 -301z" />
<glyph unicode="x" horiz-adv-x="305" d="M315 352h49l-155 -181l81 -171h-49l-65 134l-120 -134h-49l154 176l-80 176h49l63 -139z" />
<glyph unicode="y" horiz-adv-x="359" d="M-2 -124q4 -4 9 -7q10 -7 24 -7q22 0 40.5 8.5t35.5 36.5l57 90l-78 355h50l66 -293l170 293h50l-256 -425q-17 -27 -31 -46.5t-30 -31.5t-36 -17.5t-48 -5.5q-13 0 -22 2t-15 4q-7 3 -11 6z" />
<glyph unicode="z" horiz-adv-x="323" d="M390 352q-1 -3 -1.5 -6.5t-1.5 -6.5l-271 -303h204l-7 -36h-276l2 10l273 306h-190l8 36h260z" />
<glyph unicode="{" horiz-adv-x="200" d="M155 -174q-54 0 -76 28t-8 90l26 119q18 83 -43 91l7 35q63 6 81 88l25 117q14 64 48.5 92.5t86.5 30.5l-8 -40q-33 -2 -52.5 -24.5t-27.5 -60.5l-26 -120q-8 -40 -27 -66.5t-56 -36.5q32 -8 39.5 -34.5t-0.5 -68.5l-24 -115q-9 -43 -2.5 -64t46.5 -21z" />
<glyph unicode="|" horiz-adv-x="121" d="M10 -125l147 692h47l-147 -692h-47z" />
<glyph unicode="}" horiz-adv-x="200" d="M-20 -134q38 0 53.5 21t24.5 64l24 115q8 42 28 68.5t55 34.5q-32 10 -39.5 36.5t0.5 66.5l26 120q8 38 -2 60.5t-42 24.5l8 40q51 -2 74 -30.5t9 -92.5l-25 -117q-18 -82 43 -88l-7 -35q-62 -8 -81 -91l-26 -119q-14 -62 -46.5 -90t-85.5 -28z" />
<glyph unicode="~" horiz-adv-x="364" d="M380 252q-12 -48 -38.5 -67.5t-61.5 -19.5q-18 0 -32.5 8.5t-28 18t-27.5 18t-30 8.5q-23 0 -38 -13t-20 -40h-32q8 41 35 64t64 23q18 0 31.5 -8.5t27 -18.5t28.5 -18.5t35 -8.5q16 0 31 14t23 40h33z" />
<glyph unicode="&#xa9;" horiz-adv-x="648" d="M63 242q0 -55 21 -103t57 -83.5t84.5 -56t103.5 -20.5t103 20.5t84 56t56.5 83.5t20.5 103t-20.5 103.5t-56.5 84.5t-84 56.5t-103 20.5t-103.5 -20.5t-84.5 -56.5t-57 -84.5t-21 -103.5zM37 242q0 61 23 114t62.5 92.5t92.5 62t114 22.5t114 -22.5t92.5 -62t62 -92.5 t22.5 -114t-22.5 -114t-62 -92t-92.5 -61.5t-114 -22.5t-114 22.5t-92.5 61.5t-62.5 92t-23 114zM439 74q-20 -11 -43.5 -14.5t-50.5 -3.5q-79 0 -126.5 48t-47.5 133q0 86 49 135t130 49q23 0 47 -3t42 -10l-11 -24q-18 8 -38 10.5t-40 2.5q-66 0 -106 -43.5t-40 -116.5 q0 -75 40 -115.5t106 -40.5q26 0 42 4.5t36 15.5z" />
<glyph unicode="&#xad;" horiz-adv-x="260" d="M77 190l9 43h186l-9 -43h-186z" />
<glyph unicode="&#xae;" horiz-adv-x="657" d="M63 242q0 -55 21 -103t57 -83.5t84.5 -56t103.5 -20.5t103 20.5t84 56t56.5 83.5t20.5 103t-20.5 103.5t-56.5 84.5t-84 56.5t-103 20.5t-103.5 -20.5t-84.5 -56.5t-57 -84.5t-21 -103.5zM37 242q0 61 23 114t62.5 92.5t92.5 62t114 22.5t114 -22.5t92.5 -62t62 -92.5 t22.5 -114t-22.5 -114t-62 -92t-92.5 -61.5t-114 -22.5t-114 22.5t-92.5 61.5t-62.5 92t-23 114zM478 71h-39l-59 98q-17 27 -39.5 43t-36.5 16h-43v-157h-32v355h107q44 0 74 -24t30 -70q0 -24 -7 -41t-19 -28.5t-28 -18t-33 -9.5q18 -10 32.5 -26.5t22.5 -29.5zM261 400 v-147h55q18 0 34.5 5t29 15t20.5 24.5t8 34.5q0 30 -21.5 49t-59.5 19h-66z" />
<glyph unicode="&#xbc;" horiz-adv-x="682" d="M660 286h29l-37 -177h34l-5 -23h-34l-14 -66h-28l14 66h-123l5 25zM529 109h95l29 138zM256 586l-56 -266h-28l48 229q-10 -6 -29 -16t-37 -14l5 24q13 5 25 12t22 14q11 8 21 17h29zM204 0h-46l484 595h47z" />
<glyph unicode="&#xbd;" horiz-adv-x="695" d="M675 222q6 27 -5 39t-34 12q-17 0 -37 -5t-35 -18l5 23q14 12 32.5 17.5t39.5 5.5q34 0 52.5 -18t10.5 -53q-6 -30 -31 -54.5t-53.5 -46t-53 -41.5t-29.5 -40h140l-5 -23h-168l5 23q5 24 29.5 45.5t53 42.5t53.5 43t30 48zM256 586l-56 -266h-28l48 229q-10 -6 -29 -16 t-37 -14l5 24q13 5 25 12t22 14q11 8 21 17h29zM204 0h-46l484 595h47z" />
<glyph unicode="&#xbe;" horiz-adv-x="681" d="M659 286h29l-37 -177h34l-5 -23h-34l-14 -66h-28l14 66h-123l5 25zM528 109h95l29 138zM275 396q-8 -38 -39 -57t-71 -19q-19 0 -32.5 4t-24.5 11l5 25q11 -11 25 -14.5t32 -3.5q29 0 50.5 13t26.5 39q6 28 -13 42.5t-74 14.5l4 20q25 1 46 7q18 5 33.5 15.5t20.5 30.5 q5 26 -5 37.5t-30 11.5q-13 0 -30.5 -3.5t-32.5 -12.5l5 23q15 8 29 11.5t33 3.5q32 0 48.5 -18t11.5 -44q-10 -52 -66 -70q25 -5 39 -23t9 -44zM204 0h-46l484 595h47z" />
<glyph unicode="&#xe01;" horiz-adv-x="420" d="M331 0l59 276q7 36 -1 58t-26 35t-42 17.5t-48 4.5q-29 0 -53.5 -10.5t-42.5 -22.5q-21 -14 -38 -32l49 -50q-6 -6 -12 -17q-5 -9 -10.5 -23.5t-10.5 -37.5l-42 -198h-52l42 196q4 19 10.5 33.5t12.5 25.5q7 12 15 21l-25 25q-10 9 -18 16.5t-7 8.5q21 29 50 53 q25 20 60.5 36.5t81.5 16.5q32 0 64 -7t56.5 -23.5t37 -42.5t4.5 -63l-51 -240q-3 -14 -11 -23.5t-16 -17.5q-10 -9 -21 -15h-15z" />
<glyph unicode="&#xe02;" horiz-adv-x="350" d="M131 136q-4 -19 -5 -37.5t4 -33.5t19 -24.5t40 -9.5q24 0 41.5 10t29.5 26t19.5 34t10.5 35l61 286h51l-61 -286q-6 -30 -18 -56.5t-31 -46t-46 -31t-63 -11.5q-39 0 -62.5 11.5t-34.5 31t-11.5 46t5.5 56.5l8 40q6 28 15 47t19.5 32t22 22.5t20.5 18.5q8 8 17 20t11 20 q4 17 -2 31t-30 14h-59l9 41h59q39 0 61.5 -20.5t12.5 -65.5q-5 -25 -22.5 -44.5t-35.5 -34.5q-9 -8 -23.5 -27.5t-22.5 -53.5z" />
<glyph unicode="&#xe03;" horiz-adv-x="350" d="M131 136q-4 -19 -5 -37.5t4 -33.5t18.5 -24.5t39.5 -9.5q24 0 42 10.5t30.5 27t20 35t10.5 35.5l60 283h51l-59 -279q-7 -33 -19 -60.5t-31.5 -48t-47.5 -32t-66 -11.5t-60.5 11.5t-33.5 31t-11.5 46t6.5 56.5l11 50q7 30 26.5 59t47.5 51q5 4 11 7.5t11.5 9t10 13.5 t7.5 21q4 16 -4 24t-19 10q-6 1 -14 -4l-16 -10q-9 -7 -18 -15q-5 8 -10 15q-5 5 -11 10t-11 5l9 40q7 0 14 -4t12 -9q6 -6 12 -13q8 7 18 13q8 5 18 9t20 4q32 0 45.5 -20.5t5.5 -55.5q-7 -30 -23.5 -47.5t-34.5 -32.5q-10 -8 -29.5 -29t-26.5 -51z" />
<glyph unicode="&#xe04;" horiz-adv-x="425" d="M123 170q18 17 38 31q17 11 39.5 21t46.5 10l-11 -51q-23 0 -44.5 -8.5t-38.5 -18.5q-20 -11 -38 -26l-27 -128h-51l62 296q7 34 27.5 59.5t49 42.5t62 25.5t66.5 8.5t62.5 -8.5t50.5 -26t30.5 -43t2.5 -58.5l-62 -296h-51l62 296q5 25 -2 43t-22 29.5t-36.5 17 t-43.5 5.5q-23 0 -46.5 -5.5t-43.5 -17.5t-35 -30t-20 -42z" />
<glyph unicode="&#xe05;" horiz-adv-x="425" d="M37 0l62 296q6 26 19.5 51t33.5 44t44.5 30.5t51.5 11.5q11 0 19 -7.5t14 -16.5q7 -11 13 -23q11 12 22 23q10 9 21.5 16.5t22.5 7.5q26 0 45.5 -11.5t31.5 -30.5t15.5 -44t-2.5 -51l-62 -296h-51l62 296q3 15 2.5 31.5t-5.5 31t-15 23.5t-27 9q-8 0 -20 -9t-23 -20 q-13 -13 -28 -29q-9 16 -17 29q-8 11 -15.5 20t-15.5 9q-17 0 -31 -9t-25 -23.5t-18.5 -31t-10.5 -31.5l-26 -126q18 17 38 31q17 11 39 21t46 10l-11 -51q-23 0 -44.5 -8.5t-38.5 -18.5q-20 -11 -38 -26l-27 -128h-51z" />
<glyph unicode="&#xe06;" horiz-adv-x="430" d="M123 97q12 -16 29 -28q14 -11 35 -19.5t47 -8.5q67 0 98.5 32.5t44.5 92.5l54 256h51l-61 -288q-5 -24 -19.5 -49t-36.5 -46t-50.5 -34.5t-62.5 -13.5q-38 0 -64 10t-43 22q-19 14 -31 33l-11 -56h-51l40 192q7 36 23.5 54t34.5 31t33.5 27.5t21.5 42.5q4 17 -5.5 25 t-20.5 8q-6 0 -13.5 -4.5t-14.5 -9.5q-8 -6 -17 -14q-5 8 -9 15l-10 10t-13 5l9 40q6 0 13 -4t12 -9l13 -13q8 7 18 13q8 5 18 9t20 4q29 1 44 -18.5t7 -57.5q-7 -34 -23.5 -53t-35 -34t-34 -30.5t-21.5 -41.5z" />
<glyph unicode="&#xe07;" horiz-adv-x="355" d="M81 282h51l9 -241q30 0 59.5 12.5t54.5 35t43.5 53.5t26.5 69q8 37 2.5 68.5t-21.5 54t-40.5 35t-54.5 12.5l9 42q45 0 78.5 -16t54 -44t27 -67t-3.5 -85q-11 -49 -36.5 -88t-59 -66.5t-72 -42t-75.5 -14.5h-43z" />
<glyph unicode="&#xe08;" horiz-adv-x="405" d="M151 0l-6 160q-2 8 -6 9.5t-12 1.5h-20l8 41h40q23 0 27.5 -6.5t7.5 -13.5l11 -151q37 0 67 16t52 42t36.5 58t21.5 64q9 43 2.5 75t-24 53t-43.5 31.5t-55 10.5q-37 0 -65.5 -13t-48.5 -29q-24 -18 -42 -42l-6 40q15 24 39 42q20 16 52.5 29.5t79.5 13.5q49 0 83.5 -17 t55 -45.5t26.5 -67t-3 -81.5q-10 -47 -31.5 -87.5t-51 -70t-66.5 -46.5t-79 -17h-50z" />
<glyph unicode="&#xe09;" horiz-adv-x="420" d="M95 158q1 4 2 9.5t1 11t-2 9t-6 3.5h-28l9 41h34q29 0 38 -19.5t3 -48.5l-6 -28q-5 -23 -6.5 -41t5 -30.5t22.5 -19.5t46 -7q26 0 52 9.5t47 20.5q25 13 47 31l33 157q14 66 -10.5 100.5t-85.5 34.5q-30 0 -57.5 -8.5t-47.5 -19.5q-25 -12 -45 -28l-8 41q21 16 47 28 q23 11 53 19.5t67 8.5q46 0 76.5 -12.5t47 -34.5t20 -52.5t-3.5 -66.5l-56 -266h-51l11 56q-23 -19 -49 -33q-23 -12 -53 -22t-64 -10q-60 0 -81 40.5t-5 109.5z" />
<glyph unicode="&#xe0a;" horiz-adv-x="375" d="M128 125q-3 -17 -4 -33.5t5.5 -30t23.5 -22t49 -8.5q25 0 46.5 12.5t37.5 31t26.5 39t13.5 36.5q6 26 5 50.5t-9.5 43.5t-25.5 30.5t-42 11.5l9 41q24 0 47.5 15t43.5 40.5t35 59t23 71.5h51q-14 -64 -37 -104t-46.5 -62.5t-42 -31t-22.5 -9.5q2 -1 15.5 -8t27 -24.5 t21 -47.5t-2.5 -76q-6 -27 -19 -55t-35.5 -51.5t-54 -38t-73.5 -14.5q-45 0 -71 10.5t-38 29.5t-12.5 44t5.5 54l10 47q6 28 15.5 47t20 32t21.5 22.5t20 18.5q8 8 17 20t11 20q4 17 -1 31t-28 14h-62l9 41h62q37 0 59 -20.5t12 -65.5q-5 -25 -22.5 -45t-36.5 -35 q-9 -8 -25 -28t-22 -52z" />
<glyph unicode="&#xe0b;" horiz-adv-x="375" d="M192 -9q-44 0 -69.5 10.5t-37.5 29.5t-12.5 44t5.5 54l13 61q6 29 26 57t49 50q9 8 21.5 18t17.5 32q4 17 -4.5 24t-20.5 9q-5 0 -12.5 -4.5t-15.5 -9.5q-9 -6 -18 -15q-4 8 -9 15q-5 6 -10.5 11t-12.5 5l9 40q7 0 14 -4t12 -9q6 -6 12 -13q8 7 18 13q8 5 18 9t20 4 q29 0 44 -19t7 -57q-7 -29 -23 -46t-33 -32q-5 -4 -13.5 -11.5t-17.5 -18t-17 -24t-11 -28.5l-13 -61q-4 -17 -4.5 -33.5t6.5 -30t23.5 -22t48.5 -8.5q24 0 45.5 12.5t37.5 31t27 39t14 36.5q6 26 5 50.5t-9.5 43.5t-25.5 30.5t-42 11.5l9 41q24 0 47.5 15t43.5 40.5t35 59 t23 71.5h51q-14 -64 -37.5 -104t-47 -62.5t-42 -31t-22.5 -9.5q2 -1 15.5 -8t27 -24.5t21.5 -47.5t-2 -76q-6 -28 -19.5 -56t-36 -51t-54.5 -37.5t-74 -14.5z" />
<glyph unicode="&#xe0c;" horiz-adv-x="680" d="M382 0h-51l59 276q8 36 -1 58.5t-27 35t-42.5 17t-46.5 4.5q-29 0 -52.5 -10.5t-41.5 -22.5q-21 -14 -38 -32l49 -50q-7 -6 -13 -17q-5 -9 -11.5 -24.5t-11.5 -38.5l-29 -135q-2 -8 -2.5 -13.5t7.5 -6.5h30l-8 -41h-39q-30 0 -37.5 17t-0.5 49l28 130q4 19 10.5 33.5 t12.5 25.5q7 12 15 21l-25 25q-10 9 -18 16.5t-7 8.5q21 29 50 53q25 20 60 36.5t81 16.5q33 0 65.5 -7t56.5 -23.5t36.5 -42.5t4.5 -63l-42 -198q9 -17 24 -29q12 -11 31.5 -19.5t45.5 -8.5q33 0 54 8.5t34 24t20.5 39t13.5 53.5l55 256h51l-61 -286q-6 -26 -17 -52 t-29 -46.5t-43.5 -33.5t-59.5 -13q-38 0 -63 10t-39 22q-18 14 -26 33z" />
<glyph unicode="&#xe0d;" horiz-adv-x="680" d="M412 139q-9 -44 3.5 -71t64.5 -27q29 0 53.5 9t41.5 20q20 13 37 30l69 322h51l-81 -376q-8 -34 -27.5 -65.5t-47.5 -56t-62 -39t-69 -14.5q-28 0 -48 7t-34 16q-16 11 -28 24l25 40q9 -13 22 -23q11 -9 29 -16t44 -7q54 0 92.5 39t54.5 101l1 4q-19 -19 -42 -33 q-20 -12 -46.5 -22t-58.5 -10q-38 0 -60 11t-32 31t-9.5 48t7.5 62l28 133q7 35 -1 57.5t-26 35t-42 17.5t-48 5q-29 0 -52.5 -10.5t-41.5 -22.5q-21 -14 -38 -32l49 -50q-7 -6 -13 -17q-5 -9 -11.5 -24.5t-11.5 -38.5l-29 -135q-2 -8 -2 -13.5t8 -6.5h29l-8 -41h-36 q-26 0 -37.5 14t-3.5 52l28 130q4 19 10.5 33.5t12.5 25.5q7 12 15 21l-25 25q-10 9 -18 16.5t-7 8.5q21 29 50 53q25 20 60 36.5t81 16.5q33 0 65.5 -7t56.5 -23.5t36.5 -42.5t4.5 -63z" />
<glyph unicode="&#xe0e;" horiz-adv-x="420" d="M248 -122q32 0 47.5 14.5t22.5 45.5l72 338q8 36 -1 58.5t-27 35t-42.5 17t-46.5 4.5q-29 0 -53.5 -10.5t-41.5 -22.5q-21 -14 -37 -32l49 -50q-7 -7 -14 -18q-6 -10 -12 -24.5t-11 -37.5l-28 -130q-8 -35 -23.5 -50.5t-42.5 -15.5h-38l9 41h30q8 1 10 6.5t4 13.5l29 135 q4 19 10.5 33.5t12.5 25.5q7 12 15 21l-25 25q-10 9 -18 16.5t-7 8.5q21 29 50 53q25 20 60.5 36.5t81.5 16.5q34 0 66.5 -7t56.5 -23.5t35.5 -42.5t3.5 -63l-77 -363q-3 -12 -9 -28t-19 -30.5t-35.5 -25t-58.5 -10.5q-23 0 -42 7.5t-32 16.5q-16 11 -27 25q-18 -14 -40 -25 q-19 -9 -46 -16.5t-60 -7.5l6 41q34 0 61.5 7.5t47.5 16.5q23 11 40 24q11 -14 26 -25q13 -10 30 -17.5t38 -7.5z" />
<glyph unicode="&#xe0f;" horiz-adv-x="420" d="M125 66q-8 -38 -24.5 -52t-43.5 -14h-36l9 41h30q8 1 10 7t4 14l29 134q4 19 10.5 33.5t12.5 25.5q7 12 15 21l-25 25q-10 9 -18 16.5t-7 8.5q21 29 50 53q25 20 60 36.5t80 16.5q33 0 65.5 -7t57 -23.5t37 -42.5t4.5 -63l-75 -351q-2 -11 -7.5 -29t-18 -35t-34.5 -29.5 t-58 -12.5q-16 0 -28.5 7t-22.5 16q-11 11 -21 24l-45 -52l-28 52q-18 -13 -36 -23q-16 -9 -35.5 -16t-36.5 -7l6 40q17 0 36 7.5t36 16.5q19 11 40 25l27 -51l46 49q0 -2 4 -9.5t11.5 -16t18.5 -15t27 -6.5q18 0 30 6t19.5 14.5t11 18t5.5 17.5l73 340q8 37 -1 59.5 t-27.5 35t-43 16.5t-46.5 4q-29 0 -53 -10.5t-41 -22.5q-20 -14 -37 -32l48 -50q-7 -7 -13 -18q-5 -10 -11.5 -24.5t-11.5 -37.5z" />
<glyph unicode="&#xe10;" horiz-adv-x="405" d="M294 -78h51l-9 -45q0 -2 -4 -15.5t-15 -29t-31 -28.5t-54 -13q-23 0 -36 7t-21 16q-9 11 -13 24l-46 -52l-24 53q-11 -13 -26 -24q-13 -9 -32 -16.5t-45 -7.5l8 41q24 0 43 7.5t33 16.5q16 11 28 24l24 -50l45 50q0 -1 3.5 -8.5t11 -16.5t19 -16t26.5 -7q17 0 27.5 5.5 t16 13t7.5 14.5t3 11zM151 0l-6 162q-2 8 -7 8.5t-13 0.5h-18l8 41h38q23 0 29 -6.5t8 -14.5l12 -150q37 0 66.5 16t51.5 42t36.5 58t21.5 64q9 43 2 75t-24 53.5t-43 32t-54 10.5q-37 0 -66 -14t-49 -31q-24 -20 -41 -45l-8 45q15 24 40 42q21 16 53 29.5t80 13.5 q43 0 76 -13q10 3 24.5 8t28 12.5t24 17.5t13.5 24h51q-5 -20 -16 -34t-25.5 -23.5t-31 -15.5t-31.5 -10q35 -29 47 -75.5t1 -101.5q-9 -43 -29 -83t-49 -70.5t-67 -49t-83 -18.5h-50z" />
<glyph unicode="&#xe11;" horiz-adv-x="430" d="M104 0h-50l21 102q11 54 32 95.5t42.5 72t38.5 52t20 36.5q3 17 -6 25t-21 8q-6 0 -13.5 -4.5t-14.5 -9.5q-8 -6 -17 -14q-5 8 -9 15q-4 6 -9.5 11t-11.5 5l8 40q6 0 13 -4t12 -9l13 -13q7 7 17 13q8 5 18 9t21 4q22 0 40.5 -15t12.5 -43q14 16 32 28q15 11 34.5 19.5 t42.5 8.5q25 0 44 -13t30 -34t14 -47t-3 -52l-61 -286h-50l54 256q13 60 -1.5 92.5t-47.5 32.5q-26 0 -51.5 -15t-48.5 -38.5t-43 -52.5t-35.5 -57.5t-26 -53t-13.5 -38.5q0 -4 -1 -7l-3 -9z" />
<glyph unicode="&#xe12;" horiz-adv-x="680" d="M681 422h51l-61 -286q-6 -26 -17.5 -52t-30 -46.5t-44 -33.5t-59.5 -13q-38 0 -62.5 10t-38.5 22q-17 14 -25 33l-11 -56h-51l64 304q7 33 -4.5 60t-42.5 27q-8 0 -20 -9t-23 -20q-13 -13 -28 -29q-9 16 -17 29q-8 11 -15.5 20t-15.5 9q-12 0 -27.5 -9t-30.5 -29.5 t-29.5 -54t-24.5 -82.5q-9 -41 -9.5 -75t8.5 -58.5t27.5 -38t48.5 -13.5q11 0 17.5 1t11.5 3t8 4l-8 -40q-4 -2 -9 -4t-12 -3t-17 -1q-41 0 -68 17.5t-41.5 48.5t-16 71.5t8.5 87.5q13 59 32 100.5t42 67.5t49 37.5t52 11.5q7 0 14.5 -7.5t15.5 -16.5q8 -11 17 -23 q14 12 27 23q11 9 22 16.5t18 7.5q26 0 45.5 -10.5t31.5 -28t16 -41t-2 -49.5l-44 -206q9 -17 24 -29q12 -11 31.5 -19.5t46.5 -8.5q33 0 53.5 8.5t33.5 24t21 39t14 53.5z" />
<glyph unicode="&#xe13;" horiz-adv-x="680" d="M417 166q-6 -30 -8.5 -53.5t3.5 -39t23 -24t49 -8.5q28 0 51.5 8.5t40.5 19.5q20 12 36 29l69 324h51l-90 -422h-50l11 56q-17 -19 -41 -33q-20 -12 -49 -22t-67 -10q-33 0 -52.5 13t-29 33.5t-10 46.5t5.5 52l30 140q7 36 -1 58t-26 35t-41.5 17.5t-47.5 4.5 q-29 0 -53 -10.5t-42 -22.5q-21 -14 -38 -32l49 -50q-7 -6 -13 -17q-5 -9 -11.5 -24.5t-11.5 -38.5l-29 -135q-2 -8 -2.5 -13.5t7.5 -6.5h30l-8 -41h-40q-30 0 -37 17t0 49l28 130q4 19 10.5 33.5t12.5 25.5q7 12 15 21l-25 25q-10 9 -18 16.5t-7 8.5q21 29 50 53 q25 20 60.5 36.5t81.5 16.5q34 0 66.5 -7.5t56.5 -24t35.5 -42.5t3.5 -62z" />
<glyph unicode="&#xe14;" horiz-adv-x="420" d="M222 -2q-3 -2 -8 -4q-9 -3 -29 -3q-36 0 -63 15.5t-43 44.5t-19.5 70.5t7.5 94.5q13 60 38.5 101t57.5 66.5t67.5 37t68.5 11.5q32 0 61.5 -7t51 -23.5t31.5 -42.5t2 -63l-62 -296h-51l63 299q4 22 -2.5 39t-21.5 29t-36 18t-45 6t-50.5 -11t-50.5 -32.5t-43 -54.5 t-28 -77q-9 -40 -9.5 -74t8.5 -58.5t27.5 -38.5t48.5 -14q11 0 17.5 1t11.5 3t8 4z" />
<glyph unicode="&#xe15;" horiz-adv-x="420" d="M222 -1q-4 -2 -9 -4t-11.5 -3t-15.5 -1q-41 0 -68.5 17.5t-42 47.5t-16.5 71t8 89q12 59 31 100.5t42.5 67.5t49.5 37.5t52 11.5q11 0 20 -7.5t15 -16.5q7 -11 12 -23l23 23q10 9 21.5 16.5t22.5 7.5q22 0 41 -10.5t32 -28t18.5 -41t-0.5 -49.5l-64 -304h-51l64 304 q3 16 1 31.5t-8.5 28t-16.5 20t-22 7.5q-8 0 -20.5 -9t-23.5 -20q-13 -13 -28 -29q-9 16 -17 29q-8 11 -15.5 20t-15.5 9q-12 0 -27 -9t-30.5 -29.5t-30 -53.5t-24.5 -82q-8 -38 -9 -71.5t7 -59t26.5 -40.5t50.5 -15q11 0 17.5 1t11.5 3t8 4z" />
<glyph unicode="&#xe16;" horiz-adv-x="420" d="M125 61q-2 -8 -2 -13.5t8 -6.5h29l-8 -41h-34q-30 0 -40.5 15t-2.5 51l28 130q4 19 10.5 33.5t12.5 25.5q7 12 15 21l-25 25q-10 9 -18 16.5t-7 8.5q21 29 50 53q25 20 60 36.5t81 16.5q33 0 65.5 -7t56.5 -23.5t36.5 -42.5t4.5 -63l-51 -240q-3 -14 -11 -23.5t-16 -17.5 q-10 -9 -21 -15h-15l59 276q7 36 -1.5 58.5t-27 35t-42.5 17t-46 4.5q-29 0 -53 -10.5t-42 -22.5q-21 -14 -39 -32l49 -50q-6 -6 -12 -17q-5 -9 -11 -24.5t-11 -38.5z" />
<glyph unicode="&#xe17;" horiz-adv-x="415" d="M88 0h-51l89 422h51l-12 -56q20 18 46 33q22 12 52.5 22.5t68.5 10.5q34 0 56.5 -13.5t35.5 -34.5t16 -47t-2 -51l-60 -286h-51l54 256q14 66 -7 95.5t-81 29.5q-28 0 -52 -8.5t-43 -19.5q-22 -12 -41 -28z" />
<glyph unicode="&#xe18;" horiz-adv-x="415" d="M443 355q-22 10 -47 18q-21 7 -47.5 13t-53.5 6q-15 0 -36.5 -1t-42.5 -7.5t-37.5 -19.5t-21.5 -37q-5 -22 5 -33.5t29.5 -17t45 -7.5t52 -5t51 -10t41.5 -22.5t24 -42t-2 -68.5q-5 -24 -18.5 -47t-37 -41.5t-58 -30t-81.5 -11.5q-10 0 -25.5 0.5t-33 4t-34.5 11.5 t-28.5 23t-16 38.5t3.5 57.5q4 17 7 31t5 24q3 11 4 21h50q-2 -10 -5 -22q-2 -11 -5 -24.5t-6 -29.5q-8 -35 1 -54t25 -28t35 -11t33 -2q27 0 50.5 7.5t40.5 20.5t28.5 29t14.5 33q7 34 -1 54.5t-26 31.5t-43 15.5t-51.5 7t-51.5 6.5t-43.5 13.5t-27.5 27.5t-2 50 q7 34 30 55t52.5 32.5t61 15.5t54.5 4q28 0 55 -6t47 -14q24 -9 45 -19z" />
<glyph unicode="&#xe19;" horiz-adv-x="415" d="M416 424h51l-89 -424h-51l11 56q-20 -19 -46 -33q-22 -12 -52 -22t-68 -10q-34 0 -57 13t-36 34t-16.5 46.5t2.5 51.5l62 288h50l-54 -256q-6 -30 -6 -53.5t9.5 -40t30 -25t55.5 -8.5q26 0 50.5 8.5t43.5 19.5q22 12 41 28z" />
<glyph unicode="&#xe1a;" horiz-adv-x="405" d="M162 -9q-33 0 -54 13t-32 34t-13 48.5t4 56.5l59 279h51l-60 -283q-4 -17 -3.5 -36t8 -35t23 -26.5t41.5 -10.5h42q25 0 45.5 10.5t35.5 26.5t24 35t13 36l60 283h51l-59 -279q-6 -29 -20.5 -56.5t-35.5 -48.5t-49 -34t-61 -13h-70z" />
<glyph unicode="&#xe1b;" horiz-adv-x="405" d="M163 -9q-33 0 -54.5 13t-33 34t-13 48.5t4.5 56.5l59 279h51l-60 -283q-4 -17 -3.5 -36t8 -35t22.5 -26.5t41 -10.5h42q25 0 45.5 10.5t35.5 26.5t24.5 35t13.5 36l88 413h51l-87 -409q-6 -29 -20.5 -56.5t-36 -48.5t-49 -34t-59.5 -13h-70z" />
<glyph unicode="&#xe1c;" horiz-adv-x="491" d="M543 422q-29 -102 -60 -180t-57 -132q-31 -63 -60 -110h-35l-46 225l-140 -225h-34q-11 49 -16 103q-5 46 -4 104t14 118q3 13 8 30t14 32t23.5 25t35.5 10h38l-9 -40l-26 -1q-9 0 -15 -7t-10.5 -16t-7 -18.5t-3.5 -15.5q-10 -45 -11 -87.5t1 -76.5q3 -40 10 -75l139 221 h23l43 -221q21 28 43 75q19 40 42.5 104t48.5 158h51z" />
<glyph unicode="&#xe1d;" horiz-adv-x="491" d="M574 564q-29 -136 -65 -240.5t-68 -176.5q-37 -84 -75 -147h-34l-46 226l-140 -226h-35q-11 49 -16 103q-5 46 -4 104t14 118q3 13 8 30t14 32t23.5 25t35.5 10h38l-9 -40l-26 -1q-9 0 -15 -7t-10.5 -16t-7 -18.5t-3.5 -15.5q-10 -45 -10.5 -87.5t1.5 -76.5q3 -40 10 -75 l138 221h23l43 -221q27 47 56 117q24 60 53.5 149t55.5 213h51z" />
<glyph unicode="&#xe1e;" horiz-adv-x="513" d="M156 0h-29l-31 422h48l23 -313l161 313h32l28 -313l157 313h47l-209 -422h-28l-29 337z" />
<glyph unicode="&#xe1f;" horiz-adv-x="553" d="M156 0h-29l-31 422h48l23 -313l161 313h32l28 -313l228 455h47l-280 -564h-28l-29 338z" />
<glyph unicode="&#xe20;" horiz-adv-x="420" d="M125 66q-8 -38 -24 -52t-46 -14h-34l8 41h30q8 1 10.5 6.5t4.5 13.5l29 135q4 19 10.5 33.5t12.5 25.5q7 12 15 21l-25 25q-10 9 -18 16.5t-7 8.5q21 29 50 53q25 20 60.5 36.5t81.5 16.5q32 0 64 -7t56.5 -23.5t37 -42.5t4.5 -63l-51 -240q-3 -14 -11 -23.5t-16 -17.5 q-10 -9 -21 -15h-15l59 276q7 36 -1.5 58.5t-26.5 35t-42 17t-46 4.5q-30 0 -54.5 -10.5t-41.5 -22.5q-20 -14 -37 -32l49 -50q-7 -7 -14 -18q-6 -10 -12 -24.5t-11 -37.5z" />
<glyph unicode="&#xe21;" horiz-adv-x="415" d="M126 422h51l-68 -321q12 -18 29 -32q14 -12 35 -21.5t48 -9.5q61 0 94 30.5t47 95.5l54 258h51l-61 -286q-6 -27 -20.5 -53t-36.5 -46.5t-50.5 -33t-61.5 -12.5q-38 0 -64 10t-43 22q-19 14 -31 33l-11 -56h-51z" />
<glyph unicode="&#xe22;" horiz-adv-x="390" d="M47 121q8 35 28 58.5t41 37.5q25 16 54 24q-23 5 -40 17q-14 11 -24 29.5t-3 48.5q6 28 19.5 46.5t30.5 29.5t35 15.5t32 4.5q18 0 30 -1t19 -3q8 -2 13 -4l-8 -40l-12 3q-7 2 -17.5 3t-26.5 1q-26 0 -43 -17.5t-21 -37.5q-7 -32 19.5 -53t74.5 -21l-9 -41 q-32 0 -57 -10.5t-42.5 -26t-28 -33t-13.5 -30.5q-4 -18 -2.5 -34.5t11.5 -29t30.5 -19.5t55.5 -7q33 0 57.5 10.5t41 26.5t26 35t13.5 36l60 283h51l-59 -279q-6 -29 -21 -56.5t-39.5 -48.5t-59 -34t-79.5 -13q-47 0 -76 9.5t-45 26.5t-19 41t3 53z" />
<glyph unicode="&#xe23;" horiz-adv-x="345" d="M362 353q-10 10 -25 19q-13 7 -33.5 13t-49.5 6q-15 0 -31 -4t-29.5 -12t-23.5 -20t-13 -28q-7 -29 6 -44.5t35.5 -25t49.5 -16.5t49 -20t33.5 -36t2.5 -64q-5 -24 -15.5 -47.5t-30.5 -42t-51 -29.5t-77 -11q-29 0 -50.5 5.5t-36.5 12.5q-18 8 -30 19l10 44 q15 -12 33 -21q16 -8 38 -14t48 -6t45.5 7.5t33 20.5t21.5 29t11 33q7 30 -6 45.5t-35.5 24.5t-49.5 15.5t-49 19t-33.5 35.5t-2.5 65q6 26 22 46t38 33.5t47.5 20t49.5 6.5q29 0 49.5 -6t33.5 -13q15 -8 25 -18z" />
<glyph unicode="&#xe24;" horiz-adv-x="420" d="M125 61q-2 -8 -2 -13.5t8 -6.5h29l-8 -41h-35q-29 0 -39.5 15t-2.5 51l28 130q4 19 10.5 33.5t12.5 25.5q7 12 15 21l-25 25q-10 9 -18 16.5t-7 8.5q21 29 50 53q24 20 59.5 36.5t81.5 16.5q33 0 65.5 -7t56.5 -23.5t36.5 -42.5t4.5 -63l-96 -449q-3 -14 -11 -23.5 t-16 -17.5q-10 -9 -21 -15h-15l104 485q7 36 -1.5 58t-26.5 35t-42 17.5t-46 4.5q-29 0 -53.5 -10.5t-42.5 -22.5q-21 -14 -39 -32l50 -50q-7 -6 -13 -17q-5 -9 -11 -24.5t-11 -38.5z" />
<glyph unicode="&#xe25;" horiz-adv-x="380" d="M343 0h-51l45 213q-9 -7 -24 -11q-13 -5 -33.5 -8t-50.5 -3q-15 0 -36 -4.5t-41 -14t-36 -26t-21 -40.5q-5 -21 -0.5 -35t15 -23t24.5 -13t29 -4q23 0 35 3q7 2 12 4l-8 -39q-6 -2 -13 -4q-6 -2 -14.5 -3t-18.5 -1q-136 0 -112 115q8 37 28 62t47 39t58.5 20t61.5 6 q34 0 54.5 3t32.5 8q13 5 20 12l5 26q4 20 2.5 40t-10.5 35.5t-26 25t-45 9.5q-34 0 -63 -13.5t-50 -30.5q-26 -19 -46 -43l-7 42q19 24 45 42q23 16 55 29.5t75 13.5q78 0 106.5 -41.5t11.5 -124.5z" />
<glyph unicode="&#xe26;" horiz-adv-x="420" d="M125 66q-8 -38 -24 -52t-45 -14h-35l8 41h30q8 1 10.5 6.5t4.5 13.5l29 135q4 19 10.5 33.5t12.5 25.5q7 12 15 21l-25 25q-10 9 -18 16.5t-7 8.5q21 29 50 53q25 20 60.5 36.5t80.5 16.5q34 0 66.5 -7t56.5 -23.5t36 -42.5t4 -63l-96 -449q-3 -14 -11 -23.5t-16 -17.5 q-10 -9 -21 -15h-15l104 485q8 37 -1 59.5t-27.5 35t-43 16.5t-46.5 4q-29 0 -53 -10.5t-42 -22.5q-21 -14 -38 -32l49 -50q-7 -7 -13 -18q-5 -10 -11 -24.5t-11 -37.5z" />
<glyph unicode="&#xe27;" horiz-adv-x="374" d="M54 77q9 -13 24 -23q13 -9 33.5 -16t50.5 -7q33 0 62.5 13.5t54 37.5t42 57t25.5 72q16 79 -14.5 124.5t-95.5 45.5q-30 0 -53 -5.5t-39 -12.5q-18 -8 -32 -18l-9 41q11 12 31 23q17 8 44.5 15.5t69.5 7.5q40 0 72.5 -14t53.5 -42t28 -69.5t-5 -95.5t-36.5 -95.5t-57 -69 t-71.5 -41.5t-79 -14q-42 0 -66 7t-37 15q-15 10 -21 23z" />
<glyph unicode="&#xe28;" horiz-adv-x="425" d="M123 168q18 18 38 32q17 12 39.5 22t46.5 10l-11 -51q-23 0 -44.5 -8.5t-38.5 -18.5q-20 -11 -38 -26l-27 -128h-51l62 296q7 33 27 58.5t48.5 42.5t62.5 26t68 9q17 0 31.5 -1.5t28.5 -6.5q11 4 23 9.5t22.5 12t18 15.5t10.5 20h51q-8 -33 -32 -49.5t-50 -27.5 q25 -17 37.5 -43.5t4.5 -64.5l-62 -296h-51l62 296q5 24 -2 42t-22 29.5t-36 17.5t-43 6q-23 0 -46.5 -5.5t-44 -17t-35.5 -29.5t-20 -43z" />
<glyph unicode="&#xe29;" horiz-adv-x="405" d="M271 211l10 45h90l35 165h51l-35 -165h30l-10 -45h-30l-14 -68q-6 -27 -19.5 -54t-35 -48.5t-49.5 -35.5t-62 -14h-70q-34 0 -55.5 13.5t-32 35.5t-12 49t4.5 54l59 279h51l-60 -284q-3 -17 -2.5 -35.5t7.5 -34.5t22 -26.5t41 -10.5h42q25 0 45.5 10.5t36 26.5t25.5 35 t13 36l14 72h-90z" />
<glyph unicode="&#xe2a;" horiz-adv-x="380" d="M342 0h-51l45 213q-8 -7 -22 -11q-12 -5 -32 -8t-50 -3q-15 0 -36.5 -4t-42 -13.5t-37 -26t-21.5 -41.5q-5 -21 -0.5 -35t14.5 -23t24 -13t29 -4q23 0 35 3q7 2 13 4l-8 -38q-6 -3 -13 -5q-6 -2 -15 -3t-20 -1q-134 0 -110 115q8 37 28.5 62t48 39t59 20t61.5 6 q34 0 54.5 3t31.5 8q13 5 18 12l6 26q4 20 3 40t-10 35.5t-27 25t-46 9.5q-34 0 -63 -13.5t-50 -30.5q-26 -19 -46 -43l-7 42q19 24 45 42q23 16 55.5 29.5t74.5 13.5q12 0 22.5 -1t21.5 -4q23 8 44 21.5t25 32.5h50q-6 -29 -27.5 -46t-47.5 -27q27 -21 34 -57t-4 -85z" />
<glyph unicode="&#xe2b;" horiz-adv-x="395" d="M374 422h66l-170 -140q19 -4 42.5 -13.5t42 -28t27.5 -49t0 -75.5l-24 -116h-51l22 102q9 44 0 73t-25.5 46.5t-36 25t-29.5 9.5l-117 -98l-33 -158h-51l89 422h51l-42 -197z" />
<glyph unicode="&#xe2c;" horiz-adv-x="553" d="M157 0h-30l-31 422h48l23 -315l161 315h32l28 -315l126 253q3 6 5 12.5t4 11.5q4 19 -3 32.5t-18 22.5q-12 11 -29 17q35 9 65 24q26 13 48.5 33.5t29.5 50.5h47q-8 -38 -30.5 -59.5t-46.5 -32.5q-28 -13 -61 -17q17 -9 28 -20q10 -10 16 -25t-1 -35q-1 -6 -6 -17 l-179 -358h-30l-27 336z" />
<glyph unicode="&#xe2d;" horiz-adv-x="415" d="M85 301q15 36 43 65q24 25 64 45.5t102 20.5q52 0 84 -20t48 -52t17.5 -71.5t-6.5 -77.5q-12 -58 -36.5 -99.5t-56.5 -68.5t-69.5 -39.5t-74.5 -12.5q-38 0 -69 10t-51 30.5t-27.5 50.5t0.5 69q7 30 18 45.5t41 15.5h85l-9 -41h-65q-15 -1 -19 -15q-5 -21 -4.5 -43 t11.5 -40.5t34 -30t63 -11.5q37 0 66.5 13.5t51.5 37.5t37 57t23 72q8 38 6 71t-14.5 57t-35.5 38t-57 14q-42 0 -69.5 -14t-45.5 -31q-21 -20 -34 -45h-51z" />
<glyph unicode="&#xe2e;" horiz-adv-x="415" d="M85 301q15 36 43 65q24 25 64 45.5t102 20.5q16 0 29 -2t24 -5q10 3 23 7.5t24.5 11.5t20 16t11.5 21h47q-8 -35 -33 -51t-51 -25q21 -16 33 -38.5t17.5 -48t4.5 -53.5t-7 -54q-12 -58 -36.5 -99.5t-56.5 -68.5t-69.5 -39.5t-74.5 -12.5q-38 0 -69 10t-51 30.5 t-27.5 50.5t0.5 69q7 33 19 47t40 14h85l-9 -41h-65q-15 0 -19 -15q-5 -21 -4.5 -43.5t11.5 -40.5t34 -29.5t63 -11.5q37 0 66.5 13.5t51.5 37.5t37 57t23 72q8 38 6 71t-14.5 57t-35.5 38t-57 14q-42 0 -69.5 -14t-45.5 -31q-21 -20 -34 -45h-51z" />
<glyph unicode="&#xe2f;" horiz-adv-x="380" d="M162 422q2 -42 17 -66t57 -24q44 0 84 23t60 67h51l-59 -279q-7 -33 -14.5 -59t-20.5 -45t-33.5 -29t-51.5 -10l8 41q10 0 18 2t15 12t14 31.5t15 59.5l47 222q-16 -21 -37 -38q-18 -14 -44.5 -26.5t-58.5 -12.5q-59 0 -90 32.5t-28 98.5h51z" />
<glyph unicode="&#xe30;" horiz-adv-x="245" d="M227 100l-26 -40h-73q-39 0 -56.5 15t-6.5 61l6 26h47l-8 -38q-3 -13 4 -18.5t33 -5.5h80zM273 321l-24 -40h-73q-19 0 -33.5 3t-23 11.5t-10.5 23t3 37.5l6 26h47l-8 -37q-3 -13 4 -18.5t33 -5.5h79z" />
<glyph unicode="&#xe31;" d="M137 538l-25 -41h-166q-42 0 -56.5 17t-6.5 60l5 26h47l-8 -38q-3 -13 4 -18.5t33 -5.5h173z" />
<glyph unicode="&#xe32;" horiz-adv-x="330" d="M106 395q13 10 31 18q15 7 36 13t47 6q27 0 54 -8.5t47 -27.5t29.5 -48.5t0.5 -71.5l-58 -276h-51l56 266q7 33 2 56.5t-19 38.5t-35.5 22.5t-46.5 7.5q-19 0 -37.5 -6t-32.5 -13q-17 -8 -32 -18z" />
<glyph unicode="&#xe33;" horiz-adv-x="330" d="M-24 573q-4 -14 3.5 -24.5t21.5 -10.5t27 10.5t16 24.5t-5.5 25t-22.5 11t-25.5 -11t-14.5 -25zM-65 574q3 15 12 29t21.5 24t27 16t29.5 6q31 0 49 -22t11 -53q-3 -16 -12 -30t-21.5 -24.5t-27 -16.5t-29.5 -6q-32 0 -49.5 22.5t-10.5 54.5zM106 395q13 10 31 18 q15 7 36 13t47 6q27 0 54 -8.5t47 -27.5t29.5 -48.5t0.5 -71.5l-58 -276h-51l56 266q7 33 2 56.5t-19 38.5t-35.5 22.5t-46.5 7.5q-19 0 -37.5 -6t-32.5 -13q-17 -8 -32 -18z" />
<glyph unicode="&#xe34;" d="M-220 497l24 43h251l-9 -43h-266z" />
<glyph unicode="&#xe35;" d="M-220 497l24 42h201l12 61h51l-22 -103h-266z" />
<glyph unicode="&#xe36;" d="M-20 558q-2 -8 2.5 -14t12.5 -6q7 0 14.5 6t9.5 14q2 9 -3.5 15.5t-13.5 6.5q-6 0 -13 -6.5t-9 -15.5zM-220 497l24 42h134q1 4 0.5 7.5t0.5 7.5q4 27 25.5 46.5t47.5 19.5q23 0 38.5 -17t9.5 -44q-5 -25 -25.5 -43.5t-46.5 -18.5h-208z" />
<glyph unicode="&#xe37;" d="M-220 497l24 42h123l14 61h44l-14 -61h34l12 61h51l-22 -103h-266z" />
<glyph unicode="&#xe38;" d="M-80 -207h-51l15 67q2 9 -2.5 16.5t-14.5 7.5h-28l9 42h40q29 0 41 -18.5t6 -47.5z" />
<glyph unicode="&#xe39;" d="M-233 -140q2 9 -2.5 16.5t-14.5 7.5h-28l9 42h38q32 0 43.5 -19t4.5 -51q-7 -31 26 -31t40 31l15 70h51l-15 -70q-3 -14 -9 -27t-17 -23t-28.5 -16t-43.5 -6q-29 0 -44.5 6.5t-22 17t-6 24.5t3.5 28z" />
<glyph unicode="&#xe3a;" d="M-114 -127l12 53h51l-12 -53h-51z" />
<glyph unicode="&#xe3f;" horiz-adv-x="375" d="M181 441l-35 -164h64q52 0 83.5 22t39.5 62q8 36 -10 58t-72 22h-70zM137 236l-41 -195h81q25 0 48 7t41.5 19.5t31 30t17.5 38.5q11 48 -18.5 74t-89.5 26h-70zM366 136q-6 -30 -23.5 -54.5t-42 -42.5t-55.5 -28t-65 -11l-17 -83h-48l18 83h-96l102 482h96l18 85h48 l-18 -85q60 -2 86.5 -33t16.5 -78q-8 -39 -38.5 -71.5t-72.5 -43.5q23 -4 42 -14t32 -25t17.5 -35.5t-0.5 -45.5z" />
<glyph unicode="&#xe40;" horiz-adv-x="150" d="M126 422h51l-77 -361q-2 -8 -2 -13.5t8 -6.5h30l-8 -41h-36q-30 0 -40 15.5t-2 50.5z" />
<glyph unicode="&#xe41;" horiz-adv-x="320" d="M291 422h51l-77 -361q-2 -8 -2 -13.5t8 -6.5h30l-8 -41h-34q-30 0 -41 15t-3 51zM126 422h51l-77 -361q-2 -8 -2 -13.5t8 -6.5h30l-8 -41h-34q-30 0 -41 15t-3 51z" />
<glyph unicode="&#xe42;" horiz-adv-x="203" d="M175 402q7 31 8.5 54.5t1.5 41.5v32.5t3 28.5q10 45 45 64.5t109 19.5h82l-9 -42h-77q-26 0 -44 -2t-29 -7.5t-17 -13.5t-9 -20q-3 -14 -3 -28v-32t-1.5 -41.5t-8.5 -54.5l-73 -341q-2 -8 -2 -13.5t8 -6.5h30l-8 -41h-34q-30 0 -41 14t-3 52z" />
<glyph unicode="&#xe43;" horiz-adv-x="263" d="M211 60q-2 -8 -2 -13.5t8 -6.5h30l-8 -40h-35q-29 0 -40 14t-3 52l66 311q6 30 14 51t15.5 38t14 31.5t9.5 29.5q5 25 2.5 41.5t-11 26t-22 13t-29.5 3.5q-20 0 -35 -7t-26 -15q-12 -10 -22 -22l-8 42q9 11 23 21q12 8 31.5 15t48.5 7q61 0 86.5 -30t11.5 -95 q-5 -23 -11 -36.5t-13 -28t-14 -33.5t-14 -52z" />
<glyph unicode="&#xe44;" horiz-adv-x="263" d="M206 61q-2 -8 -2 -13.5t8 -6.5h30l-8 -41h-35q-29 0 -39.5 14t-2.5 52l94 440q2 10 6.5 28t6 34.5t-2.5 27t-19 5.5q-9 -3 -17 -10.5t-14 -15.5q-7 -9 -13 -19q-8 12 -19 22q-9 8 -22 15.5t-30 7.5l9 41q17 0 29 -4.5t20.5 -10.5t12.5 -12t6 -8q8 10 19 18q9 7 22 12.5 t30 5.5q21 0 30 -11t10 -29.5t-3.5 -43.5t-10.5 -53z" />
<glyph unicode="&#xe45;" horiz-adv-x="330" d="M106 395q13 10 31 18q15 7 35 13t46 6q27 0 55 -8.5t48 -27.5t29.5 -48.5t0.5 -71.5l-91 -429q-3 -14 -11 -23.5t-16 -17.5q-10 -9 -22 -15h-14l101 475q13 64 -17 94.5t-82 30.5q-19 0 -37.5 -6t-32.5 -13q-17 -8 -32 -18z" />
<glyph unicode="&#xe46;" horiz-adv-x="390" d="M320 -153q-3 -14 -11 -23.5t-16 -17.5q-10 -9 -22 -15h-14l107 505q4 19 5.5 36t-1.5 30t-12.5 21t-26.5 8q-8 0 -20 -8.5t-23 -19.5q-13 -12 -28 -28q-8 16 -16 28q-7 11 -15.5 19.5t-16.5 8.5q-26 0 -45 -22.5t-25 -52.5q-5 -20 -3.5 -33.5t5.5 -21.5q4 -10 11 -16 l-26 -43q-16 6 -27 21q-9 13 -14 35t3 58q11 53 43.5 84.5t76.5 31.5q11 0 22 -7.5t19 -15.5q10 -11 19 -23q14 12 28 23q12 8 26 15.5t25 7.5q25 0 41.5 -9.5t25 -26t9.5 -37.5t-4 -43z" />
<glyph unicode="&#xe47;" d="M-17 640q22 0 37 3.5t24 8.5q11 5 17 12l-9 -40q-6 -6 -17 -10q-9 -4 -23.5 -6.5t-36.5 -2.5h-70q-30 0 -43 -12t-17 -29q-2 -9 2.5 -20.5t21.5 -11.5q14 0 22.5 4.5t14.5 9.5q6 6 11 15h18q-1 -9 2 -15q2 -5 7 -9.5t15 -4.5q19 0 27.5 11.5t10.5 17.5h42 q-6 -29 -28 -46.5t-49 -17.5q-11 0 -19.5 2.5t-14.5 5.5q-7 4 -12 9q-7 -5 -17 -9q-8 -3 -20 -5.5t-27 -2.5q-9 0 -19.5 3t-19 11t-12.5 20.5t0 32.5q6 26 19 41.5t29 23t30.5 9.5t23.5 2h80z" />
<glyph unicode="&#xe48;" d="M39 600h51l-22 -103h-51z" />
<glyph unicode="&#xe49;" d="M107 539l-25 -42h-141q-23 0 -34 13.5t-8 27.5q3 13 -2 16.5t-11 3.5h-31l8 42h63q15 0 25 -13t7 -28q-2 -8 2.5 -14t12.5 -6h134z" />
<glyph unicode="&#xe4a;" d="M-42 580q6 6 13 10q6 4 14.5 7t19.5 3q29 0 40 -16t7 -35q-2 -8 0.5 -9t7.5 -1h47l-25 -42h-41q-28 0 -34.5 11t-3.5 26q3 14 -1 22t-12 8q-13 0 -22 -9.5t-11 -20.5h-18q2 10 -1 20t-18 10q-8 0 -18.5 -8t-13.5 -22q-2 -10 -0.5 -16.5t3.5 -11.5q3 -5 7 -9h-50 q-5 3 -8 8q-7 10 -3 29q5 27 28.5 46.5t51.5 19.5q11 0 19 -3t13 -7t9 -10z" />
<glyph unicode="&#xe4b;" d="M39 600h51l-6 -30h50l-9 -42h-50l-7 -31h-51l7 31h-48l9 42h48z" />
<glyph unicode="&#xe4c;" d="M-18 497h-50l3 18q6 38 32.5 61.5t67.5 23.5h45l-25 -42h-18q-21 0 -33.5 -12.5t-17.5 -31.5z" />
<glyph unicode="&#xe4d;" d="M-24 573q-4 -14 3.5 -24.5t21.5 -10.5t27 10.5t16 24.5t-5.5 25t-22.5 11t-25.5 -11t-14.5 -25zM-65 574q3 15 12 29t21.5 24t27 16t29.5 6q31 0 49 -22t11 -53q-3 -16 -12 -29.5t-21.5 -24t-27 -16.5t-29.5 -6q-32 0 -49.5 22t-10.5 54z" />
<glyph unicode="&#xe4e;" d="M-106 497q-6 19 -1 35q6 30 32 50t61 20q7 32 29.5 47.5t75.5 15.5l-7 -31q-15 0 -27.5 -0.5t-22.5 -6.5t-18 -19.5t-13 -39.5q-20 0 -39.5 -7.5t-24.5 -30.5q-2 -8 -1 -14.5t3 -10.5q3 -5 6 -8h-53z" />
<glyph unicode="&#xe4f;" horiz-adv-x="445" d="M289 310q-27 0 -54 -10.5t-49 -28.5t-38 -42.5t-22 -52.5q-6 -27 0 -51.5t20 -43t36.5 -29t49.5 -10.5q28 0 54.5 10.5t48.5 29t37.5 43t21.5 51.5q6 28 0.5 52.5t-19.5 42.5t-36 28.5t-50 10.5zM300 363q39 0 70 -14.5t51 -40t27.5 -59.5t-1.5 -73q-8 -39 -30 -72.5 t-53 -58.5t-68 -39.5t-76 -14.5t-69.5 14.5t-50.5 39.5t-27 58.5t1 72.5t30 73t52.5 59.5t67.5 40t76 14.5zM280 267q38 0 58.5 -26.5t12.5 -64.5q-4 -19 -14.5 -35.5t-25.5 -29t-33 -19.5t-37 -7q-38 0 -59 26.5t-13 64.5q4 19 15 35.5t26 29t33 19.5t37 7z" />
<glyph unicode="&#xe50;" horiz-adv-x="416" d="M110 176q-6 -30 -1.5 -56t19 -45.5t36.5 -31t50 -11.5t55 11.5t49.5 31t39 45.5t22.5 56t1 56.5t-19 46t-36.5 31t-50.5 11.5t-54.5 -11.5t-49 -31t-39 -46t-22.5 -56.5zM59 176q8 39 30 73t52.5 59t67 39.5t75.5 14.5t69.5 -14.5t50.5 -39.5t27.5 -59t-0.5 -73 t-30 -72.5t-52.5 -58.5t-67.5 -39.5t-76 -14.5t-69.5 14.5t-50.5 39.5t-27 58.5t1 72.5z" />
<glyph unicode="&#xe51;" horiz-adv-x="415" d="M171 1h4q30 0 62 12t60.5 33.5t49.5 51t29 63.5q9 41 4 71t-20 50t-38.5 29.5t-52.5 9.5q-38 0 -65.5 -12.5t-46 -30t-28 -36t-12.5 -30.5q-3 -17 -1 -33.5t8 -29t16 -20t22 -7.5q25 0 37 11t16 28l4 19h51l-3 -18q-2 -13 -9.5 -27.5t-21 -26.5t-34.5 -20t-49 -8 q-21 0 -40 9t-31.5 26t-17.5 41.5t2 55.5q6 28 24.5 55t46.5 48.5t64 34.5t77 13q38 0 70 -12.5t53 -38t29 -63t-3 -88.5q-9 -41 -34 -77.5t-61.5 -63.5t-80.5 -43t-90 -16h-5t-6 1z" />
<glyph unicode="&#xe52;" horiz-adv-x="520" d="M213 -9q-22 0 -43.5 6.5t-37 22t-22 40.5t1.5 62l64 301q3 16 4 33t-4 31.5t-19 24t-40 9.5l9 41h15q37 0 57 -14t28 -35t7.5 -46t-5.5 -47l-66 -307q-5 -25 1 -40.5t18 -24t27 -11.5t26 -3h131q13 0 29.5 3t31.5 12t27.5 25t18.5 43l23 113q3 16 3 31.5t-4.5 27.5 t-14 19.5t-24.5 7.5q-11 0 -20.5 -6t-17.5 -14q-9 -9 -17 -20q-3 11 -7 20q-4 8 -10.5 14t-17.5 6q-23 0 -40 -13.5t-22 -32.5q-5 -23 0.5 -36.5t16.5 -20.5t25 -9.5t25 -2.5l-8 -41q-17 0 -39 4t-40.5 16t-29 34t-2.5 58q3 13 12 29t23 29.5t32.5 22.5t40.5 9q15 0 25 -3.5 t17 -8.5q8 -5 13 -12q6 7 16 12q8 5 20 8.5t27 3.5q25 0 40.5 -11.5t24 -30.5t9 -42.5t-4.5 -47.5l-23 -108q-8 -37 -24.5 -62t-37.5 -40.5t-44.5 -22t-44.5 -6.5h-159z" />
<glyph unicode="&#xe53;" horiz-adv-x="515" d="M425 321q-29 0 -62 -37.5t-49 -112.5h-41q14 69 -2.5 109.5t-45.5 40.5q-33 0 -66.5 -35.5t-48.5 -107.5q-6 -28 -5 -54.5t9.5 -47t25.5 -33t43 -12.5q16 0 28 5q6 2 10 5l-9 -42l-12 -4q-5 -2 -12 -3t-15 -1q-31 0 -56 14t-41 39t-21 59t4 75q20 93 63.5 139t99.5 46 q30 0 48.5 -13.5t28.5 -30.5q11 -19 16 -43q15 24 34 43q17 17 40.5 30.5t53.5 13.5q55 0 81 -45t6 -140q-9 -42 -23 -74.5t-28 -55.5q-16 -27 -34 -48h-52q17 20 34 47q14 23 28.5 56t23.5 75q6 28 6 54t-6 45.5t-19.5 31.5t-34.5 12z" />
<glyph unicode="&#xe54;" horiz-adv-x="500" d="M224 310q-21 0 -39.5 -13t-33.5 -33t-26 -44.5t-16 -48.5q-5 -23 -5 -46t6.5 -41t19 -29.5t33.5 -11.5l183 -2q-24 15 -41 36q-14 18 -24 45.5t-2 64.5h53q-7 -32 0 -58.5t21 -46t32.5 -30.5t35.5 -11h50l-8 -41h-303q-35 0 -57.5 14.5t-35 38t-14.5 54.5t5 64 q7 34 23.5 66.5t40 58t52.5 41t61 15.5h170q16 0 31 3t28.5 11t23.5 23.5t15 40.5l28 132l51 1l-26 -122q-8 -37 -22.5 -62t-34.5 -40.5t-44 -22t-50 -6.5h-181z" />
<glyph unicode="&#xe55;" horiz-adv-x="500" d="M333 386q-3 -13 4 -21.5t20 -8.5h3q11 2 21 10t12 20q3 12 -4 21t-19 9q-13 0 -24 -9t-13 -21zM286 385q7 32 34 54.5t59 22.5t50 -22.5t11 -54.5q-3 -16 -13 -33q23 3 45 18t30 55l29 137h51l-27 -122q-8 -37 -22 -62t-33 -40t-41 -21.5t-47 -6.5h-188q-21 0 -40 -13 t-34 -33t-26 -44.5t-16 -48.5t-5 -47t6.5 -41.5t20 -30t35.5 -11.5h181q-24 15 -41 36q-14 18 -24 45.5t-2 64.5h53q-7 -32 -0.5 -58.5t20.5 -46t33 -30.5t37 -11h48l-8 -41h-303q-34 0 -57 14t-35 37.5t-14.5 54.5t5.5 65q7 34 23.5 66.5t40 58t52.5 41t61 15.5h51 q-3 15 0 33z" />
<glyph unicode="&#xe56;" horiz-adv-x="570" d="M230 211q-5 82 -9 140.5t-15 96t-31.5 55.5t-57.5 18l9 42h21q48 0 72.5 -26t36 -67.5t15 -92.5t8.5 -101q16 24 39 43q20 16 49.5 29.5t70.5 13.5q43 0 75 -13.5t51 -37t25 -56t-2 -69.5q-9 -41 -29 -77t-49.5 -62t-67.5 -41t-82 -15q-55 0 -92.5 29.5t-46.5 80.5h50 q4 -17 14 -30t23.5 -22t29.5 -13.5t31 -4.5q29 0 56 11.5t49.5 32t39 49t23.5 62.5q6 26 2 50.5t-17 43t-36 30t-55 11.5q-27 0 -49.5 -9t-41 -24t-33 -35t-23.5 -42h-53z" />
<glyph unicode="&#xe57;" horiz-adv-x="670" d="M413 311q-14 0 -30.5 -7.5t-32 -22.5t-28.5 -37.5t-19 -52.5h-31q6 26 2.5 48t-12.5 38t-22 25t-27 9q-33 0 -60 -30.5t-43 -102.5q-6 -28 -5 -54.5t9.5 -47t25.5 -33t44 -12.5q8 0 15 1t12 3t10 5l-9 -41q-4 -2 -10 -4q-5 -2 -12.5 -3t-15.5 -1q-29 0 -54 13t-41.5 37.5 t-22.5 59t3 77.5q10 46 27 79t38 54t44 31t43 10q29 0 47 -12.5t28 -27.5t13.5 -29t4.5 -17q1 2 10 15.5t25.5 29.5t40 28.5t52.5 12.5q21 0 39.5 -9.5t30.5 -30.5t15 -54t-7 -80q-9 -42 -25 -78t-31 -60q12 1 27 6t29.5 15.5t26.5 28t18 43.5l64 301q4 19 13.5 41.5t26 42 t42 32.5t62.5 13h14l-9 -42q-26 0 -43.5 -7t-28.5 -18.5t-17 -26t-9 -30.5l-64 -301q-8 -37 -25 -63t-38.5 -42.5t-45.5 -24.5t-46 -8h-77q17 20 33 47q14 23 28.5 56t23.5 75q6 28 7.5 52.5t-3.5 42.5t-17 28t-33 10z" />
<glyph unicode="&#xe58;" horiz-adv-x="500" d="M439 131h51l-6 -26q-8 -32 -23 -54t-36 -35.5t-45.5 -19t-49.5 -5.5q-28 0 -46 7t-29 15q-13 10 -20 23q-10 -13 -23 -23q-11 -8 -27.5 -15t-39.5 -7q-21 0 -41 11.5t-33.5 34.5t-17.5 58.5t6 82.5q7 32 24 63.5t43.5 56t61 39.5t76.5 15h141q16 0 31 3t27.5 11 t22.5 23.5t16 40.5l29 132h51l-27 -125q-15 -69 -55.5 -97.5t-93.5 -28.5h-154q-26 0 -49.5 -11.5t-42.5 -30.5t-32 -43.5t-19 -50.5q-6 -28 -6.5 -54t6 -46t20 -32t36.5 -12q18 0 33 9.5t26 21.5q12 13 23 31q6 -18 18 -31q11 -12 28.5 -21.5t45.5 -9.5q12 0 27 3.5 t28.5 12t24.5 22.5t15 36z" />
<glyph unicode="&#xe59;" horiz-adv-x="610" d="M641 562h51l-26 -122q-7 -31 -18 -60t-27 -51t-37 -35t-48 -13q-29 0 -46 11t-29 24t-22 24t-26 11q-15 0 -27.5 -5.5t-22 -14t-15.5 -18.5t-8 -19q-2 -7 -1 -10l4 -55q1 -13 2 -31.5t3 -46t4.5 -64.5t5.5 -87h-46l-17 247q-1 10 -4 23.5t-10.5 25t-20.5 19.5t-33 8 q-14 0 -31 -9t-33.5 -27.5t-31 -45.5t-21.5 -63q-6 -27 -6 -53.5t7.5 -47.5t23.5 -33.5t43 -12.5q15 0 25 4q4 2 8 5l-9 -41q2 1 -7 -3.5t-24 -4.5q-30 0 -54.5 13t-40 37.5t-21 59t3.5 77.5q10 46 30.5 80.5t46 58t53 35t50.5 11.5q34 0 52 -13.5t31 -28.5q20 34 45.5 52.5 t54.5 18.5q22 0 37 -11t27.5 -24.5t24.5 -24.5t29 -11q25 0 44.5 33.5t30.5 85.5z" />
<glyph unicode="&#xe5a;" horiz-adv-x="500" d="M162 422q2 -42 16.5 -66t57.5 -24q44 0 84 23t60 67h51l-59 -279q-8 -36 -16.5 -62.5t-22 -44.5t-33 -27t-48.5 -9l8 41q10 0 18 2t15 12t13.5 30.5t14.5 57.5l48 225q-16 -21 -37 -38q-18 -14 -44 -26.5t-58 -12.5q-60 0 -91 32.5t-28 98.5h51zM405 0l89 422h51 l-90 -422h-50z" />
<glyph unicode="&#xe5b;" horiz-adv-x="705" d="M211 -9q-36 0 -65.5 14t-48.5 38.5t-26 57t1 69.5q9 40 29 75t48.5 61.5t63.5 41.5t74 15q55 0 83 -20t39 -43q13 -28 12 -63h-49q-1 24 -11 42q-9 16 -28 29t-55 13q-27 0 -52.5 -12.5t-46.5 -33.5t-35.5 -48t-20.5 -57q-6 -28 -2.5 -53t16 -44t33.5 -30.5t50 -11.5 q26 0 47.5 7.5t37.5 16.5q18 11 32 24l41 -50l50 50l35 -50l51 49q7 -13 17 -24q8 -9 18.5 -16t24.5 -7q28 0 41 15.5t15 24.5q4 22 -1 36q-3 7 -6 11h52q3 -5 6 -11q2 -5 3 -13.5t-1 -20.5q-2 -7 -7 -21t-16.5 -27.5t-31 -23.5t-49.5 -10q-19 0 -33 7t-23 15q-11 10 -18 23 l-52 -49l-35 49l-50 -49l-41 49q-15 -13 -33 -23q-16 -8 -37 -15t-46 -7z" />
<glyph unicode="&#x2000;" horiz-adv-x="450" />
<glyph unicode="&#x2001;" horiz-adv-x="900" />
<glyph unicode="&#x2002;" horiz-adv-x="450" />
<glyph unicode="&#x2003;" horiz-adv-x="900" />
<glyph unicode="&#x2004;" horiz-adv-x="300" />
<glyph unicode="&#x2005;" horiz-adv-x="225" />
<glyph unicode="&#x2006;" horiz-adv-x="150" />
<glyph unicode="&#x2007;" horiz-adv-x="150" />
<glyph unicode="&#x2008;" horiz-adv-x="112" />
<glyph unicode="&#x2009;" horiz-adv-x="180" />
<glyph unicode="&#x200a;" horiz-adv-x="50" />
<glyph unicode="&#x2010;" horiz-adv-x="260" d="M77 190l9 43h186l-9 -43h-186z" />
<glyph unicode="&#x2011;" horiz-adv-x="260" d="M77 190l9 43h186l-9 -43h-186z" />
<glyph unicode="&#x2012;" horiz-adv-x="260" d="M77 190l9 43h186l-9 -43h-186z" />
<glyph unicode="&#x2013;" horiz-adv-x="365" d="M77 190l9 43h291l-9 -43h-291z" />
<glyph unicode="&#x2014;" horiz-adv-x="555" d="M77 190l9 43h481l-9 -43h-481z" />
<glyph unicode="&#x2018;" horiz-adv-x="125" d="M164 360h-51l12 56q5 21 19 40.5t30 34.5q18 18 40 32h38q-18 -19 -34 -37q-14 -16 -26 -34.5t-16 -35.5z" />
<glyph unicode="&#x2019;" horiz-adv-x="125" d="M147 523h51l-12 -57q-5 -22 -19 -41t-30 -33q-18 -17 -40 -32h-38q19 18 35 36q14 16 25.5 34.5t15.5 35.5z" />
<glyph unicode="&#x201c;" horiz-adv-x="235" d="M267 360h-52l12 56q5 21 18.5 40.5t29.5 34.5q18 18 40 32h40q-18 -19 -34 -37q-14 -16 -26 -34.5t-16 -35.5zM165 360h-52l12 56q5 21 19 40.5t30 34.5q18 18 40 32h40q-19 -19 -35 -37q-14 -16 -26 -34.5t-16 -35.5z" />
<glyph unicode="&#x201d;" horiz-adv-x="235" d="M147 523h52l-12 -57q-5 -22 -19.5 -41t-29.5 -33q-18 -17 -39 -32h-40q19 18 35 36q14 16 25.5 34.5t15.5 35.5zM250 523h51l-12 -57q-5 -22 -19 -41t-30 -33q-18 -17 -40 -32h-40q20 18 36 36q14 16 26 34.5t16 35.5z" />
<glyph unicode="&#x2022;" horiz-adv-x="247" d="M187 300q37 0 57 -25t12 -62q-8 -36 -38.5 -61.5t-67.5 -25.5q-18 0 -32.5 7t-23.5 18.5t-12.5 27.5t0.5 34t14 34t24.5 28t31.5 18.5t35 6.5z" />
<glyph unicode="&#x2026;" horiz-adv-x="545" d="M457 0l11 53h50l-10 -53h-51zM247 0l11 53h50l-10 -53h-51zM37 0l11 53h50l-10 -53h-51z" />
<glyph unicode="&#x202f;" horiz-adv-x="180" />
<glyph unicode="&#x205f;" horiz-adv-x="225" />
<glyph unicode="&#x20ac;" horiz-adv-x="495" d="M93 266l10 46h58q17 41 44.5 74.5t63 57t77 36.5t86.5 13q32 0 67.5 -3.5t57.5 -14.5l-25 -42q-26 14 -51 16t-57 2q-69 0 -124.5 -37t-87.5 -102h202l-10 -46h-209q-2 -8 -3.5 -15t-3.5 -15q-2 -7 -3 -13l-2 -12h189l-9 -45h-183q3 -63 42.5 -99t111.5 -36 q19 0 33.5 1.5t28 5t27 8.5t29.5 13l8 -42q-32 -17 -68 -21.5t-73 -4.5q-90 0 -139 46.5t-52 128.5h-56l9 45h50l6 25q2 8 3.5 15t3.5 15h-51z" />
<glyph unicode="&#x2122;" horiz-adv-x="387" d="M451 485l-35 -168h-16l30 142l-95 -142h-10l-33 142l-29 -142h-19l36 168h26l29 -139l94 139h22zM255 485l-3 -15h-47l-32 -153h-20l32 153h-49l4 15h115z" />
<glyph unicode="&#x25fc;" horiz-adv-x="350" d="M0 350h350v-350h-350v350z" />
<glyph horiz-adv-x="405" d="M151 0l-6 162q-2 8 -7 8.5t-13 0.5h-18l8 41h38q23 0 29 -6.5t8 -14.5l12 -150q37 0 66.5 16t51.5 42t36.5 58t21.5 64q9 43 2 75t-24 53.5t-43 32t-54 10.5q-37 0 -66 -14t-49 -31q-24 -20 -41 -45l-8 45q15 24 40 42q21 16 53 29.5t80 13.5q43 0 76 -13q10 3 24.5 8 t28 12.5t24 17.5t13.5 24h51q-5 -20 -16 -34t-25.5 -23.5t-31 -15.5t-31.5 -10q35 -29 47 -75.5t1 -101.5q-9 -43 -29 -83t-49 -70.5t-67 -49t-83 -18.5h-50z" />
<glyph horiz-adv-x="680" d="M390 276q7 36 -1.5 58.5t-27 35t-42.5 17t-46 4.5q-29 0 -53 -10.5t-42 -22.5q-21 -14 -38 -32l49 -50q-7 -7 -13 -18q-5 -10 -11 -24.5t-11 -37.5l-29 -135q-2 -8 -2 -13.5t8 -6.5h29l-8 -41h-36q-26 0 -37.5 14t-3.5 52l28 130q4 19 10.5 33.5t12.5 25.5q7 12 15 21 l-25 25q-10 9 -18 16.5t-7 8.5q21 29 50 53q25 20 60.5 36.5t82.5 16.5q32 0 64 -7t56 -23.5t36.5 -42.5t4.5 -63l-33 -157q-3 -17 -4 -36t4.5 -35t19 -26.5t38.5 -10.5h42q25 0 44 10.5t32 26.5t21 35t12 36l60 283h51l-59 -279q-6 -29 -18.5 -56.5t-32 -48.5t-45.5 -34 t-59 -13h-80q-34 0 -52.5 13.5t-25.5 35t-5.5 49t7.5 54.5z" />
<glyph d="M-63 640q23 0 37.5 3.5t23.5 8.5q11 5 17 13l-9 -41q-5 -6 -16 -10q-9 -4 -23.5 -6.5t-37.5 -2.5h-50q-30 0 -43 -12t-17 -29q-2 -9 -0.5 -20.5t15.5 -11.5q11 0 18 4.5t12 9.5q4 6 7 15h19q0 -9 3 -15q2 -5 6.5 -9.5t14.5 -4.5q17 0 26.5 10.5t11.5 18.5h44 q-6 -27 -29 -45.5t-50 -18.5q-11 0 -20 2.5t-15 5.5q-7 4 -12 9q-5 -5 -12 -9q-6 -3 -16 -5.5t-25 -2.5q-6 0 -15 3t-16.5 11t-11 20.5t0.5 32.5q6 26 19.5 41.5t29 23t30.5 9.5t23 2h60z" />
<glyph d="M158 687l-24 -42h-94q-23 0 -33 13t-7 28q2 13 -2.5 16.5t-10.5 3.5h-31l9 41h61q15 0 25 -12.5t7 -27.5q-2 -8 2.5 -14t12.5 -6h85z" />
<glyph d="M20 733q4 5 9 9t11.5 7t16.5 3q29 0 41 -15t7 -35q-2 -8 0.5 -9t7.5 -1h46l-24 -42h-41q-28 0 -33 12.5t-2 27.5q2 12 -2.5 19t-11.5 7q-10 0 -16.5 -9.5t-8.5 -20.5h-19q2 10 -0.5 20t-8.5 10q-8 0 -17.5 -8t-12.5 -22q-2 -10 0 -16.5t4 -11.5q3 -5 7 -8h-52q-3 3 -6 8 q-2 5 -3.5 11.5t0.5 16.5q6 27 28.5 46.5t51.5 19.5q10 0 15.5 -3t8.5 -7q4 -4 4 -9z" />
<glyph horiz-adv-x="700" d="M349 -153q-3 -14 -11 -23.5t-16 -17.5q-10 -9 -21 -15h-15l104 485q7 36 -1.5 58t-26.5 35t-42 17.5t-46 4.5q-29 0 -53.5 -10.5t-42.5 -22.5q-21 -14 -39 -32l50 -50q0 1 -12.5 -16t-22.5 -64l-29 -135q-2 -10 0.5 -14.5t8 -5.5t12.5 -0.5t14 0.5l-8 -41h-35 q-29 0 -39.5 15t-2.5 51l28 130q4 19 10.5 33.5t12.5 25.5q7 12 15 21l-25 25q-10 9 -18 16.5t-7 8.5q21 29 50 53q24 20 59.5 36.5t81.5 16.5q24 0 47.5 -3.5t44.5 -12t38 -21t26 -30.5q5 7 16 18.5t28.5 22t41 18.5t54.5 8q27 0 55 -8.5t48 -27.5t29.5 -48.5t0.5 -71.5 l-91 -429q-3 -14 -11 -23.5t-16 -17.5q-10 -9 -22 -15h-14l102 475q7 32 2 55.5t-19 39t-35.5 23t-47.5 7.5q-36 0 -58 -13.5t-34.5 -30.5t-17 -31.5t-4.5 -15.5z" />
<glyph horiz-adv-x="700" d="M125 66q-8 -38 -24 -52t-45 -14h-35l8 41h30q6 1 10.5 8.5t7 18.5t4.5 22.5t4 20.5l18 85q4 19 10.5 33.5t12.5 25.5q7 12 15 21l-25 25q-10 9 -18 16.5t-7 8.5q21 29 50 53q25 20 60.5 36.5t80.5 16.5q24 0 48 -3.5t45 -12t37.5 -21t25.5 -30.5q6 7 17 18.5t28 22.5 t40.5 18.5t54.5 7.5q27 0 55 -8.5t48 -27.5t29.5 -48.5t0.5 -71.5l-91 -429q-3 -14 -11 -23.5t-16 -17.5q-10 -9 -22 -15h-14l102 475q7 32 2 55.5t-19 39t-35.5 23t-47.5 7.5q-45 0 -69.5 -19t-35.5 -42.5t-13.5 -44t-2.5 -22.5l-89 -416q-3 -14 -11 -23.5t-16 -17.5 q-10 -9 -21 -15h-15l104 485q8 37 -1 59.5t-27.5 35t-43 16.5t-46.5 4q-29 0 -53 -10.5t-42 -22.5q-21 -14 -38 -32l49 -50q-7 -7 -13 -18q-5 -10 -11 -24.5t-11 -37.5z" />
</font>
</defs>
</svg>
